<?xml version="1.0" standalone="no"?>
<!DOCTYPE svg PUBLIC "-//W3C//DTD SVG 1.1//EN" "http://www.w3.org/Graphics/SVG/1.1/DTD/svg11.dtd">
<svg width="100%" height="100%" viewBox="0 0 251 279" version="1.1" xmlns="http://www.w3.org/2000/svg" xmlns:xlink="http://www.w3.org/1999/xlink" xml:space="preserve" style="fill-rule:evenodd;clip-rule:evenodd;stroke-linejoin:round;stroke-miterlimit:1.41421;">
    <path d="M195.3,66.3C194.9,66.4 194.4,66.5 194,66.7C188.5,69 181.9,77.3 175.1,90.4C172.6,95.1 169.9,98.4 166.8,100.4C166,100.9 165.2,101.3 164.4,101.7C160.9,103.2 157.1,103.2 152.5,101.8L152.2,101.7C152,101.5 151.8,101.4 151.6,101.3L149.1,99.6L151.7,99.3C153,99.2 154.2,98.8 155.4,98.4C160.1,96.4 164.5,91.5 168.8,83.3C169.3,82.4 169.9,81.3 170.5,80.3L170.7,80L170.1,79.6L169.9,79.9C169.3,80.8 168.8,81.7 168.1,83C164,91 159.7,95.7 155.2,97.7C152.6,98.8 149.9,99 146.8,98.4L146.4,98.2L146,98L144.2,97L146.2,96.2L146.4,96.7L146.3,96.2C150.5,94.4 154.6,88.9 161.5,75.8C164.3,70.6 168.6,66.9 174.5,64.9L174.9,64.8L174.7,64.1L174.3,64.2C172.3,64.9 170.5,65.8 168.8,66.9C165.4,69.1 162.8,72 160.9,75.5C154.9,87 151.1,92.4 147.5,94.8C147,95.1 146.5,95.4 146,95.6C144.9,96.1 143.7,96.3 142.3,96.3L142.1,96.3L142,96.2L141.5,96L141.2,95.9L139.1,95.1L140.6,94.1C143.4,92.3 145.5,87.8 148.8,81.1C150.5,77.7 152.5,73.6 155.1,68.6C156.8,65.4 159.6,62.9 163.3,61.3C167.3,59.6 172.2,59 178.1,59.5C187,60.2 193.3,63.2 195.6,64.8L197.4,66L195.3,66.3ZM170.5,129.9L170.6,130.3C170.5,132.9 169.6,135 167.7,137L166.4,138.4L166.1,136.5C164.1,126.6 159.7,118.5 153,112.5C146.2,106.5 137.4,102.9 126.8,101.8L125.8,101.7L126,100.7C126.4,99 126.7,97.3 126.9,95.2L126.9,94.2L127.9,94.3C148.1,97.3 164,110.6 170.5,129.9ZM170.6,139.6C168.5,144.5 164.1,149.1 156.7,153.9C152.4,156.7 147.1,159.6 140.4,162.8C133.3,166.2 129.3,170.5 128.8,175.4C128.2,180.7 131.8,185.7 134,188.2L137.4,192.3L132.7,189.7C127.2,186.6 123.7,181.7 123,176.2C122.2,169.6 125.7,163.4 132.7,158.9C133.9,158.1 135.3,157.3 136.8,156.6L139.1,155.5C150.3,150.2 158.3,146.3 163.7,142.8C166,141.3 167.7,140 169,138.6L172.5,134.9L170.6,139.6ZM123.9,100.5L122.9,100.2C119.7,99.2 113.9,97.3 109.7,95.8L108.8,95.5L109.5,93.6C110.2,91.8 110.6,90.3 110.9,89L111.1,88.1L117.3,89.3C120,89.8 122.5,90.3 124.2,90.6L125,90.7L124.9,92.7L124.7,94.1L124.8,94.1L124.7,95C124.5,96.4 124.3,97.9 123.9,99.6L123.9,100.5ZM123.5,102.1C122.2,107 120.3,111.1 117.9,114.4C116.8,115.8 115.9,117.1 115.1,118.2C112.7,121.5 111.2,123.7 108.9,125.2C108.3,125.6 107.7,125.9 107.1,126.2C106.7,126.4 106.3,126.5 105.7,126.7L105.1,126.9L104.7,126.4C103.2,124.4 100.4,120.3 98.9,118.2L98.6,117.7L98.9,117.2C102,112.8 104.8,106 108.2,97L108.5,96.1L109.4,96.4C113.6,97.9 119.4,99.9 122.9,100.9L123.8,101.2L123.5,102.1ZM102.6,127.4C101.1,127.7 99.2,127.9 96.8,128.1L96.1,128.2L95.8,127.6C95.2,126.3 94.3,124.4 93.6,122.9L93.3,122L94.1,121.6C95.1,121.2 96.1,120.4 97.1,119.2L98,118.2L98.6,119.3C99.6,120.8 101.4,123.7 103.1,125.8L104.1,127L102.6,127.4ZM94.6,127L95.3,128.3L93.8,128.4C93.1,128.5 92.5,128.5 91.8,128.6L89.8,128.7L89.5,128.1C89.2,127.4 88.9,126.8 88.7,126.1L88.2,125L87.8,124L88.7,123.7C89.9,123.3 90.9,122.9 91.6,122.6L92.5,122.3L93.1,123.8C93.6,124.7 94.1,125.9 94.6,127ZM88.5,127.4L89.1,128.7L87.6,128.7C85.2,128.7 82.9,128.3 80.8,127.6L77.5,126.4L81,125.8C82.7,125.5 84.4,125.1 86.3,124.6L87.1,124.4L87.5,125.1C87.7,125.7 88,126.4 88.5,127.4ZM75.4,124.3C67.3,124.5 59.6,121.9 52.4,116.5L50.8,115.2L50.7,115.1L50.6,115C40.2,106.3 45.2,98 52.8,88.1L53.1,87.7L53.6,87.7C56.7,87.9 59.3,87.1 61.2,85.6C66.3,81.5 65.4,73.7 65.3,72.8L65.2,72.1L65.9,71.8C67.8,71 69.5,69.3 70.5,67.5L70.5,67.4L71,66.4L71.8,66.7C76.2,68 81.2,67.8 86,67.6L86.1,67.6C90.7,67.4 95.5,67.2 99.3,68.6L100.7,69.3C101.7,69.8 102.4,70.4 103.1,71C104,72 105,73 105.8,74.1L106.8,75.4C110.2,80.4 110.4,85 107.5,92.7L106.8,94.7C106,96.8 105.1,99.2 104.1,101.6L103.8,102.5L102.8,102.1C99.2,100.4 95.5,98.4 94.1,97.6L93.6,97.3L93.5,97.3L93.2,97.1L92.8,97.8L93.1,98C94.3,98.7 98.6,101 102.6,102.9L103.4,103.3L102.6,105.1C102.2,106 101.8,106.9 101.5,107.7L101.2,108.4L100.5,108.3C94,107.2 78,97.6 73.4,92L73.2,91.7L72.6,92.2L72.8,92.5C77.1,97.7 92.1,107.3 99.8,108.9L101,109.1L100.5,110.2C98.1,115.2 96,118.2 94.1,119.4C93.9,119.6 93.6,119.7 93.3,119.8L92,120.3C88.6,121.7 82.9,124 75.9,124.3L75.4,124.3ZM49.2,116.6L50.1,117.3L49.2,118C47.6,119.3 46,120.5 44.4,121.5C42.8,122.5 41.4,123.3 40.2,123.8C38.7,124.4 37.6,124.6 36.8,124.3C36,124 35.8,123.2 35.7,122.6C35.7,122.2 35.5,121.8 35.3,121.5L35,121.2L35.2,120.7C36.6,115.7 38.5,111 41.2,106.6L42.5,104.4L43,106.9C43.6,110.3 45.7,113.6 49.2,116.6ZM33.1,119.8C32.3,118.8 31.8,116.6 31.3,113L31.3,112.9C31.3,112.8 31.3,112.8 31.3,112.7L31.3,112.6L31.3,112.5L31.3,112.4L31.2,112.2L31.3,112C35.1,102.9 43.3,91.6 46.6,87.1L47,86.6L48.1,86.9C48.6,87.1 49.1,87.2 49.5,87.3L50.9,87.6L50,88.6C47,92.6 43.8,97.3 43,102.2L43,102.3L42.9,102.5L42.4,103.3C40.4,106.4 37.1,111.6 34.8,119.5L34.2,121.4L33.1,119.8ZM30.7,106.9C30.3,97.8 31.8,90.4 35.5,84.2L35.9,83.6L36.6,83.8C38.9,84.3 41.4,84.5 43.3,84.5L43.6,84.5L46.2,86.3L45.6,87.1C43.1,90.4 36.8,99.1 32.6,107.3L31,110.4L30.7,106.9ZM30.5,76.4C29.3,72.8 30.9,67.7 34.8,62.5L35.8,61.3C38,58.7 40.4,56.6 42.6,55.5C43.9,54.8 45.5,54.4 47.6,54.3L48.1,54.3L48.3,56.1L47.8,56.2C45.9,56.7 44.4,57.5 43.5,58.7C42.9,59.5 42,61.4 43.2,64.2L43.4,64.7L42.9,65C42.7,65.3 42.5,65.7 42.5,66C42.4,66.4 42.4,66.8 42.5,67.2L42.7,68L41.7,68.4C40.6,68.9 39.5,69.4 38.6,70C36.2,71.5 34.5,73.4 33.5,75.6L33.4,76L34.1,76.3L34.3,76C35.3,73.8 37.2,71.9 39.8,70.3L43.2,68.3L44.8,66.1C44.9,66 45,65.9 45.2,65.7L45.3,65.6L46.3,65.1L46.9,65.5C47,65.6 47.1,65.7 47.2,65.7L48.6,66.5L47.1,67.4C46.7,67.7 46.2,67.8 45.7,67.7L40.5,72.3C38.7,74.4 37.5,77 37,79.7L36.7,81.6L34.3,80.9C32.3,79.8 31.1,78.4 30.5,76.4ZM6.8,43.3C5.4,41.3 4.2,39.4 3.4,37.7L2.3,35.3L4.7,36.4C8.8,38.3 13.5,39.3 16.6,39.6L17.5,39.7L17.5,40.5C17.4,42.2 17.7,43.5 18.3,44.4C19.5,46.4 21.8,46.8 24.5,47.4C25.6,47.6 27,48 28.6,48.5C30.4,49 33,49.5 36,49.9L36.3,50C38.8,50.4 41,50.8 43.2,51.3L46.8,52L43.2,53C42.5,53.2 42,53.5 41.5,53.7C39.2,54.9 36.7,57 34.4,59.7L34.1,60L33.6,60C18.9,59.1 8.7,45.9 6.8,43.3ZM2.1,33.6C2.1,33.1 2.1,32.9 2.1,32.7C2.5,31.3 3.8,30.4 6,29.8L6.3,29.7L18.5,33.7L18.3,34.5C18,35.9 17.8,37 17.7,38L17.5,38.9L16.6,38.8C12.7,38.4 6.6,36.9 2.5,34.3L2.1,34.1L2.1,33.6ZM12.5,29C14.3,29 16.2,29 18,29L20.1,29.1L19.7,30.3C19.5,30.9 19.3,31.5 19.1,32.1L18.8,33L7.1,29.2L12.5,29ZM22.2,29.5L23,28C24.9,24.6 27.8,21.2 31.8,17.4L33.1,16.2L33.4,17.9C33.7,20 34.6,23.3 36.7,26.3L36.9,26.6L37.5,26.2L37.3,25.9C34.7,22.2 34,18.1 33.8,16.1L33.8,15.6L34.1,15.3C34.7,14.8 35.3,14.2 35.9,13.8L37.2,12.7L37.5,14.3C38.4,20.2 41.9,26.4 44,30.2L44.2,30.4L44.7,31.2C45,31.8 45.3,32.3 45.5,32.7L45.7,33L46.4,32.7L46,32.4C45.7,31.9 45.3,31.1 44.7,29.9C42.4,25.7 38.4,18.7 38,12.5L38,12L39.5,10.8C40.8,9.7 42.3,8.5 43.5,7.5L44.7,6.5L45.1,8C48.3,21.3 53.9,39 56.6,45.5L56.8,45.8L57.5,45.5L57.3,45C54.5,38.5 48.6,19.7 45.5,6.3L45.3,5.8L45.7,5.4C46.7,4.4 47.3,3.6 47.5,2.9L47.7,2.6L47.9,2.5C48.2,2.3 49.3,1.8 52.2,2.1C59.1,2.9 70,7.4 75.4,10.9L76.8,11.8C78,12.7 78.6,13.3 79.1,13.9L79.3,14.1L79.6,14.2C80.4,14.5 83.1,15.9 83.6,18.7C83.9,20.4 83.4,22.3 82,24.3L81,25.6C80.4,26.4 79.8,27 79.1,27.7C70.7,36.1 66.3,43.9 65.3,52.2L65.2,53.2L64.2,53.1L64,53.1C62.6,52.9 61.1,53.3 59.7,54.2L59,54.8L58.5,54.4C52.3,50.4 42.9,48.9 36.6,47.9L36.2,47.8C33.3,47.3 30.8,46.9 29.2,46.4C27.7,45.9 26.3,45.6 25,45.4L24.9,45.4C22.3,44.8 20.7,44.4 20,43.3C19.1,41.9 19.4,38.6 20.8,33.2C21.2,31.9 21.6,30.7 22.2,29.5ZM82.6,11.6C85,11.9 87.6,12.6 90.1,13.6L91,14L86.8,23.5L84.8,24L85.3,22.5C85.8,21.1 85.9,19.7 85.7,18.5C85.2,15.8 83.2,14.2 82.1,13.4L78.9,11.2L82.6,11.6ZM93.8,15.3C94.7,15.8 95.5,16.3 96.2,16.8L96.9,17.3L96.6,18C95.7,19.5 94.8,21.1 94.3,22.1L94,22.5L93.5,22.5C92.9,22.6 92.2,22.6 91.4,22.7L89.3,23L92.9,14.7L93.8,15.3ZM97.6,17.7L98.6,18.4L98.7,18.4C99.7,19.2 100.6,20.1 101.4,21.1L102.9,22.9L100.6,22.7C99.4,22.6 98.1,22.5 96.5,22.5L94.9,22.5L95.7,21.1C96.1,20.3 96.6,19.5 97.1,18.6L97.6,17.7ZM64.9,67C65,66 65,65.1 64.9,64.2L64.6,62.4C64.2,60.8 63.5,59.3 62.4,57.8L61,55.7L62.3,55.4C62.8,55.3 63.3,55.2 63.7,55.3C63.9,55.3 64.1,55.4 64.2,55.4L64.5,55.5L66.3,56.6C66.9,57.2 67.5,57.9 67.9,58.7C69.1,60.7 69.6,62.7 69.3,64.6L69.3,64.7L68.7,66.5C68.1,67.6 67.3,68.6 66.3,69.3L64.8,70.4L64.9,67ZM59.6,66.9L53.4,66.5L59.5,65C60.3,64.8 61,64.6 61.7,64.5L62.9,64.2L62.9,67.3L61.8,67.2C61,67 60.3,66.9 59.6,66.9ZM60.6,58.9L61.2,59.9C61.4,60.3 61.7,60.7 61.9,61.2L62.4,62.2L61.3,62.5C60.5,62.7 59.7,62.9 58.7,63.2L54.5,64.2L57.7,61.6C58.4,61 59.1,60.4 59.7,59.8L60.6,58.9ZM58.4,58.2C57.2,59.4 55.5,60.7 53.8,61.9C52.6,62.7 51.6,63.2 50.7,63.6C49.9,64 49.3,64.1 48.8,64.1L48,64L47.7,62.6C47.7,61.8 48.2,61.3 48.7,61C49.2,60.7 50,60.3 51.1,59.8C52.1,59.4 53.1,58.9 54,58.4L54.4,58.2C54.5,58.1 54.6,58.1 54.7,58L54.8,57.9L55,58C55.7,57.6 56.1,57.2 56.4,56.7L57,55.8L58,56.5L59.1,57.6L58.4,58.2ZM55.4,77.7C54.5,77.7 53.5,77.8 52.3,77.1L51.8,76.8L52,74.7L53.2,75.2C55.1,76 56.6,75.8 57.8,75.6L57.9,75.6C58.2,75.6 58.4,75.5 58.7,75.5L59.3,75.4L59.3,74.6L58.9,74.6C58.7,74.6 58.4,74.7 58.2,74.7L57.7,74.8C56.6,74.9 55.5,75.1 54,74.6L50,73.2C50,74.2 50,75.2 49.8,76.2C49.4,78.5 48.8,80.6 47.9,82L47.7,82.5L47.1,82.5C46.4,82.5 45.8,82.5 45,82.5C42.9,82.4 40.5,82.4 38.3,82L37.4,81.8L37.8,79.7C38.6,75.7 41,72 44.4,69.8L44.9,69.5L45.3,69.6C46.3,69.8 47.3,69.7 48.2,69.2L49.1,68.7L49.6,70C49.6,70.4 49.7,70.7 49.8,71.1L49.9,71.2L50,71.4C50.1,72 50.1,72.6 50.2,73.2L54.5,72.8C55.7,72.7 56.9,72.4 58.1,72.1C60.5,71.5 61.8,71.4 62.5,71.5L63,71.6L63.6,73.5C64,76.8 63.3,81.6 60.3,84C60.1,84.2 59.9,84.3 59.7,84.4C59.3,84.6 59,84.8 58.6,85C57.2,85.6 55.6,85.8 53.6,85.6L52,85.4C51.3,85.3 50.6,85.1 50,85L48.7,84.7L49.5,83.6C50.4,82.3 51.1,80.6 51.6,78.8L51.9,77.7L52.9,78.1C53.9,78.5 54.8,78.5 55.6,78.4L56.3,78.4L56.3,77.7L55.4,77.7ZM109,26.8L110.4,27.4C115.5,29.8 118,32.6 118.1,32.8L118.8,33.5L118.1,34.1C117.8,34.4 117.3,34.9 117.2,35.6C117.1,36.6 117.9,37.4 118.2,37.7C118.9,38.4 119.5,38.8 120.2,39L120.8,39.2L120.9,39.9L120.9,41.2C120.9,47.5 116.2,57.3 106.2,63.8C104.5,64.9 102.6,65.9 100.7,66.8L100.4,67L100,66.9C95.8,65.3 90.6,65.6 85.9,65.7C81.1,65.9 76.1,66.1 72,64.8L71.4,64.5L71.4,63.8C71.4,61.8 70.9,59.8 69.6,57.7C68.9,56.6 68.2,55.7 67.3,54.9L67,54.6L67,54.2C67.2,51.2 67.8,41.9 80.4,29.4C81.2,28.6 81.9,27.8 82.6,26.9L82.8,26.7L83.1,26.6C90,24.7 96.4,24.2 102.2,25.1L103.9,25.4C105.7,25.7 107.3,26.2 109,26.8ZM116.1,26.2C125.3,25.7 137.2,29.7 138.6,32.3L138.7,32.4C139.2,33.6 139.1,34.1 139,34.7C138.8,35.9 138.8,37 140.5,39.5C143.2,43.5 144.2,46.1 136.9,54.9C132.6,60.1 128,64.3 123.3,67.3C121.3,68.6 119.2,69.7 117.2,70.6C114.2,71.9 111.1,72.6 108.1,72.9L107.6,73L107.3,72.7C106.4,71.6 105.6,70.7 104.7,69.7C104.6,69.6 104.4,69.5 104.2,69.3L104,69.1L102.8,68.1L104,67.4C105.1,66.8 106.1,66.2 107.2,65.6C114.8,60.7 123,51.7 123,41.2C123,38.4 122.8,37.4 121.1,37.2C120.8,37.2 120.4,37.1 119.9,36.7L119.1,36.1L119.9,35.3C120.9,34.3 121,33.2 120.1,32C120,31.9 118.6,30.1 115.5,28L113.2,26.4L116.1,26.2ZM121.8,71.7C122.8,73.9 123.6,76.4 124.2,79.2L124.4,80.4L123.3,80.4L119.7,80.4C116.9,80.4 113.9,80.4 112,80.5L111.3,80.5L111.1,79.8C110.7,78.5 110.3,77.4 109.6,76.2L109,75L110.3,74.8C113,74.4 115.5,73.6 117.9,72.6C118.9,72.2 119.7,71.8 120.6,71.4L121.4,71L121.8,71.7ZM124.6,81.8C124.9,84.1 125.1,86.4 125.1,88.6L125.2,89.7L124,89.5C122,89.2 119.1,88.6 116.8,88.2L114.2,87.7L111.3,87.1L111.4,86.2C111.6,84.7 111.7,83.4 111.5,82L111.4,81L124.5,80.9L124.6,81.8ZM170.2,180.6C170.1,185.8 172.3,190.2 176,192.1C179,193.7 182.6,193.7 186.6,192.2L190.5,190.7L187.6,193.7C186.8,194.5 186.2,195.3 185.6,196.2L185.4,196.4L185.2,196.5C183.2,197.3 181.3,197.7 179.4,197.5C173.6,197 168.4,192.2 166.7,185.4L166.3,183.9L166.5,183.6C167.1,182.5 167.8,181.4 168.4,180.2L170.2,176.7L170.2,180.6ZM194.4,191.5L194.5,191.3L194.8,191.2C196.4,190.5 197.9,189.9 199.5,189.4C200.7,189 201.6,188.6 202.4,188.3L202.7,188.2L203,188.3C203.8,188.5 204.6,188.5 205.4,188.5L208.4,188.3L206.1,190.2C205.5,190.7 204.8,191.2 204.2,191.6C203.2,192.3 202.2,192.8 201.2,193.2C199.7,193.8 198.2,194.2 196.7,194.3C195.9,194.3 195,194.5 194.2,194.7L191.1,195.6L193.2,193.2C193.6,192.5 194,192 194.4,191.5ZM193.3,176.9L196.1,178.5C196.7,178.9 197.3,179.1 198,179.2C200.2,179.6 202.5,178.9 203.7,178.4L203.9,178.3L204.8,177.9L205.2,179C205.3,179.1 205.3,179.1 205.3,179.3L205.4,179.5L205.3,179.9L205.3,180.1C205,181.7 205.6,183.4 206.8,184.6L208.2,185.8L206.3,186.2C206.2,186.2 206.1,186.2 206,186.2C205.4,186.3 204.6,186.4 203.8,186.3L202.2,185.9C201.2,185.6 200.3,185.1 199.4,184.5L198.5,184L198.6,183.9C197.5,183 196.5,182 195.4,180.7C195.2,180.4 195,180.1 194.8,179.8L193.3,176.9ZM197.1,176.3C198.1,176 200.1,175.5 203.4,175.4L204.2,175.4L204.4,176.3L204.4,176.4L204.6,177.2L203.5,177.7C201.6,178.5 199.7,178.8 198.2,178.5C197.8,178.4 197.5,178.3 197.1,178.2L197,178.2L194.7,177.2L197.1,176.3ZM207.9,177.4C208.8,177 210.3,177.5 211.8,178.5L212.5,179.1L212,179.8C211.9,180 211.9,180.2 212.1,180.6C212.2,180.9 212.4,181.3 212.5,181.7L212.5,181.9L212.4,182.2C212.4,182.3 212.3,182.4 212.2,182.6L212.2,182.7C211.9,183.3 211.5,183.7 211,184.1L210.7,184.3C210.5,184.5 210.2,184.6 209.9,184.8L209.6,185L209.2,184.9C207.7,184.5 205.7,182.7 206.1,180.1C206.1,180 206.3,179.2 206.4,179C206.6,178.4 207.2,177.6 207.9,177.4ZM205.5,172.1L205.8,171.8C206.1,171.6 206.4,171.4 206.7,171.3C207.4,171 208.2,170.9 209.3,170.9C210.6,171 211.7,171.9 212.6,173.6C213.1,174.5 213.5,175.6 213.7,176.8L213.9,177.6L212.5,178.1L212.1,177.8C210.9,177 209.2,176.2 207.7,176.8L207.6,176.8L207.4,176.9L206.7,177.3L205.6,175.8L205.6,172.1L205.5,172.1ZM219.6,183.2C219.8,183 220.1,182.9 220.3,182.7C220.6,182.5 220.9,182.3 221.2,182.1C222,181.6 222.8,181.2 223.6,180.8C224.1,180.6 224.7,180.4 225.2,180.2L225.8,180L226.4,179.8C227.5,179.4 228.9,178.9 230.4,178.6L230.8,178.5C230.8,178.5 231.1,178.5 231.5,178.4C234.2,178 236.6,178.4 238.7,179.5C242.4,181.5 245.4,185.8 247.7,192.4L248,193.3L246.8,193.7C243.4,194.9 233.9,193.9 231.8,192.1L231.5,191.9L231,192.5L231.3,192.7C233.9,195 243.9,195.6 247,194.4L248.2,194L248.5,194.9L248.5,195.1L248.6,195.2L248.8,195.9L248.6,196.2C247.8,197.9 245.7,202 242.3,204.2C241.8,204.5 241.3,204.8 240.7,205L240.4,205.1C238.1,205.9 235.7,205.7 233.1,204.3L232.6,204.1L232.6,203.5C232.5,201.5 231.7,199.7 230.1,198.1L227.2,195L231.2,196.6C232.3,197 233.2,197.3 233.9,197.5L234.3,197.6L234.5,196.9L234.1,196.8C230.2,196 222.7,192 218.3,188.3L218.1,188.1L217.9,187.7L217.6,187.3C217.2,186.6 216.8,186 216.4,185.3L215.5,184.1L217.9,183.7C218.1,183.7 218.1,183.7 218.3,183.6L219.1,183.4L219.1,183.3L219.6,183.2ZM209.5,166.2C208.4,165.3 207.9,164.4 207.9,163.6C208,161.4 211.2,159.1 215.3,156.3L215.7,156L217,155.1L218.9,153.7C220.7,152.4 223.4,150.5 225.6,149.2L227.6,148L227,150.2C226.6,151.5 225.6,153.3 224.9,154.3L224.7,154.6L225.3,155L225.5,154.7C226.5,153.3 228.1,150.5 227.9,148.7L227.8,147.8L228.7,147.6C229.1,147.5 229.3,147.5 229.6,147.6L229.8,147.6L230.1,147.8C230.4,148.1 230.9,148.6 231.4,149.4L231.6,149.7L231.5,150.6C231.3,154.9 229,161.8 225.4,166.1L225.2,166.4L225.8,166.9L226,166.6C229.4,162.7 231.3,157.1 232,153.2L232.4,150.8L233.7,152.8C236,156.5 241.2,165.4 240.5,169.8C240.2,171.4 239.2,172.8 237.5,174C236.9,174.4 236.2,174.8 235.4,175.1C233.5,175.9 231.7,176.3 231,176.4L230.7,176.5C230.5,176.5 230.4,176.5 230.3,176.6L229.5,176.7L228.7,176.9C227.6,177.2 226.6,177.5 225.9,177.8L224.7,178.2C224,178.4 223.4,178.6 222.9,178.8C222,179.2 221.1,179.7 220.3,180.2L219.9,180.5L218.8,181.3L218.5,180C217.6,177.5 215.3,170.9 209.5,166.2ZM230.3,206.1L230.3,206.3C230,207.4 229.3,208.4 228.2,209.1C227.9,209.3 227.5,209.5 227.1,209.7C225.1,210.6 222.3,210.8 218.9,211C216.4,211.2 214,211.3 212.3,212C211.6,212.3 211.1,212.7 210.7,213.2C209.6,214.6 208.3,215.6 206.9,216.3L203.6,217.8L205.7,214.9C208.9,210.4 210.2,204.1 210.9,200.2L211,199.8L210.3,199.7L210.2,200.1C209.3,204.5 207.6,212.7 203,216.7L202.6,217L202.2,216.9C198.1,216.3 193.9,212.7 191.5,207.7C189.8,204.1 189.5,201.2 190.7,199.2C191.3,198.3 192.2,197.5 193.4,197C194.3,196.6 195.4,196.4 196.6,196.3C198.4,196.2 200.1,195.7 201.8,195C202.9,194.5 204.1,193.9 205.2,193.2C208.5,191.1 211.1,188.2 212,186.5L212.9,184.6L213.8,185.7C214.8,186.8 215.4,187.9 216,189L216.1,189.1C217,190.7 218,192.5 220.2,194.2C221,194.8 221.9,195.3 222.9,195.9L223.4,196.2C228.1,198.9 231.6,201.3 230.3,206.1ZM188.9,207.3L187.1,206.5C186.4,206.2 185.9,205.8 185.5,205.3C184.6,203.8 184.9,201.5 186.6,198.6L186.8,198.3L186.7,198.2L187.1,198L187.5,197.7L187.5,197.8L189.5,196.7L188.5,199.1C187.7,200.8 187.7,202.9 188.4,205.4L188.9,207.3ZM136.1,246.5C135.8,251.1 138.3,256.8 143.5,263.3C148.7,269.9 154.9,275.1 156.1,276.1L159,278.5L155.2,277.7C152.8,277.2 148.8,274.4 146.9,273.1L146.4,272.8C141.8,269.6 128.5,255.6 133,248C133.4,247.3 133.9,246.6 134.4,245.9L136.3,243.4L136.1,246.5ZM137.6,243.3L138.1,243.2C138.5,243.1 139,243.1 139.5,243C140.7,242.9 141.9,242.6 143,242.2L143.2,242.1L143.4,242.1C150.5,243.2 158.4,251.1 165.1,264L165.2,264.1L165.2,264.2C165.8,267.9 165.9,270.2 165.5,271.2C165.2,271.9 164.7,272.4 164.1,272.9C163.9,273.1 163.6,273.2 163.2,273.3L161.6,273.9L161.7,272.4C162.1,262.5 155.7,254.9 150.9,250L150.7,249.7L150.2,250.2L150.5,250.5C155.4,255.5 161.9,263.3 161,273.5L161,274L160.5,274.3C159.8,274.7 159.1,275.1 158.6,275.7L158.1,276.3L157.4,275.8C151,270.8 133.6,254.3 137.5,243.5L137.6,243.3ZM148.6,239.8C150.6,239.5 152.8,239.8 154.8,240.7C157.7,242 159.9,244.4 160.8,247.2C161.1,248.2 161.4,249.2 161.7,250.1L163.6,256.7L160.4,252.5C156.5,247.2 152.4,243.5 148.3,241.6L145.5,240.3L148.6,239.8ZM156.3,237.1C166.9,237.2 176.1,244.7 179.8,252C181.4,255.1 180.6,256.7 179.7,257.4C179.6,257.5 179.5,257.6 179.4,257.6C179.2,257.7 179,257.8 178.7,257.9C175.3,259.3 168.4,257.7 165.5,255.4L165.3,255.2L165.2,254.9C164.4,252 163.6,249.2 162.7,246.5C161.7,243.3 159.1,240.5 155.8,238.9L152,237L156.3,237.1ZM186,58.5C177.3,56.4 168.8,56.7 162.7,59.2C158.6,60.9 155.4,63.7 153.4,67.5C151.3,71.5 149.6,74.9 148.1,77.9L146.9,80.4C142.8,88.7 141.2,92 138.7,93.1C137.2,93.7 135.6,93.5 133.1,92.9L131.1,92.7C130.3,92.5 129.5,92.4 128.7,92.3L127.3,92.1L127.3,91.3C127.6,83.5 126.3,75.9 123.7,70.5L123.3,69.7L124.5,68.9C129.4,65.7 134.1,61.4 138.5,56.1C146.7,46.2 145.3,42.8 142.3,38.2C141.1,36.3 141,35.7 141.1,34.9C141.2,34 141.3,33.1 140.7,31.5C138.9,26.9 120.4,22.1 110.8,24.9L110.5,25L110,25C108.5,24.4 107,23.9 105.5,23.5L105,23.4L104.9,22.8C104.3,21 102.6,18.9 100,16.8C98.5,15.5 96.6,14.3 94.5,13.2L93.7,12.8L92.8,12.4C89.1,10.7 83.5,8.8 77.4,9.4L77,9.5L76.7,9.3C69.4,4.4 55.1,-0.8 49,0C47.3,0.2 46.2,0.9 45.7,2C45.1,3.6 41.9,6.2 38.3,9.1L37.9,8.8L38.2,9.2C32.9,13.6 25.6,19.5 21.5,26.4L21.2,26.9L19.1,26.9C13.4,26.9 7.6,26.8 3.9,28.4C1.9,29.2 0.7,30.4 0.2,32.1C-0.6,34.8 2.1,40.3 5.2,44.5C7.8,48.1 17.2,59.8 31.1,61.8L32.6,62L31.8,63.2C29.9,66.2 26.9,72 28.5,77.1C29.3,79.5 30.8,81.3 33,82.5L33.9,82.9L33.4,83.8C29,91.6 27.6,101.2 29.2,113.3C30,119.8 31.3,121.6 33.3,122.5L33.7,122.8L33.8,123.2C34.2,125.2 35.3,126 36.2,126.3C37.4,126.7 39.2,126.5 41.3,125.6C44.1,124.4 47.6,122.1 51.2,119L51.8,118.5L52.4,119C59.2,123.8 66.6,126.3 74.3,126.3L74.7,126.3L75.1,126.7C76,127.5 80.9,131.3 89.1,130.8C99.4,130.1 104.6,129.6 108.1,128.1C111.6,126.6 113.5,124.2 116.8,119.6L117.2,119C117.9,118 118.7,117 119.5,115.8C122,112.4 124,108.2 125.3,103.3L125.5,102.5L126.3,102.6C147.9,104.8 162.2,117.9 165.6,138.4L165.6,139L165.2,139.3C160.6,142.9 152,147.2 138.1,153.8L135.9,154.9C134.4,155.6 133,156.4 131.7,157.3C124,162.3 120.1,169.3 120.9,176.7C121.9,185.4 129.4,192.6 139.6,194.6L140.2,194.7L139.7,192L139.5,191.4C139.3,190.9 139.1,190.5 138.9,189.9C136.7,184.6 134.1,178.5 145.2,171.4C147.1,170.1 149.5,168.9 152.1,167.6C156.3,165.6 160.1,163.4 163.5,160.9L165.4,159.5L165,161.8C162.3,175.8 156.9,190.8 135.7,204.6C132.2,206.9 128.3,209.1 124,211.2L123.7,211.4L124,212.1L124.3,211.9C128.4,209.8 132.3,207.7 135.8,205.4C158,190.9 163.5,174.7 166.2,159.3L166.3,158.8L166.6,158.6C168.6,156.9 170.3,155.2 171.8,153.5L173.6,151.4L173.5,154.1C172.7,174.3 162.1,192.4 142.9,206.2C138.3,209.5 133.7,212.7 128.8,215.8L127.4,216.6C123.2,219.3 119.4,221.5 115.8,223.6L114.9,224.1L115.9,225.9L116.8,225.4C119.1,224.1 121.4,222.8 123.6,221.4L125.7,220.1L125,222.4C123.5,227.4 123.8,232.2 125.8,235.9C127.4,238.9 130.1,241.1 133.5,242.1L134.9,242.5L133.8,243.6C132.9,244.5 132,245.7 131.2,247.2C125.7,256.6 140.9,271.7 145.2,274.7L145.7,275.1C149.9,278 154.6,281.2 157.7,279.8C158.4,279.5 159,279 159.4,278.3C160,277.4 160.7,276.8 161.8,276.4C162.1,276.3 162.5,276.1 162.8,276L162.9,276L164,275.6C164.5,275.4 164.9,275.2 165.2,275C166.2,274.4 166.9,273.5 167.4,272.4C168,271.2 168,268.8 167.4,265.3L167.1,263.6C166.8,262 166.4,260.4 166,258.8L165.6,256.9L167.4,257.8C170.8,259.4 175.9,260.3 179,259C179.4,258.8 179.8,258.6 180.1,258.3C181,257.5 182.3,255.7 180.4,251.9C175.8,242.8 162.1,233 148.2,238L148.1,238C146.6,238.3 145.2,238.8 144.1,239.6L144,239.7C143.8,239.8 143.6,239.9 143.4,240L143.2,240.1L141.7,240.7C141.2,240.9 140.8,240.9 140.2,241L139.1,241.1L139.1,240.7L138.1,240.6C133.1,240.4 129.5,238.3 127.5,234.6C125.1,230.1 125.6,223.7 128.9,217.8L129,217.6L129.3,217.5C130.3,216.9 131.3,216.2 132.3,215.6C136.3,213 140.1,210.4 144,207.6C151.9,201.9 158.6,195.3 163.7,188L164.7,186.5L165.3,188.2C167.8,194.7 173.2,199.3 179.1,199.7C180.2,199.8 181.2,199.7 182.3,199.6L183.8,199.4L183.4,200.8C182.5,203.7 183.1,205.5 183.8,206.5C184.9,208.2 186.9,209.1 189.3,209.1L189.8,209.1L190.1,209.6C193,215.1 197.5,218.7 202.2,219.2C205.8,219.6 209.5,218 212.2,214.7C212.4,214.4 212.7,214.3 213,214.1C214.2,213.6 216.7,213.4 218.9,213.3L219,213.3C221.7,213.1 225.1,212.9 227.8,211.7C229.9,210.8 231.2,209.5 231.9,207.7L232.2,206.8L233.1,207.2C235.8,208.3 238.5,208.5 241,207.5L241.3,207.4L241.5,207.3C242.1,207.1 242.7,206.7 243.3,206.3C248.2,203.1 250.7,196.7 250.7,196.6L250.8,196.3L250.7,195.9C248.1,186.4 244.5,180.5 239.5,177.9C239.3,177.8 239.1,177.7 238.9,177.7L238.7,177.6C238.7,177.6 238.6,177.6 238.5,177.5L236.9,176.8L238.3,175.8C240.5,174.3 241.8,172.5 242.1,170.3C243.1,163.4 233.2,148.4 231,146.5C229.9,145.5 228.4,145.5 226.3,146.4C225.2,146.9 223.9,147.6 222.3,148.6C220.7,149.6 219.1,150.8 217.4,152.1L215.5,153.4C215,153.8 214.5,154.1 213.9,154.5L213.8,154.6C209.8,157.3 205.7,160.2 205.6,163.5C205.5,165 206.3,166.5 207.9,167.8C208.1,167.9 208.2,168.1 208.4,168.2L208.7,168.5L210.5,170L208.1,170.2C206.4,170.3 205.2,170.8 204.5,171.8C204.3,172.1 204.2,172.4 204.1,172.7L203.8,173.4L203.2,173.4C199.4,173.5 196.5,174.1 194.7,175.1L192.8,176.7C192.7,176.8 192.6,177 192.5,177.2C192,178.2 191.8,179.9 193.7,182.2C194.3,183 194.9,183.7 195.6,184.3L196.1,184.7L195.6,185.6L195.5,185.7C192.4,188.3 189.6,190.2 186.8,191.3C182.7,193 179,193.1 176.1,191.5C171.9,189.2 169.9,183.8 170.9,177.6L170.1,176L170.3,175.6C173.7,167.5 175.4,159 175.3,150.4L175.3,148.2L175.4,148L175.5,147.9C176.9,144.1 177.8,141.3 178,140.1C178.9,134 176.9,128.1 172.6,124.2L172,124.3L174,127C176.8,130.7 177.9,135.3 177.3,140.1C176.8,143.2 175.6,146.2 173.8,149.1L173.2,150.1C171.2,153 168.6,155.8 165.3,158.4L165.1,158.6C161.5,161.5 156.8,164.4 151.7,166.8C149.2,168 147,169.2 145.1,170.5C133.3,178.1 135.9,184.6 137.5,188.5L139.3,192.9L136,189.5C132.7,186.1 128.9,181 129.5,175.6C130,171 133.8,166.9 140.7,163.7C147.1,160.6 152.4,157.7 156.8,154.9C168.5,147.3 173.2,140.6 172.9,131.7L172.8,129.8C172.8,129 172.7,128.4 172.7,127.8L172.3,124.4L171.2,124.5L170.8,124.6L170.5,123.9C167.2,116.6 162.6,110.4 156.8,105.3L154.7,103.4L157.6,103.6C160.3,103.8 162.8,103.5 165,102.5C169.2,100.7 172.9,96.8 176,90.9C181.9,79.6 187.8,71.7 192.6,68.5C194,67.6 195.3,67.1 196.5,67L196.8,67L199.6,67.6L199.6,66.8C199.5,63.4 192.5,60.1 186,58.5Z" style="fill:url(#tag1);"/>
    <defs>
        <linearGradient id="tag1" x1="0" y1="0" x2="1" y2="0" gradientUnits="userSpaceOnUse" gradientTransform="matrix(250.774,281.943,-281.943,250.774,0.375077,-1.62112)"><stop offset="0%" style="stop-color:rgb(203,89,110);stop-opacity:1"/><stop offset="100%" style="stop-color:rgb(116,54,110);stop-opacity:1"/></linearGradient>
    </defs>
</svg>
