<?xml version="1.0" standalone="no"?>
<!DOCTYPE svg PUBLIC "-//W3C//DTD SVG 1.1//EN" "http://www.w3.org/Graphics/SVG/1.1/DTD/svg11.dtd">
<svg width="100%" height="100%" viewBox="0 0 95 92" version="1.1" xmlns="http://www.w3.org/2000/svg" xmlns:xlink="http://www.w3.org/1999/xlink" xml:space="preserve" style="fill-rule:evenodd;clip-rule:evenodd;stroke-linejoin:round;stroke-miterlimit:1.41421;">
    <path d="M36.3,71.5L36.6,72.3C38.5,79.5 42.4,88.6 45.8,91.2C46.9,92 48.1,92.3 49.5,92.1C53,91.5 56.4,87.4 57.3,86.2L57.9,85.4L58.7,86C61.5,88 64.6,89.3 67.9,89.8C68.8,89.9 69.8,90 70.8,90C79.9,90 89,84.1 90.4,80.3C90.5,80.1 99.2,53.6 93.3,45C91.5,42.4 88.6,40.9 84.7,40.6L82.5,40.4L84,38.8C84.6,38.1 85,37.7 85.4,37.1C89.8,30.9 90.7,21.1 88.1,7.9L88,7.5L87.7,7.3C87.6,7.2 81.5,1.5 74.1,0.2C72.6,0 71,-0.1 69.5,0.1C65.8,0.5 62.6,2.4 59.9,5.7L59.2,6.6L58.3,5.7C56.3,3.7 53.5,2.3 50,1.7C48.3,1.4 46.4,1.2 44.4,1.2C38.5,1.2 32.4,2.5 28.3,3.3L26.5,3.7C25.9,3.9 25.4,4 25,4.1C18.7,5.1 6.3,15 5.9,29.4L5.9,30.1L5.3,30.4C2.3,31.8 0.4,34.3 0.1,37C0.1,37.4 0.1,37.7 0.1,38.1C0.3,41.2 2.6,44.4 6.9,47.2C9.8,49.2 12.9,50.4 16.3,51C17.9,51.3 19.6,51.4 21.5,51.4C24.3,51.4 27,51.1 29.3,50.8L31.5,50.5L30.4,52.4C29,54.7 28,57.5 27.3,60.8C27,62.3 26.8,63.7 26.9,64.9C27,67 27.7,68.6 28.8,69.7C29.8,70.7 31,71.3 32.5,71.6C33.4,71.8 34.5,71.8 35.5,71.7L36.3,71.5ZM39.3,73.6C38.7,71.4 38.2,69.3 37.8,67.4L37.6,66.3L39.1,66.1C40.4,65.9 41.9,65.7 43.2,65.4L43.9,65.2L44.3,65.7C44.7,66.2 45,66.5 45.4,66.8L46.1,67.3L45.8,68.1C44.9,70.6 42.4,72.9 40.9,74.1L39.6,75.1L39.3,73.6ZM44.5,59.3L46,59.5C46.3,59.5 46.6,59.5 46.9,59.5C48.8,59.3 50.6,57.9 51.9,55.7L53.3,53.5L53.9,56C54.1,57 54.3,58.5 54.2,60.2C54,62.4 53.3,63.8 52.1,64.4C51.4,64.8 49.9,65.6 48.6,65.6C48.4,65.6 48.2,65.6 48,65.5C47.7,65.4 47.5,65.4 47.2,65.2C46.8,65 46.2,64.5 45.6,63.4L45.5,63.1C45.2,62.4 44.9,61.6 44.7,60.7L44.5,59.3ZM42.1,81C41.5,79.6 40.9,78.1 40.4,76.6L40.2,75.9L40.7,75.4C42.1,74.4 45.5,71.7 46.7,68.4L47,67.6L48,67.7C48.1,67.7 48.2,67.7 48.4,67.7L49.7,67.8L49.3,69.1C48.3,72.7 46.5,76.7 44,81L42.9,82.9L42.1,81ZM47.8,90L46.6,88.9C45.6,87.9 44.6,86.4 43.6,84.4L43.3,83.8L43.8,83.3C47.1,78 49.4,72.8 50.4,68.3L50.6,67.7L51.1,67.5C51.5,67.4 51.9,67.2 52.3,67L54.8,65.8L53.6,68.8C53.5,69.1 53.4,69.3 53.3,69.6C52.4,71.5 52,73.4 52.1,75.4C52.1,75.5 52.1,75.6 52.1,75.6L52.2,76.2L52.1,76.4C51.6,78.4 50.1,84.9 48.3,88.7L47.8,90ZM55.6,84.6C54.3,86.3 52.7,87.9 51.3,88.9L48.4,90.9L49.7,87.6C50.4,85.7 51.1,83.5 51.8,81.1L52.6,78.6L53.8,80.9C54.2,81.6 54.8,82.4 55.6,83.3L56.2,84L55.6,84.6ZM83.1,43C84.1,43 85.1,43.1 85.9,43.2C88.4,43.7 90.2,44.7 91.4,46.4C95,51.6 91.8,67.2 89.4,75.6L88.8,77.9L87.5,75.8C84.7,71.3 79.6,65.4 73.9,62.4L73.6,62.2L73.1,63L73.5,63.2C79.9,66.6 85.4,73.5 88.1,78.7L88.3,79.1L88.2,79.5C87.8,80.7 86.6,81.8 85.4,82.6L84.5,83.3L84,82.4C82.3,80.1 79.3,78.1 79.2,78.1L78.9,77.9L78.4,78.6L78.7,78.8C79.9,79.6 81.9,81.2 83.1,82.7L83.9,83.7L82.8,84.3C80.5,85.6 75.9,87.7 70.8,87.7C69.9,87.7 69.1,87.6 68.2,87.5C68.1,87.5 67.9,87.5 67.8,87.4C62.5,86.4 57.8,83.3 55.6,79.3C54.1,76.4 54,73.4 55.3,70.4C59.8,60.5 58.4,50.8 57.6,47.1L57.3,45.6L59,46C60,46.2 61.3,46.3 62.8,46.3C64.1,46.3 65.4,46.2 66.9,45.9C67.3,45.8 67.8,45.7 68.4,45.7L68.6,45.7C69.8,45.5 71.3,45.3 72.9,44.9L73.8,44.7L73.8,44.8L74.7,44.5C74.8,44.5 75,44.4 75.1,44.4L75.3,44.3L75.4,44.3C76.6,43.8 79.8,43 83.1,43ZM60.8,9.3L60.5,8.7L60.9,8.2C63.3,4.7 66.2,2.8 69.7,2.4C71,2.2 72.4,2.3 73.9,2.6C79.4,3.6 84.3,7.5 85.7,8.6L86,8.8L86,9.1C86.4,11 86.6,12.7 86.8,14.8L86.9,15.8L86,16C80.3,17.1 70.3,22.4 68.5,25.9L68.3,26.3L69.1,26.7L69.3,26.3C70.9,23.2 80.5,18.1 85.9,16.9L87.2,16.6L87.2,17.9C87.3,19.5 87.3,21.3 87.2,23.2L87.2,24L86.4,24.2C82.6,25.1 77,28.1 75.9,30.3L75.7,30.7L76.5,31.1L76.7,30.7C77.6,28.9 82.4,26.3 85.5,25.4L87.1,24.9L86.9,26.6C86.4,30.4 85.2,33.5 83.5,35.9C81.5,38.8 78.5,40.8 74.6,42.1C74.4,42.2 74.2,42.2 74.1,42.2C71.8,42.9 69.7,43.2 68.2,43.4L68,43.4C67.4,43.5 66.9,43.6 66.4,43.7C65.1,43.9 63.9,44 62.7,44C61.1,44 59.9,43.8 58.8,43.7C58.4,43.6 58,43.6 57.5,43.5L54.4,44.2L54.5,44.4L54.1,44.9L53.5,45.8L55.2,46.8L55.2,47.3C55.4,48.2 55.6,49.1 55.7,50L56.1,53L53.9,51C53.8,50.9 53.7,50.8 53.5,50.7L53.2,50.5L53.1,50.2C52.9,49.7 52.4,48.8 52,48.1L49.4,52.2C49.5,52.4 49.6,52.5 49.8,52.7L50.5,53.3L50.2,54C49.7,54.9 48.4,56.9 46.7,57.1C46.6,57.1 46.6,57.1 46.5,57.1C46.4,57.1 46.2,57.1 46.1,57C45.6,56.9 45.1,56.6 44.7,56.2L43.7,55.1C43.6,55 43.6,54.9 43.5,54.8C41.7,52.3 42.9,49 44.4,47.8L44.5,47.7C44.8,47.5 45.5,46.9 46.6,47.1C47.3,47.2 47.9,47.6 48.5,48.3C49.3,49.1 49.4,49.8 49.5,50.4L49.5,51.7L51.2,45.9C51.2,45.8 51.2,45.7 51.3,45.6L51.5,44.8C51.7,44.2 51.8,43.7 51.9,43.1L52,42.6C52.1,41.8 52.3,41.1 52.3,40.4L52.3,40.3L52.4,40.1C56.1,32.6 65.2,22 69.8,19L70.1,18.8L69.6,18.1L69.3,18.3C65.5,20.8 59.3,27.5 55,33.9L51.2,39.6L53,33.1C53.3,31.9 53.6,31.1 54,30.4C54.5,29.4 55.2,28.3 56,27.1L56.5,26.3C59.7,21.6 63.8,15.5 60.8,9.3ZM19.4,9.3L19.8,9L20.4,9.2C28.2,11.9 34.4,21.7 37.7,26.9L38.1,27.5L38.8,27.1L38.6,26.7C35.7,22.2 30,12.9 22.7,9.2L20.7,8.2L22.8,7.3C23.8,6.8 24.6,6.5 25.4,6.4C26.3,6.2 27.6,6 28.8,5.7L29.3,5.6L29.7,5.8C32.2,7.4 35.5,10.7 37.6,15.3L37.8,15.7L38.6,15.4L38.2,15C36.9,12 34.7,9 32.2,6.8L30.6,5.3L32.7,4.9C35.7,4.3 40.1,3.6 44.4,3.6C46.3,3.6 48,3.7 49.5,4C52.7,4.6 55.2,5.8 56.9,7.7C58.5,9.5 59.4,11.4 59.5,13.4C59.7,17 57.4,20.7 54.8,24.8L54.7,25C53.7,26.5 52.8,28 52.1,29.3C50.3,32.9 50.2,35.7 50.2,38.3C50.1,40.3 50,42.2 49.3,44.6L49,45.7L47.4,45L46.3,44.2C44.7,43 40.9,41.4 36.2,40.5C34.3,40.1 32.3,40 30.5,40C27.2,40 24.3,40.6 21.7,41.7C20.7,42.1 18.7,42.9 16.5,42.9C16,42.9 15.4,42.9 14.9,42.8C14,42.6 13.2,42.3 12.4,41.8C9.7,40 8.2,36.1 8.1,30.5C8.1,20.9 13.9,13.3 19.4,9.3ZM29.4,48.4C27,48.7 24.3,49.1 21.4,49.1C19.7,49.1 18.1,49 16.6,48.7C13.5,48.1 10.7,47 8.1,45.2C4.2,42.6 2.2,39.7 2.4,37.2C2.5,35.9 3.2,34.7 4.4,33.7L5.8,32.4L6.1,34.3C6.7,38.7 8.4,41.8 11.1,43.6C12.1,44.3 13.2,44.7 14.5,44.9C17,45.4 19.8,44.9 22.6,43.7C26.2,42.1 30.8,41.8 35.7,42.7C36.6,42.9 37.4,43 38.4,43.3L42.1,44.3L38.4,45.4C36.9,45.9 35.4,46.6 34.1,47.7L34,47.9L33.7,47.9C32.4,48 31.1,48.1 29.4,48.4ZM29.8,59.9C30.8,55.8 32.5,52.6 34.6,50.5L36.1,49.2C37.2,48.4 38.2,47.9 39.2,47.7C39.2,47.7 39.3,47.7 39.4,47.7L41.6,47.1L40.7,49.1C40.3,50.1 40.1,51.3 40.1,52.5C40.2,54 40.7,55.3 41.5,56.5L41.9,57L42,58.8L40.8,58.7C37.6,58.4 34.5,59.1 32.3,60.5C32.2,60.6 32,60.8 31.8,60.9L31.5,61L28.9,63L29.8,59.9ZM32.1,66C31.9,66.3 31.8,66.6 31.7,66.8L31,69.7L29.6,67.1C29.4,66.8 29.3,66.4 29.3,66L29.2,65.7L29.3,65.4C30,63.5 31.1,62.1 32.7,61C35,59.6 37.6,59.3 39.4,59.3C40.3,59.3 41,59.4 41.4,59.4L42.2,59.5L42.3,60.3C42.4,60.8 42.5,61.4 42.7,61.8L42.9,62.9L41.8,63.1C40.9,63.3 39.9,63.4 38.8,63.6C38,63.7 37.1,63.8 36.3,64L34.3,64.5C33.3,64.9 32.5,65.3 32.1,66Z" style="fill:url(#tag1);"/>
    <defs>
        <linearGradient id="tag1" x1="0" y1="0" x2="1" y2="0" gradientUnits="userSpaceOnUse" gradientTransform="matrix(-95.1635,92.1826,-92.1826,-95.1635,95.2423,-0.200795)"><stop offset="0%" style="stop-color:rgb(203,89,110);stop-opacity:1"/><stop offset="100%" style="stop-color:rgb(116,54,110);stop-opacity:1"/></linearGradient>
    </defs>
</svg>
