<?xml version="1.0" standalone="no"?>
<!DOCTYPE svg PUBLIC "-//W3C//DTD SVG 1.1//EN" "http://www.w3.org/Graphics/SVG/1.1/DTD/svg11.dtd">
<svg width="100%" height="100%" viewBox="0 0 259 147" version="1.1" xmlns="http://www.w3.org/2000/svg" xmlns:xlink="http://www.w3.org/1999/xlink" xml:space="preserve" style="fill-rule:evenodd;clip-rule:evenodd;stroke-linejoin:round;stroke-miterlimit:1.41421;">
    <g>
        <path d="M256.9,61.3C256,60.8 255.2,62.2 256.1,62.7L256.2,62.7L256.2,62.8C256.1,63.1 255.8,63.7 255.5,64C254.4,65.5 252.9,66.7 251.4,67.8C250.8,68.3 250.2,68.7 249.7,69.1C249.7,65.4 249.5,61.7 248.9,58.1C248.3,54.2 247.2,50.3 244.9,47.1C243.9,45.7 242.6,44.4 241,43.6C239.9,43 238.6,42.4 237.3,42.4C235.2,42.5 233,42.8 230.9,43.1C224.5,43.9 218.2,44.8 211.8,45.6C211.3,45.7 210.8,45.7 210.3,45.8C211.3,43.8 212.3,41.8 213.3,39.9C215.3,35.9 217.1,31.9 218.7,27.7C219.4,26 220,24.3 220.5,22.5C220.7,21.7 220.9,20.9 221.1,20.1C221.3,20.5 221.4,20.9 221.5,21.4C221.7,22.6 221.7,24.7 223.1,25.3C224.8,26 226.8,25 226.9,23.1C227,21.1 225.7,18.9 224.7,17.3C223.7,15.6 222.5,13.9 221.1,12.3C220.4,11.5 219.5,11 218.7,10.6C217,9.7 215.1,9 213.2,8.5C209.4,7.5 205.3,7.3 201.4,7.7C197.1,8.1 192.9,9 188.6,9.7C184.1,10.4 179.6,11 175.1,11.1C172.9,11.1 170.7,11 168.5,10.6C166.6,10.3 164.8,9.9 163.2,8.9C160.4,7.2 158.3,4.5 155.7,2.6C152.8,0.6 149.2,0.3 145.7,0.1C141.8,4.08007e-15 137.9,0.4 134.1,1.1C126,2.6 118.1,5.3 110.4,8.2C106.8,9.5 103.3,10.9 99.7,12.3C96.3,13.6 92.9,14.8 89.5,16.1C84.3,18.2 79,20.7 75.1,24.8C71.4,28.6 69.7,33.6 69.1,38.9C68.9,40.6 68.8,42.3 68.8,44C68.8,44.1 68.8,44.2 68.8,44.3C62.5,46 56,48.9 52.4,54.6C50.8,57.1 50.1,60 50,62.9C49.7,63.1 49.3,63.2 49,63.5C46.5,65.2 44.2,67.3 42.1,69.4C39.4,71.9 36.9,74.6 34.5,77.4C33.5,78.5 32.6,79.6 31.8,80.8C31.3,81.5 30.7,82.4 30.6,83.3L30.6,83.4C28.8,84 27.2,85 25.8,86.4C23.4,88.9 22.2,92.3 21.8,95.6C21.6,96.9 21.6,98.2 21.6,99.5C21.6,99.6 21.6,99.6 21.7,99.7C19.4,100.3 17.2,101.6 15.6,103.5C13.7,105.9 13,109 13,112C13,112.1 13,112.1 13,112.2C11.7,112.4 10.6,112.8 9.5,113.7C7.1,115.7 6.6,119.2 6.6,122.2C6.4,122.3 6.3,122.4 6.2,122.5C4.8,123.8 4.6,126 4.6,127.8C4.6,127.9 4.6,128 4.7,128.1C3.8,128.3 3,128.8 2.4,129.3C0.9,130.5 0.1,132.3 1.73195e-14,134.2C-0.2,138.1 2.5,142 5.4,144.4C6.9,145.6 8.6,146.6 10.5,147C12.2,147.3 14,147.1 15.7,146.7C17.9,146.2 20.1,145.2 21.5,143.4C21.6,143.4 21.7,143.4 21.8,143.4C21.9,143.4 22,143.5 22.1,143.5C22.2,143.5 22.3,143.6 22.3,143.6C22.9,143.9 23.4,144.3 23.9,144.6C25.2,145.5 26.6,146.3 28.1,146.8C29.8,147.3 31.4,147 32.8,145.9C33.6,145.2 34.2,144.3 34.7,143.4C38.1,142.7 41.5,141.4 44.2,139.1C46.9,138.6 49.6,137.7 52.2,136.7C53.9,136 55.6,135.3 57.2,134.4C57.2,136.4 59.2,137.1 60.9,137.1C63.6,137.1 66.2,136.3 68.7,135.5C72,134.4 75.2,133.1 78.4,131.6C79.9,130.9 81.3,130.2 82.8,129.4C82.9,129.4 82.9,129.4 83,129.4C83.4,129.4 83.8,129.5 84.2,129.5C84.2,129.5 84.4,129.5 84.5,129.5C84.6,129.5 84.8,129.5 84.9,129.6C85.2,129.7 85.6,129.7 85.9,129.8C86.6,129.9 87.4,130 88.1,130.2C91.5,130.8 94.9,131.5 98.2,132.1C99.6,132.3 101,132.6 102.3,132.8C103,132.9 103.9,133.1 104.6,132.8C105.9,132.2 106.9,131.5 107.9,130.5L108,130.5C117.1,132 126.2,133.7 135.3,135.1C136.8,135.3 138.3,135.6 139.8,135.7C141.3,135.8 142.9,135.7 144.4,135.6C146.7,135.5 149.1,135.2 151.4,134.9C160.7,133.7 169.8,131.1 178.8,128.2C194.7,123 210.1,116 223.5,105.8C230.2,100.7 236.4,94.9 242.3,88.9C245.7,85.5 249.1,81.9 252.2,78.1C254.7,75 257.3,71.7 258.6,68C259.4,65.3 259.3,62.6 256.9,61.3ZM256.2,62.7L256.2,62.7ZM256.2,62.7L256.2,62.7ZM210.3,46.3C211.3,46.2 212.3,46.1 213.3,45.9C216.5,45.5 219.7,45.1 222.8,44.6C226.1,44.2 229.4,43.7 232.7,43.3C233.9,43.2 235,43 236.2,42.9C236.6,42.9 236.9,42.8 237.3,42.8C237.7,42.8 237.8,42.8 238.1,42.9C246.4,44.7 248.3,54.9 248.9,61.9C249.1,64.4 249.2,66.9 249.2,69.4C245.9,71.8 242.4,74 238.8,75.9C237,76.9 235.1,77.8 233.1,78.5C231,79.3 229.1,79.1 226.8,79.3C220.3,80 213.9,82.1 208.5,85.9C205.9,87.8 203.6,90.1 201.6,92.6C199.4,95.4 197.8,98.5 196.2,101.6C193.6,106.8 190.4,111.9 185.8,115.7C181.8,119 176.8,120.5 171.7,121.2C167.4,121.8 163.2,121.7 158.9,121.9C149.7,122.3 140.5,123 131.4,123.8C127.8,124.1 124.2,124.4 120.6,124.8C119.5,124.9 118.5,125 117.4,125.2C117.5,125 117.7,124.8 117.7,124.7C117.9,124.5 118.1,124.3 118.4,124.1C119.5,123.2 121.2,122.4 122.7,121.8C127.1,120.1 131.7,118.9 136.3,117.9C140.2,117 144.1,116.3 148,115.6C149,115.4 150,115.3 151,115.1C154.3,114.4 157.3,112.8 160.1,111.1C166.4,107.2 171.9,102 176.7,96.4C179.2,93.5 181.3,90.4 183.5,87.3C186.2,83.4 189,79.5 191.6,75.6C196.7,68.1 201.8,60.6 206.4,52.8C207.7,50.6 208.9,48.5 210,46.2C210.2,46.3 210.2,46.3 210.3,46.3ZM90,124.7C90.6,124.2 91.3,123.6 91.7,123C91.9,122.7 92,122.4 92.1,122.1C92.4,121.4 92.7,120.6 92.9,119.9C93.4,118.5 93.7,117 94,115.5C94.5,112.5 94.7,109.5 94.5,106.5C94.2,100.4 92.6,94.4 90.6,88.7C89.7,86 88.7,83.3 87.5,80.8C86.5,78.7 85.1,76.8 83.6,75C77.6,67.8 68.3,63.3 59.1,62.4C56.9,62.2 54.7,62.2 52.5,62.4C52.3,62.4 52,62.4 51.8,62.5C51.8,62.1 51.9,61.7 51.9,61.3C53.4,58.9 55.5,57 58.2,56C61.4,54.8 64.9,54.8 68.2,55.2C72,55.7 75.6,56.9 79.1,58.4C82.5,59.9 85.8,61.7 88.8,63.9C91.2,65.6 93.5,67.6 95.2,70.1C96.3,71.7 96.8,73.5 97.3,75.3C98.2,78.3 98.7,81.5 99.1,84.6C99.8,90.8 99.9,97.1 100.9,103.3C101.3,105.9 101.6,108.5 101.2,111.2C100.9,113.4 100.2,115.5 99.1,117.4C96.4,122.3 91.4,126 86,127.4C86.3,127.2 86.6,127 86.9,126.9C88,126.1 89,125.4 90,124.7ZM57,83.5C56.2,83.1 55.4,82.7 54.5,82.3C54.7,81.5 55.4,80.8 55.9,80.2C56.9,79 58,77.8 59.1,76.7C61.6,74.1 64.3,71.6 67.1,69.3C67.8,68.7 68.6,68.1 69.3,67.6C69.6,67.4 70,67.1 70.4,67C71.1,67.3 71.8,67.6 72.4,68C72.1,68.2 71.7,68.5 71.4,68.7C70.2,69.6 69,70.6 67.9,71.5C65.1,73.9 62.5,76.4 60,79.1C59.2,79.9 58.5,80.8 57.8,81.7C57.6,82.2 57.1,82.8 57,83.5C57,83.4 57,83.5 57,83.5ZM56.1,63.6C57.2,63.6 58.2,63.7 59.3,63.8C59,64 58.8,64.2 58.6,64.3C57.4,65.2 56.2,66.2 55.1,67.1C52.3,69.5 49.7,72 47.2,74.7C46.4,75.5 45.7,76.4 45,77.3C44.7,77.7 44.4,78.1 44.2,78.5C43.8,78.4 43.4,78.4 43.1,78.3C42.4,78.2 41.7,78.1 41,78.1C41,78 41.1,77.9 41.1,77.9C41.4,77.4 41.7,77 42.1,76.6C43.1,75.4 44.2,74.2 45.3,73.1C47.8,70.5 50.5,68 53.3,65.7C54,65.1 54.7,64.6 55.5,64.1C55.6,63.9 55.8,63.8 56.1,63.6ZM45.8,77C46.8,75.8 47.9,74.6 49,73.5C51.5,70.9 54.2,68.4 57,66.1C57.7,65.5 58.5,64.9 59.2,64.4C59.4,64.3 59.7,64.1 60,63.9C61,64 62,64.2 63,64.4C62.7,64.6 62.4,64.8 62.1,65C60.9,65.9 59.7,66.9 58.6,67.8C55.8,70.2 53.2,72.7 50.7,75.4C49.9,76.2 49.2,77.1 48.5,78C48.2,78.4 47.8,78.9 47.6,79.4C46.6,79.1 45.5,78.8 44.5,78.6C44.9,78.1 45.4,77.5 45.8,77ZM49.6,77.7C50.6,76.5 51.7,75.3 52.8,74.2C55.3,71.6 58,69.1 60.8,66.8C61.5,66.2 62.3,65.6 63,65.1C63.2,64.9 63.5,64.7 63.8,64.6C64.8,64.8 65.7,65.1 66.7,65.4C66.2,65.7 65.7,66 65.3,66.3C64.1,67.2 62.9,68.2 61.8,69.1C59,71.5 56.4,74 53.9,76.7C53.1,77.5 52.4,78.4 51.7,79.3C51.4,79.7 51.1,80.1 50.9,80.6C50,80.2 49.1,79.9 48.2,79.6C48.5,79 49.1,78.3 49.6,77.7ZM52.7,79C53.7,77.8 54.8,76.6 55.9,75.5C58.4,72.9 61.1,70.4 63.9,68.1C64.6,67.5 65.4,66.9 66.1,66.4C66.5,66.2 67,65.8 67.4,65.7C68.2,66 69,66.3 69.8,66.6C69.3,66.8 68.9,67.2 68.5,67.5C67.3,68.4 66.1,69.4 65,70.3C62.2,72.7 59.6,75.2 57.1,77.9C56.3,78.7 55.6,79.6 54.9,80.5C54.6,80.9 54.2,81.4 54,82C53.7,81.9 53.5,81.7 53.2,81.6C52.6,81.3 52,81.1 51.4,80.8C51.7,80.2 52.3,79.6 52.7,79ZM95.4,122.8C97.4,123.4 99.3,124.1 101.3,124.8C102.2,125.1 103.1,125.4 104,125.7C104.5,125.9 105.1,126.1 105.6,126.1C105.9,126.1 106.3,126 106.6,125.9C107.1,125.8 107.5,125.7 108,125.5C108.2,125.4 108.4,125.4 108.6,125.3C108,125.9 107.4,126.5 106.7,127.1C106.2,127.5 105.7,127.9 105.2,128.3C105,128.5 105,128.5 104.7,128.5C103.2,128.5 101.6,128 100.2,127.7C98.2,127.2 96.3,126.7 94.4,126C93.7,125.8 93,125.5 92.4,125.2C93.4,124.5 94.4,123.7 95.4,122.8ZM128.2,71.1C126.8,66.8 124.8,62.6 122.5,58.8C120,54.8 117.1,51 113.5,47.8C110.2,44.9 106.4,42.5 102,41.4C98.6,40.6 95.1,41 91.7,41.1C84.9,41.4 78,42 71.3,43.5C71.3,42.2 71.4,41.2 71.8,40C72,39.4 72.1,39.1 72.4,38.6C72.5,38.4 72.6,38.1 72.8,37.9C72.9,37.8 72.9,37.7 73,37.6L73.2,37.3C73.5,36.9 73.9,36.5 74.2,36.2C74.3,36.1 74.4,36 74.5,36C74.5,36 74.6,36 74.6,35.9L74.7,35.8C74.9,35.6 75.2,35.5 75.4,35.3C76.4,34.7 77.2,34.4 78.3,34.1C79.6,33.7 80.6,33.6 81.8,33.5C83.2,33.4 84.6,33.4 85.9,33.5C89,33.7 92,34.2 95.1,34.9C101.6,36.4 108.1,38.7 114.2,41.4C119,43.5 123.8,45.7 128.1,48.6C128.4,48.8 128.8,49.1 129.1,49.3C129.2,49.4 129.2,49.4 129.3,49.5C129.4,49.6 129.6,49.7 129.7,49.8C130.7,50.7 131.5,51.9 132.3,53C135.4,57.8 137,63.3 137.8,68.9C138.6,74.7 138.4,80.6 138.6,86.4C138.7,89.6 138.9,92.8 138.6,96C138.5,97.6 138.2,99.2 137.8,100.7C137.7,101.1 137.6,101.5 137.4,101.8C137.4,101.9 137.3,102 137.3,102.2C137.2,102.3 137.2,102.4 137.1,102.5C137.1,102.5 137,102.6 137,102.7C136.9,102.8 136.9,102.9 136.8,102.9C136.6,103.1 136.4,103.3 136.3,103.4C135.9,103.8 135.4,104.2 134.9,104.6C133.8,105.5 132.5,106.4 131.2,107.2C128.2,109.2 125.1,111.1 121.9,113C120,114.1 118,115.2 116,116.3C115.8,116.4 115.7,116.5 115.5,116.6C115.6,116.4 115.7,116.2 115.9,116C117.3,113.9 118.8,111.9 120.3,109.8C122.8,106.2 125.4,102.6 127.3,98.7C129.2,94.8 130.3,90.5 130.4,86.1C130.7,81.2 129.8,76 128.2,71.1ZM137.4,102.3C137.5,102.1 137.4,102.2 137.4,102.3ZM114.2,119.2C114.6,119.1 115.1,118.8 115.4,118.6C116.5,118.1 117.5,117.5 118.5,116.9C121.5,115.2 124.5,113.5 127.5,111.6C130.4,109.8 133.2,108 135.9,105.9C136.7,105.2 137.6,104.6 138.3,103.7C138.7,103.3 138.9,102.8 139,102.3C139.5,100.8 139.9,99.2 140.1,97.5C140.5,94.3 140.4,91.1 140.3,87.9C140.2,84.8 140.2,81.8 140.2,78.7C140.1,73 139.7,67.3 138.1,61.8C137.3,59.1 136.3,56.4 134.9,54C134.2,52.7 133.4,51.5 132.5,50.3C132.1,49.8 131.8,49.3 131.4,48.9C130.2,47.8 128.8,46.9 127.4,46.1C122.5,43.2 117.3,40.8 112,38.6C105.8,36.1 99.3,33.9 92.6,32.7C91.1,32.4 89.4,32.2 87.8,32C87.9,30 88.3,28.1 89.3,26.4C90.3,24.7 91.9,23.5 93.6,22.7C95.6,21.7 97.8,21.1 100,20.6C102.6,20 105.2,19.6 107.8,19.1C113.9,18 119.9,16.5 125.7,14.1C129.1,12.7 132.4,10.9 136.2,10.8C138.9,10.7 141.6,11.2 144.2,11.6C146.7,12 149.1,12.7 151.5,13.6C156.6,15.4 161.6,17.8 166.8,19.2C174,21.2 181.6,19.6 188.8,18.2C192.5,17.5 196.4,16.5 200.1,16.8C203.6,17.1 206.8,18.5 209.7,20.2C210,20.4 210.3,20.6 210.7,20.8C209.1,22 207.7,23.3 206.3,24.6C200.1,30.5 194.6,37.2 189.7,44.2C184.6,51.5 180,59.3 175.3,66.9C173.4,69.9 171.5,72.8 169.9,75.9C168.3,78.9 166.9,81.9 165.5,84.9C162.6,90.9 159.5,97.2 154.7,101.9C151.3,105.2 146.7,106.6 142.4,108.3C136.8,110.4 131.1,112.5 125.5,114.7C123,115.7 120.4,116.7 117.9,117.8C116.6,118.3 115.4,118.9 114.1,119.5C114,119.5 114.1,119.3 114.2,119.2ZM211.1,20.7C208.4,19 205.5,17.5 202.3,16.8C198.8,16 195.3,16.7 191.8,17.3C184.1,18.7 176.2,20.8 168.4,19.2C166,18.7 163.6,17.8 161.3,16.9C158.6,15.9 155.9,14.8 153.2,13.8C150.9,12.9 148.6,12.1 146.2,11.6C143.4,11 140.5,10.6 137.6,10.4C135.8,10.3 134.1,10.4 132.4,10.9C130.7,11.4 129.1,12.2 127.4,12.9C121.8,15.3 116,17 109.9,18.2C104.9,19.2 99.7,19.7 94.9,21.5C93.1,22.2 91.4,23.1 90,24.5C88.6,25.9 87.8,27.7 87.4,29.6C87.2,30.4 87.1,31.2 87.1,32.1C85.4,31.9 83.7,31.9 82,32C82.1,29.7 82.5,27.4 83.6,25.3C84.6,23.4 86.2,21.8 88,20.7C90,19.5 92.3,18.7 94.6,18.1C97.3,17.4 100.1,16.9 102.8,16.3C109.5,15 116,13.4 122.3,10.8C124.7,9.8 127,8.7 129.4,7.6C131.1,6.8 132.8,6.2 134.7,5.9C137.2,5.6 139.8,5.9 142.4,6.3C145.4,6.8 148.3,7.3 151.2,8.4C157,10.5 162.6,13.3 168.4,15.4C171.6,16.6 174.8,17.2 178.2,17.3C182.4,17.4 186.6,16.7 190.7,15.9C194.9,15 199.2,14 203.4,13.4C207.3,12.8 211.1,13.5 214.6,15.2C215.9,15.8 217.2,16.6 218.5,17.4C217.6,17.5 216.8,17.7 216,18C214.3,18.7 212.7,19.6 211.1,20.7ZM87.2,18.8C90.4,17.3 93.7,16.1 97,14.9C100.5,13.6 103.9,12.3 107.4,11C115.1,8.1 122.8,5.2 130.8,3.3C134.7,2.4 138.6,1.7 142.6,1.6C144.5,1.5 146.3,1.6 148.2,1.7C149.9,1.9 151.7,2.1 153.3,2.8C156.3,4.2 158.3,7 160.9,9C162.2,10 163.7,10.9 165.3,11.4C167.3,12 169.4,12.3 171.5,12.4C180.4,13.1 189.3,11 198.1,9.6C202,9 206,8.7 210,9.3C212,9.6 213.9,10.1 215.8,10.8C216.7,11.1 217.5,11.6 218.3,12C218.7,12.2 219.1,12.5 219.5,12.7C219.6,12.7 219.6,12.8 219.6,12.8L219.7,12.9C221,14.1 222,15.7 222.9,17.2C223.9,18.8 225.3,20.9 225.3,22.8C225.3,23.4 225.2,23.6 224.6,23.8C224.4,23.8 224.2,23.8 224,23.8L223.8,23.8C223.7,23.8 223.7,23.8 223.8,23.8C223.6,23.7 223.7,23.8 223.6,23.7C223.7,23.8 223.4,23.4 223.5,23.5C222.9,22 223.1,20.4 222.3,19C221.7,17.9 220.6,17.5 219.5,17.4C216.8,15.6 213.9,14 210.6,13.2C206.8,12.2 203,12.9 199.2,13.6C190.7,15.2 182.1,17.9 173.4,16.3C170.6,15.8 167.9,14.7 165.3,13.7C162.3,12.5 159.4,11.2 156.4,9.9C153.8,8.8 151.2,7.7 148.4,7C146.8,6.6 145.2,6.3 143.6,6C142.1,5.7 140.6,5.5 139,5.4C136.9,5.2 134.8,5.2 132.8,5.7C131,6.2 129.2,7 127.5,7.9C121.5,10.7 115.4,13 108.9,14.5C103.3,15.8 97.6,16.5 92.1,18.3C87.9,19.7 84.2,22 82.5,26.2C82,28 81.7,30 81.6,32C79.7,32.2 77.8,32.6 76,33.3C74.1,34.1 72.5,35.4 71.4,37.1C71.2,37.4 71,37.7 70.9,38.1C71.4,34.5 72.5,31 74.6,28C77.6,23.7 82.5,21 87.2,18.8ZM54.7,54.2C56.6,51.7 59.4,49.8 62.2,48.4C65.4,46.8 69,45.8 72.5,45C76.2,44.2 79.9,43.7 83.6,43.3C87,43 90.4,42.8 93.8,42.7C95.4,42.6 96.9,42.5 98.5,42.6C100.6,42.7 102.6,43.2 104.6,43.9C108.7,45.5 112.3,48.5 115.3,51.7C118.5,55.2 121.2,59.2 123.3,63.3C125.3,67.2 126.9,71.4 127.9,75.7C129,80.6 129.5,85.8 128.5,90.8C126.8,99.6 120.8,106.7 115.8,113.8C114.9,115.1 114,116.5 113.2,117.9C113.1,118 113,118.1 113,118.3C112.7,118.8 112.5,119.3 112.2,119.8C111.7,120.8 111.3,121.8 110.8,122.8C110.4,123.3 110,123.7 109.6,124.2L109.5,124.3C108.8,124.7 108.1,125 107.4,125.2C107,125.3 106.5,125.4 106.1,125.5C105.8,125.6 105.6,125.7 105.3,125.6C104.7,125.5 104.2,125.3 103.6,125.1C102.7,124.8 101.8,124.5 100.9,124.2C99.2,123.6 97.5,123 95.7,122.5C98.1,120.2 99.9,117.4 100.9,114.2C101.6,112 101.9,109.6 101.8,107.3C101.8,106 101.5,104.6 101.3,103.3C101,101.7 100.8,100.1 100.7,98.5C100.1,92.3 99.9,86 98.8,79.8C98.3,76.9 97.6,74 96.4,71.4C95.9,70.3 95.2,69.4 94.5,68.5C92.5,66.1 89.9,64.1 87.3,62.3C84.2,60.2 80.8,58.5 77.3,57.1C73.8,55.7 70.2,54.7 66.5,54.4C63.3,54.1 60.1,54.4 57.1,55.7C55,56.6 53.3,58.1 51.9,59.9C52.6,57.8 53.4,55.9 54.7,54.2ZM43.6,70.2C44.8,69 46.1,67.9 47.4,66.8C48.4,66 49.2,65.3 50.3,64.6C50.5,64.5 50.6,64.4 50.8,64.3C50.9,64.3 50.9,64.2 51,64.2L51.1,64.2C51.9,63.9 52.8,63.9 53.6,63.8C53.8,63.8 53.9,63.8 54.1,63.8C52.9,64.7 51.8,65.6 50.7,66.5C47.9,68.9 45.3,71.4 42.8,74.1C42,74.9 41.3,75.8 40.6,76.7C40.3,77.1 39.9,77.6 39.7,78.1C38.2,78.1 36.7,78.3 35.3,78.9C35.5,78.6 35.8,78.4 36,78.1C38.3,75.3 40.9,72.7 43.6,70.2ZM32.6,82.7C32.6,82.7 32.6,82.6 32.7,82.6L32.8,82.5C34.2,80.2 36.7,79.4 39.2,79.3C42.5,79.2 45.9,80.1 49,81.2C52.5,82.4 55.9,84.1 59.1,86C61.8,87.6 64.4,89.3 66.7,91.4C67.4,92.1 68.1,92.8 68.6,93.6C69.1,94.5 69.5,95.6 69.8,96.6C70.3,98 70.6,99.5 70.9,101C71.4,104 71.7,107.1 72,110.2C72.2,111.7 72.3,113.2 72.6,114.7C72.8,115.7 73,116.7 72.9,117.8C72.8,119.6 71.9,121.4 71,122.9C69.9,124.6 68.5,126.2 67,127.6C65.6,128.9 64.1,130.1 62.5,131.2C61.9,131.6 61.2,132 60.6,132.4C61.3,131.9 62,131.4 62.6,130.9C64,129.7 65.3,128.3 66.3,126.8C67.3,125.2 67.7,123.5 68,121.7C68.6,117.1 68,112.4 66.9,107.9C65.8,103.3 64,98.8 61.1,95C58.9,92.1 55.9,89.8 52.8,87.9C49.8,86.1 46.6,84.6 43.2,83.7C40.1,82.8 36.9,82.4 33.7,82.8C33.3,82.6 32.9,82.6 32.6,82.7L32.6,82.7ZM18.7,143.6C17.6,144.3 16.6,144.7 15.3,144.9C13.8,145.2 12.1,145.5 10.6,145.2C6.9,144.5 3.8,141.1 2.3,137.8C1.6,136.3 1.2,134.4 1.6,132.8C2,131.3 3.2,129.8 4.7,129.4C5.3,129.2 5.8,129.3 6.4,129.5C6.5,129.6 6.9,129.8 7.2,129.9C7.4,130.1 7.7,130.3 8,130.6C9,131.7 9.7,133.1 10.1,134.5C10.2,134.9 10.3,135.3 10.3,135.7L10.3,136.9C10.3,137.1 10.2,137.3 10.2,137.4C10.2,137.5 10.2,137.5 10.1,137.6C10.1,137.5 10,137.7 10,137.8C10,137.9 9.9,138 9.9,138L9.8,138.1C8.7,137.6 8.1,136.7 7.9,135.5C7.8,135.1 7.6,134.7 7.1,134.7C6.7,134.7 6.3,135.1 6.3,135.5C6.5,136.7 6.9,137.8 7.8,138.7C8.2,139.1 8.7,139.4 9.3,139.6C9.9,139.9 10.3,139.8 10.8,139.3C11.8,138.4 12,136.8 11.9,135.5C11.6,132.5 9.9,128.9 6.9,127.8C6.6,127.7 6.4,127.6 6.1,127.6C6.1,127.5 6.1,127.4 6.1,127.4L6.1,126.1C6.1,126 6.1,126 6.1,125.9L6.1,125.8C6.2,125.3 6.3,124.8 6.4,124.4C6.4,124.4 6.4,124.3 6.5,124.3C6.5,124.2 6.6,124.1 6.6,124C6.7,123.9 6.8,123.7 6.9,123.6L7,123.5C7.1,123.4 7.1,123.4 7.2,123.3L7.3,123.2L7.4,123.1C7.5,123.1 7.5,123 7.6,123C7.8,122.9 7.9,122.9 8.1,122.9L8.9,122.9C9,122.9 9.1,122.9 9.2,123C9.4,123 9.6,123.1 9.8,123.2C9.9,123.2 10,123.3 10.1,123.3C10.1,123.3 10.2,123.3 10.2,123.4C10.4,123.5 10.6,123.6 10.8,123.7C11.2,123.9 11.6,124.2 12,124.4C12.2,124.5 12.4,124.7 12.6,124.8C12.6,124.8 12.7,124.8 12.7,124.9L13.1,125.3C14,126 14.8,126.8 15.5,127.6C16.3,128.5 16.9,129.3 17.6,130.3C18.3,131.3 18.9,132.3 19.4,133.4C19.7,134 19.8,134.2 20,134.9C20.2,135.4 20.3,135.9 20.5,136.5C20.6,136.7 20.6,137 20.7,137.3C20.7,137.4 20.7,137.5 20.8,137.7C20.8,137.8 20.8,137.9 20.8,137.9C20.9,138.4 20.9,138.9 20.8,139.4L20.8,139.9C20.8,140.1 20.7,140.4 20.6,140.6C20.5,140.8 20.5,141 20.4,141.2L20.4,141.4C20.3,141.5 20.3,141.6 20.2,141.8C20.1,142.5 19.5,143.2 18.7,143.6ZM21.7,143.2C21.8,143.2 21.7,143.2 21.7,143.2ZM32.3,144C31.8,144.6 31.2,145 30.4,145.2C29.8,145.4 29.1,145.3 28.5,145.1C27.1,144.7 25.8,143.8 24.6,143C23.9,142.6 23.1,142 22.3,141.7C23.8,138 22,133.5 20.1,130.4C18.9,128.4 17.3,126.5 15.6,124.8C14.1,123.4 12.4,122.2 10.5,121.5C9.8,121.3 9.1,121.2 8.4,121.3C8.5,119.7 8.7,118 9.3,116.5C9.9,115.3 10.6,114.4 11.8,113.8C12.7,113.4 14.1,113.3 15.2,113.4C16.7,113.6 18.1,114.1 19.4,114.7C22.3,116.1 25,118.1 27.2,120.5C29.8,123.4 31.7,127.2 33,130.9C34.2,134.3 35.1,138.4 33.7,141.8C33.5,141.9 33.4,142.1 33.4,142.4C33.1,143 32.8,143.5 32.3,144ZM35.5,141.4C35.7,140.9 35.8,140.3 35.9,139.8C36.2,137.5 35.8,135.1 35.2,132.8C34.6,130.4 33.6,128.1 32.5,125.8C30.9,122.6 28.9,119.8 26.2,117.4C23.7,115.2 20.8,113.4 17.6,112.4C16.6,112.1 15.6,111.9 14.6,111.8L14.6,111.7C14.6,108.5 15.5,105.3 17.9,103.1C20,101.2 22.9,100.5 25.7,100.4C28.8,100.3 32,101 34.9,102.3C37.8,103.5 40.4,105.2 42.4,107.6C43.6,109.1 44.6,111 45.5,112.8C46.6,115.1 47.4,117.5 47.9,119.9C48.8,123.9 48.8,128.3 47.2,132.1C46.2,134.5 44.5,136.6 42.4,138.2C40.4,139.8 38,140.8 35.5,141.4ZM51.8,136C49.6,136.9 47.3,137.7 44.9,138.2C45.2,137.9 45.4,137.7 45.7,137.4C48.4,134.4 49.8,130.4 50,126.4C50.3,121.6 49,116.9 47,112.5C46.1,110.5 45.1,108.5 43.8,106.9C42.8,105.7 41.7,104.7 40.5,103.8C37.9,101.8 34.8,100.5 31.6,99.7C28.6,98.9 25.3,98.7 22.2,99.4L22.2,99.3C22.2,95.4 22.8,91.4 25,88.1C26.4,86 32.4,81.6 41.5,83.5C44.9,84.2 48.2,85.6 51.3,87.3C54.4,89 57.5,91.2 59.8,93.9C62.9,97.5 64.8,102.1 66,106.6C67.2,111.1 67.8,116 67.4,120.6C67.2,122.5 66.8,124.3 65.8,125.9C64.8,127.5 63.5,128.9 62,130.1C59.1,132.8 55.5,134.6 51.8,136ZM75,131.2C72,132.5 68.9,133.7 65.8,134.5C63.9,135 62.3,135.4 60.5,135.3C60.4,135.3 60.4,135.3 60.3,135.3L60.2,135.3C60,135.3 59.9,135.2 59.7,135.2C59.6,135.2 59.6,135.2 59.5,135.1C59.4,135.1 59.3,135 59.2,134.9L59.1,134.8C59.1,134.8 59,134.7 59,134.6C59,134.5 59,134.5 59,134.4C59,134.3 59,134.3 59,134.2L59,134.1C59.9,133.9 60.8,133.4 61.6,132.9C63.1,132 64.6,131 65.9,129.8C69,127.3 71.9,124.2 73.4,120.5C74.1,118.7 74.3,117 73.9,115.1C73.3,112.1 73.1,109 72.8,106C72.5,103 72.1,100 71.3,97C70.8,95.3 70.3,93.5 69.2,92.1C67.6,90 65.2,88.4 63.1,86.9C61.4,85.7 59.6,84.7 57.7,83.7L57.8,83.6C57.9,82.8 58.7,81.9 59.2,81.3C60.2,80.1 61.3,78.9 62.4,77.8C64.9,75.2 67.6,72.7 70.4,70.4C71.1,69.8 71.9,69.2 72.6,68.7C72.8,68.6 73,68.4 73.3,68.3C77.4,70.6 81.1,73.7 83.9,77.5C85.3,79.4 86.4,81.5 87.3,83.7C88.4,86.5 89.5,89.3 90.4,92.2C92.2,98 93.4,104 93.2,110.1C93.1,113.1 92.7,116 91.8,118.9C91.5,120 91.2,121.2 90.6,122.1C90.6,122.2 90.5,122.2 90.5,122.3C90.4,122.4 90.3,122.6 90.1,122.7C89.8,123 89.4,123.3 89.1,123.6C89.1,123.6 89,123.6 89,123.7L88.9,123.8C88.8,123.9 88.7,124 88.6,124C88.4,124.2 88.1,124.4 87.9,124.5C86.8,125.3 85.6,126 84.4,126.7C83.8,127 83.2,127.4 82.6,127.7C82.5,127.7 82.4,127.8 82.3,127.9C79.7,129 77.3,130.1 75,131.2ZM104.9,130.5C104.7,130.6 104.4,130.8 104.2,130.9L104.1,130.9C104,130.9 104,130.9 103.9,130.9C103.5,130.9 103.1,130.8 102.7,130.8C102.3,130.8 102.4,130.8 102.1,130.7C101.8,130.7 101.4,130.6 101.1,130.6C100.4,130.5 99.7,130.4 98.9,130.2C97.2,129.9 95.5,129.6 93.9,129.3C91.2,128.8 88.6,128.3 85.9,127.9C88,127.4 90.1,126.6 91.9,125.4C91.9,125.5 92,125.5 92,125.5C93.5,126.2 95.2,126.7 96.8,127.2C98.7,127.8 100.6,128.2 102.5,128.6C103.1,128.7 103.8,128.8 104.4,128.9C105,128.9 105.3,128.7 105.8,128.3C107.3,127.2 108.6,125.9 109.8,124.5C109.6,124.9 109.4,125.3 109.1,125.8C108.1,127.7 106.7,129.4 104.9,130.5ZM256.5,68.5C254.7,72.3 252,75.6 249.2,78.8C243.7,85.2 237.6,91 231.4,96.6C227.2,100.4 222.9,103.9 218.3,107.2C211.4,111.9 204.1,115.9 196.5,119.3C188.6,122.8 180.4,125.7 172.1,128.2C163.1,130.9 153.8,133.1 144.3,133.6C142.2,133.7 140,133.8 138.1,133.5C136.1,133.2 134,132.9 132,132.6C126.7,131.7 121.4,130.8 116.1,129.9C113.8,129.5 111.4,129.1 109.1,128.7C110.6,126.7 111.7,124.2 112.8,122L112.8,121.9C112.9,121.9 113.1,121.9 113.2,121.8C114.9,120.8 116.7,120 118.6,119.2C121.2,118.1 123.9,117 126.6,116C132.3,113.8 138.1,111.7 143.8,109.5C145.8,108.7 147.8,108 149.8,107.1C152.2,106.1 154.3,104.5 156.1,102.7C160.8,97.9 163.9,91.5 166.8,85.5C168.3,82.5 169.7,79.5 171.2,76.5C172.9,73.3 174.8,70.4 176.7,67.3C181.4,59.7 186,52 191.2,44.6C196.1,37.6 201.7,30.9 208,25.1C210.9,22.4 214.2,19.8 218.1,19C218.6,18.9 219.2,18.8 219.7,18.9C219.6,20.5 219,22.2 218.5,23.7C217.6,26.3 216.6,28.8 215.5,31.4C213.2,36.8 210.5,42 207.8,47.2C204.7,53 201.1,58.5 197.5,64C192.3,72 186.8,79.8 181.3,87.6C179.2,90.6 177.1,93.6 174.6,96.4C172.1,99.2 169.5,101.8 166.7,104.3C163.9,106.7 160.9,109 157.6,110.8C155.1,112.2 152.4,113.4 149.5,113.9C142,115.2 134.4,116.6 127.1,118.8C124.2,119.7 121.1,120.6 118.5,122.2C117,123.1 115.2,124.6 115.8,126.6L115.8,126.7C115.8,126.8 115.8,126.8 115.9,126.9C116.1,127.4 116.7,127.4 117.1,127.1C117.2,127.1 117.3,127.1 117.4,127C117.8,126.9 118.3,126.8 118.7,126.8C119.2,126.7 119.9,126.6 120.6,126.6C121.5,126.5 122.3,126.4 123.2,126.3C127.8,125.8 132.5,125.5 137.1,125.1C142.1,124.7 147,124.4 152,124.1C155.1,123.9 158.3,123.7 161.4,123.6C167,123.5 172.5,123.4 177.9,121.7C182.8,120.2 187.1,117.4 190.4,113.5C192.4,111.3 194,108.8 195.5,106.2C197.3,103.1 198.7,99.9 200.5,96.9C204,91.4 208.8,86.9 214.8,84.2C217.8,82.8 221,81.9 224.2,81.4C225.9,81.1 227.7,80.9 229.5,80.9C230.4,80.9 231.3,80.8 232.2,80.6C234.1,80.1 235.8,79.3 237.5,78.5C239.7,77.4 241.9,76.2 244,74.9C247.7,72.6 251.4,70.1 254.7,67.1C255.3,66.6 256.6,65.3 257.3,64.1C257.4,64.3 257.4,64.6 257.4,64.8C257.6,66 257.1,67.3 256.5,68.5Z" style="fill:url(#tag1);fill-rule:nonzero;"/>
    </g>
    <defs>
        <linearGradient id="tag1" x1="0" y1="0" x2="1" y2="0" gradientUnits="userSpaceOnUse" gradientTransform="matrix(258.693,146.727,-146.727,258.693,0.216637,-0.708342)"><stop offset="0%" style="stop-color:rgb(203,89,110);stop-opacity:1"/><stop offset="100%" style="stop-color:rgb(116,54,110);stop-opacity:1"/></linearGradient>
    </defs>
</svg>
