<?xml version="1.0" standalone="no"?>
<!DOCTYPE svg PUBLIC "-//W3C//DTD SVG 1.1//EN" "http://www.w3.org/Graphics/SVG/1.1/DTD/svg11.dtd">
<svg width="100%" height="100%" viewBox="0 0 147 187" version="1.1" xmlns="http://www.w3.org/2000/svg" xmlns:xlink="http://www.w3.org/1999/xlink" xml:space="preserve" style="fill-rule:evenodd;clip-rule:evenodd;stroke-linejoin:round;stroke-miterlimit:1.41421;">
    <g>
        <path d="M0,78.9C0.8,76.3 1.6,73.8 2.5,71.2C3.3,68.9 4.2,66.7 5.5,64.7C6,63.8 6.7,62.8 7.5,62C7.8,61.7 8.2,61.4 8.7,61.3C8.9,61.2 9.2,61.2 9.4,61.2C9.5,61.2 9.7,61.2 9.8,61.2C9.9,61.3 10,61.5 10.1,61.6C10.2,61.8 10.2,62.1 10.1,62.3C9.9,62.4 9.6,62.5 9.4,62.6C9,62.9 8.5,63.2 8.2,63.5C7.5,64.2 7,65 6.5,65.8C5.9,66.8 5.5,67.9 5,68.9C4.3,70.3 3.9,71.7 3.3,73.1C4.3,72 5,70.7 5.8,69.4C6.6,68.1 7.6,66.9 8.6,65.8C8.9,65.5 11,62.9 11.5,64.1C11.2,64.7 10.8,65.3 10.4,65.8C10.2,66.1 9.9,66.3 9.7,66.6C9.6,66.7 9.5,66.8 9.3,66.9C9.2,66.9 9.3,67 9.3,67C9.4,66.9 9.8,66.9 9.9,67.1C10.1,67.4 10.3,67.7 10.3,68C9.6,68.3 8.9,68.8 8.4,69.3C7.2,70.3 6.4,71.6 5.5,72.9C4.5,74.4 3.5,75.8 2.6,77.4C2.2,78.1 1.8,79 1.2,79.6C1,79.8 0.8,79.9 0.5,79.9C0.3,79.9 0.2,79.8 0.1,79.7C0,79.4 0,79.1 0,78.9C0.8,76.4 0,79.1 0,78.9Z" style="fill:url(#tag1);fill-rule:nonzero;"/>
        <path d="M47.8,104.6C49.1,102.4 51,100.7 52.7,98.8C53.6,97.8 54.5,96.9 55.4,95.9C56.2,95 57.1,94 57.6,92.9C57.8,92.4 58,91.9 58.2,91.4C58.4,90.9 58.5,90.3 58.8,89.8C58.9,89.7 58.9,89.6 59,89.5C59.1,89.6 59.2,89.6 59.3,89.7C59.4,89.9 59.5,90.1 59.6,90.3C59.7,90.8 59.8,91.3 59.7,91.9C59,94.4 58.3,96.8 58.4,99.4C58.4,100.7 58.6,102 58.5,103.3C58.4,104.6 58.3,105.8 58,107C57.4,109.5 56.4,111.8 55.5,114.2C54.5,116.6 53.7,119.1 53.7,121.7C53.7,124.3 54.2,127 54.6,129.5C54.8,130.8 55.1,132 55.6,133.3C55.9,134.1 56.2,135 56.8,135.7C57.8,136.9 59.5,136.8 60.9,136.5C61.3,136.4 61.8,136.4 62.2,136.5C62.3,136.6 62.8,136.8 62.6,137C62.5,137.2 62.3,137.3 62.1,137.3C61.8,137.4 61.4,137.5 61.1,137.8C60.9,138 60.8,138 60.5,138.1C60.2,138.2 60,138.2 59.7,138.3C58.1,138.6 56.7,138.1 55.6,136.8C54.2,135 53.6,132.6 53.2,130.5C52.7,128 52.1,125.6 52,123.1C52,120.7 52.4,118.2 53.1,115.9C53.9,113.5 55.1,111.3 55.8,108.9C56.7,106.1 56.9,103.1 56.5,100.1C54.7,101.8 53.2,103.7 51.8,105.7C51.1,106.7 50.4,107.7 49.8,108.8C49.3,109 49.3,108.6 49.5,108.3C49.8,107.7 50.1,107.2 50.4,106.7C51,105.7 51.7,104.7 52.4,103.7C53.1,102.8 54,101.9 54.8,101.1C56.2,99.5 56.8,97.5 56.9,95.4L56.9,95.3C55.4,97.2 53.6,98.9 51.9,100.7C51.1,101.6 50.2,102.5 49.5,103.4C49.1,103.8 48.8,104.3 48.4,104.8C48.3,105 48.1,105.3 47.9,105.3C47.9,105 47.8,104.7 47.8,104.6C48.6,103.3 47.8,105 47.8,104.6Z" style="fill:url(#tag2);fill-rule:nonzero;"/>
        <path d="M93.2,0.9C95.9,2.1 98.2,3.8 100.6,5.6C101.2,6 101.7,6.4 102.3,6.8C102.6,7 102.7,7.2 102.7,7.6C102.7,7.9 102.4,8.3 102.1,8.2C101.5,8.1 101.1,7.7 100.7,7.4C100.2,7.1 99.7,6.7 99.1,6.5C102.4,16 104.2,26.9 100.5,36.6C99.6,38.9 98.5,41.1 97,43C96.6,43.5 96.2,43.9 95.8,44.4C95.4,44.9 95,45.4 94.5,45.8C94.2,46 93.6,46.5 93.2,46.4C92.5,46.3 92.8,45.6 93.1,45.3C96.3,42.4 98.5,38.7 99.8,34.6C101.2,30.1 101.4,25.2 101,20.5C100.8,18 100.3,15.4 99.7,12.9C99.4,11.7 99,10.4 98.7,9.2C98.3,8 98,6.8 97.4,5.7C97.3,5.4 97.2,5.2 97,5C98.8,9.7 99.4,14.9 98.3,19.8C97.8,22 97,24.2 96,26.2C95.4,27.2 94.8,28.2 94.1,29.2C93.5,30 93,31 92,31.6C91.5,31.7 91.3,31.3 91.5,30.8C91.7,30.3 92.1,30 92.4,29.6C93.1,28.7 93.7,27.7 94.3,26.7C95.4,24.7 96.3,22.6 96.8,20.5C98,15.7 97.6,10.6 96,6C95.6,4.7 95.1,3.3 93.8,2.7C93.3,2.5 92.6,2.2 92.5,1.6C92.5,1.1 92.6,0.8 93.2,0.9C96.6,2.5 92.4,0.7 93.2,0.9Z" style="fill:url(#tag3);fill-rule:nonzero;"/>
        <path d="M99.9,101.8C100,104.5 100.4,107.2 100,109.9C99.6,112.4 98.8,114.7 97.7,117C96.6,119.4 95.4,121.7 94.2,124C94,124.3 94,124.5 93.6,124.4C93.5,124.4 93.3,124.3 93.2,124.2C93,123.9 93.1,123.6 93,123.3C93,122.8 93.3,122.3 93.5,121.8C93.8,121.2 94.1,120.6 94.4,120C95.6,117.7 96.8,115.4 97.5,112.9C98.2,110.5 98.4,107.9 98.4,105.4C98.4,103 97.9,100.8 96.9,98.7C95.9,96.7 94.7,94.8 93.4,93.1C92.8,92.3 92,91.5 91.7,90.5C91.6,90.1 91.7,89.6 92.1,89.4C92.6,89.2 93.1,89.7 93.3,90C94.1,91 94.8,92 95.5,93C96.2,94 96.8,95 97.5,95.9C97.9,96.3 98.3,96.5 98.7,96.8C99.1,97.2 99.4,97.7 99.7,98.2C100.4,99.3 100.9,100.4 101.5,101.5C101.8,102 102.1,102.6 102.3,103.1C102.5,103.6 102.2,104.1 101.9,104.5C101.8,104.6 101.8,104.7 101.7,104.7C101.5,104.8 101.5,104.8 101.4,104.7C101.3,104.4 101.1,104.1 101,103.8C100.7,103.2 100.4,102.6 100.1,101.9C100,101.7 99.9,101.4 99.7,101.3C99.8,101.3 99.9,101.7 99.9,101.8C100,104.3 99.8,101.7 99.9,101.8Z" style="fill:url(#tag4);fill-rule:nonzero;"/>
        <path d="M102.3,8.1C102.4,7.7 102.5,7.3 102.6,6.9C106.5,9.3 108.1,14 108.3,18.4C108.4,19.7 108.3,21 108.2,22.4C108.2,23.7 108.3,25.1 108.4,26.4C108.5,29 108.4,31.6 107.5,34.1C107.1,35.3 106.8,36.6 106.6,37.9C106.4,39.1 106.3,40.4 105.9,41.6C105.2,43.8 103.8,45.7 102.5,47.6C102.1,47.6 101.9,47.3 101.8,46.9C101.7,46.4 101.8,45.9 102.1,45.5C102.7,44.5 103.4,43.6 103.9,42.6C104.4,41.6 104.8,40.4 104.9,39.3C105.1,38 105.2,36.8 105.6,35.6C105.9,34.4 106.3,33.2 106.5,31.9C106.8,30.6 106.9,29.3 107,28C107,26.7 107,25.3 106.9,24C106.8,22.7 106.8,21.4 106.9,20C107,17.8 106.8,15.6 106,13.6C105.6,12.6 105.1,11.6 104.5,10.7C104.2,10.3 103.8,9.8 103.5,9.4C103.2,9.1 102.8,8.8 102.6,8.3C102.3,8.3 102.3,8.2 102.3,8.1C102.4,7.7 102.3,8.7 102.3,8.1Z" style="fill:url(#tag5);fill-rule:nonzero;"/>
        <path d="M25.3,105.3C26.1,106.7 26.4,108.3 26.6,109.8C26.8,111.5 27.1,113.2 27.3,114.8C27.5,116.5 27.7,118.1 28.1,119.8C28.3,120.6 28.5,121.5 28.8,122.3C29.1,123 29.3,123.8 29.9,124.4C29.9,123.8 30,123.2 29.9,122.5C29.9,121.8 29.7,121.1 29.6,120.5C29.4,119.2 29.3,117.9 29.1,116.5C28.9,115.2 28.7,113.9 28.4,112.6C28.1,111.3 28.2,110.1 28.4,108.7C28.6,107.4 28.7,106.1 28.9,104.7C28.9,104.5 28.8,104 29.1,103.9C29.6,103.7 29.7,104.2 29.7,104.6C29.9,105.9 30.4,107.1 30.8,108.4C31.2,109.7 31.5,111 31.9,112.3C32.2,113.6 32.7,114.9 32.9,116.2C33.1,117.5 32.8,118.8 32.8,120.2C32.7,121.6 32.8,122.9 32.8,124.3C32.8,125.5 32.8,126.6 32.9,127.8C33,128.9 33.3,130 33.7,131C33.9,131.5 34.1,132 34.4,132.5C34.5,132.7 34.7,133 34.9,133.2C35.1,133.4 35.3,133.6 35.1,133.9C34.9,134.2 34.7,133.8 34.6,133.6C34.4,133.4 34.3,133.2 34.1,133C33.8,132.5 33.5,132 33.2,131.5C32.7,130.5 32.5,129.5 32.3,128.4C32.1,126.6 32.1,124.7 32.1,122.8C32.1,121.8 32.1,120.8 32.2,119.8C32.3,118.8 32.4,117.9 32.4,116.9C32.3,115 31.7,113.3 31.2,111.5C30.7,109.7 30.2,107.9 29.7,106.1C29.2,108.6 29,111.2 29.4,113.7C29.6,115 30,116.3 30.1,117.6C30.3,118.9 30.4,120.3 30.5,121.6C30.6,122.9 30.7,124.2 30.7,125.5C30.7,125.9 30.4,126.3 30,125.9C29.6,125.5 29.4,125 29.1,124.5C28,122.3 27.5,119.9 27.1,117.5C26.7,115.3 26.5,113.1 26.2,110.9C26,109.8 25.8,108.7 25.5,107.6C25.4,107.1 25.2,106.6 25,106.1C24.9,105.8 24.8,105.6 24.7,105.3C24.6,105.1 25.1,105.1 25.3,105.3C26.4,107.2 25.1,105.1 25.3,105.3Z" style="fill:url(#tag6);fill-rule:nonzero;"/>
        <path d="M116.7,155.9C117.3,154.6 117.8,153.3 118.4,152.1C118.9,150.9 119.3,149.8 118.7,148.6C118.1,147.5 117.8,146.4 118,145.1C118.1,143.9 118.6,142.6 118.9,141.5C119.3,140.3 119.7,139.1 120.3,138C120.8,136.9 121.6,135.9 121.5,134.7C121.4,133.5 120.6,132.5 119.9,131.5C119.1,130.4 118.3,129.4 117.5,128.3C116.7,127.3 115.8,126.2 115,125.2C114.9,124.9 114.8,124.5 115.2,124.3C115.7,124 116.1,124.3 116.5,124.7C116.9,125 117.1,125.4 117.4,125.8C117.8,126.3 118.3,126.8 118.7,127.3C119.5,128.3 120.3,129.4 121.1,130.5C121.8,131.4 122.5,132.4 122.8,133.6C123.1,134.7 123,135.8 122.6,136.8C122.2,138 121.4,139 121,140.1C120.5,141.2 120.2,142.4 119.9,143.6C119.7,144.3 119.5,145 119.5,145.7C119.5,146.4 119.7,147.1 120,147.7C120.7,149 120.7,150.5 120.2,151.9C119.7,153.3 119.1,154.7 118.4,156C118.1,156.5 117.8,157 117.2,157.2C116.5,156.9 116.5,156.4 116.7,155.9C117.4,154.3 116.5,156.4 116.7,155.9Z" style="fill:url(#tag7);fill-rule:nonzero;"/>
        <path d="M139.1,101.6C140.2,104.1 141.3,106.5 142.5,108.9C143.7,111.2 145,113.5 145.9,115.9C146.7,118.2 147.1,120.6 147.2,123C147.2,124.2 147.2,125.4 147.1,126.7C147,127.9 146.9,129.1 146.5,130.2C146.2,131.1 145.6,131.9 144.9,132.6C144.1,133.3 143.1,133.8 142.4,134.7C142.1,135 141.8,135.6 141.3,135.3C141,135.1 141,134.7 141,134.4C141.3,133.4 142.2,132.7 143.1,132.1C143.9,131.6 144.6,130.8 145,129.9C145.4,128.9 145.5,127.8 145.7,126.7C146,124.3 145.9,121.9 145.5,119.5C145.2,117.9 144.7,116.4 144,114.9C143.3,113.3 142.3,111.7 141.6,110.1C140.8,108.5 140.1,106.8 139.3,105.2C138.8,104.3 137.3,101.7 139.1,101.6C140.7,105.3 138.3,101.6 139.1,101.6Z" style="fill:url(#tag8);fill-rule:nonzero;"/>
        <path d="M65.4,82.6C65.8,82.2 66.2,81.9 66.7,81.5C66.3,81.4 65.9,81.5 65.6,81.6C65.4,81.7 65.2,81.7 65,81.5C64.9,81.4 64.8,81.3 64.8,81.1C64.8,80.2 66,80.1 66.5,79.7C65.3,79 64.1,78.6 63.1,77.7C62.8,77.5 62.2,76.5 62.9,76.5C63.5,76.7 64,77.1 64.5,77.5C65.4,78.2 66.6,78.9 67.7,79C68.9,79.1 70,78.6 71,78.1C70.5,77.8 69.9,77.7 69.3,77.5C68.7,77.3 68.2,77.1 67.7,76.8C66.7,76.3 65.7,75.7 64.8,75C64.4,74.7 64,74.3 63.6,73.9C63.3,73.6 62.7,73.2 62.6,72.7C62.5,72.5 62.6,72.3 62.8,72.2C63.1,72.1 63.2,72.2 63.4,72.4C63.9,72.7 64.3,73.1 64.7,73.5C66.5,75.2 68.7,76.1 71,76.8C71.5,77 72.1,77.2 72.7,77.2C73,77.2 73.3,77.1 73.6,77.1C74,77.1 74.1,77.3 74.3,77.6C74.4,77.8 74.7,78.1 74.6,78.3C74.5,78.5 74.4,78.6 74.2,78.8C73.8,79.1 73.4,79.2 73,79.4C72.5,79.6 72.1,79.8 71.7,80.1C72.6,80.7 72.9,81.4 72.8,82.4C72.8,82.9 72.6,83.4 72.4,83.8C72.2,84.2 71.8,84.5 71.8,85C71.8,85.8 72.8,86 73.5,86C73.8,86 75,85.9 75.1,86.3C75.2,86.8 74.8,87.2 75.2,87.6C74.2,88.3 72.5,87.9 71.5,87.4C70.9,87.1 70.4,86.6 70.1,86C69.8,85.3 70,84.6 70.3,83.9C70.5,83.4 71.3,82.5 70.8,82C70.2,81.4 69.3,82.2 68.8,82.4C68.1,82.7 67.4,83.3 66.7,83.6C66.3,83.8 66.1,83.9 65.7,83.6C65.2,83.2 65.2,82.9 65.4,82.6C65.8,82.2 65.1,83.1 65.4,82.6Z" style="fill:url(#tag9);fill-rule:nonzero;"/>
        <path d="M60.9,137.8C60.9,137.5 60.9,137.1 61.2,136.9C61.4,136.8 61.8,136.8 62,136.8C62.9,136.9 63.6,136.2 64.1,135.5C64.8,134.5 65.3,133.4 65.7,132.3C66.2,131.1 66.7,130 67.3,128.9C67.7,128.2 68.5,126.9 69.5,127.5C70.5,128.1 70.4,129.7 70.2,130.6C69.8,133 68.5,135 67.4,137.1C67.3,137.3 67.1,137.6 67.2,137.8C67.3,138.1 67.6,138.3 67.9,138.4C69,139.1 70.1,139.8 71.2,140.6C71.7,141 72.3,141.3 72.8,141.7C73,141.9 72.9,142.1 72.7,142.3C72.6,142.5 72.3,142.8 72.1,142.7C71,142.3 70,141.6 69.1,141C68.2,140.4 67.3,139.8 66.4,139.2C66,138.9 65.4,138.6 65.4,138C65.4,137.3 65.9,136.6 66.2,136.1C66.8,135 67.4,133.9 67.9,132.8C68.3,131.8 68.9,130.6 68.7,129.5C68,130.4 67.6,131.5 67.1,132.5C66.6,133.6 66.1,134.7 65.5,135.7C65.1,136.4 64.5,137.4 63.7,137.7C63.4,137.8 63,137.8 62.6,137.8C62.2,137.9 61.6,137.8 60.9,137.8C60.8,136.3 61.4,137.8 60.9,137.8Z" style="fill:url(#tag10);fill-rule:nonzero;"/>
        <path d="M34.8,134.1C34.8,133.9 34.9,133.7 35.1,133.6C35.3,133.8 35.5,134 35.7,134.3C36.1,134.8 36.5,135.3 36.9,135.8C37.6,136.8 38.3,137.8 38.9,138.8C39.5,139.7 40.2,140.8 41.1,141.5C41.4,141.8 41.9,142 42.3,142C42.7,141.9 42.8,141.5 42.7,141.1C42.4,139.9 41.8,138.7 41.4,137.5C41,136.3 40.9,135.1 40.9,133.8C40.9,131.1 40.8,128.4 41,125.7C41.2,121.8 42,118 43.3,114.3C43.9,112.5 44.6,110.8 45.3,109.1C46,107.5 46.5,105.7 47.9,104.5C48,104.7 48.1,104.8 48.3,104.8C46.8,106.6 46,108.8 45.3,111C44.9,112.1 44.6,113.2 44.1,114.3C43.6,115.5 43.2,116.7 42.8,117.9C42.1,120.4 41.8,122.9 41.6,125.5C41.4,128.1 41.4,130.8 41.4,133.4C41.4,134.4 41.5,135.4 41.6,136.3C41.7,137.2 42.1,138 42.4,138.9C42.7,139.6 43,140.3 43.2,141.1C43.3,141.9 42.9,142.6 42,142.6C41.3,142.6 40.5,142 40,141.5C39.7,141.2 39.4,140.8 39.2,140.5C38.9,140.1 38.6,139.6 38.2,139.2C37.2,137.5 36,135.8 34.8,134.1C34.8,133.9 36.4,136.4 34.8,134.1Z" style="fill:url(#tag11);fill-rule:nonzero;"/>
        <path d="M49.5,108.3C49.6,108.5 49.7,108.6 49.9,108.6C48.6,110.8 47.2,112.8 46.6,115.3C45.9,117.8 45.8,120.4 45.6,123C45.2,128.5 45.1,134 45.4,139.4C45.5,140.7 45.6,142.1 45.8,143.4C46,144.7 46.2,146 46.6,147.2C47.3,149.4 48.8,150.9 50.5,152.4C51.4,153.2 52.3,154 53,155C53.1,155.1 53.2,155.2 53.1,155.3C53,155.4 52.9,155.4 52.8,155.4C52.6,155.4 52.3,155 52.1,154.9C51.6,154.4 51.1,154 50.6,153.5C48.9,151.8 46.8,150.2 46,147.9C45.6,146.9 45.5,145.8 45.3,144.7C45.1,143.4 44.9,142.2 44.8,140.9C44.5,138.2 44.4,135.5 44.4,132.8C44.4,130.1 44.5,127.4 44.7,124.7C44.9,122 45.1,119.3 45.5,116.6C46.2,113.4 47.7,110.8 49.5,108.3C49.6,108.5 47.8,110.7 49.5,108.3Z" style="fill:url(#tag12);fill-rule:nonzero;"/>
        <path d="M132.3,68.2C133.1,69.1 134,69.9 134.9,70.7C135.8,71.4 136.8,72.1 137.7,72.9C138.4,73.6 138.9,74.4 139.1,75.4C139.3,76.5 138.9,77.6 139,78.7C139.1,79.8 139.6,80.8 139.8,81.9C140,82.8 140,83.7 139.8,84.6C139.4,86.3 138.4,87.8 136.9,88.7C136.1,89.2 135.2,89.6 134.2,89.8C133.8,89.8 133.6,89.5 133.6,89.1C133.6,88.6 134,88.3 134.4,88.2C135.3,87.8 136.1,87.5 136.8,86.7C137.4,86 137.9,85.1 138.2,84.2C138.4,83.7 138.5,83.1 138.4,82.5C138.3,81.9 137.9,81.3 137.7,80.7C137.3,79.5 137.1,78.3 137.3,77.1C137.4,76.6 137.6,76 137.4,75.5C137.2,75 136.8,74.6 136.4,74.2C135.5,73.3 134.6,72.6 133.7,71.7C133,71.1 132.3,70.4 131.8,69.7C131.6,69.2 131.5,68.2 132.3,68.2C133.7,69.9 131.7,68.2 132.3,68.2Z" style="fill:url(#tag13);fill-rule:nonzero;"/>
        <path d="M141,134.2C141.3,134.5 141.1,135.1 141.7,135.2C140.3,140.1 138.3,144.9 137.6,150C137.4,151.1 137.3,152.1 136.7,153.1C136.2,154 135.5,154.7 134.7,155.4C133.8,156.2 132.9,156.9 131.9,157.6C131.5,157.6 131.3,157.3 131.3,156.9C131.2,156.4 131.5,156.1 131.9,155.8C133.3,154.8 134.5,153.6 135.3,152.1C136.2,150.3 136.2,148.2 136.7,146.3C137.2,144 138.1,141.8 138.7,139.5C139,138.4 139.4,137.2 139.7,136.1C140.1,135.4 140.2,134.4 141,134.2C141.3,134.5 140.2,134.4 141,134.2Z" style="fill:url(#tag14);fill-rule:nonzero;"/>
        <path d="M116.7,155.9C116.7,156.3 116.8,156.7 117.1,157C117.4,157.4 117.2,157.7 117,158.1C116.7,158.5 116.5,158.9 116.2,159.4C115.9,159.9 115.6,160.3 115.3,160.8C114.4,162.5 114.6,164.3 115.1,166.1C115.5,165 115.8,163.8 116.3,162.7C116.7,161.8 117.2,160.9 118,160.3C118.3,160 118.7,159.9 119.2,159.8C119.4,159.8 119.7,159.7 119.9,159.7C120.2,159.7 120.3,160.2 120.3,160.4C120.3,160.7 120.2,160.9 119.9,161C119.7,161.1 119.5,161.2 119.3,161.3C118.9,161.5 118.6,161.9 118.3,162.2C117.8,162.9 117.4,163.7 117.2,164.6C117.1,165 117,165.4 116.8,165.8C116.7,166.3 116.6,166.8 116.5,167.2C116.2,168.1 115.3,168.4 114.5,167.8C114.1,167.5 114,167.1 113.8,166.7C113.6,166.1 113.4,165.5 113.3,164.9C113,163.3 113.1,161.6 113.9,160.2C114.3,159.5 114.8,158.8 115.2,158.1C115.7,157.3 116.2,156.6 116.7,155.9C116.7,156.3 115.7,157 116.7,155.9Z" style="fill:url(#tag15);fill-rule:nonzero;"/>
        <path d="M132,54.1C132.9,55.1 133.8,56.1 134.6,57.1C135.4,58 135.9,58.9 135.9,60.1C135.9,60.6 135.8,61.1 135.9,61.7C136,62.2 136.2,62.8 136.6,63.2C137.4,64.1 137.5,65.2 137.1,66.3C136.9,66.9 136.6,67.4 136.4,68C136.2,68.5 136,69.3 135.6,69.6C135.1,70 134.8,69.4 134.5,69.1C134.1,68.6 133.7,68.1 133.3,67.7C132.9,67.3 132.5,66.8 132.2,66.4C131.9,66 131.4,65.5 131.5,64.9C131.5,64.7 131.7,64.5 131.8,64.4C132,64.3 132.3,64.4 132.4,64.5C132.8,64.8 133.1,65.3 133.4,65.6C133.7,65.9 133.9,66.2 134.2,66.5C134.4,66.7 134.7,67.2 135,67.1C135.3,67.1 135.4,66.6 135.5,66.4C135.6,66 135.8,65.7 135.8,65.3C135.9,64.4 135.3,64 135,63.3C134.6,62.7 134.5,62 134.5,61.3C134.5,60.5 134.8,59.9 134.4,59.2C134.1,58.6 133.6,58 133.2,57.5C132.8,57 132.2,56.5 131.8,55.9C131.6,55.6 131.4,55.3 131.5,54.9C131.5,54.4 131.7,54.2 132,54.1C133,55.2 131.5,54.2 132,54.1Z" style="fill:url(#tag16);fill-rule:nonzero;"/>
        <path d="M133.8,88.7C134,89 134,89.4 134.3,89.6C133.2,90 132.1,90.4 131.1,90.9C132.6,92.6 134.2,94.2 135.7,96C136.4,96.9 137.1,97.8 137.7,98.7C138,99.2 138.3,99.6 138.5,100.1C138.6,100.3 138.7,100.6 138.9,100.8C139,100.9 139,101.1 139.1,101.2C139.2,101.5 139.2,101.4 139,101.6C138.8,101.8 138.7,101.9 138.7,102.2C138.6,102.4 138.7,102.7 138.4,102.7C138,102.7 137.8,102 137.7,101.7C137.2,100.6 136.6,99.6 135.9,98.7C134.6,96.8 133,95.1 131.4,93.5C130.7,92.7 129.9,92 129.1,91.3C128.5,90.8 127.4,89.7 128.1,88.9C128.3,88.7 128.5,88.6 128.7,88.7C129,88.7 129.1,89 129.3,89.1C129.7,89.4 130.3,89.5 130.8,89.5C131.3,89.4 131.8,89.3 132.2,89.1C132.7,88.7 133.2,88.4 133.8,88.7C134,89 133.2,88.3 133.8,88.7Z" style="fill:url(#tag17);fill-rule:nonzero;"/>
        <path d="M25.2,115.3C25.3,116.7 25.5,118 25.6,119.4C25.7,120 25.7,120.6 25.9,121.1C26.1,121.6 26.5,122.1 26.8,122.6C28,124.8 28.9,127.2 29.6,129.6C29.9,130.7 30.2,131.9 30.6,133C31,134.1 31.6,134.9 32.4,135.7C32.7,136 32.8,136.8 32.2,136.8C32,136.8 31.8,136.6 31.6,136.5C31.3,136.3 31,136.2 30.7,136C29.6,135.4 28.5,134.5 27.3,134.3C25.3,133.9 23.1,135.1 21.4,136C20.5,136.5 19.6,137 18.7,137.5C18.3,137.5 18.3,137.1 18.6,136.9C19.1,136.6 19.5,136.3 20,136C20.9,135.5 21.8,135 22.8,134.6C23.8,134.2 24.8,133.7 25.9,133.6C26.8,133.5 27.8,133.6 28.7,134C29.6,134.4 30.4,134.9 31.3,135.4C30.3,133.8 29.8,132 29.3,130.2C29.1,129.4 28.8,128.5 28.6,127.7C28.3,126.8 27.9,126 27.5,125.1C27.1,124.2 26.7,123.3 26.2,122.5C25.7,121.7 25.5,120.9 25.4,119.9C25.3,119 25.1,118 25,117.1C25,116.8 25,116.6 25,116.3C25,116 24.9,115.9 24.9,115.6C24.6,115.3 24.9,114.8 25.2,115.3C25.3,117 25.1,115.1 25.2,115.3Z" style="fill:url(#tag18);fill-rule:nonzero;"/>
        <path d="M93.4,123.3C93.4,123.8 93.5,124.3 94,124.5C92.9,126.9 91.7,129.3 90.7,131.8C90.2,133 89.7,134.3 89.3,135.5C89,136.5 88.3,137.3 87.3,137.8C86.1,138.4 84.9,138.9 83.8,139.4C83.6,139.5 83.4,139.6 83.2,139.8C83,140 83,140.2 82.7,140C82.3,139.8 82.4,139.3 82.4,139C82.8,138.1 84.1,137.6 85,137.3C86,136.9 87,136.5 87.6,135.6C88.2,134.7 88.4,133.6 88.8,132.6C89.2,131.4 89.7,130.2 90.2,129.1C90.7,127.9 91.2,126.8 91.8,125.6C92,125.1 92.3,124.6 92.5,124.1C92.7,123.6 93,123.3 93.4,123.3C93.4,123.7 92.7,123.3 93.4,123.3Z" style="fill:url(#tag19);fill-rule:nonzero;"/>
        <path d="M92.2,60.7C91.4,61.6 90.4,62.3 89.5,62.9C88.4,63.6 87.4,64.3 86.3,65.1C86,65.3 85.8,65.5 85.5,65.7C85.4,65.9 85.5,66.1 85.7,65.9C86.3,65.6 87,65.3 87.6,65C87.7,64.9 87.9,64.9 88,64.8C88.1,64.9 88.2,65 88.2,65.1C88.3,65.3 88.4,65.5 88.4,65.7C88.4,66.2 87.7,66.6 87.3,66.8C86.4,67.4 85.4,67.7 84.6,68.2C83.9,68.7 82.6,69.6 82.2,68.4C81.9,67.5 82.2,66.5 82.9,65.9C83.8,65.1 84.8,64.3 85.9,63.6C87.1,62.8 88.3,61.9 89.5,61.1C90,60.7 90.6,60.2 91.2,59.9C91.9,59.4 92,60.1 92.2,60.7C91,62 92.1,60.3 92.2,60.7Z" style="fill:url(#tag20);fill-rule:nonzero;"/>
        <path d="M101.8,104.9C102,104.7 102,104.3 102.2,104.1C102.6,103.7 103.1,104.5 103.3,104.8C103.9,105.7 104.1,106.7 104.5,107.6C105,108.8 105.6,110 106.1,111.2C106.6,112.3 107.1,113.4 107.8,114.5C108.5,115.5 109.2,116.4 110,117.4C110.3,117.8 110.7,118.1 110.8,118.6C110.9,119 110.5,119.5 110.1,119.7C109.9,119.8 109.1,118.8 108.9,118.6C108.5,118.2 108.1,117.7 107.8,117.2C107.1,116.3 106.5,115.3 105.9,114.3C104.2,111.2 103.1,108 101.8,104.9C102.1,104.6 103.9,110.1 101.8,104.9Z" style="fill:url(#tag21);fill-rule:nonzero;"/>
        <path d="M92.2,60.7C91.7,60.4 91.6,59.5 91.9,59.1C92.1,58.8 92.4,58.6 92.7,58.3C93,58 93.3,57.7 93.6,57.3C94.7,55.9 95.6,54.4 96.7,52.9C97.8,51.5 98.9,50.1 99.9,48.7C100.2,48.3 100.4,48 100.7,47.6C100.9,47.3 101.1,46.9 101.4,46.7C102.1,46.2 102,47.4 102.5,47.5C100.8,49.9 99.1,52.2 97.3,54.6C96.5,55.8 95.6,56.9 94.8,58.1C94.4,58.6 94.1,59.1 93.6,59.5C93.1,60 92.6,60.3 92.2,60.7C91.8,60.5 92.8,60 92.2,60.7Z" style="fill:url(#tag22);fill-rule:nonzero;"/>
        <path d="M25.2,115.3C24.4,115.2 25,115.7 24.8,116C24.5,114.7 24.3,113.4 24,112.2C23.7,110.9 23.3,109.7 22.8,108.5C21.8,106.1 20.7,103.9 19.5,101.6C18.9,100.5 18.4,99.3 17.9,98.2C17.8,98 17.8,97.7 18,97.6C18.2,97.5 18.5,97.7 18.6,97.9C19.1,98.3 19.5,98.7 20,99.1C21.7,100.7 23.4,102.3 24.7,104.3C24.9,104.6 25.1,104.9 25.3,105.3C25.2,105.3 25,105.3 24.9,105.3C24.7,105.3 24.6,105.1 24.5,105C24.3,104.7 24.1,104.5 23.9,104.2C23.5,103.7 23,103.1 22.5,102.6C21.6,101.6 20.6,100.6 19.4,99.9C20,101.2 20.6,102.5 21.2,103.8C21.8,105.1 22.5,106.3 23,107.6C24.1,110 24.9,112.6 25.2,115.3C24.4,115.2 24.8,111.5 25.2,115.3Z" style="fill:url(#tag23);fill-rule:nonzero;"/>
        <path d="M27.8,70.1C27.4,69.9 27,69.4 26.6,69.1C26.2,68.8 25.7,68.5 25.2,68.2C24.3,67.7 23.3,67.4 22.3,67.2C21.8,67.1 21.3,67.1 20.8,67C20.5,67 20.3,67 20,67C19.8,67 19.3,67.1 19.1,66.9C18.8,66.5 18.7,65.9 18.9,65.5C19.2,65 19.8,64.7 20.2,64.4C22.2,62.9 24.2,61.5 26.4,60.3C26.9,60 27.5,59.8 28,59.5C28.5,59.3 29.1,58.9 29.7,58.9C30,58.9 30.3,58.9 30.3,59.3C30.3,59.5 30.2,59.7 30,59.8C29.5,60.1 28.9,60.2 28.4,60.5C25.5,61.8 23,63.6 20.5,65.5C21.4,65.8 22.4,65.6 23.4,65.7C24.2,65.8 25.1,66.3 25.8,66.7C26.5,67.1 27.2,67.7 27.8,68.3C28,68.5 28.6,69.1 28.5,69.3C28.4,69.7 28.1,69.9 27.8,70.1C27.7,70 28.2,69.9 27.8,70.1Z" style="fill:url(#tag24);fill-rule:nonzero;"/>
        <path d="M18.4,137C18.4,137.2 18.5,137.4 18.6,137.5C17.6,138.1 16.8,138.9 16,139.8C15.2,140.7 14.6,141.7 13.8,142.6C13.2,143.3 12.3,143.8 11.4,143.7C10.2,143.6 9.2,143 8,143.1C9.3,144.7 11.2,145.5 13.2,145.5C14.2,145.5 15.3,145.5 16.1,144.7C16.2,144.6 16.4,144.2 16.6,144.2C16.8,144.2 16.9,144.3 17,144.5C16.7,144.9 16.4,145.3 15.9,145.6C15.1,146.1 14.2,146.2 13.4,146.1C12.5,146.1 11.4,146.1 10.5,145.8C9.4,145.4 8.5,144.4 7.6,143.7C7.1,143.3 6.6,142.9 6.1,142.6C6,142.5 5.7,142.4 5.7,142.2C5.7,141.9 5.9,141.8 6.2,141.9C7.5,142.2 8.8,142.5 10.1,142.9C11.2,143.2 12.3,143.5 13.2,142.5C14.9,140.5 16.1,138.2 18.4,137C18.5,137.2 17.2,137.6 18.4,137Z" style="fill:url(#tag25);fill-rule:nonzero;"/>
        <path d="M65.8,169.3C69.3,173 72.9,176.7 76.8,180.1C78.7,181.8 80.7,183.5 82.8,185C83.3,185.4 83.8,185.8 84.4,186.1C84.7,186.3 84.9,186.5 85.2,186.7C85.4,186.8 85.7,186.9 85.7,187.1C85.8,187.3 85.6,187.5 85.4,187.5C85.2,187.5 85,187.3 84.8,187.2C84.2,186.8 83.7,186.4 83.1,186C79.6,183.5 76.3,180.7 73.3,177.7C71.8,176.2 70.3,174.7 68.8,173.2C68.1,172.5 67.3,171.7 66.7,171C66.4,170.6 66,170.2 65.7,169.8C65.6,169.7 65.4,169.5 65.5,169.3C65.5,169.1 65.7,169.2 65.8,169.3C71,174.8 65.5,169.1 65.8,169.3Z" style="fill:url(#tag26);fill-rule:nonzero;"/>
        <path d="M93.2,0.9C92.8,0.9 92.7,1.2 92.7,1.6C92.7,2.2 91.9,1.9 91.5,1.8C90.5,1.4 89.1,1 88,1.2C86.9,1.4 86.9,2.4 86.7,3.2C86.4,4.1 85.9,5.2 84.9,5.4C84,5.5 83,4.8 82.5,4.2C82.2,3.9 82.1,3.4 82.3,3C82.4,2.8 82.6,2.6 82.8,2.8C83,3 83.2,3.1 83.4,3.3C83.7,3.5 84.3,4 84.7,3.7C85.2,3.3 85.3,2.4 85.5,1.9C85.7,1.4 85.8,0.8 86.2,0.3C86.7,-0.3 87.5,-0.3 88.2,-0.3C90,-0.3 91.6,0.1 93.2,0.9C92.6,1 91.9,0.2 93.2,0.9Z" style="fill:url(#tag27);fill-rule:nonzero;"/>
        <path d="M57.9,83.1C56.7,83.5 55.3,83.4 54,83.3C52.7,83.2 51.5,83.1 50.3,82.9C49.1,82.7 47.9,82.3 46.7,81.9C46.1,81.7 45.6,81.5 45,81.2C44.7,81.1 44.6,80.9 44.5,80.6C44.5,80.3 44.6,80.1 44.8,79.9C45.4,79.7 45.9,80 46.5,80.2C47.1,80.4 47.8,80.6 48.4,80.8C49.6,81.2 50.9,81.4 52.1,81.6C53.4,81.8 54.7,81.8 55.9,81.8C56.5,81.8 57.2,81.6 57.7,81.7C57.9,81.7 58.2,81.9 58.1,82.1C58,82.3 57.7,82.4 57.6,82.7C57.9,82.8 57.9,83 57.9,83.1C56.6,83.5 57.8,82.8 57.9,83.1Z" style="fill:url(#tag28);fill-rule:nonzero;"/>
        <path d="M101.8,54.4C103.6,53 105.6,51.7 107.8,50.8C108.9,50.3 109.9,49.9 111.1,49.6C111.6,49.5 112.2,49.3 112.7,49.2C113,49.1 113.3,49.1 113.5,49.1C113.6,49.1 113.8,49.1 113.9,49C114,49.1 114.1,49.3 114.1,49.5C114.3,50.8 112.5,50.8 111.7,51C110.5,51.3 109.4,51.7 108.3,52.2C107.2,52.7 106.2,53.3 105.1,53.9C104.6,54.2 104.1,54.5 103.6,54.8C103.2,55.1 102.8,55.4 102.3,55.4C101.8,55.5 101.7,54.9 101.8,54.4C105.4,51.6 101.7,54.9 101.8,54.4Z" style="fill:url(#tag29);fill-rule:nonzero;"/>
        <path d="M101.8,54.4C102,54.7 102,55.1 102.3,55.3C102.4,55.8 101.6,56.2 101.3,56.5C100.4,57.3 99.4,58.1 98.5,58.9C97.6,59.7 96.6,60.5 95.6,61.2C94.7,61.9 93.6,62.5 92.7,63.3C92.3,63.6 91.9,63.7 91.6,63.2C91.3,62.6 91.9,62.2 92.3,61.9C93.3,61.1 94.4,60.3 95.4,59.4C97.6,57.7 99.7,56.1 101.8,54.4C102,54.7 98.5,57 101.8,54.4Z" style="fill:url(#tag30);fill-rule:nonzero;"/>
        <path d="M18.9,65.8C19,66 19.1,66.3 19.1,66.6C19.1,66.7 19.1,66.9 19.1,67L16.5,67C15.2,67.1 13.8,67.2 12.5,67.4C11.9,67.5 11.3,67.6 10.7,67.8C10.4,67.9 10.2,68 10,67.7C9.9,67.5 9.7,67.1 9.8,66.9C10,66.5 10.4,66.4 10.8,66.3C11.3,66.2 11.8,66.1 12.3,65.9C14.4,65.2 16.3,63.8 18.1,62.4C18.5,62.1 18.8,61.8 19.3,61.8C19.5,61.8 19.7,61.9 19.8,62.2C19.9,62.5 19.6,62.7 19.4,63C18.7,63.8 17.9,64.4 17,64.9C16.5,65.2 16,65.5 15.5,65.8C16.6,65.4 17.9,65.4 18.9,65.8C19.1,66.2 18,65.4 18.9,65.8Z" style="fill:url(#tag31);fill-rule:nonzero;"/>
        <path d="M82.7,138.9C82.7,139.2 82.7,139.4 82.8,139.6C82.9,139.7 82.9,139.8 83,139.9C83.1,140 83.1,140.1 83,140.2C82.8,140.7 82.5,141.2 82.1,141.6C81.5,142.5 80.6,143.3 79.7,143.8C78.7,144.4 77.5,144.4 76.4,144.1C75.1,143.8 73.9,143.3 72.7,142.8C72.6,142.7 72.4,142.7 72.4,142.6C72.4,142.5 72.4,142.4 72.5,142.3C72.6,142.1 72.7,142 72.8,141.9C73.3,141.6 73.8,141.7 74.3,141.9C75.2,142.2 76.2,142.5 77.1,142.7C78.6,142.9 79.7,142.2 80.6,141C80.9,140.6 81.3,140.1 81.5,139.6C81.8,139.3 82.1,138.9 82.7,138.9C82.6,139.3 81.8,138.9 82.7,138.9Z" style="fill:url(#tag32);fill-rule:nonzero;"/>
        <path d="M120.2,160.8C120.1,160.5 120.1,160.2 120,159.9C119.9,159.6 120.2,159.4 120.5,159.3C120.9,159.1 121.4,159.1 121.9,159C123.2,158.7 124.6,158.7 126,158.5C127.2,158.3 128.4,158.1 129.5,157.6C129.8,157.5 130,157.3 130.2,157.2C130.5,157 130.7,156.8 131,156.7C131.7,156.5 131.5,157.4 131.9,157.7C130.5,159.1 128.6,159.7 126.8,160C124.7,160.2 122.4,160.5 120.2,160.8C120.2,160.5 122,160.5 120.2,160.8Z" style="fill:url(#tag33);fill-rule:nonzero;"/>
        <path d="M45.1,80C44.7,80.2 44.9,80.6 44.8,81C42.7,80.2 40.7,79.2 38.8,78C37.9,77.4 37,76.8 36.1,76.2C35.7,75.9 35.2,75.6 34.8,75.2C34.6,75 34.3,74.9 34.2,74.6C34.1,74.4 34.2,74.2 34.3,74.1C35,73.3 36.3,74.5 36.9,74.9C37.9,75.6 38.9,76.2 39.9,76.8C40.9,77.4 41.9,77.9 42.9,78.4C43.4,78.6 43.9,78.9 44.4,79.1C44.7,79.4 45.1,79.6 45.1,80C44.7,80.3 45.1,79.5 45.1,80Z" style="fill:url(#tag34);fill-rule:nonzero;"/>
        <path d="M124.9,57.7C124.3,57.3 123.8,56.7 123.1,56.4C122.4,56.1 121.8,56.3 121.2,56.8C122.1,56.9 123,57.3 123.8,57.9C124.1,58.2 124.4,58.5 124.7,58.9C124.8,59.1 125,59.3 125.1,59.5C125.3,59.7 125.3,59.8 125.2,60.1C125.1,60.4 124.7,61 124.4,60.7C124,60.3 123.6,60 123.2,59.6C122.3,58.9 121.5,58.4 120.4,58C119.6,57.7 119.5,56.7 119.9,56.1C120.3,55.4 121.2,54.9 122,54.8C122.8,54.7 123.7,54.9 124.3,55.4C124.7,55.7 125,56 125.2,56.3C125.4,56.6 125.4,56.7 125.3,57C125.3,57.3 125.1,57.5 124.9,57.7C124.3,57.3 125.3,57.4 124.9,57.7Z" style="fill:url(#tag35);fill-rule:nonzero;"/>
        <path d="M36,142.1C40,144.9 43.4,148.4 46.6,152.1C47.4,153 48.2,153.9 49,154.9C49.4,155.3 49.8,155.8 50.1,156.2C50.3,156.4 50.5,156.6 50.6,156.9C50.7,157 50.7,157.1 50.8,157.3C50.9,157.5 50.8,157.5 50.8,157.7C50.7,158.1 50.5,157.7 50.3,157.6C50.1,157.4 49.9,157.1 49.7,156.9C49.2,156.4 48.8,155.8 48.3,155.3C47.4,154.3 46.6,153.3 45.7,152.3C44,150.4 42.3,148.5 40.4,146.7C39.5,145.8 38.5,145 37.5,144.2C37,143.8 36.5,143.4 36.1,143C35.9,142.8 35.7,142.7 35.7,142.5C35.6,142.1 35.9,142.1 36,142.1C41.6,146 35.6,142.1 36,142.1Z" style="fill:url(#tag36);fill-rule:nonzero;"/>
        <path d="M132,54.1C131.9,54.4 131.7,54.7 131.6,55C131.5,55.2 131.2,55.2 131,55.1C130.6,54.8 130.2,54.3 129.8,54C129,53.2 128.2,52.3 127.2,51.7C126.3,51.1 125.2,50.8 124.2,50.5C123.5,50.3 122,50.2 122.3,49.1C122.4,48.8 122.7,48.7 123,48.8C123.5,48.9 124,49 124.4,49.1C125.4,49.3 126.4,49.6 127.3,50.1C129.1,51 130.7,52.4 131.9,54C131.9,53.9 131.9,54 132,54.1C131.8,54.4 129.8,51.1 132,54.1Z" style="fill:url(#tag37);fill-rule:nonzero;"/>
        <path d="M124.7,60.7C124.9,60.4 125,60 125.2,59.8C125.4,59.7 125.6,60.1 125.7,60.2C125.9,60.4 126,60.6 126.2,60.8C126.9,61.6 127.5,62.4 128.2,63.3C129.5,64.9 130.9,66.6 132.3,68.1C131.9,68.3 131.9,68.7 131.9,69.1C131.1,68.9 130.6,68.3 130.1,67.7C129.5,66.9 128.7,66.2 128.1,65.4C127.4,64.6 126.7,63.7 126,62.8C125.7,62.4 125.4,62 125.1,61.6C124.9,61.4 124.6,61.1 124.7,60.7C124.9,60.4 124.5,61.2 124.7,60.7Z" style="fill:url(#tag38);fill-rule:nonzero;"/>
        <path d="M124.9,57.7C124.9,57.3 125,56.9 125.4,56.7C125.9,56.7 126.3,57 126.6,57.4C127.4,58.2 128.2,59.1 129,60C129.8,60.9 130.5,61.8 131.3,62.7C131.6,63 132.1,63.4 132.1,63.9C132.1,64.2 131.9,64.3 131.8,64.6C131.7,64.8 131.6,65.1 131.6,65.3C129.3,62.7 127.1,60.2 124.9,57.7C124.9,57.3 127.1,60.2 124.9,57.7Z" style="fill:url(#tag39);fill-rule:nonzero;"/>
        <path d="M65.8,169.3C65.6,169.3 65.5,169.4 65.4,169.5C63.5,167.6 61.8,165.6 60,163.7C58.2,161.7 56.4,159.7 54.7,157.7C54.3,157.2 53.9,156.7 53.4,156.2C53.2,156 53,155.7 52.8,155.5C52.8,155.4 52.9,155.3 53,155.3C53.2,155.2 53.3,155.3 53.4,155.5C54.3,156.5 55.2,157.5 56.2,158.6C58,160.6 59.9,162.7 61.7,164.7C63.1,166.2 64.4,167.7 65.8,169.3C65.6,169.3 64.9,168.2 65.8,169.3Z" style="fill:url(#tag40);fill-rule:nonzero;"/>
        <path d="M50.7,157.8C50.7,157.6 50.8,157.2 51,157.5C51.2,157.8 51.4,158 51.6,158.3C52.1,158.9 52.5,159.4 53,160C53.9,161.1 54.8,162.1 55.6,163.2C57.4,165.3 59.1,167.4 60.9,169.6C61.3,170.1 61.7,170.6 62.2,171.1C62.5,171.5 63.2,172 63,172.6C62.9,172.9 62.6,172.4 62.4,172.3C62.2,172.1 62,171.8 61.8,171.6C61.3,171.1 60.9,170.6 60.5,170.1C58.8,168.1 57.2,166 55.6,164C53.8,161.8 52.2,159.8 50.7,157.8C50.7,157.6 52.1,159.7 50.7,157.8Z" style="fill:url(#tag41);fill-rule:nonzero;"/>
        <path d="M65.4,82.6C65.4,82.8 65.5,83 65.6,83.2C65.7,83.4 65.9,83.5 65.9,83.7C66,84.1 65.4,84.4 65.1,84.6C64.4,85.2 63.6,85.8 63,86.5C62.3,87.2 61.7,87.9 61.2,88.6C60.9,89 60.7,89.3 60.5,89.7C60.3,90.1 60.1,90.6 59.7,90.8C59.4,90.5 59.4,90 59.3,89.6C59.2,89.3 59.3,89.2 59.4,89C59.5,88.8 59.6,88.5 59.7,88.3C60.1,87.5 60.7,86.8 61.3,86.2C61.9,85.6 62.6,85 63.2,84.4C63.8,83.8 64.6,83.2 65.4,82.6C65.4,83 64.8,83 65.4,82.6Z" style="fill:url(#tag42);fill-rule:nonzero;"/>
        <path d="M62.8,172.6C62.9,172.4 62.9,172.3 63,172.1C66.6,176 70.4,179.6 74.4,183.1C74.6,183.3 74.8,183.5 75,183.6C75.1,183.7 75.3,183.8 75.4,184C75.5,184.2 75.3,184.4 75.1,184.4C74.9,184.5 74.6,184.2 74.5,184C73.6,183.1 72.5,182.3 71.6,181.4C69.7,179.6 67.8,177.8 66,175.9L63.5,173.4C63.2,173.3 63,172.9 62.8,172.6C62.9,172.4 63,172.9 62.8,172.6Z" style="fill:url(#tag43);fill-rule:nonzero;"/>
        <path d="M123.3,48.8C122.7,48.7 122.3,48.9 122.3,49.6C122.4,50.3 120.6,50.1 120.2,50.1C119.2,50.1 118.3,50.1 117.3,50.1C116.8,50.1 116.3,50.2 115.9,50.2C115.4,50.3 114.9,50.4 114.4,50.4C114.2,50.4 114.1,50.3 114,50.2C113.8,50.1 113.9,49.7 113.9,49.5C113.9,49.3 113.8,49 114.1,49C114.4,48.9 114.6,48.9 114.9,48.9C115.8,48.7 116.8,48.6 117.7,48.5C118.7,48.4 119.6,48.4 120.6,48.4C121.1,48.4 121.6,48.5 122,48.5C122.4,48.6 123,48.5 123.3,48.8C122.6,48.7 123,48.5 123.3,48.8Z" style="fill:url(#tag44);fill-rule:nonzero;"/>
        <path d="M36,142.1C35.8,142.2 35.7,142.4 35.7,142.6C34.8,141.9 33.9,141.4 32.8,141.1C32.3,141 31.8,140.9 31.2,140.9C30.7,140.9 30.2,141.1 29.8,140.8C29.5,140.6 29.3,140.3 28.9,140.2C28.3,140.1 27.6,140 27,139.9C25.8,139.8 24.5,139.8 23.4,140.3C22.8,140.5 22.4,140.8 21.7,140.7C21.3,140.9 21.1,140.7 21.2,140.3C22.5,140.2 23.5,139.6 24.7,139.3C25.9,139 27.1,139.1 28.3,139.4C29.5,139.7 30.7,140.1 31.9,140.2C32.7,140.3 33.4,140.4 34.1,140.8C34.9,141.2 35.5,141.6 36,142.1C35.8,142.2 35,141.3 36,142.1Z" style="fill:url(#tag45);fill-rule:nonzero;"/>
        <path d="M34.7,74C34.5,74.3 34.3,74.6 34.3,75C32.9,74.1 31.5,73.1 30.2,72.1C29.5,71.6 28.9,71.1 28.2,70.5C28,70.4 27.9,70.2 27.7,70.1C27.8,70 27.8,69.9 27.9,69.8C28,69.6 28.2,69.4 28.5,69.4C29.1,69.5 29.6,69.9 30.1,70.3C30.6,70.8 31.3,71.1 31.8,71.5C32.4,72 33.1,72.5 33.7,72.9C34.1,73.1 35,73.5 34.7,74C34.5,74.3 34.9,73.6 34.7,74Z" style="fill:url(#tag46);fill-rule:nonzero;"/>
        <path d="M57.9,83.1C57.7,83 57.3,82.7 57.4,82.5C57.4,82.3 57.7,82.3 57.9,82.2C58.1,82.2 58.3,82.1 58.4,82C58.7,81.5 59.3,81.5 59.8,81.4C61,81.2 62.1,81 63.3,80.7C63.6,80.6 63.8,80.6 64.1,80.5C64.4,80.4 64.6,80.3 64.9,80.4C65,80.4 65.1,80.5 65.2,80.6C65.1,80.7 65,80.8 65,81C64.9,81.3 65,81.5 65.2,81.8C62.8,82.5 60.4,83 57.9,83.1C56.6,82.2 60.4,83 57.9,83.1Z" style="fill:url(#tag47);fill-rule:nonzero;"/>
        <path d="M110,119.5C110.2,119.2 110.3,118.9 110.5,118.6C110.8,118.4 111.3,118.9 111.5,119.1C112.1,119.7 112.7,120.4 113.2,121C113.9,121.8 114.5,122.5 115.2,123.3C115.3,123.4 115.5,123.6 115.6,123.8C115.7,124.1 115.5,124.1 115.3,124.2C115,124.4 114.9,124.7 114.9,125C113.2,123.3 111.6,121.4 110,119.5C110.2,119.2 111.6,121.4 110,119.5Z" style="fill:url(#tag48);fill-rule:nonzero;"/>
        <path d="M91.8,62.3C91.9,62.7 92.1,63.3 92,63.7C91.9,64.1 91.5,64.2 91.3,64.4C90.6,64.8 90,65.4 89.2,65.6C89,65.7 88.8,65.7 88.6,65.7C88.5,65.7 88.4,65.7 88.4,65.7C88.2,65.7 88.2,65.5 88.2,65.4C88.1,65.1 88.1,64.9 88,64.6C88.3,64.4 88.6,64.3 88.8,64.1C89.8,63.5 90.8,62.9 91.8,62.3C91.8,62.7 90.5,63.1 91.8,62.3Z" style="fill:url(#tag49);fill-rule:nonzero;"/>
        <path d="M21.3,140.4C21.3,140.7 21.5,140.8 21.8,140.8C21.6,141 21.3,141 21,141C20.7,141 20.4,141.1 20.1,141.2C19.6,141.3 19.1,141.6 18.7,141.9C18.3,142.3 18.1,142.8 17.9,143.3C17.8,143.6 17.6,143.9 17.4,144.2C17.3,144.3 17.2,144.4 17,144.5C16.8,144.4 16.6,144.3 16.5,144.2C16.7,143.9 16.9,143.7 17,143.5C17.2,143.2 17.2,142.9 17.3,142.6C17.5,142.1 17.8,141.7 18.2,141.3C19.1,140.7 20.2,140.4 21.3,140.4C21.3,140.7 19.3,140.5 21.3,140.4Z" style="fill:url(#tag50);fill-rule:nonzero;"/>
        <path d="M59,27.3C61.8,28.6 64.4,30.3 66.6,32.5C66.6,29.9 66.7,27.4 66.8,24.8C66.8,22.1 67,19.3 66.8,16.6C66.7,15.3 66.5,14 66.7,12.7C66.9,11.8 67.1,10.9 67.6,10.1C68,9.3 68.6,8.6 69.3,8.1C69.7,7.8 70,7.6 70.4,7.4C70.6,7.3 70.8,7.2 71.1,7.1C71.2,7 71.3,7 71.4,7.1C71.5,7.2 71.6,7.3 71.7,7.4C72.4,8.5 70.5,9 69.9,9.5C69.2,10.1 68.7,10.9 68.4,11.8C68.1,12.8 68.2,13.8 68.2,14.8C68.3,16.2 68.3,17.6 68.3,18.9C68.3,21.6 68.3,24.4 68.3,27.1C68.3,28.5 68.3,29.8 68.2,31.2C68.2,31.8 68,32.4 68,33C68.1,33.6 68.4,34.1 68.7,34.5C69.2,35.1 69.6,35.7 69.1,36.5C68.9,36.8 68.6,37.1 68.3,37C68,36.9 67.8,36.4 67.6,36.2C66.6,34.8 65.4,33.6 64.2,32.5C62.9,31.4 61.5,30.5 60.1,29.6C59.6,29.3 58.6,29 58.4,28.3C58.3,28.1 58.4,27.8 58.4,27.6C58.5,27.2 58.8,27.2 59,27.3C61.7,28.6 58.2,27.1 59,27.3Z" style="fill:url(#tag51);fill-rule:nonzero;"/>
        <path d="M18.4,50.4C16.6,50.2 15,49.2 14.1,47.6C13.2,45.7 13.6,43.7 14.2,41.8C14.9,39.6 16.1,37.7 17.5,35.9C17.7,35.7 17.8,35.5 18,35.2C18.1,35.1 18.2,35 18.3,34.9C18.4,34.7 18.5,34.8 18.6,35C18.9,35.4 19.1,36 18.9,36.5C18.7,37 18.4,37.4 18.1,37.8C17.8,38.3 17.4,38.9 17.1,39.4C15.8,41.5 14.5,44.3 15.4,46.8C15.7,47.6 16.2,48.1 17,48.5C17.5,48.7 18,48.9 18.5,49.1C18.7,49.2 19,49.4 18.9,49.6C18.9,49.9 18.7,50.2 18.4,50.4C15.2,50.1 18.7,50.1 18.4,50.4Z" style="fill:url(#tag52);fill-rule:nonzero;"/>
        <path d="M59,27.3C58.6,27.4 58.6,27.8 58.6,28.1C58.6,28.7 57.3,28 57,28C55.8,27.6 54.5,27.2 53.2,26.8C51.9,26.4 50.7,26 49.5,25.5C48.4,25.1 47.6,24.3 46.9,23.5C46.1,22.5 45.2,21.6 44.4,20.6C44.2,20.4 44.2,20.2 44.3,20C44.3,19.8 44.4,19.6 44.6,19.5C44.9,19.3 45,19.4 45.2,19.5C45.5,19.7 45.7,19.9 45.9,20.1C46.7,20.8 47.3,21.7 48,22.5C48.7,23.3 49.6,23.9 50.6,24.3C51.9,24.8 53.4,25.2 54.7,25.6C56.2,26.1 57.8,26.5 59,27.3C58.4,27.4 58.9,27.2 59,27.3Z" style="fill:url(#tag53);fill-rule:nonzero;"/>
        <path d="M18.9,35.9C18.7,35.7 18.6,35.4 18.6,35.1C18.6,35 18.5,34.8 18.5,34.7C18.6,34.6 18.7,34.5 18.8,34.3C19.2,33.8 19.5,33.2 19.9,32.7C20.6,31.7 21.4,30.7 22.2,29.8C23.8,27.9 25.6,26.2 27.4,24.5C27.8,24.2 28.1,23.8 28.5,23.5C28.7,23.3 28.9,23.2 29.1,23.1C29.4,23.2 29.6,23.4 29.7,23.6C29.9,23.8 29.9,24 29.7,24.2C29.6,24.4 29.4,24.6 29.3,24.7C28.9,25.1 28.4,25.4 28,25.8C26.1,27.5 24.4,29.3 22.8,31.2C22.1,32 21.4,32.9 20.7,33.8C20.2,34.7 19.7,35.6 18.9,35.9C18.6,35.6 19.6,35.6 18.9,35.9Z" style="fill:url(#tag54);fill-rule:nonzero;"/>
        <path d="M18.4,50.4C18.4,50.1 18.3,49.7 18.6,49.5C18.8,49.4 19,49.4 19.2,49.2C19.4,49.1 19.6,48.9 19.8,48.7C20.4,48 20.6,47 21.1,46.2C22.1,44.6 23.6,43.4 25.4,42.8C25.9,42.7 26.3,42.5 26.8,42.5C27.2,42.4 28,42.2 28.2,42.8C28.6,44 26.8,44.3 26,44.5C25.1,44.8 24.2,45.3 23.5,46.1C22.7,47 22.3,48 21.8,49C21.3,49.9 20.8,50.8 20.2,51.7C19.9,52.2 19.2,53.6 18.4,53.2C17.8,52.9 18.2,51.8 18.5,51.5C18.6,51.3 19.1,51 18.9,50.7C18.9,50.5 18.6,50.5 18.4,50.4Z" style="fill:url(#tag55);fill-rule:nonzero;"/>
        <path d="M71.7,7.9C71.5,7.8 71.4,7.6 71.3,7.4C71.3,7.3 71.2,7.2 71.2,7.1C71.2,6.9 71.3,6.9 71.4,6.9C71.9,6.6 72.3,6.2 72.7,5.8C73.4,5 73.7,4.1 74.3,3.3C75.4,1.8 77,1.3 78.8,1.8C79.9,2.1 81.1,2.1 82.2,2.6C82.3,2.7 82.5,2.7 82.6,2.8C82.5,2.9 82.5,3 82.4,3.2C82.3,3.4 82.4,3.8 82.2,3.9C81.9,4 81.6,4 81.4,3.9C81,3.8 80.7,3.8 80.3,3.7C79.7,3.6 79,3.5 78.4,3.4C77.9,3.3 77.3,3.2 76.7,3.3C75.7,3.6 75.1,4.8 74.5,5.6C74,6.6 73.1,8 71.7,7.9C71.4,7.7 72.8,8 71.7,7.9Z" style="fill:url(#tag56);fill-rule:nonzero;"/>
        <path d="M18.2,52.2C18.4,52.4 18.3,52.9 18.6,53.1C18.7,53.2 18.8,53.2 18.9,53.2C19,53.3 19,53.4 19,53.6C19,53.9 18.8,54.1 18.6,54.3C17.9,55.3 17.2,56.3 16.5,57.3C15.7,58.3 15,59.2 14.1,60.1C13.7,60.5 13.3,60.9 12.8,61.3C12.4,61.6 12.1,62 11.7,62.2C11.3,62.4 10.8,62.5 10.4,62.4C10.1,62.3 10,62.1 9.9,61.8C9.9,61.7 9.9,61.5 9.9,61.4C9.9,61.1 9.9,61.1 10.2,61.1C11.2,60.9 12,60.3 12.6,59.5C14.2,57.8 15.6,55.9 17,53.9C17.3,53.4 17.8,52.8 18.2,52.2C18.5,52.5 16.7,54.2 18.2,52.2Z" style="fill:url(#tag57);fill-rule:nonzero;"/>
        <path d="M44.9,19.3C44.8,19.6 44.6,20.3 44.3,20.3C43.9,20.4 43.5,20 43.1,19.8C42.4,19.4 41.6,19.2 40.7,19.2C39.9,19.2 39.1,19.3 38.3,19.5C37.7,19.6 36.5,20.2 36.4,19.1C36.3,18.3 37.8,18 38.4,17.9C39.2,17.7 40,17.6 40.8,17.6C42.3,17.6 43.7,18.2 44.9,19.3C44.7,19.6 42.8,17.3 44.9,19.3Z" style="fill:url(#tag58);fill-rule:nonzero;"/>
        <path d="M36.7,18.4C36.5,18.7 36.7,19 36.7,19.4C36.8,19.8 36.6,20 36.3,20.2C35.5,20.6 34.7,21.1 34,21.6C33.2,22.1 32.5,22.6 31.7,23.1C31.2,23.4 30.1,24.5 29.5,23.9C29.4,23.8 29.4,23.7 29.3,23.6C29.2,23.4 29.1,23.4 29.3,23.2C29.6,22.9 30,22.6 30.3,22.4C30.9,21.9 31.6,21.4 32.3,20.9C33.6,19.9 35.1,19.1 36.7,18.4C36.4,18.9 33.9,19.6 36.7,18.4Z" style="fill:url(#tag59);fill-rule:nonzero;"/>
        <path d="M18.4,50.4C18.9,50.4 19.4,50.4 18.9,51.1C19,50.7 18.6,50.6 18.4,50.4Z" style="fill:url(#tag60);fill-rule:nonzero;"/>
        <path d="M16.6,60C15.7,60.8 14.8,61.6 13.8,62.4C13.3,62.8 12.8,63.2 12.3,63.6C12,63.8 11.8,64 11.5,64.2C11.3,64.4 11.4,64.2 11.2,64.1C11.2,64 11.1,64 11,63.9C11.9,63 12.8,62.2 13.8,61.5C14.3,61.1 14.8,60.7 15.3,60.4C15.6,60.1 16.3,59.4 16.6,60C15,61.5 16.5,59.8 16.6,60Z" style="fill:url(#tag61);fill-rule:nonzero;"/>
        <path d="M92,31.5C91.5,32.2 90.9,32.9 90.3,33.5C90,33.8 89.7,34.1 89.3,34.4C89.1,34.6 88.7,35.1 88.4,34.9C88,34.6 88.6,34.3 88.8,34.1C89.1,33.8 89.4,33.6 89.7,33.3C90.3,32.7 90.9,32 91.5,31.4C91.6,31.4 91.8,31.5 92,31.5C91.2,32.7 91.8,31.5 92,31.5Z" style="fill:url(#tag62);fill-rule:nonzero;"/>
        <path d="M82.9,83.8C86.8,84.4 90.3,86.2 92.7,89.4C92.3,89.4 92.2,89.9 92,90.2C90.7,88.7 89.1,87.4 87.3,86.4C86.4,85.9 85.5,85.6 84.6,85.3C84.3,85.2 84.1,85.2 83.8,85.1C83.5,85 83.2,85 83,84.9C82.6,84.6 82.6,84.2 82.9,83.8C86.9,84.4 82.6,84.3 82.9,83.8Z" style="fill:url(#tag63);fill-rule:nonzero;"/>
        <path d="M82.9,68.9C81.7,69.9 80.3,70.8 79.4,72C79,72.6 78.7,73.3 78.7,74C78.7,74.7 78.8,75.3 78.3,75.8C77.8,76.4 76.9,76.7 76.2,77C75.8,77.2 75.4,77.4 75.1,77.6C74.8,77.8 74.4,78 74.1,77.7C73.9,77.5 73.9,77.3 73.9,77.1C73.9,76.9 74.6,76.6 74.8,76.5C75.5,76.1 76.2,75.8 76.8,75.2C75.3,75 73.7,74.7 72.3,74.2C71.6,74 70.9,73.7 70.2,73.4C70,73.3 68.5,72.7 69.1,72.3C69.4,72.1 69.8,72.5 70,72.6C70.3,72.8 70.7,72.9 71,73.1C71.7,73.4 72.4,73.6 73.1,73.8C74.6,74.2 76.1,74.5 77.6,74.6C76.5,73.5 75,72.9 73.7,72.1C73.3,71.9 72.3,71.5 72.8,70.9C73,70.5 73.4,70.7 73.7,70.9C74.1,71.1 74.6,71.3 75,71.5C75.4,71.7 75.8,71.9 76.1,72C76.4,72.1 76.7,72.4 77,72.1C77.3,71.9 77.5,71.6 77.7,71.4C78,71.1 78.3,70.7 78.6,70.4C79.9,69.1 81.1,67.8 82.6,66.6C82.6,67.5 82.1,68.4 82.9,68.9C81.9,69.7 82,68.3 82.9,68.9Z" style="fill:url(#tag64);fill-rule:nonzero;"/>
        <path d="M74.9,86.2C75.4,86.1 75.9,85.9 76.2,85.5C76.5,85.1 76.9,84.7 77.4,84.4C77.8,84.1 78.3,84 78.7,83.8C79.2,83.7 79.7,83.7 80,83.3C80.3,83 80.4,82.5 80.5,82.1C80.6,81.4 80.7,80.7 80.9,80C81.1,78.7 81.4,77.3 81.7,76C81.9,75.2 82.2,74.4 83,74.1C83.2,74 83.5,73.9 83.7,74.1C83.8,74.3 83.9,74.5 83.8,74.8C83.7,75.1 83.5,75.2 83.4,75.4C83.2,75.6 83.1,75.9 83,76.1C82.8,76.5 82.8,77 82.7,77.5C82.6,78.1 82.5,78.6 82.4,79.2C82.3,79.8 82.2,80.5 82.1,81.1C82,81.7 81.8,82.4 81.8,83.1C81.8,83.6 82.2,83.6 82.6,83.5C82.7,83.5 82.9,83.5 83,83.6C83.1,83.7 83,84 83,84.2C83,84.4 83.1,84.6 83.2,84.8C81.2,84.6 78.7,84.3 77.3,86.1C76.7,86.9 75.8,87.2 74.9,87.1C74.6,87.1 74.3,86.8 74.4,86.5C74.4,86.4 74.8,86.4 74.9,86.2C75.4,86 74.7,86.4 74.9,86.2Z" style="fill:url(#tag65);fill-rule:nonzero;"/>
        <path d="M62.6,72.4C61,70.6 59.7,68.5 58.7,66.3C57.6,64.1 56.7,61.7 55.5,59.6C54.5,57.8 53.1,56.3 51,55.7C50.5,55.6 50.1,55.5 49.6,55.4C49.3,55.4 49,55.3 48.8,55.2C48.6,55.1 47.9,55.1 47.9,54.9C47.9,54.5 48,54.4 48.4,54.5C48.8,54.6 49.3,54.6 49.7,54.7C51.2,54.9 52.7,55.5 53.9,56.5C55.1,57.5 56.1,58.9 56.7,60.3C57.6,62.3 58.5,64.4 59.5,66.3C60.5,68.3 61.8,70.1 63.1,72C62.8,72.1 62.7,72.2 62.6,72.4C60.2,69.7 62.7,72.2 62.6,72.4Z" style="fill:url(#tag66);fill-rule:nonzero;"/>
        <path d="M45.5,60.5C45.8,60.5 46.1,60.6 46.4,60.6C46.7,60.6 46.9,60.6 47.2,60.6C47.3,60.6 47.4,60.7 47.6,60.7C47.7,60.7 47.9,60.7 48,60.7C48.3,60.7 48.6,60.7 48.8,60.8C49.7,60.9 50.7,61.2 51.5,61.7C53.5,62.8 54.6,64.8 55.8,66.6C57.2,68.8 58.5,71.1 60,73.2C60.7,74.2 61.6,75.1 62.4,76.1C62.5,76.3 62.9,76.6 62.8,76.8C62.7,76.9 62.7,77 62.5,76.9C62.4,76.8 62.3,76.7 62.2,76.7C61.7,76.3 61.3,75.9 60.9,75.5C59.5,73.9 58.4,72 57.3,70.2C56.1,68.3 54.9,66.3 53.5,64.4C52.5,63 51.2,61.8 49.4,61.5C48.9,61.3 48.4,61.5 47.9,61.4C47.5,61.2 46.9,61.4 46.5,61.2C45.9,60.9 45.3,61.2 45.5,60.5C45.7,60.5 45.3,61.5 45.5,60.5Z" style="fill:url(#tag67);fill-rule:nonzero;"/>
        <path d="M118.7,81C120.4,82.1 122.2,83.3 123.8,84.5C125.5,85.8 127,87.3 128.5,88.7C128.2,88.9 128,89.3 128,89.7C126.2,88 124.3,86.4 122.3,84.9C121.3,84.2 120.3,83.4 119.3,82.7C118.9,82.4 118.2,82.1 118.1,81.6C118,81.2 118.3,81 118.7,81C121.1,82.6 118,81 118.7,81Z" style="fill:url(#tag68);fill-rule:nonzero;"/>
        <path d="M30.1,59.1C33.4,57.9 37.1,59 40.4,59.8C40.3,59.9 40.2,60 40.1,60.1C40,60.1 40,60.2 39.9,60.3C39.8,60.3 39.7,60.3 39.6,60.2C39.1,60.1 38.7,60 38.2,59.9C37.3,59.7 36.4,59.6 35.5,59.4C33.7,59.1 31.9,59.2 30.1,59.5C30.1,59.4 30.1,59.2 30.1,59.1C32.6,58.2 30.1,59.2 30.1,59.1Z" style="fill:url(#tag69);fill-rule:nonzero;"/>
        <path d="M20,65.6C20.5,66 21.2,65.9 21.8,65.8C22.1,65.8 22.4,65.8 22.7,65.8C23,65.8 23.4,65.8 23.7,66L20,66C19.6,66 19.8,65.8 20,65.6C20.7,66.1 19.5,66 20,65.6Z" style="fill:url(#tag70);fill-rule:nonzero;"/>
        <path d="M33.7,53.2C30.9,53.6 28.4,54.9 26.2,56.6C25,57.5 24,58.4 23,59.4C21.9,60.4 20.9,61.6 19.7,62.4C19.7,62.2 19.6,62 19.4,61.9C21.6,59.9 23.6,57.8 26,56.1C27.2,55.2 28.5,54.4 29.9,53.8C30.6,53.5 31.3,53.3 32,53.1C32.3,53 32.9,52.8 33.1,53C33.2,53 33.5,53 33.7,53.2C28.8,54 33.5,52.9 33.7,53.2Z" style="fill:url(#tag71);fill-rule:nonzero;"/>
        <path d="M61.4,35.2C62.5,35.4 63.6,35.3 64.6,35.7C65.5,36.1 66.1,36.8 66.5,37.7C66.8,38.5 66.8,39.4 67.6,39.8C68,40 68.4,40 68.9,40.1C69.4,40.2 69.8,40.6 70.3,40.8C70.1,39.6 69.6,38.6 69,37.6C68.9,37.4 68.8,37.1 68.6,36.9C68.8,36.8 68.8,36.6 68.9,36.5C69,36.3 69,36.2 69.2,36.1C69.5,35.9 69.7,36.4 69.8,36.6C71.1,38.6 71.8,40.9 72.2,43.2C72.6,45.8 72.5,48.4 72.4,50.9C72.4,51.3 72.3,51.7 71.8,51.7C71.4,51.7 71.2,51.4 71.2,51C71.2,49.8 71.3,48.7 71.2,47.5C71.1,46.4 70.9,45.4 70.7,44.4C70.5,43.5 70.2,42.5 69.7,41.7C69.5,41.4 69.3,41.2 69,41C68.6,40.8 68.2,40.8 67.8,40.7C67.1,40.5 66.6,40 66.3,39.3C66,38.6 65.9,37.8 65.3,37.2C64.8,36.6 64.2,36.3 63.4,36C63,35.9 62.7,35.8 62.2,35.8C62,35.8 61.8,35.7 61.6,35.7L60.4,35.7C60.4,35.6 60.4,35.5 60.4,35.4C60.4,35.3 60.5,35.2 60.6,35.2C61,35.1 61.2,35.2 61.4,35.2C62.6,35.4 61,35.2 61.4,35.2Z" style="fill:url(#tag72);fill-rule:nonzero;"/>
        <path d="M28,42.7C30.5,42.1 33,42.2 35.5,42.7C35.3,42.9 35.1,43 34.9,43.1C34.7,43.3 34.4,43.6 34.2,43.6C33.4,43.6 32.7,43.6 31.9,43.6C30.4,43.6 29,43.6 27.6,43.8C28,43.6 28.1,43.1 28,42.7C30.5,42.1 28.1,43.2 28,42.7Z" style="fill:url(#tag73);fill-rule:nonzero;"/>
        <path d="M73,70.7C72.6,70.9 72.6,71.3 72.6,71.7C71.4,71.2 70.3,70.6 69.3,69.9C68.5,69.4 67.6,68.8 67.2,67.9C66.8,67.2 66.8,66.3 67.1,65.5C67.4,64.4 67.9,63.5 68.1,62.4C68.5,60.4 68.4,58.3 67.4,56.4C66.3,54.3 64.3,52.8 62.3,51.5C61.8,51.2 61.3,50.9 60.8,50.6C60.6,50.5 60.3,50.3 60.1,50.2C59.8,50 59.7,49.9 59.6,49.6C59.6,49.2 59.7,48.9 60.1,48.9C60.6,49.2 61.2,49.5 61.7,49.8C63.7,51 65.6,52.3 67.1,54.1C68.6,55.9 69.6,58 69.6,60.3C69.6,61.4 69.4,62.6 69,63.7C68.7,64.6 68.3,65.4 68.1,66.4C68,67.3 68.5,67.9 69.2,68.4C69.8,68.8 70.4,69.2 71,69.5C71.7,69.9 72.4,70.2 73,70.7C72.6,71 72.1,70 73,70.7Z" style="fill:url(#tag74);fill-rule:nonzero;"/>
        <path d="M34.3,43.6C34.4,42.4 35.6,42.6 36.4,42.7C37,42.8 37.6,42.9 38.2,43C38.5,43.1 38.8,43.1 39.1,43.2C39.3,43.2 39.5,43.3 39.6,43.3C40,43.2 39.8,42.3 39.9,42.1C40,41.5 40.1,41 40.3,40.4C40.7,39.4 41.2,38.4 41.9,37.5C43.2,35.6 44.7,33.7 46.4,32.1C47.2,31.3 48.2,30.5 49.3,30.1C49.6,30 50.2,29.8 50.2,30.3C50.2,30.5 49.8,30.6 49.6,30.7C49.3,30.8 49.1,31 48.8,31.2C45.4,33.3 43.1,36.7 41.2,40.1C40.8,40.8 40.4,41.8 40.5,42.6C40.6,43.2 41,43.6 41.6,43.8C42.6,44.2 43.7,44.3 44.8,44.5C46.1,44.7 47.3,45 48.5,45.4L47.7,46.2C47.5,46.3 47.5,46.3 47.3,46.2C46.7,46.1 46,46 45.4,45.8C44.1,45.6 42.9,45.3 41.7,45.1C40.5,44.8 39.3,44.4 38,44.1C36.8,44 35.5,43.9 34.3,43.6C34.4,42.9 35.9,44 34.3,43.6Z" style="fill:url(#tag75);fill-rule:nonzero;"/>
        <path d="M69.1,72.3C68.9,72.4 68.8,72.6 68.8,72.8C64.9,70.7 61.2,67.1 60.7,62.6C60.5,61.4 60.7,60.1 60.7,58.9C60.7,57.9 60.5,56.9 60.1,56C59.4,54.5 58.2,53.4 56.6,52.7C55.7,52.3 54.8,52.1 53.8,52C53.2,51.9 52.6,51.8 51.9,51.7C51.6,51.6 51.3,51.6 51,51.5C50.8,51.5 50.7,51.4 50.5,51.4C50.3,51.4 50.3,51.3 50.3,51.1C50.3,50.7 51,51 51.2,51C51.9,51.1 52.5,51.2 53.2,51.3C54.4,51.4 55.6,51.6 56.8,52.1C58.4,52.7 59.8,53.7 60.5,55.2C60.9,56 61.1,56.8 61.2,57.6C61.4,58.7 61.2,59.7 61.2,60.8C61.2,63.1 61.9,65.4 63.3,67.3C64.9,69.5 67,70.9 69.1,72.3C68.9,72.5 68.8,72.1 69.1,72.3Z" style="fill:url(#tag76);fill-rule:nonzero;"/>
        <path d="M47.6,46.4C47.7,46 47.8,45.6 48.2,45.5C48.7,45.4 49.4,45.7 49.9,45.8C51.1,46 52.2,46.2 53.4,46.4C55.7,46.9 58.1,47.5 60,49C59.8,49.1 59.7,49.3 59.7,49.5C59.6,49.7 59.6,50 59.4,49.9C58.9,49.6 58.4,49.3 57.9,49.1C56.8,48.6 55.7,48.2 54.6,48C52.3,47.3 49.9,47 47.6,46.4C47.7,45.9 51.6,47.4 47.6,46.4Z" style="fill:url(#tag77);fill-rule:nonzero;"/>
        <path d="M16.6,60C16.4,60 16.2,59.9 16.1,59.7C16.3,59.5 16.5,59.3 16.8,59.1C17.3,58.7 17.8,58.3 18.2,57.9C19.1,57.1 20,56.3 20.8,55.4C21.7,54.5 22.4,53.4 23.2,52.4C23.9,51.4 24.6,50.3 25.4,49.4C26.1,48.7 26.9,48.1 27.8,47.7C28.3,47.5 28.7,47.4 29.2,47.3C29.5,47.2 29.7,47.2 29.8,47.5C29.9,47.6 29.9,47.7 29.7,47.8C29.5,47.8 29.4,47.9 29.2,47.9C27.3,48.5 25.8,49.8 24.6,51.4C24.1,52.1 23.6,52.9 23.1,53.7C22.5,54.5 21.9,55.3 21.2,56.1C19.9,57.4 18.2,58.6 16.6,60C16.4,60 17.1,59.6 16.6,60Z" style="fill:url(#tag78);fill-rule:nonzero;"/>
        <path d="M29.9,47.6C29.7,47.5 29.6,47.3 29.6,47.1C30,47 30.3,47 30.7,47C31.4,46.9 32.1,46.9 32.8,46.9C34.1,46.9 35.4,47.2 36.7,47.5C39.3,48.1 41.8,49.1 44.4,49.9C44.3,50.1 44.2,50.4 43.9,50.3C43.6,50.2 43.3,50.1 43,50C42.4,49.8 41.8,49.6 41.2,49.5C40,49.1 38.8,48.8 37.6,48.4C36.4,48.1 35.1,47.9 33.9,47.7C33.3,47.6 32.6,47.5 32,47.4C31.3,47.4 30.6,47.6 29.9,47.6C29.7,47.5 30.3,47.6 29.9,47.6Z" style="fill:url(#tag79);fill-rule:nonzero;"/>
        <path d="M44.1,50.4C43.7,49.8 44.8,50 45,50.1C45.7,50.2 46.4,50.4 47,50.5C47.7,50.6 48.4,50.7 49.1,50.8C49.4,50.8 49.8,50.9 50.1,50.9C50.4,50.9 50.6,50.9 50.9,51.1C50.7,51.1 50.5,51.2 50.5,51.3C50.4,51.5 50.5,51.5 50.3,51.5C50.1,51.5 50,51.5 49.8,51.5C49.2,51.4 48.5,51.4 47.9,51.3C46.6,51.1 45.4,50.8 44.1,50.4C43.9,50 46.2,51 44.1,50.4Z" style="fill:url(#tag80);fill-rule:nonzero;"/>
        <path d="M33.7,53.2C33.5,53 33.1,53.4 33,53.2C32.9,53.1 33,53 33,52.9C33,52.7 33.3,52.8 33.5,52.8C33.9,52.8 34.3,52.6 34.6,52.7C35,52.7 35.3,52.6 35.7,52.6C36.1,52.6 36.4,52.7 36.8,52.7C37.2,52.7 37.5,52.6 37.9,52.7C38.3,52.8 38.7,52.8 39.1,52.8C40.7,52.9 42.3,53.3 43.9,53.7C44.7,53.9 45.5,54.1 46.3,54.2C47.1,54.3 47.9,54.4 48.6,54.7C48.4,54.7 48.3,54.7 48.1,54.8C47.9,54.9 48,55.2 47.7,55.1C47,55 46.3,54.9 45.7,54.7C44.4,54.4 43,54.1 41.7,53.8C40.4,53.5 39.1,53.4 37.8,53.2C37.1,53.1 36.4,53 35.7,53.1C35,53.1 34.3,53.2 33.7,53.2C33.4,53 34.1,53.2 33.7,53.2Z" style="fill:url(#tag81);fill-rule:nonzero;"/>
        <path d="M38.1,52.7C37.5,52.6 36.8,52.9 36.2,52.5C36.8,52.6 37.5,52.4 38.1,52.7Z" style="fill:url(#tag82);fill-rule:nonzero;"/>
        <path d="M35.5,52.6C35,53 34.4,52.7 33.8,52.8C34.3,52.4 34.9,52.6 35.5,52.6Z" style="fill:url(#tag83);fill-rule:nonzero;"/>
        <path d="M31.1,47.6C31.6,47.3 32.2,47.3 32.7,47.6C32.1,47.6 31.6,47.6 31.1,47.6Z" style="fill:url(#tag84);fill-rule:nonzero;"/>
        <path d="M50.2,30.5C50,30.4 49.9,30.2 49.7,30.1C51,29.6 52.3,29.1 53.6,29.2C54.9,29.2 56.3,29.9 57,31C57.3,31.5 57.5,32 57.4,32.5C57.4,33.1 57.2,33.5 57.6,34C58.5,35.1 60.1,34.8 61.3,35.3C61.1,35.3 60.9,35.3 60.7,35.3C60.6,35.3 60.5,35.4 60.4,35.4C60.3,35.6 60.4,35.7 60.1,35.7C59.3,35.7 58.5,35.4 57.8,35.1C57.4,34.9 56.9,34.6 56.7,34.2C56.4,33.6 56.7,33.1 56.7,32.5C56.7,31.3 55.6,30.3 54.5,30C53.3,29.5 51.6,30.2 50.2,30.5C50,30.4 51.5,30.2 50.2,30.5Z" style="fill:url(#tag85);fill-rule:nonzero;"/>
        <path d="M61.9,35.7C62.3,35.7 62.7,35.5 63.1,35.9C62.6,35.9 62.2,36 61.9,35.7Z" style="fill:url(#tag86);fill-rule:nonzero;"/>
        <path d="M92.7,74.7C94.8,74.6 96.8,74 98.9,74.3C99.9,74.4 101,74.5 102,74.6C102.5,74.7 103,74.8 103.5,74.9C103.7,74.9 103.7,74.9 103.6,75.1C103.6,75.2 103.5,75.3 103.5,75.5C103.4,75.7 103.3,76 103,76C100.8,75.7 98.5,75.4 96.3,75.5C95.2,75.5 94.2,75.8 93.2,75.8C92.9,75.8 92.4,75.9 92.3,75.4C92.3,75 92.3,74.7 92.7,74.7C94.8,74.6 92.2,74.7 92.7,74.7Z" style="fill:url(#tag87);fill-rule:nonzero;"/>
        <path d="M92.7,74.7C92.5,74.9 92.3,75.3 92.6,75.5C93.1,75.8 93.8,75.6 94.3,75.6C92.6,76.2 90.7,75.6 89,75.4C87.2,75.2 85.4,75 83.5,75.1L83.5,74.2C83.4,74 83.5,74 83.7,74C84.1,74 84.6,73.9 85,73.9C85.9,73.9 86.7,73.9 87.6,74C89.3,74.2 91,74.5 92.7,74.7C92.3,75.3 89.7,74.3 92.7,74.7Z" style="fill:url(#tag88);fill-rule:nonzero;"/>
        <path d="M118.7,81C118.4,81.2 118.2,81.6 118.2,81.9C116.8,81 115.4,80.2 113.9,79.4C113.2,79 112.4,78.6 111.6,78.3C111.2,78.1 110.9,78 110.5,77.8C110.3,77.7 110.2,77.7 110.1,77.4C110,77.2 110.1,77 110.2,76.8C110.3,76.6 110.4,76.5 110.6,76.5C110.8,76.6 111,76.6 111.2,76.7C111.6,76.8 111.9,77 112.3,77.1C113.1,77.4 113.8,77.8 114.5,78.2C116,79.1 117.3,80 118.7,81C118.3,81.2 116.2,79.1 118.7,81Z" style="fill:url(#tag89);fill-rule:nonzero;"/>
        <path d="M110.4,76.6C110.3,77 110.2,77.3 110.2,77.7C108.9,77.3 107.5,76.9 106.2,76.6C105.5,76.4 104.8,76.3 104.2,76.1C104,76.1 103.3,76 103.3,75.8C103.3,75.6 103.3,75.4 103.3,75.3C103.4,74.7 104.1,75 104.5,75.1C105.2,75.2 105.9,75.3 106.6,75.5C107.9,75.7 109.2,76 110.4,76.6C110.4,76.9 108.3,75.6 110.4,76.6Z" style="fill:url(#tag90);fill-rule:nonzero;"/>
        <path d="M39.9,60.2C39.7,59.7 40.2,59.7 40.6,59.8C41.5,59.9 42.3,60 43.2,60.2C43.6,60.3 44.1,60.3 44.5,60.4C44.7,60.4 44.9,60.5 45.1,60.5C45.3,60.5 45.6,60.5 45.6,60.7C45.7,61.2 46.3,60.9 46.5,61.3C44.3,61 42.1,60.7 39.9,60.2C39.7,59.6 42.1,60.7 39.9,60.2Z" style="fill:url(#tag91);fill-rule:nonzero;"/>
        <path d="M47.6,61.2C48.1,61.3 48.7,61 49.2,61.4C48.7,61.3 48.1,61.5 47.6,61.2Z" style="fill:url(#tag92);fill-rule:nonzero;"/>
        <path d="M35,53.2C35.7,52.9 36.4,52.9 37.1,53.2C36.4,53.2 35.7,53.2 35,53.2Z" style="fill:url(#tag93);fill-rule:nonzero;"/>
        <path d="M47.4,60.7C46.9,60.6 46.4,60.9 46,60.5C46.5,60.5 47,60.4 47.4,60.7Z" style="fill:url(#tag94);fill-rule:nonzero;"/>
    </g>
    <defs>
        <linearGradient id="tag1" x1="0" y1="0" x2="1" y2="0" gradientUnits="userSpaceOnUse" gradientTransform="matrix(148.748,-187.604,187.604,148.748,-0.67078,187.787)"><stop offset="0%" style="stop-color:rgb(203,89,110);stop-opacity:1"/><stop offset="100%" style="stop-color:rgb(116,54,110);stop-opacity:1"/></linearGradient>
        <linearGradient id="tag2" x1="0" y1="0" x2="1" y2="0" gradientUnits="userSpaceOnUse" gradientTransform="matrix(148.748,-187.604,187.604,148.748,-0.67078,187.787)"><stop offset="0%" style="stop-color:rgb(203,89,110);stop-opacity:1"/><stop offset="100%" style="stop-color:rgb(116,54,110);stop-opacity:1"/></linearGradient>
        <linearGradient id="tag3" x1="0" y1="0" x2="1" y2="0" gradientUnits="userSpaceOnUse" gradientTransform="matrix(148.748,-187.604,187.604,148.748,-0.67078,187.787)"><stop offset="0%" style="stop-color:rgb(203,89,110);stop-opacity:1"/><stop offset="100%" style="stop-color:rgb(116,54,110);stop-opacity:1"/></linearGradient>
        <linearGradient id="tag4" x1="0" y1="0" x2="1" y2="0" gradientUnits="userSpaceOnUse" gradientTransform="matrix(148.748,-187.604,187.604,148.748,-0.67078,187.787)"><stop offset="0%" style="stop-color:rgb(203,89,110);stop-opacity:1"/><stop offset="100%" style="stop-color:rgb(116,54,110);stop-opacity:1"/></linearGradient>
        <linearGradient id="tag5" x1="0" y1="0" x2="1" y2="0" gradientUnits="userSpaceOnUse" gradientTransform="matrix(148.748,-187.604,187.604,148.748,-0.67078,187.787)"><stop offset="0%" style="stop-color:rgb(203,89,110);stop-opacity:1"/><stop offset="100%" style="stop-color:rgb(116,54,110);stop-opacity:1"/></linearGradient>
        <linearGradient id="tag6" x1="0" y1="0" x2="1" y2="0" gradientUnits="userSpaceOnUse" gradientTransform="matrix(148.748,-187.604,187.604,148.748,-0.67078,187.787)"><stop offset="0%" style="stop-color:rgb(203,89,110);stop-opacity:1"/><stop offset="100%" style="stop-color:rgb(116,54,110);stop-opacity:1"/></linearGradient>
        <linearGradient id="tag7" x1="0" y1="0" x2="1" y2="0" gradientUnits="userSpaceOnUse" gradientTransform="matrix(148.748,-187.604,187.604,148.748,-0.67078,187.787)"><stop offset="0%" style="stop-color:rgb(203,89,110);stop-opacity:1"/><stop offset="100%" style="stop-color:rgb(116,54,110);stop-opacity:1"/></linearGradient>
        <linearGradient id="tag8" x1="0" y1="0" x2="1" y2="0" gradientUnits="userSpaceOnUse" gradientTransform="matrix(148.748,-187.604,187.604,148.748,-0.67078,187.787)"><stop offset="0%" style="stop-color:rgb(203,89,110);stop-opacity:1"/><stop offset="100%" style="stop-color:rgb(116,54,110);stop-opacity:1"/></linearGradient>
        <linearGradient id="tag9" x1="0" y1="0" x2="1" y2="0" gradientUnits="userSpaceOnUse" gradientTransform="matrix(148.748,-187.604,187.604,148.748,-0.67078,187.787)"><stop offset="0%" style="stop-color:rgb(203,89,110);stop-opacity:1"/><stop offset="100%" style="stop-color:rgb(116,54,110);stop-opacity:1"/></linearGradient>
        <linearGradient id="tag10" x1="0" y1="0" x2="1" y2="0" gradientUnits="userSpaceOnUse" gradientTransform="matrix(148.748,-187.604,187.604,148.748,-0.67078,187.787)"><stop offset="0%" style="stop-color:rgb(203,89,110);stop-opacity:1"/><stop offset="100%" style="stop-color:rgb(116,54,110);stop-opacity:1"/></linearGradient>
        <linearGradient id="tag11" x1="0" y1="0" x2="1" y2="0" gradientUnits="userSpaceOnUse" gradientTransform="matrix(148.748,-187.604,187.604,148.748,-0.67078,187.787)"><stop offset="0%" style="stop-color:rgb(203,89,110);stop-opacity:1"/><stop offset="100%" style="stop-color:rgb(116,54,110);stop-opacity:1"/></linearGradient>
        <linearGradient id="tag12" x1="0" y1="0" x2="1" y2="0" gradientUnits="userSpaceOnUse" gradientTransform="matrix(148.748,-187.604,187.604,148.748,-0.67078,187.787)"><stop offset="0%" style="stop-color:rgb(203,89,110);stop-opacity:1"/><stop offset="100%" style="stop-color:rgb(116,54,110);stop-opacity:1"/></linearGradient>
        <linearGradient id="tag13" x1="0" y1="0" x2="1" y2="0" gradientUnits="userSpaceOnUse" gradientTransform="matrix(148.748,-187.604,187.604,148.748,-0.67078,187.787)"><stop offset="0%" style="stop-color:rgb(203,89,110);stop-opacity:1"/><stop offset="100%" style="stop-color:rgb(116,54,110);stop-opacity:1"/></linearGradient>
        <linearGradient id="tag14" x1="0" y1="0" x2="1" y2="0" gradientUnits="userSpaceOnUse" gradientTransform="matrix(148.748,-187.604,187.604,148.748,-0.67078,187.787)"><stop offset="0%" style="stop-color:rgb(203,89,110);stop-opacity:1"/><stop offset="100%" style="stop-color:rgb(116,54,110);stop-opacity:1"/></linearGradient>
        <linearGradient id="tag15" x1="0" y1="0" x2="1" y2="0" gradientUnits="userSpaceOnUse" gradientTransform="matrix(148.748,-187.604,187.604,148.748,-0.67078,187.787)"><stop offset="0%" style="stop-color:rgb(203,89,110);stop-opacity:1"/><stop offset="100%" style="stop-color:rgb(116,54,110);stop-opacity:1"/></linearGradient>
        <linearGradient id="tag16" x1="0" y1="0" x2="1" y2="0" gradientUnits="userSpaceOnUse" gradientTransform="matrix(148.748,-187.604,187.604,148.748,-0.67078,187.787)"><stop offset="0%" style="stop-color:rgb(203,89,110);stop-opacity:1"/><stop offset="100%" style="stop-color:rgb(116,54,110);stop-opacity:1"/></linearGradient>
        <linearGradient id="tag17" x1="0" y1="0" x2="1" y2="0" gradientUnits="userSpaceOnUse" gradientTransform="matrix(148.748,-187.604,187.604,148.748,-0.67078,187.787)"><stop offset="0%" style="stop-color:rgb(203,89,110);stop-opacity:1"/><stop offset="100%" style="stop-color:rgb(116,54,110);stop-opacity:1"/></linearGradient>
        <linearGradient id="tag18" x1="0" y1="0" x2="1" y2="0" gradientUnits="userSpaceOnUse" gradientTransform="matrix(148.748,-187.604,187.604,148.748,-0.67078,187.787)"><stop offset="0%" style="stop-color:rgb(203,89,110);stop-opacity:1"/><stop offset="100%" style="stop-color:rgb(116,54,110);stop-opacity:1"/></linearGradient>
        <linearGradient id="tag19" x1="0" y1="0" x2="1" y2="0" gradientUnits="userSpaceOnUse" gradientTransform="matrix(148.748,-187.604,187.604,148.748,-0.67078,187.787)"><stop offset="0%" style="stop-color:rgb(203,89,110);stop-opacity:1"/><stop offset="100%" style="stop-color:rgb(116,54,110);stop-opacity:1"/></linearGradient>
        <linearGradient id="tag20" x1="0" y1="0" x2="1" y2="0" gradientUnits="userSpaceOnUse" gradientTransform="matrix(148.748,-187.604,187.604,148.748,-0.67078,187.787)"><stop offset="0%" style="stop-color:rgb(203,89,110);stop-opacity:1"/><stop offset="100%" style="stop-color:rgb(116,54,110);stop-opacity:1"/></linearGradient>
        <linearGradient id="tag21" x1="0" y1="0" x2="1" y2="0" gradientUnits="userSpaceOnUse" gradientTransform="matrix(148.748,-187.604,187.604,148.748,-0.67078,187.787)"><stop offset="0%" style="stop-color:rgb(203,89,110);stop-opacity:1"/><stop offset="100%" style="stop-color:rgb(116,54,110);stop-opacity:1"/></linearGradient>
        <linearGradient id="tag22" x1="0" y1="0" x2="1" y2="0" gradientUnits="userSpaceOnUse" gradientTransform="matrix(148.748,-187.604,187.604,148.748,-0.67078,187.787)"><stop offset="0%" style="stop-color:rgb(203,89,110);stop-opacity:1"/><stop offset="100%" style="stop-color:rgb(116,54,110);stop-opacity:1"/></linearGradient>
        <linearGradient id="tag23" x1="0" y1="0" x2="1" y2="0" gradientUnits="userSpaceOnUse" gradientTransform="matrix(148.748,-187.604,187.604,148.748,-0.67078,187.787)"><stop offset="0%" style="stop-color:rgb(203,89,110);stop-opacity:1"/><stop offset="100%" style="stop-color:rgb(116,54,110);stop-opacity:1"/></linearGradient>
        <linearGradient id="tag24" x1="0" y1="0" x2="1" y2="0" gradientUnits="userSpaceOnUse" gradientTransform="matrix(148.748,-187.604,187.604,148.748,-0.67078,187.787)"><stop offset="0%" style="stop-color:rgb(203,89,110);stop-opacity:1"/><stop offset="100%" style="stop-color:rgb(116,54,110);stop-opacity:1"/></linearGradient>
        <linearGradient id="tag25" x1="0" y1="0" x2="1" y2="0" gradientUnits="userSpaceOnUse" gradientTransform="matrix(148.748,-187.604,187.604,148.748,-0.67078,187.787)"><stop offset="0%" style="stop-color:rgb(203,89,110);stop-opacity:1"/><stop offset="100%" style="stop-color:rgb(116,54,110);stop-opacity:1"/></linearGradient>
        <linearGradient id="tag26" x1="0" y1="0" x2="1" y2="0" gradientUnits="userSpaceOnUse" gradientTransform="matrix(148.748,-187.604,187.604,148.748,-0.67078,187.787)"><stop offset="0%" style="stop-color:rgb(203,89,110);stop-opacity:1"/><stop offset="100%" style="stop-color:rgb(116,54,110);stop-opacity:1"/></linearGradient>
        <linearGradient id="tag27" x1="0" y1="0" x2="1" y2="0" gradientUnits="userSpaceOnUse" gradientTransform="matrix(148.748,-187.604,187.604,148.748,-0.67078,187.787)"><stop offset="0%" style="stop-color:rgb(203,89,110);stop-opacity:1"/><stop offset="100%" style="stop-color:rgb(116,54,110);stop-opacity:1"/></linearGradient>
        <linearGradient id="tag28" x1="0" y1="0" x2="1" y2="0" gradientUnits="userSpaceOnUse" gradientTransform="matrix(148.748,-187.604,187.604,148.748,-0.67078,187.787)"><stop offset="0%" style="stop-color:rgb(203,89,110);stop-opacity:1"/><stop offset="100%" style="stop-color:rgb(116,54,110);stop-opacity:1"/></linearGradient>
        <linearGradient id="tag29" x1="0" y1="0" x2="1" y2="0" gradientUnits="userSpaceOnUse" gradientTransform="matrix(148.748,-187.604,187.604,148.748,-0.67078,187.787)"><stop offset="0%" style="stop-color:rgb(203,89,110);stop-opacity:1"/><stop offset="100%" style="stop-color:rgb(116,54,110);stop-opacity:1"/></linearGradient>
        <linearGradient id="tag30" x1="0" y1="0" x2="1" y2="0" gradientUnits="userSpaceOnUse" gradientTransform="matrix(148.748,-187.604,187.604,148.748,-0.67078,187.787)"><stop offset="0%" style="stop-color:rgb(203,89,110);stop-opacity:1"/><stop offset="100%" style="stop-color:rgb(116,54,110);stop-opacity:1"/></linearGradient>
        <linearGradient id="tag31" x1="0" y1="0" x2="1" y2="0" gradientUnits="userSpaceOnUse" gradientTransform="matrix(148.748,-187.604,187.604,148.748,-0.67078,187.787)"><stop offset="0%" style="stop-color:rgb(203,89,110);stop-opacity:1"/><stop offset="100%" style="stop-color:rgb(116,54,110);stop-opacity:1"/></linearGradient>
        <linearGradient id="tag32" x1="0" y1="0" x2="1" y2="0" gradientUnits="userSpaceOnUse" gradientTransform="matrix(148.748,-187.604,187.604,148.748,-0.67078,187.787)"><stop offset="0%" style="stop-color:rgb(203,89,110);stop-opacity:1"/><stop offset="100%" style="stop-color:rgb(116,54,110);stop-opacity:1"/></linearGradient>
        <linearGradient id="tag33" x1="0" y1="0" x2="1" y2="0" gradientUnits="userSpaceOnUse" gradientTransform="matrix(148.748,-187.604,187.604,148.748,-0.67078,187.787)"><stop offset="0%" style="stop-color:rgb(203,89,110);stop-opacity:1"/><stop offset="100%" style="stop-color:rgb(116,54,110);stop-opacity:1"/></linearGradient>
        <linearGradient id="tag34" x1="0" y1="0" x2="1" y2="0" gradientUnits="userSpaceOnUse" gradientTransform="matrix(148.748,-187.604,187.604,148.748,-0.67078,187.787)"><stop offset="0%" style="stop-color:rgb(203,89,110);stop-opacity:1"/><stop offset="100%" style="stop-color:rgb(116,54,110);stop-opacity:1"/></linearGradient>
        <linearGradient id="tag35" x1="0" y1="0" x2="1" y2="0" gradientUnits="userSpaceOnUse" gradientTransform="matrix(148.748,-187.604,187.604,148.748,-0.67078,187.787)"><stop offset="0%" style="stop-color:rgb(203,89,110);stop-opacity:1"/><stop offset="100%" style="stop-color:rgb(116,54,110);stop-opacity:1"/></linearGradient>
        <linearGradient id="tag36" x1="0" y1="0" x2="1" y2="0" gradientUnits="userSpaceOnUse" gradientTransform="matrix(148.748,-187.604,187.604,148.748,-0.67078,187.787)"><stop offset="0%" style="stop-color:rgb(203,89,110);stop-opacity:1"/><stop offset="100%" style="stop-color:rgb(116,54,110);stop-opacity:1"/></linearGradient>
        <linearGradient id="tag37" x1="0" y1="0" x2="1" y2="0" gradientUnits="userSpaceOnUse" gradientTransform="matrix(148.748,-187.604,187.604,148.748,-0.67078,187.787)"><stop offset="0%" style="stop-color:rgb(203,89,110);stop-opacity:1"/><stop offset="100%" style="stop-color:rgb(116,54,110);stop-opacity:1"/></linearGradient>
        <linearGradient id="tag38" x1="0" y1="0" x2="1" y2="0" gradientUnits="userSpaceOnUse" gradientTransform="matrix(148.748,-187.604,187.604,148.748,-0.67078,187.787)"><stop offset="0%" style="stop-color:rgb(203,89,110);stop-opacity:1"/><stop offset="100%" style="stop-color:rgb(116,54,110);stop-opacity:1"/></linearGradient>
        <linearGradient id="tag39" x1="0" y1="0" x2="1" y2="0" gradientUnits="userSpaceOnUse" gradientTransform="matrix(148.748,-187.604,187.604,148.748,-0.67078,187.787)"><stop offset="0%" style="stop-color:rgb(203,89,110);stop-opacity:1"/><stop offset="100%" style="stop-color:rgb(116,54,110);stop-opacity:1"/></linearGradient>
        <linearGradient id="tag40" x1="0" y1="0" x2="1" y2="0" gradientUnits="userSpaceOnUse" gradientTransform="matrix(148.748,-187.604,187.604,148.748,-0.67078,187.787)"><stop offset="0%" style="stop-color:rgb(203,89,110);stop-opacity:1"/><stop offset="100%" style="stop-color:rgb(116,54,110);stop-opacity:1"/></linearGradient>
        <linearGradient id="tag41" x1="0" y1="0" x2="1" y2="0" gradientUnits="userSpaceOnUse" gradientTransform="matrix(148.748,-187.604,187.604,148.748,-0.67078,187.787)"><stop offset="0%" style="stop-color:rgb(203,89,110);stop-opacity:1"/><stop offset="100%" style="stop-color:rgb(116,54,110);stop-opacity:1"/></linearGradient>
        <linearGradient id="tag42" x1="0" y1="0" x2="1" y2="0" gradientUnits="userSpaceOnUse" gradientTransform="matrix(148.748,-187.604,187.604,148.748,-0.67078,187.787)"><stop offset="0%" style="stop-color:rgb(203,89,110);stop-opacity:1"/><stop offset="100%" style="stop-color:rgb(116,54,110);stop-opacity:1"/></linearGradient>
        <linearGradient id="tag43" x1="0" y1="0" x2="1" y2="0" gradientUnits="userSpaceOnUse" gradientTransform="matrix(148.748,-187.604,187.604,148.748,-0.67078,187.787)"><stop offset="0%" style="stop-color:rgb(203,89,110);stop-opacity:1"/><stop offset="100%" style="stop-color:rgb(116,54,110);stop-opacity:1"/></linearGradient>
        <linearGradient id="tag44" x1="0" y1="0" x2="1" y2="0" gradientUnits="userSpaceOnUse" gradientTransform="matrix(148.748,-187.604,187.604,148.748,-0.67078,187.787)"><stop offset="0%" style="stop-color:rgb(203,89,110);stop-opacity:1"/><stop offset="100%" style="stop-color:rgb(116,54,110);stop-opacity:1"/></linearGradient>
        <linearGradient id="tag45" x1="0" y1="0" x2="1" y2="0" gradientUnits="userSpaceOnUse" gradientTransform="matrix(148.748,-187.604,187.604,148.748,-0.67078,187.787)"><stop offset="0%" style="stop-color:rgb(203,89,110);stop-opacity:1"/><stop offset="100%" style="stop-color:rgb(116,54,110);stop-opacity:1"/></linearGradient>
        <linearGradient id="tag46" x1="0" y1="0" x2="1" y2="0" gradientUnits="userSpaceOnUse" gradientTransform="matrix(148.748,-187.604,187.604,148.748,-0.67078,187.787)"><stop offset="0%" style="stop-color:rgb(203,89,110);stop-opacity:1"/><stop offset="100%" style="stop-color:rgb(116,54,110);stop-opacity:1"/></linearGradient>
        <linearGradient id="tag47" x1="0" y1="0" x2="1" y2="0" gradientUnits="userSpaceOnUse" gradientTransform="matrix(148.748,-187.604,187.604,148.748,-0.67078,187.787)"><stop offset="0%" style="stop-color:rgb(203,89,110);stop-opacity:1"/><stop offset="100%" style="stop-color:rgb(116,54,110);stop-opacity:1"/></linearGradient>
        <linearGradient id="tag48" x1="0" y1="0" x2="1" y2="0" gradientUnits="userSpaceOnUse" gradientTransform="matrix(148.748,-187.604,187.604,148.748,-0.67078,187.787)"><stop offset="0%" style="stop-color:rgb(203,89,110);stop-opacity:1"/><stop offset="100%" style="stop-color:rgb(116,54,110);stop-opacity:1"/></linearGradient>
        <linearGradient id="tag49" x1="0" y1="0" x2="1" y2="0" gradientUnits="userSpaceOnUse" gradientTransform="matrix(148.748,-187.604,187.604,148.748,-0.67078,187.787)"><stop offset="0%" style="stop-color:rgb(203,89,110);stop-opacity:1"/><stop offset="100%" style="stop-color:rgb(116,54,110);stop-opacity:1"/></linearGradient>
        <linearGradient id="tag50" x1="0" y1="0" x2="1" y2="0" gradientUnits="userSpaceOnUse" gradientTransform="matrix(148.748,-187.604,187.604,148.748,-0.67078,187.787)"><stop offset="0%" style="stop-color:rgb(203,89,110);stop-opacity:1"/><stop offset="100%" style="stop-color:rgb(116,54,110);stop-opacity:1"/></linearGradient>
        <linearGradient id="tag51" x1="0" y1="0" x2="1" y2="0" gradientUnits="userSpaceOnUse" gradientTransform="matrix(148.748,-187.604,187.604,148.748,-0.67078,187.787)"><stop offset="0%" style="stop-color:rgb(203,89,110);stop-opacity:1"/><stop offset="100%" style="stop-color:rgb(116,54,110);stop-opacity:1"/></linearGradient>
        <linearGradient id="tag52" x1="0" y1="0" x2="1" y2="0" gradientUnits="userSpaceOnUse" gradientTransform="matrix(148.748,-187.604,187.604,148.748,-0.67078,187.787)"><stop offset="0%" style="stop-color:rgb(203,89,110);stop-opacity:1"/><stop offset="100%" style="stop-color:rgb(116,54,110);stop-opacity:1"/></linearGradient>
        <linearGradient id="tag53" x1="0" y1="0" x2="1" y2="0" gradientUnits="userSpaceOnUse" gradientTransform="matrix(148.748,-187.604,187.604,148.748,-0.67078,187.787)"><stop offset="0%" style="stop-color:rgb(203,89,110);stop-opacity:1"/><stop offset="100%" style="stop-color:rgb(116,54,110);stop-opacity:1"/></linearGradient>
        <linearGradient id="tag54" x1="0" y1="0" x2="1" y2="0" gradientUnits="userSpaceOnUse" gradientTransform="matrix(148.748,-187.604,187.604,148.748,-0.67078,187.787)"><stop offset="0%" style="stop-color:rgb(203,89,110);stop-opacity:1"/><stop offset="100%" style="stop-color:rgb(116,54,110);stop-opacity:1"/></linearGradient>
        <linearGradient id="tag55" x1="0" y1="0" x2="1" y2="0" gradientUnits="userSpaceOnUse" gradientTransform="matrix(148.748,-187.604,187.604,148.748,-0.67078,187.787)"><stop offset="0%" style="stop-color:rgb(203,89,110);stop-opacity:1"/><stop offset="100%" style="stop-color:rgb(116,54,110);stop-opacity:1"/></linearGradient>
        <linearGradient id="tag56" x1="0" y1="0" x2="1" y2="0" gradientUnits="userSpaceOnUse" gradientTransform="matrix(148.748,-187.604,187.604,148.748,-0.67078,187.787)"><stop offset="0%" style="stop-color:rgb(203,89,110);stop-opacity:1"/><stop offset="100%" style="stop-color:rgb(116,54,110);stop-opacity:1"/></linearGradient>
        <linearGradient id="tag57" x1="0" y1="0" x2="1" y2="0" gradientUnits="userSpaceOnUse" gradientTransform="matrix(148.748,-187.604,187.604,148.748,-0.67078,187.787)"><stop offset="0%" style="stop-color:rgb(203,89,110);stop-opacity:1"/><stop offset="100%" style="stop-color:rgb(116,54,110);stop-opacity:1"/></linearGradient>
        <linearGradient id="tag58" x1="0" y1="0" x2="1" y2="0" gradientUnits="userSpaceOnUse" gradientTransform="matrix(148.748,-187.604,187.604,148.748,-0.67078,187.787)"><stop offset="0%" style="stop-color:rgb(203,89,110);stop-opacity:1"/><stop offset="100%" style="stop-color:rgb(116,54,110);stop-opacity:1"/></linearGradient>
        <linearGradient id="tag59" x1="0" y1="0" x2="1" y2="0" gradientUnits="userSpaceOnUse" gradientTransform="matrix(148.748,-187.604,187.604,148.748,-0.67078,187.787)"><stop offset="0%" style="stop-color:rgb(203,89,110);stop-opacity:1"/><stop offset="100%" style="stop-color:rgb(116,54,110);stop-opacity:1"/></linearGradient>
        <linearGradient id="tag60" x1="0" y1="0" x2="1" y2="0" gradientUnits="userSpaceOnUse" gradientTransform="matrix(148.748,-187.604,187.604,148.748,-0.67078,187.787)"><stop offset="0%" style="stop-color:rgb(203,89,110);stop-opacity:1"/><stop offset="100%" style="stop-color:rgb(116,54,110);stop-opacity:1"/></linearGradient>
        <linearGradient id="tag61" x1="0" y1="0" x2="1" y2="0" gradientUnits="userSpaceOnUse" gradientTransform="matrix(148.748,-187.604,187.604,148.748,-0.67078,187.787)"><stop offset="0%" style="stop-color:rgb(203,89,110);stop-opacity:1"/><stop offset="100%" style="stop-color:rgb(116,54,110);stop-opacity:1"/></linearGradient>
        <linearGradient id="tag62" x1="0" y1="0" x2="1" y2="0" gradientUnits="userSpaceOnUse" gradientTransform="matrix(148.748,-187.604,187.604,148.748,-0.67078,187.787)"><stop offset="0%" style="stop-color:rgb(203,89,110);stop-opacity:1"/><stop offset="100%" style="stop-color:rgb(116,54,110);stop-opacity:1"/></linearGradient>
        <linearGradient id="tag63" x1="0" y1="0" x2="1" y2="0" gradientUnits="userSpaceOnUse" gradientTransform="matrix(148.748,-187.604,187.604,148.748,-0.67078,187.787)"><stop offset="0%" style="stop-color:rgb(203,89,110);stop-opacity:1"/><stop offset="100%" style="stop-color:rgb(116,54,110);stop-opacity:1"/></linearGradient>
        <linearGradient id="tag64" x1="0" y1="0" x2="1" y2="0" gradientUnits="userSpaceOnUse" gradientTransform="matrix(148.748,-187.604,187.604,148.748,-0.67078,187.787)"><stop offset="0%" style="stop-color:rgb(203,89,110);stop-opacity:1"/><stop offset="100%" style="stop-color:rgb(116,54,110);stop-opacity:1"/></linearGradient>
        <linearGradient id="tag65" x1="0" y1="0" x2="1" y2="0" gradientUnits="userSpaceOnUse" gradientTransform="matrix(148.748,-187.604,187.604,148.748,-0.67078,187.787)"><stop offset="0%" style="stop-color:rgb(203,89,110);stop-opacity:1"/><stop offset="100%" style="stop-color:rgb(116,54,110);stop-opacity:1"/></linearGradient>
        <linearGradient id="tag66" x1="0" y1="0" x2="1" y2="0" gradientUnits="userSpaceOnUse" gradientTransform="matrix(148.748,-187.604,187.604,148.748,-0.67078,187.787)"><stop offset="0%" style="stop-color:rgb(203,89,110);stop-opacity:1"/><stop offset="100%" style="stop-color:rgb(116,54,110);stop-opacity:1"/></linearGradient>
        <linearGradient id="tag67" x1="0" y1="0" x2="1" y2="0" gradientUnits="userSpaceOnUse" gradientTransform="matrix(148.748,-187.604,187.604,148.748,-0.67078,187.787)"><stop offset="0%" style="stop-color:rgb(203,89,110);stop-opacity:1"/><stop offset="100%" style="stop-color:rgb(116,54,110);stop-opacity:1"/></linearGradient>
        <linearGradient id="tag68" x1="0" y1="0" x2="1" y2="0" gradientUnits="userSpaceOnUse" gradientTransform="matrix(148.748,-187.604,187.604,148.748,-0.67078,187.787)"><stop offset="0%" style="stop-color:rgb(203,89,110);stop-opacity:1"/><stop offset="100%" style="stop-color:rgb(116,54,110);stop-opacity:1"/></linearGradient>
        <linearGradient id="tag69" x1="0" y1="0" x2="1" y2="0" gradientUnits="userSpaceOnUse" gradientTransform="matrix(148.748,-187.604,187.604,148.748,-0.67078,187.787)"><stop offset="0%" style="stop-color:rgb(203,89,110);stop-opacity:1"/><stop offset="100%" style="stop-color:rgb(116,54,110);stop-opacity:1"/></linearGradient>
        <linearGradient id="tag70" x1="0" y1="0" x2="1" y2="0" gradientUnits="userSpaceOnUse" gradientTransform="matrix(148.748,-187.604,187.604,148.748,-0.67078,187.787)"><stop offset="0%" style="stop-color:rgb(203,89,110);stop-opacity:1"/><stop offset="100%" style="stop-color:rgb(116,54,110);stop-opacity:1"/></linearGradient>
        <linearGradient id="tag71" x1="0" y1="0" x2="1" y2="0" gradientUnits="userSpaceOnUse" gradientTransform="matrix(148.748,-187.604,187.604,148.748,-0.67078,187.787)"><stop offset="0%" style="stop-color:rgb(203,89,110);stop-opacity:1"/><stop offset="100%" style="stop-color:rgb(116,54,110);stop-opacity:1"/></linearGradient>
        <linearGradient id="tag72" x1="0" y1="0" x2="1" y2="0" gradientUnits="userSpaceOnUse" gradientTransform="matrix(148.748,-187.604,187.604,148.748,-0.67078,187.787)"><stop offset="0%" style="stop-color:rgb(203,89,110);stop-opacity:1"/><stop offset="100%" style="stop-color:rgb(116,54,110);stop-opacity:1"/></linearGradient>
        <linearGradient id="tag73" x1="0" y1="0" x2="1" y2="0" gradientUnits="userSpaceOnUse" gradientTransform="matrix(148.748,-187.604,187.604,148.748,-0.67078,187.787)"><stop offset="0%" style="stop-color:rgb(203,89,110);stop-opacity:1"/><stop offset="100%" style="stop-color:rgb(116,54,110);stop-opacity:1"/></linearGradient>
        <linearGradient id="tag74" x1="0" y1="0" x2="1" y2="0" gradientUnits="userSpaceOnUse" gradientTransform="matrix(148.748,-187.604,187.604,148.748,-0.67078,187.787)"><stop offset="0%" style="stop-color:rgb(203,89,110);stop-opacity:1"/><stop offset="100%" style="stop-color:rgb(116,54,110);stop-opacity:1"/></linearGradient>
        <linearGradient id="tag75" x1="0" y1="0" x2="1" y2="0" gradientUnits="userSpaceOnUse" gradientTransform="matrix(148.748,-187.604,187.604,148.748,-0.67078,187.787)"><stop offset="0%" style="stop-color:rgb(203,89,110);stop-opacity:1"/><stop offset="100%" style="stop-color:rgb(116,54,110);stop-opacity:1"/></linearGradient>
        <linearGradient id="tag76" x1="0" y1="0" x2="1" y2="0" gradientUnits="userSpaceOnUse" gradientTransform="matrix(148.748,-187.604,187.604,148.748,-0.67078,187.787)"><stop offset="0%" style="stop-color:rgb(203,89,110);stop-opacity:1"/><stop offset="100%" style="stop-color:rgb(116,54,110);stop-opacity:1"/></linearGradient>
        <linearGradient id="tag77" x1="0" y1="0" x2="1" y2="0" gradientUnits="userSpaceOnUse" gradientTransform="matrix(148.748,-187.604,187.604,148.748,-0.67078,187.787)"><stop offset="0%" style="stop-color:rgb(203,89,110);stop-opacity:1"/><stop offset="100%" style="stop-color:rgb(116,54,110);stop-opacity:1"/></linearGradient>
        <linearGradient id="tag78" x1="0" y1="0" x2="1" y2="0" gradientUnits="userSpaceOnUse" gradientTransform="matrix(148.748,-187.604,187.604,148.748,-0.67078,187.787)"><stop offset="0%" style="stop-color:rgb(203,89,110);stop-opacity:1"/><stop offset="100%" style="stop-color:rgb(116,54,110);stop-opacity:1"/></linearGradient>
        <linearGradient id="tag79" x1="0" y1="0" x2="1" y2="0" gradientUnits="userSpaceOnUse" gradientTransform="matrix(148.748,-187.604,187.604,148.748,-0.67078,187.787)"><stop offset="0%" style="stop-color:rgb(203,89,110);stop-opacity:1"/><stop offset="100%" style="stop-color:rgb(116,54,110);stop-opacity:1"/></linearGradient>
        <linearGradient id="tag80" x1="0" y1="0" x2="1" y2="0" gradientUnits="userSpaceOnUse" gradientTransform="matrix(148.748,-187.604,187.604,148.748,-0.67078,187.787)"><stop offset="0%" style="stop-color:rgb(203,89,110);stop-opacity:1"/><stop offset="100%" style="stop-color:rgb(116,54,110);stop-opacity:1"/></linearGradient>
        <linearGradient id="tag81" x1="0" y1="0" x2="1" y2="0" gradientUnits="userSpaceOnUse" gradientTransform="matrix(148.748,-187.604,187.604,148.748,-0.67078,187.787)"><stop offset="0%" style="stop-color:rgb(203,89,110);stop-opacity:1"/><stop offset="100%" style="stop-color:rgb(116,54,110);stop-opacity:1"/></linearGradient>
        <linearGradient id="tag82" x1="0" y1="0" x2="1" y2="0" gradientUnits="userSpaceOnUse" gradientTransform="matrix(148.748,-187.604,187.604,148.748,-0.67078,187.787)"><stop offset="0%" style="stop-color:rgb(203,89,110);stop-opacity:1"/><stop offset="100%" style="stop-color:rgb(116,54,110);stop-opacity:1"/></linearGradient>
        <linearGradient id="tag83" x1="0" y1="0" x2="1" y2="0" gradientUnits="userSpaceOnUse" gradientTransform="matrix(148.748,-187.604,187.604,148.748,-0.67078,187.787)"><stop offset="0%" style="stop-color:rgb(203,89,110);stop-opacity:1"/><stop offset="100%" style="stop-color:rgb(116,54,110);stop-opacity:1"/></linearGradient>
        <linearGradient id="tag84" x1="0" y1="0" x2="1" y2="0" gradientUnits="userSpaceOnUse" gradientTransform="matrix(148.748,-187.604,187.604,148.748,-0.67078,187.787)"><stop offset="0%" style="stop-color:rgb(203,89,110);stop-opacity:1"/><stop offset="100%" style="stop-color:rgb(116,54,110);stop-opacity:1"/></linearGradient>
        <linearGradient id="tag85" x1="0" y1="0" x2="1" y2="0" gradientUnits="userSpaceOnUse" gradientTransform="matrix(148.748,-187.604,187.604,148.748,-0.67078,187.787)"><stop offset="0%" style="stop-color:rgb(203,89,110);stop-opacity:1"/><stop offset="100%" style="stop-color:rgb(116,54,110);stop-opacity:1"/></linearGradient>
        <linearGradient id="tag86" x1="0" y1="0" x2="1" y2="0" gradientUnits="userSpaceOnUse" gradientTransform="matrix(148.748,-187.604,187.604,148.748,-0.67078,187.787)"><stop offset="0%" style="stop-color:rgb(203,89,110);stop-opacity:1"/><stop offset="100%" style="stop-color:rgb(116,54,110);stop-opacity:1"/></linearGradient>
        <linearGradient id="tag87" x1="0" y1="0" x2="1" y2="0" gradientUnits="userSpaceOnUse" gradientTransform="matrix(148.748,-187.604,187.604,148.748,-0.67078,187.787)"><stop offset="0%" style="stop-color:rgb(203,89,110);stop-opacity:1"/><stop offset="100%" style="stop-color:rgb(116,54,110);stop-opacity:1"/></linearGradient>
        <linearGradient id="tag88" x1="0" y1="0" x2="1" y2="0" gradientUnits="userSpaceOnUse" gradientTransform="matrix(148.748,-187.604,187.604,148.748,-0.67078,187.787)"><stop offset="0%" style="stop-color:rgb(203,89,110);stop-opacity:1"/><stop offset="100%" style="stop-color:rgb(116,54,110);stop-opacity:1"/></linearGradient>
        <linearGradient id="tag89" x1="0" y1="0" x2="1" y2="0" gradientUnits="userSpaceOnUse" gradientTransform="matrix(148.748,-187.604,187.604,148.748,-0.67078,187.787)"><stop offset="0%" style="stop-color:rgb(203,89,110);stop-opacity:1"/><stop offset="100%" style="stop-color:rgb(116,54,110);stop-opacity:1"/></linearGradient>
        <linearGradient id="tag90" x1="0" y1="0" x2="1" y2="0" gradientUnits="userSpaceOnUse" gradientTransform="matrix(148.748,-187.604,187.604,148.748,-0.67078,187.787)"><stop offset="0%" style="stop-color:rgb(203,89,110);stop-opacity:1"/><stop offset="100%" style="stop-color:rgb(116,54,110);stop-opacity:1"/></linearGradient>
        <linearGradient id="tag91" x1="0" y1="0" x2="1" y2="0" gradientUnits="userSpaceOnUse" gradientTransform="matrix(148.748,-187.604,187.604,148.748,-0.67078,187.787)"><stop offset="0%" style="stop-color:rgb(203,89,110);stop-opacity:1"/><stop offset="100%" style="stop-color:rgb(116,54,110);stop-opacity:1"/></linearGradient>
        <linearGradient id="tag92" x1="0" y1="0" x2="1" y2="0" gradientUnits="userSpaceOnUse" gradientTransform="matrix(148.748,-187.604,187.604,148.748,-0.67078,187.787)"><stop offset="0%" style="stop-color:rgb(203,89,110);stop-opacity:1"/><stop offset="100%" style="stop-color:rgb(116,54,110);stop-opacity:1"/></linearGradient>
        <linearGradient id="tag93" x1="0" y1="0" x2="1" y2="0" gradientUnits="userSpaceOnUse" gradientTransform="matrix(148.748,-187.604,187.604,148.748,-0.67078,187.787)"><stop offset="0%" style="stop-color:rgb(203,89,110);stop-opacity:1"/><stop offset="100%" style="stop-color:rgb(116,54,110);stop-opacity:1"/></linearGradient>
        <linearGradient id="tag94" x1="0" y1="0" x2="1" y2="0" gradientUnits="userSpaceOnUse" gradientTransform="matrix(148.748,-187.604,187.604,148.748,-0.67078,187.787)"><stop offset="0%" style="stop-color:rgb(203,89,110);stop-opacity:1"/><stop offset="100%" style="stop-color:rgb(116,54,110);stop-opacity:1"/></linearGradient>
    </defs>
</svg>
