<?xml version="1.0" standalone="no"?>
<!DOCTYPE svg PUBLIC "-//W3C//DTD SVG 1.1//EN" "http://www.w3.org/Graphics/SVG/1.1/DTD/svg11.dtd">
<svg width="100%" height="100%" viewBox="0 0 145 102" version="1.1" xmlns="http://www.w3.org/2000/svg" xmlns:xlink="http://www.w3.org/1999/xlink" xml:space="preserve" style="fill-rule:evenodd;clip-rule:evenodd;stroke-linejoin:round;stroke-miterlimit:1.41421;">
    <path d="M144.7,33.4C145.2,33.6 145.6,33.1 145.5,32.6C144.7,29.8 142.6,28 140.8,25.9C140.4,25.5 140,25 139.7,24.5C139.5,24.2 139.3,23.7 139.3,23.5C139.4,23.5 139.5,23.5 139.6,23.6C140.4,23.8 141,24.4 141.7,24.9C142.3,25.3 142.8,24.6 142.6,24C142.2,23.2 142,22.3 141.5,21.5C141,20.7 140.2,20.2 139.5,19.7C138.2,18.9 136.8,18.4 135.6,17.5C134.8,16.9 133.9,16.2 133.2,15.4C133.4,15.4 133.7,15.5 133.9,15.6C134.5,15.8 134.9,15 134.5,14.6C133.9,14 133.3,13.3 132.7,12.7C132.2,12.2 131.3,12.1 130.6,11.9C129.5,11.7 128.4,11.5 127.2,11.4C125.7,11.2 124.1,11.1 122.7,10.6C122.5,10.5 122.2,10.4 122,10.3C122,10.3 121.9,10.3 121.9,10.2C122.4,10 122.8,9.9 123.3,9.8C123.8,9.7 123.9,8.9 123.4,8.7C122,8.1 120.6,7.9 119.2,8.4C117.8,8.8 116.5,9.7 115.1,10.2C114.8,10.3 114.5,10.4 114.2,10.5C114.1,10.5 114,10.5 114,10.5L113.9,10.5C113.9,10.4 113.9,10.3 113.9,10.3C113.9,10.4 113.9,10.2 113.9,10.2C113.9,10.1 113.9,10 114,9.9C114.1,9.7 114.1,9.5 114.2,9.2C114.4,8.7 114.5,8.3 114.7,7.8C114.9,7.3 114.2,6.8 113.8,7.1C112.4,7.9 111.2,9 110,10.1C109.4,10.6 108.8,11.2 108.2,11.7C108,11.9 107.7,12.1 107.4,12.3C107.3,12.4 107.2,12.5 107.1,12.5L107.1,12.4C107.1,12.3 107.1,12.2 107.1,12.2C107.1,12 107.1,11.9 107.2,11.7C107.3,11.3 107.4,10.9 107.5,10.5C107.6,10.1 107.7,9.9 107.8,9.7C108.1,9.2 107.5,8.5 106.9,8.8C106,9.4 105,9.8 104.2,10.5C103.4,11.2 102.8,12.2 102.3,13.1C101.3,15.1 100.8,17.4 100.1,19.5C98.9,23.4 97.5,27.2 95.6,30.9C88.5,27.1 81.9,22.3 75.6,17.2C72.5,14.7 69.6,12.1 66.7,9.4C63.9,6.8 61.1,4.1 57.7,2.2C56.1,1.3 54.4,0.5 52.6,0.3C50.7,0.1 48.7,0.3 46.8,0.3C46.2,0.3 46,1.1 46.5,1.5C47.8,2.3 48.9,3.4 49.9,4.5C50.4,5 50.8,5.6 51.1,6.2C51,6.4 51,6.6 50.5,6.7C49.4,7 48,6.6 46.9,6.4C45.3,6.1 43.8,5.8 42.3,5.5C39.2,4.8 36.1,4.2 33,4.3C32.5,4.3 32.1,5 32.6,5.4C33.4,6.1 34.2,6.7 35.1,7.4C35.8,8 36.5,8.6 36.9,9.3C37.2,9.8 37,10.1 36.5,10.4C35.3,11.1 33.7,11.2 32.3,11.3C29.7,11.6 27.1,11.6 24.5,12.2C21.8,12.9 19.8,14.5 18.2,16.7C17.9,17.2 18.4,17.8 18.9,17.6C19.8,17.3 20.7,17 21.7,16.8C22.1,16.7 22.5,16.7 22.9,16.7C22.9,17.4 22.1,18.4 21.7,19C20.2,21.1 18.4,22.6 16.3,24.1C13.2,26.4 10,28.6 7.4,31.4C7.1,31.8 6.5,32.2 6.4,32.7C6.3,33 6.2,33.4 6.2,33.7C5.9,34.8 5.7,35.8 5.4,36.9C5.3,37.3 5.2,37.8 5.1,38.2C5,38.8 5.7,39.3 6.1,38.8C6.7,38.2 7.5,37.2 8.3,37L8.3,37.6C8.2,39.4 7.4,41.4 6.8,43C5.9,45.3 4.7,47.2 3.4,49.3C2.4,50.9 1.4,52.6 0.7,54.4C0,56.3 -0.1,58 0.1,59.9C0.2,60.9 0.5,61.9 0.5,62.9C0.5,63.5 1.4,63.8 1.7,63.2C2,62.6 4.4,57.1 5.4,58.1C6,58.7 6,59.8 6.1,60.5C6.2,61.7 5.9,63 5.7,64.2C5.2,67 4.4,69.7 4,72.5C3.5,75.3 3.5,78.1 4.3,80.9C4.4,81.3 5,81.6 5.3,81.2C6.1,80.2 6.8,79.1 7.6,78C8,77.5 8.9,76.1 9.7,76.3C10.2,76.4 10.5,77.1 10.7,77.5C11.1,78.4 11.4,79.4 11.6,80.4C12,82.3 12.1,84.3 12.2,86.2C12.3,88.1 12.5,90 12.9,91.8C13.2,93.2 13.8,94.4 14.4,95.7C15.2,97.4 16,99.2 16.8,100.9C17,101.3 17.1,101.6 17.3,102C17.5,102.5 18.3,102.4 18.4,101.9C20,95.2 25.7,90.5 29.5,85C30.3,83.9 31,82.8 31.9,81.8C32.7,80.8 33.7,79.8 35,79.3C35.5,79.1 36,79 36.5,79.2C36.6,79.2 36.8,79.3 36.9,79.3C36.9,79.4 36.9,79.5 36.9,79.6C36.7,80.7 36.2,81.8 35.8,82.8C35.5,83.6 35.1,84.3 34.7,85.1C34.5,85.5 34.8,86.3 35.4,86C39.1,84.5 42.6,82.8 45.9,80.7C47.6,79.7 49.2,78.6 50.8,77.5C51.9,76.7 53,75.8 54.2,75.1C55.8,74.1 57.4,73.3 59.1,72.6C59.9,72.3 60.9,71.9 61.8,71.8C62.1,71.8 62.4,71.8 62.6,71.8C62.6,71.8 62.7,71.9 62.6,71.8C62.6,71.9 62.6,71.9 62.6,72.1C62.6,73.2 61.5,74.5 60.9,75.3C60,76.4 59.1,77.5 58.2,78.6C57.9,79.1 58.4,79.6 58.9,79.5C62.8,78.6 66.5,77.2 70.2,75.5C73.2,74.1 76.1,72.4 79.1,71C80.9,70.2 83,69.2 85.1,69.2C85.9,69.2 86.3,69.5 86.3,70.3C86.3,70.9 85.8,71.5 85.5,72C85,72.7 84.4,73.3 83.8,73.9C83.3,74.4 82.9,74.8 82.4,75.3C82,75.7 82.4,76.5 83,76.3C86,75.3 89.1,74.4 92,73.2C94.8,72 97.2,70.3 99.6,68.6C100.7,67.8 101.8,67.1 103,66.5C103.9,66.1 105.6,65.5 106.5,66.2C107.2,66.7 106.6,68.3 106.5,68.9C106.2,69.8 105.9,70.7 105.5,71.5C105.3,72 106,72.5 106.4,72.2C108.8,70.8 111.2,69.2 113.4,67.4C115.2,66 116.9,64.4 118.7,62.8C119.3,62.2 120,61.7 120.7,61.2C121.3,60.8 122.1,60.3 122.9,60.3C124.3,60.4 122.7,64.4 122.5,65.1C122.3,65.8 123.1,66.1 123.5,65.7C125,64.5 126.4,63.3 127.6,61.8C128.8,60.3 129.8,58.7 130.7,57.1C131.2,56.2 131.6,55.3 132.3,54.6C132.6,54.2 133.1,53.7 133.6,53.5C134.7,53.2 135.2,56.4 135.3,56.9C135.4,57.4 136,57.5 136.3,57.2C139.2,54.1 144.1,48.4 142.3,43.9C143,44.3 143.6,44.8 144.1,45.4C144.5,45.8 145.2,45.5 145.2,45C145.1,44 145,43 144.9,42C144.8,41.4 144.8,40.8 144.7,40.2C144.5,39.1 144,38.1 143.5,37.1C143,36.2 142.5,35.2 142.2,34.2C142,33.8 141.9,33.3 141.9,32.8C141.9,32.7 141.9,32.6 141.9,32.5L141.9,32.3L141.9,32.2C142,32.2 142.1,32.2 142.1,32.2C142.4,32.3 142.7,32.4 142.9,32.5C143.5,32.9 144.1,33.2 144.7,33.4ZM143.5,31.3C141.4,30 138.8,29.5 136.4,29.2C134.9,29 133.4,29 132,29C131.1,29 130.2,29 129.4,29.2C128.5,29.4 127.6,29.8 126.7,30.1C126.2,30.3 125.7,30.4 125.1,30.4C124.5,30.5 123.9,30.6 123.3,30.7C123,30.7 122.3,30.9 122.1,30.8L122,30.8C121.6,30.7 121.3,30.6 120.9,30.6C118.8,30.2 116.6,29.8 114.4,29.6C114.6,29.4 114.8,29.2 115,29C115.5,28.4 116,27.8 116.4,27.2C116.8,26.7 117.1,26.2 117.5,25.7C117.9,25.2 118.3,24.7 118.9,24.3C119.9,23.5 120.9,22.7 122,22.1C124.3,20.7 126.9,21 129.4,21.4C130.2,21.5 131,21.3 131.8,21.2C133,21 134.3,21.1 135.5,21.3C136.6,21.6 137.6,22 138.7,22.5C138.6,22.6 138.5,22.6 138.4,22.8C137.7,23.7 138.4,25 139,25.8C140.3,27.6 142.3,29.2 143.5,31.3ZM139.4,41.4C138.4,41 137.3,40.7 136.3,40.2C135.6,39.9 135,39.6 134.3,39.3C133.5,39 132.7,38.8 131.8,38.8C131.5,38.8 131.3,38.8 131,38.9C129.4,37.9 128,36.6 127.5,34.7C127.4,34.2 127.3,33.7 127.3,33.2L127.3,33.1C127.5,33.2 127.6,33.3 127.8,33.3C129.1,34 130.3,34.8 131.6,35.6C133.9,37 136.1,38.5 138.4,39.9C139.5,40.5 140.5,41.2 141.5,41.9C141.9,42.2 142.3,42.5 142.7,42.9C141.6,42.3 140.5,41.8 139.4,41.4ZM117.5,42.7C117,43.1 116.8,43.6 117.1,44.2C117.5,44.9 118.5,45.3 119.2,45.6L119.3,45.6C117.6,46 115.8,46.2 114.1,46.3C112.5,46.4 110.9,46.4 109.3,46.7C108.2,46.9 106.6,47.3 106.4,48.6C106.3,49.3 107,50 107.6,50.2C107.7,50.2 107.7,50.3 107.8,50.3C106.7,50.5 105.7,50.7 104.6,50.8C103,50.9 101.5,50.5 100,50.6C99.3,50.6 98.6,50.7 97.9,51.1C97.4,51.4 96.8,51.9 96.9,52.6C97,53.1 97.2,53.6 97.6,54C96.5,53.9 95.3,53.8 94.2,53.6C93.1,53.4 92.1,53.1 91,53C90.1,52.9 88.9,52.9 88.5,53.9C88.3,54.4 88.4,54.8 88.7,55.2C88.3,55.1 87.9,54.9 87.4,54.7C86.3,54.2 85.4,53.5 84.3,53C83.6,52.7 82.8,52.7 82.3,53.3C82,53.7 82,54.3 82.1,54.8C81.2,54.6 80.3,54.4 79.4,54C78.9,53.8 78.3,53.4 78,53C77.7,52.5 77.8,52 78,51.4C78.5,50.4 79.2,49.7 80,48.9C80.6,48.3 81.1,47.9 81.8,47.5C82.5,47 83.2,46.6 83.8,46.1C84.3,45.7 84.9,45.2 85.1,44.6C85.3,44 84.7,43.5 84.1,43.7C83.7,43.9 83.2,44.1 82.8,44.4C82.4,44.7 81.9,44.9 81.5,45.2C81.6,44.5 81.9,43.8 82.4,43.2C83.2,42.2 84.4,41.4 85.5,40.7C88,39.2 90.9,38.1 93.1,36.2C93.6,35.8 94,35.3 94.3,34.9C94.8,34.9 95.4,34.9 95.9,34.8C96.7,34.7 97.6,34.5 98.4,34.3C98.9,34.1 99.3,33.9 99.8,33.7C100.3,33.5 100.9,33.2 101.4,33C102.3,32.7 103.3,32.3 104.2,32C104.3,32 104.3,32 104.4,32C104.4,32 104.5,32 104.5,31.9C105.5,31.6 106.6,31.3 107.7,31C107.8,31.1 107.8,31.1 107.9,31C108,31 108,30.9 108.1,30.9C108.6,30.8 109.1,30.6 109.6,30.5C109.7,30.5 109.7,30.5 109.8,30.5C109.9,30.5 110,30.4 110.2,30.4C110.7,30.3 111.2,30.2 111.7,30.1C112.2,30 112.8,30.1 113.3,30.1C116,30.3 118.7,30.8 121.3,31.4C121.4,31.4 121.5,31.4 121.6,31.5C121.8,31.6 122,31.9 122.1,32.2C122.2,32.5 122.3,32.9 122.4,33.3C122.6,34 122.7,34.7 122.9,35.4C123.2,36.5 123.3,37.8 123.9,38.8C124.3,39.4 125,39.5 125.5,39.8C126.8,40.3 128.1,41 129.4,41.6C130,41.9 130.6,42.2 131.2,42.4L131.3,42.5C129.3,42.7 127.2,42.7 125.2,42.6C123.8,42.5 122.4,42.3 120.9,42.4C120.2,42.4 119.6,42.5 118.9,42.6C118.5,42.3 118,42.4 117.5,42.7ZM107.7,48.6L107.7,48.6ZM89.6,54.1L89.6,54.1ZM89.6,54L89.6,54ZM83.3,53.9L83.3,53.9ZM83.3,53.9L83.3,53.9ZM109.8,29.7C109.8,29.8 109.7,29.9 109.7,30C109.3,30.1 108.9,30.2 108.5,30.3C108.6,30.1 108.7,29.9 108.7,29.8C109.1,28.9 109.5,28.1 110,27.3C111.5,24.7 113.5,22.3 115.9,20.5C117.6,19.3 119.4,18.3 121.3,17.6C122.5,17.1 124,17.2 125.2,17.2C126.9,17.2 128.7,17.4 130.4,17.5C131.5,17.6 132.7,17.8 133.8,18C133.9,18.1 134,18.2 134.1,18.2C133.5,18.1 133,18.1 132.4,18C130.7,17.8 128.9,17.7 127.2,17.6C125.8,17.6 124.3,17.5 122.9,17.8C122.1,18 121.3,18.3 120.6,18.7C119.6,19.1 118.7,19.6 117.8,20.2C115.2,21.8 113,23.9 111.4,26.5C110.9,27.3 110.5,28.1 110.1,29C110.1,29.1 110,29.4 109.8,29.7ZM131.2,17.1C129.5,16.9 127.7,16.7 126,16.7C124.6,16.7 123.1,16.6 121.8,16.9C121,17.1 120.2,17.5 119.4,17.8C118.5,18.2 117.6,18.7 116.8,19.3C114.1,21 111.9,23.3 110.2,26C109.6,26.9 109.1,27.9 108.7,28.8C108.5,29.3 108.3,29.9 108,30.3C107.6,30.4 107.3,30.5 106.9,30.6C107,30.4 107.1,30.1 107.2,29.9C107.6,29 107.9,28.2 108.3,27.3C109.6,24.7 111.3,22.3 113.5,20.3C114.9,19 116.5,18 118.3,17.2C119,16.9 119.7,16.5 120.5,16.4C121.1,16.3 121.8,16.2 122.4,16.2C125.6,16 129,16.3 132.2,16.7C132.4,16.7 132.6,16.8 132.8,16.8C133,16.9 133.1,17.1 133.3,17.2C132.5,17.3 131.9,17.2 131.2,17.1ZM130.1,16.2C128.4,16 126.7,15.9 125,15.9C123.5,15.9 122,15.9 120.6,16.1C119.9,16.2 119.4,16.4 118.7,16.7C117.8,17.1 116.9,17.6 116,18.1C113.2,19.8 110.9,22.2 109.2,24.9C108.1,26.6 107.4,28.5 106.6,30.3C106.5,30.4 106.5,30.5 106.4,30.7C106.3,30.8 106.3,30.9 106.3,30.8C105.9,30.9 105.5,31 105.1,31.2C105.2,31 105.3,30.8 105.3,30.6C105.7,29.7 106,28.9 106.4,28C107.6,25.4 109.2,22.9 111.2,20.8C112.4,19.5 113.8,18.4 115.3,17.4C116.6,16.6 118.1,15.7 119.7,15.4C121.2,15.1 122.7,15.2 124.2,15.2C125.9,15.2 127.6,15.3 129.3,15.5C130.2,15.6 131.1,15.7 132,15.8C132.1,16 132.2,16.1 132.4,16.3C131.5,16.4 130.8,16.3 130.1,16.2ZM131.5,15.4C131.5,15.4 131.5,15.5 131.6,15.5C130.8,15.4 129.9,15.3 129.1,15.2C127.4,15 125.7,14.9 124,14.9C122.5,14.9 121,14.9 119.6,15.1C118.1,15.3 116.6,16.1 115.3,16.9C112.4,18.6 110.1,21.1 108.3,23.8C107,25.8 106,27.9 105,30.1C104.9,30.4 104.7,30.7 104.6,31C104.6,31.1 104.5,31.2 104.4,31.3C104,31.4 103.6,31.5 103.3,31.7C103.4,31.5 103.5,31.2 103.6,31C104,30.1 104.3,29.3 104.7,28.4C105.9,25.8 107.3,23.3 109.1,21.1C111.3,18.4 114.1,16.1 117.4,14.9C118.4,14.5 119.6,14.5 120.6,14.4C122.2,14.3 123.8,14.3 125.4,14.3C127,14.3 128.7,14.4 130.3,14.5C130.7,14.5 131.2,14.6 131.7,14.6C131.4,15 131.4,15.2 131.5,15.4ZM129.6,40.7C128.3,40.1 127,39.5 125.7,39C125.5,38.9 125.3,38.9 125.2,38.8C124.6,38.6 124.3,38.3 124,37.7C123.6,36.6 123.4,35.4 123.2,34.2C123,33.5 122.9,32.9 122.7,32.2C122.6,32 122.5,31.7 122.4,31.4C122.7,31.5 122.9,31.5 123.2,31.6L123.2,31.7C123.2,31.8 123.3,31.9 123.3,32C123.4,32.3 123.4,32.6 123.5,32.9C123.7,33.8 124,34.7 124.4,35.6C125.5,38 127.5,39.7 129.9,40.6C129.9,40.8 130.1,41 130.2,41.2C130,40.9 129.8,40.8 129.6,40.7ZM131.1,40.4C131,40.5 131,40.5 131.1,40.4ZM126.9,32.9L126.9,33.5C126.9,34.1 127,34.7 127.2,35.2C127.7,36.9 129,38.1 130.5,39.1L130.4,39.1C128.5,38 126.8,36.5 126.2,34.3C126,33.7 126,33.2 125.9,32.6C125.9,32.5 125.9,32.5 125.9,32.4C126.4,32.6 126.7,32.8 126.9,32.9ZM125.6,32.3C125.6,32.3 125.6,32.4 125.6,32.3C125.7,32.3 125.7,32.4 125.7,32.5C125.7,32.7 125.7,32.9 125.8,33.1C125.9,33.7 126,34.4 126.2,35C126.9,37 128.5,38.4 130.3,39.5L130.2,39.6C128,38.6 126.2,37 125.5,34.6C125.3,33.9 125.2,33.2 125.1,32.5C125.1,32.4 125.1,32.2 125,32.1C125.1,32.2 125.3,32.2 125.6,32.3ZM124.4,31.9C124.4,32 124.5,32.1 124.5,32.1C124.6,32.4 124.6,32.6 124.6,32.9C124.7,33.7 124.9,34.4 125.2,35.2C126.1,37.4 127.9,38.9 129.9,39.9L129.9,40C127.5,39.1 125.5,37.3 124.6,34.9C124.3,34.1 124.1,33.3 123.9,32.4C123.9,32.2 123.8,32 123.8,31.8C123.9,31.8 124.1,31.9 124.4,31.9ZM140,21.9C140.3,22.2 140.4,22.5 140.6,22.8C140.4,22.7 140.1,22.6 139.8,22.5C139.6,22.4 139.4,22.4 139.2,22.4C137.2,21.3 135,20.5 132.6,20.7C131.8,20.7 130.9,20.9 130.1,21C129.5,21 128.8,20.9 128.2,20.8C126.9,20.7 125.6,20.6 124.4,20.8C123,21 121.9,21.6 120.8,22.4C119.7,23.2 118.5,24 117.6,25C117.1,25.5 116.8,26.1 116.4,26.7C116.1,27.2 115.7,27.6 115.4,28.1C115.1,28.5 114.8,28.8 114.5,29.2C114.3,29.4 113.9,29.9 113.5,29.9C113.3,29.9 113.1,29.9 112.9,29.8C112,29.7 111.1,29.9 110.3,30.1C110.4,29.9 110.5,29.7 110.6,29.5C111,28.7 111.4,27.9 111.9,27.1C113.5,24.4 115.8,22.2 118.5,20.6C119.3,20.1 120.2,19.6 121.1,19.2C121.8,18.9 122.6,18.5 123.3,18.4C124.7,18.1 126.2,18.2 127.6,18.2C129.3,18.3 130.9,18.4 132.6,18.6C133.4,18.7 134.2,18.8 135,18.9C135.1,19 135.2,19 135.3,19.1C136,19.6 136.9,19.9 137.6,20.3C138.4,20.6 139.3,21.1 140,21.9ZM124.8,12.4C126,12.6 127.3,12.7 128.5,12.8C129.1,12.9 129.7,13 130.3,13.1C130.6,13.2 130.9,13.3 131.2,13.3C131.3,13.3 131.6,13.5 131.4,13.3C131.6,13.5 131.9,13.8 132.1,14L132,14C131.8,14 131.7,14.1 131.6,14.2C131.2,14.2 130.8,14.1 130.4,14.1C128.8,14 127.3,13.9 125.7,13.9C124.1,13.9 122.5,13.9 120.8,13.9C119.6,14 118.4,14 117.3,14.3C116.6,14.5 115.9,14.8 115.3,15.1C114.5,15.5 113.7,16 113,16.5C111.6,17.5 110.4,18.6 109.2,19.9C107.2,22.1 105.7,24.7 104.5,27.3C104,28.3 103.6,29.3 103.2,30.4C103.1,30.7 102.9,31 102.8,31.4C102.8,31.5 102.7,31.6 102.6,31.7L102.5,31.8L102.4,31.9C102.1,32 101.7,32.1 101.4,32.3C100.9,32.5 100.3,32.7 99.8,32.9C99.4,33.1 98.9,33.4 98.5,33.5C97.7,33.8 96.9,33.9 96.1,34.1C95.6,34.2 95.1,34.3 94.6,34.3C94.7,34.3 94.7,34.2 94.8,34.2C95.4,33.8 95.9,33.3 96.4,32.9C96.9,32.5 97.4,32 97.8,31.5C98.3,31 98.4,30.4 98.7,29.7C98.9,29.1 99.2,28.5 99.4,27.9C99.6,27.3 99.9,26.6 100.1,25.9C100.5,24.6 101,23.3 101.6,22.1C102.2,21 102.8,19.8 103.5,18.8C104.2,17.7 105,16.7 106,15.9C107.7,14.5 109.8,13.8 111.8,13C114.4,11.9 117,10.9 119.7,10C119.8,10 119.9,9.9 120,9.9C119.9,10.4 120.4,10.9 120.8,11.1C122.1,12 123.5,12.3 124.8,12.4ZM120.6,9.3L120.5,9.4C119.4,9.7 118.4,10.1 117.4,10.5C117,10.7 116.6,10.8 116.2,11C116.9,10.7 117.7,10.3 118.4,9.9C119,9.6 119.8,9.4 120.6,9.3ZM113.6,10.4L113.6,10.4ZM113.6,10.5L113.6,10.5ZM113.6,10.5L113.6,10.5ZM106.7,12.5L106.7,12.5ZM100.6,20.9C101.3,18.7 101.8,16.5 102.7,14.4C103.1,13.4 103.6,12.4 104.3,11.6C104.7,11.2 105.2,10.8 105.7,10.5C105.6,10.8 105.6,11 105.5,11.3C105.3,12.1 105.3,13.3 106.2,13.6C106.6,13.8 107.2,13.5 107.5,13.3C108.3,12.8 108.9,12.2 109.6,11.6C110.5,10.8 111.4,9.9 112.4,9.1C112.3,9.4 112.2,9.8 112.2,10.1C112.1,11.1 112.9,11.7 113.8,11.6C114.1,11.6 114.5,11.5 114.8,11.4C113,12.1 111.2,12.8 109.4,13.6C108.6,13.9 107.9,14.2 107.1,14.6C106.4,15 105.8,15.5 105.3,16C104.4,16.8 103.7,17.8 103.1,18.9C102.4,20 101.8,21.1 101.2,22.3C100.6,23.5 100.2,24.7 99.8,25.9C99.4,27.2 98.9,28.4 98.4,29.6C98.2,30 98.2,30.5 97.9,30.8C97.8,31 97.6,31.2 97.5,31.3C96.9,32 96.3,32.6 95.6,33.1C95.4,33.2 95.3,33.4 95.1,33.5C97.5,29.7 99.2,25.3 100.6,20.9ZM26,13.1C28.9,12.6 31.9,12.7 34.8,12.1C36.5,11.8 39,10.8 37.9,8.7C37.5,7.9 36.7,7.2 36.1,6.6C35.7,6.2 35.3,5.9 34.8,5.5C37.8,5.7 40.7,6.4 43.6,7C45.3,7.4 47,7.8 48.8,8C49.7,8.1 50.9,8.2 51.7,7.6C53.1,6.5 51.6,4.6 50.8,3.7C50.1,2.9 49.3,2.1 48.5,1.4C49.8,1.4 51.1,1.3 52.4,1.5C54.3,1.7 56.1,2.7 57.7,3.7C61,5.8 63.8,8.5 66.6,11.2C72.6,16.7 78.9,21.9 85.7,26.4C88.4,28.2 91.1,29.9 94,31.5C93.5,31.5 93,31.5 92.5,31.4C91,31.2 89.6,30.9 88.1,30.6C86.9,30.3 85.8,30 84.6,29.6C84.1,29.4 83.7,29 83.2,28.6C82.2,27.8 81.2,27 80.1,26.3C77.9,24.7 76,22.9 73.9,21.1C71.9,19.4 69.9,17.9 67.6,16.5C65.4,15.2 63.1,13.9 60.8,12.8C59.6,12.3 58.4,11.8 57.2,11.5C56,11.2 54.7,11 53.4,10.9C52.6,10.8 51.8,10.7 50.9,10.8C50.1,10.9 49.3,10.9 48.5,11C46,11.3 43.6,11.6 41.2,12C35.6,12.8 30,13.7 24.5,14.8C23.3,15.1 22,15.3 20.8,15.7L20.7,15.7C22.3,14.3 24,13.5 26,13.1ZM7.5,33.6C7.5,33.4 7.6,33.2 7.6,33C7.5,33.3 7.9,32.7 7.9,32.7L9.6,31C11,29.6 12.6,28.4 14.2,27.3C15.7,26.2 17.3,25 18.8,23.8C19.7,23.1 20.6,22.4 21.4,21.5C22.1,20.7 22.7,19.9 23.3,19C23.8,18.3 24.3,17.3 24.2,16.5C24.1,16.2 23.9,15.9 23.7,15.8C26,15.3 28.3,14.9 30.6,14.5C36.1,13.5 41.7,12.7 47.2,12C48.8,11.8 50.4,11.6 52,11.5C52.5,11.5 53.1,11.6 53.6,11.6C54.9,11.7 56.2,11.9 57.5,12.3C60,13 62.4,14.3 64.6,15.5C66.8,16.8 69.1,18.1 71.2,19.6C73.4,21.2 75.3,23.1 77.4,24.8C78.4,25.6 79.4,26.5 80.4,27.2C81.5,28 82.5,28.8 83.5,29.6C83.9,29.9 84.2,30.1 84.7,30.3C85.2,30.5 85.7,30.6 86.2,30.8C88,31.3 89.9,31.8 91.8,32C92.3,32.1 92.8,32.1 93.3,32.2C92.6,32.6 91.9,32.9 91.2,33.2C89.6,33.8 88,34.4 86.3,34.7C85.4,34.9 84.4,34.8 83.5,34.9C82.3,35 81,35.2 79.8,35.5C78.9,35.7 78,35.8 77.2,36C77.1,35.9 76.9,35.8 76.8,35.7C76.2,35.3 75.6,34.8 75,34.4C73.1,33 71.3,31.6 69.3,30.2C63.7,26.4 57.6,23.2 51,21.5C47.2,20.5 43.3,20.1 39.3,20.2C37.6,20.3 35.8,20.4 34.2,20.8C33.3,21 32.3,21.4 31.4,21.8C28.8,23 26.2,24.4 23.7,25.8C20.8,27.5 18,29.2 15.2,31C13.3,32.2 11.4,33.5 9.6,34.8C9.2,35.1 8.9,35.3 8.5,35.6C8.4,35.6 8.3,35.6 8.1,35.6C7.6,35.7 7.2,35.9 6.8,36.3C7,35.5 7.3,34.5 7.5,33.6ZM62.6,39.6L62.5,39.5C62,39.2 61.5,38.8 61,38.5C59.4,37.4 57.7,36.3 55.9,35.4C50.1,32.4 43.5,31.1 37,31.2C34.8,31.2 32.5,31.4 30.3,31.7C28.9,31.9 27.7,32.2 26.4,32.7C23.6,33.9 20.9,35.6 18.4,37.2C15.7,38.9 13.1,40.8 10.6,42.7C9.4,43.6 8.2,44.5 7.1,45.5C7.3,45.2 7.4,44.9 7.5,44.5C7.5,44.4 7.6,44.2 7.7,43.9C9.4,42.4 11.2,41 13,39.7C15.8,37.6 18.6,35.6 21.6,33.7C23,32.9 24.3,32 25.7,31.3C26.8,30.7 27.9,30.2 29.1,29.8C29.8,29.6 30.6,29.5 31.3,29.4C32.5,29.2 33.6,29.1 34.8,29C36.9,28.9 39,28.9 41.1,29C47.7,29.5 54,31.5 59.7,34.8C61.4,35.8 63,36.8 64.6,37.9C64.9,38.1 65.3,38.4 65.6,38.6C64.7,39 63.7,39.3 62.6,39.6ZM8.4,37L8.4,37ZM66.2,38.6C65.6,38.2 65.1,37.8 64.5,37.5C62.7,36.3 60.9,35.1 59.1,34.1C53.2,30.9 46.7,29 40,28.7C37.8,28.6 35.7,28.7 33.5,28.9C31.8,29.1 30.1,29.2 28.5,29.7C25.8,30.6 23.2,32.2 20.8,33.8C17.9,35.6 15.1,37.6 12.4,39.7C10.9,40.8 9.4,42 8,43.2C8.2,42.6 8.5,41.9 8.7,41.2C10.3,39.7 12.2,38.4 13.9,37.1C16.7,35.1 19.6,33.1 22.5,31.3C25,29.8 27.6,28.2 30.4,27.2C31.8,26.7 33.3,26.5 34.8,26.3C36.9,26.1 39,26 41.2,26.1C48.1,26.4 54.8,28.6 60.7,32C62.7,33.2 64.7,34.5 66.6,35.9C67.2,36.4 67.9,36.9 68.5,37.3C68.7,37.4 68.9,37.6 69,37.7C68.1,38.1 67.2,38.3 66.2,38.6ZM69.6,37.7C69.5,37.6 69.4,37.6 69.3,37.5C68.7,37.1 68.2,36.7 67.7,36.3C66,35 64.2,33.7 62.4,32.6C56.9,29.1 50.7,26.8 44.2,26C40.2,25.5 35.9,25.6 31.9,26.4C30.8,26.6 29.8,27.1 28.8,27.5C27.5,28.1 26.1,28.8 24.9,29.5C21.9,31.2 19,33.1 16.1,35.1C13.7,36.8 11.3,38.5 9.1,40.4L9,40.5C9.2,39.8 9.4,39.2 9.5,38.5C11.2,37 13,35.6 14.9,34.3C17.7,32.3 20.6,30.3 23.5,28.5C26,27 28.6,25.4 31.4,24.4C32.8,23.9 34.2,23.7 35.6,23.5C37.7,23.3 39.8,23.2 41.9,23.3C49.2,23.7 56.2,26.2 62.5,29.7C64.9,31 67.1,32.5 69.3,34.1C70.5,35 71.7,35.9 73,36.8C71.8,37.1 70.7,37.4 69.6,37.7ZM73.5,36.8C73.4,36.8 73.4,36.7 73.3,36.7C72.7,36.3 72.1,35.9 71.5,35.4C69.6,34 67.8,32.7 65.8,31.4C60.1,27.7 53.9,24.9 47.2,23.6C43.2,22.8 39.1,22.7 35.1,23.1C33.7,23.3 32.4,23.5 31.1,24C29.9,24.5 28.7,25.1 27.5,25.7C24.5,27.3 21.6,29.1 18.8,31C16.2,32.8 13.6,34.6 11.1,36.5C10.5,36.9 10,37.4 9.5,37.8C9.6,36.9 9.5,36.1 9,35.8C9.8,35.2 10.6,34.7 11.4,34.1C14,32.3 16.7,30.6 19.4,28.9C22.2,27.2 25,25.5 27.8,24C29.8,22.9 32,21.8 34.2,21.2C35.9,20.8 37.7,20.7 39.4,20.6C41.4,20.5 43.4,20.6 45.4,20.9C49.2,21.4 52.9,22.4 56.4,23.8C62.2,26.1 67.5,29.4 72.4,33.1C73.5,33.9 74.6,34.8 75.7,35.6C75.9,35.8 76.1,35.9 76.4,36.1C75.5,36.3 74.5,36.5 73.5,36.8ZM1.3,57.2C1.6,55.3 2.5,53.5 3.4,51.8C4.4,50 5.6,48.4 6.5,46.6C8.1,45.2 9.8,43.9 11.5,42.6C14.3,40.5 17.1,38.5 20.1,36.6C22.5,35.1 25,33.5 27.8,32.6C28.4,32.4 29,32.3 29.6,32.2C30.8,32 32,31.9 33.2,31.7C35.3,31.5 37.5,31.4 39.6,31.5C45.8,31.8 51.9,33.4 57.3,36.5C58.7,37.3 60,38.2 61.3,39.1C61.6,39.3 61.9,39.5 62.2,39.7L62.1,39.7C61.1,40 60.2,40.3 59.2,40.7C58.9,40.8 58.5,41 58.2,41.1C57.6,41.4 57,41.9 56.5,42.3C56.2,42.5 55.9,42.7 55.6,43C55.3,43 54.9,42.9 54.6,42.9C53.8,42.7 53,42.5 52.3,42.2C50.6,41.5 48.9,40.8 47.2,40C46,39.4 44.9,38.9 43.7,38.6C42.5,38.3 41.2,38.1 40,38C37.4,37.7 34.6,37.3 31.9,37.6C27.1,38.1 23.2,41.4 19.5,44.1C18.2,45.1 16.7,45.5 15.2,46.2C13.2,47 11.4,48.1 9.8,49.5C7.1,51.8 5.1,54.8 3.3,57.8C2.7,58.7 2.2,59.7 1.7,60.7C1.3,59.5 1.1,58.3 1.3,57.2ZM7.3,61.7C7.4,60.2 7.3,57.3 5.5,56.8C5.2,56.7 4.8,56.7 4.5,56.9C6.9,53.1 9.9,49.6 13.9,47.5C15.4,46.7 17,46.2 18.5,45.5C19.7,44.9 20.7,44 21.8,43.2C23.8,41.7 26,40.2 28.3,39.3C29.4,38.9 30.6,38.6 31.7,38.4C33,38.3 34.4,38.3 35.7,38.4C37.1,38.5 38.4,38.7 39.8,38.8C41.1,39 42.3,39.1 43.6,39.5C44.9,39.9 46,40.5 47.2,41.1C48.2,41.6 49.1,42 50.1,42.4C51.5,43 52.9,43.6 54.4,43.9C50.8,46.6 47.4,49.4 44.1,52.4C43.3,53.1 42.5,53.9 41.7,54.6C41.2,54.8 40.7,55 40.2,55.3C39,55.8 37.7,56.3 36.5,56.8C36.2,56.9 35.9,57.1 35.6,57.2C34.4,57.6 33.1,57.8 31.9,58C30.7,58.2 29.6,58.6 28.4,58.9C28.1,59 27.9,59.1 27.7,59.2C25.7,60 23.7,61.1 21.8,62.3C19,64 16.3,65.8 13.8,67.9C11.7,69.7 9.6,71.6 7.9,73.8C6.7,75.3 5.7,77 5,78.7C4.4,72.9 6.7,67.4 7.3,61.7ZM43.1,57.4C43.5,58.8 44,60.1 44.4,61.5C44.8,62.8 45.2,64 45.6,65.3C46,66.5 46.4,67.8 46.3,69.1C46.2,70 45.6,70.7 45.1,71.3C44.8,71.7 44.5,72 44.3,72.4C42.6,74.7 41.1,77 39.5,79.3C38.8,80.2 38.2,81.2 37.5,82.1C37.8,81.4 38,80.7 38.2,80C38.3,79.6 38.3,79.3 38.2,79C40.9,75.9 42.8,72.1 43.2,68C43.5,65 42.9,62 42,59.1C41.8,58.4 41.6,57.8 41.4,57.1C41.4,57 41.3,56.9 41.3,56.7C41.8,56.2 42.3,55.7 42.9,55.2C42.7,56 42.9,56.7 43.1,57.4ZM37.1,78C36.9,77.9 36.7,77.9 36.6,77.9C38.4,74.7 39.9,71.2 39.8,67.4C39.7,65.2 39.1,63.3 38.1,61.4C38,61.1 37.8,60.9 37.7,60.6C38.1,60.1 38.6,59.5 39.1,59L39.1,59.1C39.4,60 39.8,60.8 40.1,61.6C41.1,64.4 41.4,67.4 40.8,70.3C40.2,73.2 38.8,75.7 37.1,78L37.1,78ZM35.5,77.9C37.2,74.9 38.3,71.4 37.8,67.9C37.6,66.8 37.3,65.7 36.8,64.6C36.5,64 36.2,63.5 36,62.9C36.4,62.2 36.9,61.6 37.4,61C37.7,61.7 38,62.3 38.3,63C39.3,65.5 39.5,68.1 39,70.8C38.5,73.3 37.4,75.7 36.1,78C35.9,77.8 35.7,77.8 35.5,77.9ZM40.8,57.2C40.8,57.3 40.9,57.4 40.9,57.5C41.2,58.5 41.5,59.5 41.8,60.5C42.7,63.7 43,67 42.3,70.2C41.6,73.4 40,76.2 37.9,78.6C37.8,78.5 37.7,78.3 37.5,78.2C39.8,75 41.4,71.4 41.5,67.4C41.5,64.8 40.8,62.4 39.9,60C39.7,59.5 39.5,59.1 39.4,58.6L39.4,58.5C39.9,58.1 40.3,57.6 40.8,57.2ZM16.2,97C15.9,96.4 15.6,95.8 15.4,95.2C15.1,94.5 14.7,93.8 14.4,93C14.1,92.1 13.9,91.1 13.7,90.1C13.1,86.3 13.3,82.4 12.2,78.7C11.8,77.5 11.3,75.7 10,75.2C9,74.8 8.1,75.5 7.4,76.2C6.6,77 6,78 5.3,79C6.2,76.5 7.8,74.2 9.5,72.2C11.8,69.6 14.5,67.4 17.3,65.4C19.7,63.7 22.2,62.1 24.8,60.8C25.7,60.3 26.5,59.9 27.4,59.5C28.5,59 29.8,58.7 30.9,58.4C32.5,58 34.2,57.9 35.8,57.3C36.6,57 37.3,56.7 38.1,56.4C39,56 39.9,55.7 40.7,55.3C38.3,57.6 36.1,60 34.3,62.8C32.9,65.1 31.6,67.5 30.4,69.9C28.8,72.9 27.3,76 25.7,79C24.6,81.2 23.5,83.4 22.3,85.6C21.1,87.8 19.9,90 18.9,92.4C18.2,94 17.6,95.6 17.2,97.2C17.1,97.7 17,98.2 16.9,98.7C16.8,98.2 16.5,97.6 16.2,97ZM28.3,84.4C26.4,87.2 24.2,89.6 22.1,92.3C20.7,94.1 19.4,96 18.4,98.1C18.4,98 18.5,97.8 18.5,97.7C18.9,96.1 19.5,94.5 20.1,93C21.1,90.7 22.2,88.5 23.5,86.3C24.7,84.1 25.8,81.9 26.9,79.7C28.4,76.7 30,73.6 31.6,70.6C32.9,68.2 34.1,65.8 35.5,63.5C35.5,63.4 35.6,63.4 35.6,63.3C36,64.1 36.3,64.8 36.6,65.6C37.7,68.6 37.4,71.8 36.3,74.7C35.9,75.9 35.3,77 34.7,78C34.3,78.1 33.9,78.3 33.5,78.5C31.4,79.8 29.8,82.3 28.3,84.4ZM37,79.3L37,79.3ZM140.3,50.1C139.3,52.1 137.8,54 136.3,55.6C136,54.3 135.5,52.9 134.3,52.5C132.9,52 131.6,53.6 130.9,54.6C129.6,56.4 128.7,58.6 127.4,60.4C126.5,61.6 125.5,62.6 124.5,63.6C124.9,62.2 125.2,60.6 124.1,59.7C122.6,58.5 120.4,60.1 119.2,61.1C117.4,62.5 115.8,64.1 114.1,65.5C112,67.3 109.8,68.9 107.5,70.3C108.1,68.8 108.5,67.2 107.9,65.8C107.4,64.8 105.9,64.6 104.9,64.7C103.4,64.8 102.1,65.5 100.8,66.3C99.6,67 98.6,67.9 97.5,68.7C96,69.8 94.5,70.7 92.9,71.5C90.4,72.7 87.8,73.6 85.2,74.4C85.7,73.9 86.1,73.5 86.5,72.9C87.3,71.9 87.9,70.8 87.6,69.5C87.1,67.4 84.2,68 82.7,68.3C80.7,68.8 78.9,69.7 77.1,70.6C73.5,72.5 69.9,74.4 66.2,75.9C64.3,76.6 62.5,77.3 60.5,77.8C61.2,77 61.9,76.2 62.5,75.3C63.2,74.3 64.1,73.1 64,71.8C63.9,69.9 61.5,70.3 60.3,70.7C58.3,71.3 56.5,72.3 54.7,73.3C52.4,74.6 50.3,76.3 48.2,77.7C44.5,80.1 40.7,82.3 36.6,84C36.6,83.9 36.7,83.8 36.7,83.7C37,83.3 37.2,83 37.5,82.6C38.4,81.4 39.3,80.2 40.1,78.9C41.8,76.5 43.4,74.1 45.1,71.8C45.3,71.5 45.6,71.2 45.9,70.9C46.5,70.1 46.9,69.3 46.9,68.3C46.9,67.2 46.5,66 46.2,64.9C45.8,63.7 45.4,62.5 45,61.3C44.6,60 44.2,58.8 43.8,57.5C43.6,56.8 43.4,56.1 43.3,55.3C43.3,55.1 43.2,54.8 43.3,54.6C44,53.9 44.8,53.2 45.5,52.6C49.4,49.1 53.5,45.8 57.8,42.7C58.2,42.4 58.6,42.1 59,41.9C59.1,41.9 59.1,41.8 59.2,41.8L59.4,41.8C59.6,41.7 59.8,41.6 60,41.6C61,41.2 62,40.9 63.1,40.6C68.9,38.8 74.9,37.4 80.9,36.3C82,36.1 83.1,35.9 84.1,35.8C85.1,35.7 86.1,35.7 87.2,35.5C88.9,35.1 90.5,34.5 92.1,33.9C92.8,33.6 93.6,33.3 94.3,32.9C94.2,33.1 94.1,33.3 93.9,33.5C93.2,34.6 92.2,35.4 91.1,36.1C89.8,36.9 88.5,37.6 87.2,38.3C84.8,39.6 82,41 80.9,43.6C80.6,44.4 80.5,45.3 80.6,46.2C80.6,46.4 80.7,46.5 80.8,46.6C80.3,47 79.8,47.4 79.3,47.9C78.5,48.6 77.7,49.5 77.3,50.4C76.9,51.1 76.7,51.9 77,52.7C77.2,53.4 77.7,53.9 78.3,54.2C79.5,55 81,55.3 82.3,55.6C82.6,55.7 82.9,55.7 83.2,55.8C83.6,55.9 84.1,55.5 84,55C83.9,54.6 83.7,54.2 83.7,53.8C83.7,53.7 83.7,53.7 83.7,53.6L83.7,53.5C83.8,53.5 83.8,53.5 83.9,53.5C84.3,53.6 84.6,53.8 85,54C85.9,54.5 86.8,55.1 87.8,55.5C88.8,55.9 89.8,56.1 90.8,56.3C91.4,56.4 91.9,55.7 91.4,55.3C91.1,55 90.7,54.7 90.4,54.4C90.2,54.2 90.1,54.1 90,53.9L90.7,53.9C91.1,53.9 91.5,54 91.8,54C92.9,54.2 93.9,54.5 95,54.6C96.5,54.8 98.1,55 99.6,55C100.3,55 100.4,54.2 99.9,53.8C99.6,53.6 99.3,53.3 99,53.1C98.8,52.9 98.6,52.8 98.5,52.6L98.4,52.4L98.4,52.3L98.5,52.2C98.6,52.1 98.7,52 98.8,52C99,51.9 99.3,51.8 99.6,51.8C100.2,51.7 100.8,51.7 101.4,51.8C102.9,51.9 104.3,52.1 105.7,51.9C107.4,51.7 109.1,51.3 110.7,50.9C111.3,50.8 111.3,49.9 110.7,49.7C110,49.5 109.2,49.4 108.5,49.1C108.3,49 108,48.9 107.9,48.7L107.9,48.6L108,48.5C108.1,48.5 108.1,48.4 108.2,48.4C108.4,48.3 108.6,48.2 108.8,48.1C109.1,48 109.4,48 109.6,47.9C109.9,47.8 110.2,47.8 110.4,47.8C112,47.6 113.5,47.6 115.1,47.5C117.3,47.3 119.5,47 121.7,46.3C122.2,46.2 122.4,45.4 121.8,45.2C120.9,44.8 120.1,44.6 119.2,44.2C119,44.1 118.8,44 118.6,43.9C118.5,43.9 118.5,43.8 118.4,43.8C118.5,43.7 118.4,43.8 118.6,43.7C118.9,43.6 119.2,43.5 119.4,43.5C120,43.4 120.6,43.3 121.2,43.3C122.7,43.2 124.2,43.4 125.6,43.5C128.2,43.6 130.7,43.5 133.2,43.2C133.8,43.1 133.7,42.3 133.3,42.1C132.9,41.8 132.5,41.6 132.2,41.3C132,41.1 131.7,40.9 131.5,40.8C131.4,40.7 131.3,40.6 131.2,40.5C131.3,40.5 131.3,40.4 131.4,40.4C131.6,40.3 132,40.3 132.2,40.3C132.9,40.4 133.7,40.7 134.3,40.9C134.9,41.2 135.5,41.5 136.2,41.7C137.1,42.1 138.1,42.4 139.1,42.8C139.4,42.9 139.7,43 140,43.1C142.1,44.9 141.5,47.7 140.3,50.1ZM141.5,31.2C139.7,31.7 141,34.8 141.4,35.8C141.8,36.8 142.4,37.8 142.8,38.8C143.2,39.7 143.4,40.6 143.5,41.6C143.6,42.2 143.6,42.8 143.7,43.3C143.1,42.7 142.5,42.2 141.9,41.7C140.8,40.9 139.7,40.2 138.6,39.5C136.1,38.1 133.7,36.4 131.2,34.9C130,34.2 128.9,33.4 127.7,32.8C127.5,32.7 127.4,32.6 127.2,32.5C127.2,32.5 127.1,32.5 127.1,32.4C125.8,31.8 124.5,31.4 123.2,31.1L123.3,31.1C124,31 124.6,30.9 125.3,30.8C126,30.7 126.7,30.5 127.4,30.2C128.2,29.9 128.9,29.6 129.8,29.5C130.8,29.3 131.8,29.3 132.8,29.3C134.4,29.3 135.9,29.4 137.5,29.6C139.2,29.8 141,30.2 142.5,31C142.1,31.1 141.8,31.1 141.5,31.2Z" style="fill:url(#tag1);fill-rule:nonzero;"/>
    <defs>
        <linearGradient id="tag1" x1="0" y1="0" x2="1" y2="0" gradientUnits="userSpaceOnUse" gradientTransform="matrix(145.763,2.87712,-2.87712,145.763,-0.294178,41.9506)"><stop offset="0%" style="stop-color:rgb(203,89,110);stop-opacity:1"/><stop offset="100%" style="stop-color:rgb(116,54,110);stop-opacity:1"/></linearGradient>
    </defs>
</svg>
