<?xml version="1.0" standalone="no"?>
<!DOCTYPE svg PUBLIC "-//W3C//DTD SVG 1.1//EN" "http://www.w3.org/Graphics/SVG/1.1/DTD/svg11.dtd">
<svg width="100%" height="100%" viewBox="0 0 59 56" version="1.1" xmlns="http://www.w3.org/2000/svg" xmlns:xlink="http://www.w3.org/1999/xlink" xml:space="preserve" style="fill-rule:evenodd;clip-rule:evenodd;stroke-linejoin:round;stroke-miterlimit:1.41421;">
    <path d="M6.4,42.1C7.1,42.9 7.9,43.6 8.7,44.3C10.7,46 12.8,47.6 15,49.1C16.9,50.4 18.9,51.7 21,52.9C21.7,53.3 22.3,53.7 23,54C23.3,54.2 23.8,54.3 24.1,54.2C26.3,55.1 28.6,55.5 31,55.6C31.7,55.6 32.3,55.6 33,55.5C33.6,55.5 34.2,55.2 34.4,54.6C34.5,54.3 34.4,54 34.4,53.7C34.3,53.3 34.3,52.9 34.2,52.5C34.2,52.3 34.1,52.1 34.1,51.9C36.5,53.8 39.3,55.1 42.2,55.8C44,56.2 45.8,56.3 47.6,56.1C48.1,56.1 48.4,56 48.7,55.6C49.1,55.2 48.9,54.6 48.7,54.2C48.5,53.5 48.3,52.9 48.1,52.2C49.9,52.8 51.7,53.2 53.6,53.4C54.7,53.5 55.8,53.6 56.9,53.6C57.7,53.6 59.5,53.7 59.4,52.5C59.4,51.6 59.2,50.6 59.1,49.7C58.9,48.3 58.6,46.9 58.3,45.5C57.8,43.4 57.3,41.3 56.6,39.2C56.3,38.2 56,37 55.5,36C55.6,36 55.8,36.1 55.9,36.1C56.4,36.2 57,36.6 57.5,36.4C57.9,36.3 58.2,35.9 58.2,35.4C58.2,35 58,34.7 57.9,34.4C57.4,33.1 56.7,31.8 56.1,30.5C54.9,28.1 53.7,25.7 52.3,23.4C52.2,23.2 52.1,23 51.9,22.8C51.1,21.6 50.1,20.5 49.2,19.5C49.5,19.5 49.8,19.5 50.1,19.5C50.4,19.5 50.7,19.6 51.1,19.6C51.4,19.5 51.7,19.3 51.8,18.9C52,18.2 51.3,17.6 50.8,17.1C50.2,16.5 49.6,15.9 49,15.3C46.7,13 44.1,10.9 41.4,9.2C41.3,9.1 41.1,8.9 40.9,8.8C40.2,8.4 39.6,8 38.9,7.7C37.6,7 36.3,6.3 34.9,5.6C35.1,5.5 35.3,5.4 35.4,5.3C35.9,5.1 36.5,4.9 36.7,4.3C36.9,3.5 36.2,3 35.7,2.5C35,1.8 34,1.4 33.1,1C31,0 28.7,-0.1 26.4,0.1C21.2,0.4 16,2 11.1,3.9C9.1,4.7 7.1,5.5 5.2,6.4C4.1,6.9 3,7.4 2,8.1C1.9,8.1 1.8,8.2 1.7,8.3C1.4,8.8 1.2,9.4 1,10C0.6,11.3 0.3,12.7 0.2,14.1C-0.1,17.2 0.1,20.4 0.4,23.5C0.6,25.6 0.9,27.7 1.3,29.8C1.4,30.4 1.5,31 1.7,31.6C1.8,31.8 1.8,31.9 2,32.1C2.3,32.5 2.8,32.5 3.2,32.5C3.3,32.5 3.4,32.5 3.5,32.4C3.7,33.9 4,35.4 4.3,36.8C4.5,37.6 4.7,38.4 4.9,39.2C4.9,39.4 5,40 5.2,40.3C5.4,40.9 5.9,41.5 6.4,42.1ZM28.8,54.2C28.2,50.6 27.8,47.1 27.6,43.5C27.4,39.6 27.5,35.7 28.3,31.9C28.6,30.5 29.1,29.1 29.7,27.8C29.9,27.3 30.2,26.8 30.5,26.3C30.6,26.1 30.8,25.9 30.9,25.6C31.4,26 31.9,26.5 32.4,26.9C31.6,28.3 31.2,30 30.9,31.6C30.6,33.5 30.5,35.5 30.4,37.4C30.3,41.6 30.6,45.7 31,49.9C31.2,51.4 31.3,53 31.5,54.5C31.1,54.5 30.8,54.5 30.4,54.5C29.9,54.3 29.4,54.2 28.8,54.2ZM48,50.8C47.8,49.3 47.6,47.8 47.4,46.2C47.2,44.3 47,42.3 46.5,40.5C47,41 47.5,41.5 48,42C48.5,42.5 48.9,43 49.4,43.5C49.6,44.1 49.6,44.8 49.7,45.4C49.8,46.2 49.9,47.1 50.1,47.9C50.2,48.8 50.3,49.6 50.7,50.5C50.9,50.9 51.1,51.3 51.2,51.7C50.1,51.4 49.1,51.1 48,50.8ZM35.4,51.4C35.3,47.6 34.5,43.9 34.3,40.2C34.2,37.9 34.3,35.6 34.5,33.4C34.6,32.4 34.7,31.4 35,30.5C35.1,30.2 35.2,29.9 35.3,29.5C35.9,30.1 36.5,30.6 37.1,31.2C37.4,31.5 37.7,31.8 38,32C37.4,36 37.1,40.1 37.3,44.1C37.4,46.1 37.6,48.2 38.1,50.2C38.3,51 38.5,51.8 38.7,52.6C38.8,52.9 38.8,53.1 38.9,53.4C37.6,52.8 36.5,52.1 35.4,51.4ZM33.3,54.1C33.3,54.3 33.3,54.3 33.2,54.3C32.9,54.3 32.6,54.3 32.4,54.4C31.8,50.1 31.4,45.9 31.3,41.6C31.2,39.8 31.3,38 31.3,36.1C31.4,34.1 31.6,32.2 32,30.3C32.2,29.3 32.5,28.3 33,27.4C33.7,28 34.4,28.6 35,29.2C35,29.3 35,29.4 34.9,29.5C34.8,29.8 34.7,30.1 34.7,30.4C34.5,31.3 34.4,32.2 34.2,33.1C33.9,35.3 33.8,37.5 33.9,39.7C34,43.5 34.9,47.3 35,51.1C34.4,50.7 33.9,50.3 33.4,49.8C33,49.5 32.4,49.9 32.5,50.4C32.8,51.6 33.1,52.8 33.3,54.1ZM39.3,53.6C39.2,53.3 39.1,53 39.1,52.8C38.9,52.1 38.7,51.4 38.6,50.7C38.1,48.7 37.9,46.6 37.7,44.5C37.4,40.4 37.7,36.4 38.3,32.3C39,33 39.7,33.6 40.4,34.3C40,37.8 40.1,41.3 40.4,44.8C40.7,48.1 41.3,51.4 42.4,54.5C42.1,54.4 41.9,54.4 41.6,54.3C40.8,54.2 40.1,53.9 39.3,53.6ZM42.9,54.6C41.8,51.4 41.2,48.1 40.8,44.7C40.5,41.3 40.4,37.9 40.7,34.6C41.5,35.4 42.4,36.2 43.2,37.1C43,40.2 43.1,43.3 43.6,46.3C44.1,49.2 45.2,52 45.9,54.9C44.9,54.9 43.9,54.8 42.9,54.6ZM47.5,54.1C47.6,54.3 47.6,54.6 47.7,54.8L47.6,54.8C47.2,54.9 46.7,54.9 46.3,54.9C45.6,52 44.5,49.3 44,46.4C43.5,43.5 43.4,40.5 43.6,37.5C44.4,38.3 45.2,39.1 46,39.9C46.6,42 46.8,44.1 47.1,46.3C47.3,47.8 47.4,49.2 47.6,50.7C47.5,50.7 47.4,50.6 47.3,50.6C46.8,50.4 46.4,50.9 46.6,51.4C47,52.2 47.3,53.2 47.5,54.1ZM51.7,51.8C51.6,51.4 51.3,51 51.2,50.6C50.8,49.7 50.7,48.8 50.6,47.9C50.5,47 50.3,46.2 50.2,45.3C50.1,44.9 50.1,44.5 50,44.1C51.2,45.4 52.4,46.6 53.5,47.9C54,49.3 54.4,50.8 54.5,52.3C53.6,52.1 52.6,51.9 51.7,51.8ZM55.3,52.2C55.2,52.2 55,52.2 54.9,52.2C54.8,51.4 54.7,50.5 54.4,49.7C54.3,49.3 54.2,48.9 54,48.5C54.5,49.1 55,49.6 55.5,50.2C56.1,50.9 56.7,51.6 57.4,52.3C57.3,52.3 57.3,52.3 57.2,52.3C56.6,52.3 56,52.3 55.3,52.2ZM51.4,23.5C51.5,23.5 51.6,23.5 51.7,23.5C51.5,23.6 51.4,23.6 51.4,23.5ZM50.4,18.1C50.2,18.1 50.1,18.1 49.9,18.1C49.3,18.1 48.6,18.2 48,18.4C47.6,18.5 47.3,19 47.6,19.3C48.9,20.5 50,21.9 51.1,23.3L51.4,23.6C51.4,23.6 51.5,23.7 51.5,23.8C51.7,24.2 52,24.6 52.2,25C52.9,26.3 53.6,27.5 54.2,28.8C54.9,30.2 55.6,31.6 56.3,33C56.6,33.6 56.8,34.2 57.1,34.8C57.1,34.9 57.2,35 57.2,35C56.7,34.8 56.1,34.7 55.6,34.6C55.3,34.5 55,34.5 54.7,34.5C54.2,34.4 53.9,35 54.2,35.5L54.2,35.7C54.2,35.8 54.3,35.9 54.3,36C54.4,36.2 54.5,36.4 54.6,36.7C54.8,37.2 55,37.8 55.2,38.3C55.7,39.7 56.1,41 56.4,42.4C57.1,45.2 57.8,48 58.2,50.8C58.3,51.2 58.3,51.7 58.4,52.1C57.5,51.1 56.7,50.2 55.8,49.2C53.2,46.3 50.5,43.5 47.8,40.6C44.2,36.8 40.4,33.2 36.6,29.6C32.6,25.9 28.4,22.2 24.1,18.8C27.8,17.3 31.5,15.7 35.3,14.5C37.3,13.9 39.3,13.4 41.4,13C42.3,12.8 43.2,12.7 44.1,12.6C44.3,12.6 44.5,12.6 44.7,12.5C45.7,13.3 46.7,14.1 47.6,15C48.4,16 49.4,17 50.4,18.1C50.3,18.1 50.3,18.1 50.4,18.1ZM51.3,23.5L51.3,23.5ZM41.2,10.2C42.1,10.8 43.1,11.5 44,12.2C43.9,12.2 43.8,12.2 43.7,12.2C42.7,12.3 41.7,12.5 40.7,12.6C38.7,13 36.7,13.5 34.8,14.1C31,15.3 27.3,16.9 23.6,18.4C22.7,17.7 21.8,17 20.8,16.3C24.6,15 28.2,13.2 32,11.8C33.8,11.1 35.6,10.5 37.6,10.4C38.8,10.3 40,10.3 41.2,10.2ZM40.5,9.3C40.5,9.4 40.5,9.4 40.5,9.3C40.5,9.4 40.5,9.4 40.5,9.3ZM40.5,9.7C40.6,9.7 40.6,9.8 40.7,9.8L40.8,9.9L40.7,9.9C40,9.9 39.3,10 38.6,10C37.9,10 37.2,10.1 36.5,10.2C35.6,10.3 34.7,10.6 33.8,10.9C29.6,12.2 25.7,14.3 21.6,15.7C21.2,15.8 20.9,15.9 20.5,16.1C19.6,15.5 18.7,14.9 17.8,14.3C24.2,11.7 30.9,10.2 37.4,7.9C37.6,8 37.7,8.1 37.9,8.2C38.6,8.6 39.2,8.9 39.9,9.3C40,9.4 40.2,9.5 40.5,9.7ZM33.4,6C34.6,6.5 35.7,7.1 36.8,7.7C30.3,9.9 23.6,11.4 17.3,14.1C16.2,13.4 15.1,12.7 14,12.1C17,10.7 19.9,9.2 23,7.9C24.7,7.2 26.6,6.8 28.4,6.4C30,6 31.5,5.8 33.1,5.6C33.2,5.8 33.3,5.9 33.4,6ZM15.6,3.5C18.1,2.7 20.7,2 23.3,1.6C25.7,1.2 28.1,1 30.5,1.4C31.6,1.6 32.9,1.9 33.8,2.4C34.3,2.7 34.7,3 35.2,3.4L35.5,3.7C35.5,3.8 35.6,3.8 35.6,3.9C34.9,4.2 34.2,4.6 33.6,4.9C31.9,5 30.2,5.3 28.5,5.6C26.6,5.9 24.7,6.4 22.9,7.1C19.6,8.4 16.5,10.2 13.2,11.6C12.7,11.3 12.2,11.1 11.8,10.9C9.3,9.6 6.7,8.5 4,8.3C7.7,6.4 11.6,4.8 15.6,3.5ZM6,38.8C5.8,38 5.6,37.2 5.4,36.4C5,34.7 4.6,32.9 4.5,31.1C4.5,30.6 3.9,30.5 3.6,30.7C3.4,30.8 3.3,31 3.1,31.1C3,31.1 2.9,31.1 2.9,31.1L2.9,31L2.9,30.9L2.9,30.8C2.9,30.7 2.8,30.5 2.8,30.3C2.6,29.4 2.4,28.4 2.3,27.5C1.8,24.6 1.5,21.7 1.4,18.8C1.3,16 1.3,12.9 2.2,10.2C2.2,10 2.4,9.4 2.6,9C5.9,8.9 9.4,10.4 12.3,12C16.7,14.3 20.7,17.2 24.5,20.3C26.4,21.8 28.3,23.4 30.2,25C30.1,25.1 30.1,25.2 30,25.3C29.9,25.5 29.8,25.7 29.6,25.9C29.2,26.7 28.8,27.5 28.5,28.3C27.8,30 27.4,31.8 27.1,33.6C26.5,37.5 26.5,41.4 26.9,45.3C27.1,48.2 27.5,51.1 28,54C26.6,53.7 25.3,53.3 24,52.8C23.8,52.7 23.6,52.8 23.5,52.9C23.3,52.8 23,52.7 22.8,52.6C22.8,52.6 22.7,52.5 22.6,52.5C22.5,52.5 22.5,52.4 22.4,52.4C22.2,52.3 22,52.2 21.8,52.1C19.8,50.9 17.8,49.7 15.9,48.3C13.7,46.8 11.6,45.3 9.6,43.6C8.8,42.9 8.1,42.3 7.3,41.5C7,41.2 6.8,40.9 6.5,40.5C6.5,40.4 6.4,40.4 6.4,40.3C6.4,40.3 6.4,40.2 6.3,40.2C6.3,40.1 6.2,40 6.2,39.9C6.2,39.8 6.2,39.8 6.1,39.7L6.1,39.6C6.1,39.3 6,39 6,38.8Z" style="fill:url(#tag1);fill-rule:nonzero;"/>
    <defs>
        <linearGradient id="tag1" x1="0" y1="0" x2="1" y2="0" gradientUnits="userSpaceOnUse" gradientTransform="matrix(59.229,-56.2257,56.2257,59.229,-0.201234,56.0469)"><stop offset="0%" style="stop-color:rgb(203,89,110);stop-opacity:1"/><stop offset="100%" style="stop-color:rgb(116,54,110);stop-opacity:1"/></linearGradient>
    </defs>
</svg>
