<?xml version="1.0" encoding="utf-8"?>
<!-- Generator: Adobe Illustrator 18.1.1, SVG Export Plug-In . SVG Version: 6.00 Build 0)  -->
<!DOCTYPE svg PUBLIC "-//W3C//DTD SVG 1.1//EN" "http://www.w3.org/Graphics/SVG/1.1/DTD/svg11.dtd">
<svg version="1.1" id="Слой_1" xmlns="http://www.w3.org/2000/svg" xmlns:xlink="http://www.w3.org/1999/xlink" x="0px" y="0px"
	 viewBox="0 0 251 279.9" enable-background="new 0 0 251 279.9" xml:space="preserve">
<path fill-rule="evenodd" clip-rule="evenodd" d="M195.3,66.3c-0.4,0.1-0.9,0.2-1.3,0.4c-5.5,2.3-12.1,10.6-18.9,23.7
	c-2.5,4.7-5.2,8-8.3,10c-0.8,0.5-1.6,0.9-2.4,1.3c-3.5,1.5-7.3,1.5-11.9,0.1l-0.3-0.1c-0.2-0.2-0.4-0.3-0.6-0.4l-2.5-1.7l2.6-0.3
	c1.3-0.1,2.5-0.5,3.7-0.9c4.7-2,9.1-6.9,13.4-15.1c0.5-0.9,1.1-2,1.7-3l0.2-0.3l-0.6-0.4l-0.2,0.3c-0.6,0.9-1.1,1.8-1.8,3.1
	c-4.1,8-8.4,12.7-12.9,14.7c-2.6,1.1-5.3,1.3-8.4,0.7l-0.4-0.2L146,98l-1.8-1l2-0.8l0.2,0.5l-0.1-0.5c4.2-1.8,8.3-7.3,15.2-20.4
	c2.8-5.2,7.1-8.9,13-10.9l0.4-0.1l-0.2-0.7l-0.4,0.1c-2,0.7-3.8,1.6-5.5,2.7c-3.4,2.2-6,5.1-7.9,8.6c-6,11.5-9.8,16.9-13.4,19.3
	c-0.5,0.3-1,0.6-1.5,0.8c-1.1,0.5-2.3,0.7-3.7,0.7l-0.2,0l-0.1-0.1l-0.5-0.2l-0.3-0.1l-2.1-0.8l1.5-1c2.8-1.8,4.9-6.3,8.2-13
	c1.7-3.4,3.7-7.5,6.3-12.5c1.7-3.2,4.5-5.7,8.2-7.3c4-1.7,8.9-2.3,14.8-1.8c8.9,0.7,15.2,3.7,17.5,5.3l1.8,1.2L195.3,66.3z
	 M170.5,129.9L170.5,129.9l0.1,0.4c-0.1,2.6-1,4.7-2.9,6.7l-1.3,1.4l-0.3-1.9c-2-9.9-6.4-18-13.1-24c-6.8-6-15.6-9.6-26.2-10.7
	l-1-0.1l0.2-1c0.4-1.7,0.7-3.4,0.9-5.5l0-1l1,0.1C148.1,97.3,164,110.6,170.5,129.9z M170.6,139.6c-2.1,4.9-6.5,9.5-13.9,14.3
	c-4.3,2.8-9.6,5.7-16.3,8.9c-7.1,3.4-11.1,7.7-11.6,12.6c-0.6,5.3,3,10.3,5.2,12.8l3.4,4.1l-4.7-2.6c-5.5-3.1-9-8-9.7-13.5
	c-0.8-6.6,2.7-12.8,9.7-17.3c1.2-0.8,2.6-1.6,4.1-2.3l2.3-1.1c11.2-5.3,19.2-9.2,24.6-12.7c2.3-1.5,4-2.8,5.3-4.2l3.5-3.7
	L170.6,139.6z M123.9,100.5l-1-0.3c-3.2-1-9-2.9-13.2-4.4l-0.9-0.3l0.7-1.9c0.7-1.8,1.1-3.3,1.4-4.6l0.2-0.9l6.2,1.2
	c2.7,0.5,5.2,1,6.9,1.3l0.8,0.1l-0.1,2l-0.2,1.4l0.1,0l-0.1,0.9c-0.2,1.4-0.4,2.9-0.8,4.6L123.9,100.5z M123.5,102.1
	c-1.3,4.9-3.2,9-5.6,12.3c-1.1,1.4-2,2.7-2.8,3.8c-2.4,3.3-3.9,5.5-6.2,7c-0.6,0.4-1.2,0.7-1.8,1c-0.4,0.2-0.8,0.3-1.4,0.5l-0.6,0.2
	l-0.4-0.5c-1.5-2-4.3-6.1-5.8-8.2l-0.3-0.5l0.3-0.5c3.1-4.4,5.9-11.2,9.3-20.2l0.3-0.9l0.9,0.3c4.2,1.5,10,3.5,13.5,4.5l0.9,0.3
	L123.5,102.1z M102.6,127.4c-1.5,0.3-3.4,0.5-5.8,0.7l-0.7,0.1l-0.3-0.6c-0.6-1.3-1.5-3.2-2.2-4.7l-0.3-0.9l0.8-0.4
	c1-0.4,2-1.2,3-2.4l0.9-1l0.6,1.1l0,0c1,1.5,2.8,4.4,4.5,6.5l1,1.2L102.6,127.4z M94.6,127l0.7,1.3l-1.5,0.1c-0.7,0.1-1.3,0.1-2,0.2
	l-2,0.1l-0.3-0.6c-0.3-0.7-0.6-1.3-0.8-2l-0.5-1.1l-0.4-1l0.9-0.3c1.2-0.4,2.2-0.8,2.9-1.1l0.9-0.3l0.6,1.5
	C93.6,124.7,94.1,125.9,94.6,127z M88.5,127.4l0.6,1.3l-1.5,0c-2.4,0-4.7-0.4-6.8-1.1l-3.3-1.2l3.5-0.6c1.7-0.3,3.4-0.7,5.3-1.2
	l0.8-0.2l0.4,0.7C87.7,125.7,88,126.4,88.5,127.4z M75.4,124.3c-8.1,0.2-15.8-2.4-23-7.8l-1.6-1.3c0,0-0.1-0.1-0.1-0.1l-0.1-0.1
	c-10.4-8.7-5.4-17,2.2-26.9l0.3-0.4l0.5,0c3.1,0.2,5.7-0.6,7.6-2.1c5.1-4.1,4.2-11.9,4.1-12.8l-0.1-0.7l0.7-0.3
	c1.9-0.8,3.6-2.5,4.6-4.3l0-0.1l0.5-1l0.8,0.3c4.4,1.3,9.4,1.1,14.2,0.9l0.1,0c4.6-0.2,9.4-0.4,13.2,1l1.4,0.7
	c1,0.5,1.7,1.1,2.4,1.7c0.9,1,1.9,2,2.7,3.1l1,1.3c3.4,5,3.6,9.6,0.7,17.3l-0.7,2c-0.8,2.1-1.7,4.5-2.7,6.9l-0.3,0.9l-1-0.4
	c-3.6-1.7-7.3-3.7-8.7-4.5l-0.5-0.3l-0.1,0l-0.3-0.2l-0.4,0.7l0.3,0.2c1.2,0.7,5.5,3,9.5,4.9l0.8,0.4l-0.8,1.8
	c-0.4,0.9-0.8,1.8-1.1,2.6l-0.3,0.7l-0.7-0.1C94,107.2,78,97.6,73.4,92l-0.2-0.3l-0.6,0.5l0.2,0.3c4.3,5.2,19.3,14.8,27,16.4
	l1.2,0.2l-0.5,1.1c-2.4,5-4.5,8-6.4,9.2c-0.2,0.2-0.5,0.3-0.8,0.4l-1.3,0.5c-3.4,1.4-9.1,3.7-16.1,4L75.4,124.3z M49.2,116.6
	l0.9,0.7l-0.9,0.7c-1.6,1.3-3.2,2.5-4.8,3.5c-1.6,1-3,1.8-4.2,2.3c-1.5,0.6-2.6,0.8-3.4,0.5c-0.8-0.3-1-1.1-1.1-1.7
	c0-0.4-0.2-0.8-0.4-1.1l-0.3-0.3l0.2-0.5c1.4-5,3.3-9.7,6-14.1l1.3-2.2l0.5,2.5C43.6,110.3,45.7,113.6,49.2,116.6z M33.1,119.8
	c-0.8-1-1.3-3.2-1.8-6.8v-0.1c0-0.1,0-0.1,0-0.2l0-0.1l0-0.1c0,0,0-0.1,0-0.1l-0.1-0.2l0.1-0.2c3.8-9.1,12-20.4,15.3-24.9l0.4-0.5
	l1.1,0.3c0.5,0.2,1,0.3,1.4,0.4l1.4,0.3L50,88.6c-3,4-6.2,8.7-7,13.6v0.1l-0.1,0.2l-0.5,0.8c-2,3.1-5.3,8.3-7.6,16.2l-0.6,1.9
	L33.1,119.8z M30.7,106.9c-0.4-9.1,1.1-16.5,4.8-22.7l0.4-0.6l0.7,0.2c2.3,0.5,4.8,0.7,6.7,0.7l0.3,0l2.6,1.8l-0.6,0.8
	c-2.5,3.3-8.8,12-13,20.2l-1.6,3.1L30.7,106.9z M30.5,76.4c-1.2-3.6,0.4-8.7,4.3-13.9l1-1.2c2.2-2.6,4.6-4.7,6.8-5.8
	c1.3-0.7,2.9-1.1,5-1.2l0.5,0l0.2,1.8l-0.5,0.1c-1.9,0.5-3.4,1.3-4.3,2.5c-0.6,0.8-1.5,2.7-0.3,5.5l0.2,0.5L42.9,65
	c-0.2,0.3-0.4,0.7-0.4,1c-0.1,0.4-0.1,0.8,0,1.2l0.2,0.8l-1,0.4c-1.1,0.5-2.2,1-3.1,1.6c-2.4,1.5-4.1,3.4-5.1,5.6L33.4,76l0.7,0.3
	l0.2-0.3c1-2.2,2.9-4.1,5.5-5.7l3.4-2l1.6-2.2c0.1-0.1,0.2-0.2,0.4-0.4l0.1-0.1l1-0.5l0.6,0.4c0.1,0.1,0.2,0.2,0.3,0.2l1.4,0.8
	l-1.5,0.9c-0.4,0.3-0.9,0.4-1.4,0.3l-5.2,4.6c-1.8,2.1-3,4.7-3.5,7.4l-0.3,1.9l-2.4-0.7C32.3,79.8,31.1,78.4,30.5,76.4z M6.8,43.3
	c-1.4-2-2.6-3.9-3.4-5.6l-1.1-2.4l2.4,1.1c4.1,1.9,8.8,2.9,11.9,3.2l0.9,0.1l0,0.8c-0.1,1.7,0.2,3,0.8,3.9c1.2,2,3.5,2.4,6.2,3
	c1.1,0.2,2.5,0.6,4.1,1.1c1.8,0.5,4.4,1,7.4,1.4l0.3,0.1c2.5,0.4,4.7,0.8,6.9,1.3l3.6,0.7L43.2,53c-0.7,0.2-1.2,0.5-1.7,0.7
	c-2.3,1.2-4.8,3.3-7.1,6L34.1,60l-0.5,0C18.9,59.1,8.7,45.9,6.8,43.3z M2.1,33.6c0-0.5,0-0.7,0-0.9c0.4-1.4,1.7-2.3,3.9-2.9l0.3-0.1
	l12.2,4l-0.2,0.8C18,35.9,17.8,37,17.7,38l-0.2,0.9l-0.9-0.1c-3.9-0.4-10-1.9-14.1-4.5l-0.4-0.2L2.1,33.6z M12.5,29
	C14.3,29,16.2,29,18,29l2.1,0.1l-0.4,1.2c-0.2,0.6-0.4,1.2-0.6,1.8L18.8,33L7.1,29.2L12.5,29z M22.2,29.5l0.8-1.5
	c1.9-3.4,4.8-6.8,8.8-10.6l1.3-1.2l0.3,1.7c0.3,2.1,1.2,5.4,3.3,8.4l0.2,0.3l0.6-0.4l-0.2-0.3c-2.6-3.7-3.3-7.8-3.5-9.8l0-0.5
	l0.3-0.3c0.6-0.5,1.2-1.1,1.8-1.5l1.3-1.1l0.3,1.6c0.9,5.9,4.4,12.1,6.5,15.9l0.1,0.1l0.1,0.1l0.5,0.8c0.3,0.6,0.6,1.1,0.8,1.5
	l0.2,0.3l0.7-0.3L46,32.4c-0.3-0.5-0.7-1.3-1.3-2.5c-2.3-4.2-6.3-11.2-6.7-17.4l0-0.5l1.5-1.2c1.3-1.1,2.8-2.3,4-3.3l1.2-1l0.4,1.5
	c3.2,13.3,8.8,31,11.5,37.5l0.2,0.3l0.7-0.3L57.3,45c-2.8-6.5-8.7-25.3-11.8-38.7l-0.2-0.5l0.4-0.4c1-1,1.6-1.8,1.8-2.5l0.2-0.3
	l0.2-0.1c0.3-0.2,1.4-0.7,4.3-0.4c6.9,0.8,17.8,5.3,23.2,8.8l1.4,0.9c1.2,0.9,1.8,1.5,2.3,2.1l0.2,0.2l0.3,0.1v0
	c0.8,0.3,3.5,1.7,4,4.5c0.3,1.7-0.2,3.6-1.6,5.6l-1,1.3c-0.6,0.8-1.2,1.4-1.9,2.1c-8.4,8.4-12.8,16.2-13.8,24.5l-0.1,1l-1-0.1
	l-0.2,0c-1.4-0.2-2.9,0.2-4.3,1.1L59,54.8l-0.5-0.4c-6.2-4-15.6-5.5-21.9-6.5l-0.4-0.1c-2.9-0.5-5.4-0.9-7-1.4
	c-1.5-0.5-2.9-0.8-4.2-1l-0.1,0c-2.6-0.6-4.2-1-4.9-2.1c-0.9-1.4-0.6-4.7,0.8-10.1C21.2,31.9,21.6,30.7,22.2,29.5z M82.6,11.6
	c2.4,0.3,5,1,7.5,2L91,14l-4.2,9.5L84.8,24l0.5-1.5c0.5-1.4,0.6-2.8,0.4-4c-0.5-2.7-2.5-4.3-3.6-5.1l-3.2-2.2L82.6,11.6z M93.8,15.3
	c0.9,0.5,1.7,1,2.4,1.5l0.7,0.5L96.6,18c-0.9,1.5-1.8,3.1-2.3,4.1L94,22.5l-0.5,0c-0.6,0.1-1.3,0.1-2.1,0.2L89.3,23l3.6-8.3
	L93.8,15.3z M97.6,17.7l1,0.7l0.1,0c1,0.8,1.9,1.7,2.7,2.7l1.5,1.8l-2.3-0.2c-1.2-0.1-2.5-0.2-4.1-0.2l-1.6,0l0.8-1.4
	c0.4-0.8,0.9-1.6,1.4-2.5L97.6,17.7z M64.9,67c0.1-1,0.1-1.9,0-2.8l-0.3-1.8c-0.4-1.6-1.1-3.1-2.2-4.6L61,55.7l1.3-0.3
	c0.5-0.1,1-0.2,1.4-0.1c0.2,0,0.4,0.1,0.5,0.1l0.3,0.1l1.8,1.1c0.6,0.6,1.2,1.3,1.6,2.1c1.2,2,1.7,4,1.4,5.9l0,0.1l-0.6,1.8
	c-0.6,1.1-1.4,2.1-2.4,2.8l-1.5,1.1L64.9,67z M59.6,66.9l-6.2-0.4l6.1-1.5c0.8-0.2,1.5-0.4,2.2-0.5l1.2-0.3v1.2c0,0.3,0,0.6,0,0.9
	l0,1l-1.1-0.1C61,67,60.3,66.9,59.6,66.9z M60.6,58.9l0.6,1c0.2,0.4,0.5,0.8,0.7,1.3l0.5,1l-1.1,0.3c-0.8,0.2-1.6,0.4-2.6,0.7
	l-4.2,1l3.2-2.6c0.7-0.6,1.4-1.2,2-1.8L60.6,58.9z M58.4,58.2c-1.2,1.2-2.9,2.5-4.6,3.7c-1.2,0.8-2.2,1.3-3.1,1.7
	c-0.8,0.4-1.4,0.5-1.9,0.5L48,64l-0.3-1.4c0-0.8,0.5-1.3,1-1.6c0.5-0.3,1.3-0.7,2.4-1.2c1-0.4,2-0.9,2.9-1.4l0.4-0.2
	c0.1-0.1,0.2-0.1,0.3-0.2l0.1-0.1L55,58c0.7-0.4,1.1-0.8,1.4-1.3l0.6-0.9l1,0.7l0.2,0.2l0.1,0.1l0.8,0.8L58.4,58.2z M55.4,77.7
	c-0.9,0-1.9,0.1-3.1-0.6l-0.5-0.3l0.2-2.1l1.2,0.5c1.9,0.8,3.4,0.6,4.6,0.4l0.1,0c0.3,0,0.5-0.1,0.8-0.1l0.6-0.1l0-0.8l-0.4,0
	c-0.2,0-0.5,0.1-0.7,0.1l-0.5,0.1c-1.1,0.1-2.2,0.3-3.7-0.2l-4-1.4c0,1,0,2-0.2,3c-0.4,2.3-1,4.4-1.9,5.8l-0.2,0.5l-0.6,0
	c-0.7,0-1.3,0-2.1,0c-2.1-0.1-4.5-0.1-6.7-0.5l-0.9-0.2l0.4-2.1c0.8-4,3.2-7.7,6.6-9.9l0.5-0.3l0.4,0.1c1,0.2,2,0.1,2.9-0.4l0.9-0.5
	l0.5,1.3c0,0.4,0.1,0.7,0.2,1.1l0.1,0.1l0.1,0.2c0.1,0.6,0.1,1.2,0.2,1.8l4.3-0.4c1.2-0.1,2.4-0.4,3.6-0.7c2.4-0.6,3.7-0.7,4.4-0.6
	l0.5,0.1l0.6,1.9c0.4,3.3-0.3,8.1-3.3,10.5c-0.2,0.2-0.4,0.3-0.6,0.4c-0.4,0.2-0.7,0.4-1.1,0.6c-1.4,0.6-3,0.8-5,0.6l-1.6-0.2
	c-0.7-0.1-1.4-0.3-2-0.4l-1.3-0.3l0.8-1.1c0.9-1.3,1.6-3,2.1-4.8l0.3-1.1l1,0.4c1,0.4,1.9,0.4,2.7,0.3l0.7,0l0-0.7L55.4,77.7z
	 M109,26.8l1.4,0.6c5.1,2.4,7.6,5.2,7.7,5.4l0.7,0.7l-0.7,0.6c-0.3,0.3-0.8,0.8-0.9,1.5c-0.1,1,0.7,1.8,1,2.1c0.7,0.7,1.3,1.1,2,1.3
	l0.6,0.2l0.1,0.7v1.3c0,6.3-4.7,16.1-14.7,22.6c-1.7,1.1-3.6,2.1-5.5,3l-0.3,0.2l-0.4-0.1c-4.2-1.6-9.4-1.3-14.1-1.2
	c-4.8,0.2-9.8,0.4-13.9-0.9l-0.6-0.3v-0.7c0-2-0.5-4-1.8-6.1c-0.7-1.1-1.4-2-2.3-2.8l-0.3-0.3l0-0.4c0.2-3,0.8-12.3,13.4-24.8
	c0.8-0.8,1.5-1.6,2.2-2.5l0.2-0.2l0.3-0.1c6.9-1.9,13.3-2.4,19.1-1.5l1.7,0.3C105.7,25.7,107.3,26.2,109,26.8z M116.1,26.2
	c9.2-0.5,21.1,3.5,22.5,6.1l0.1,0.1c0.5,1.2,0.4,1.7,0.3,2.3c-0.2,1.2-0.2,2.3,1.5,4.8c2.7,4,3.7,6.6-3.6,15.4
	c-4.3,5.2-8.9,9.4-13.6,12.4c-2,1.3-4.1,2.4-6.1,3.3c-3,1.3-6.1,2-9.1,2.3l-0.5,0.1l-0.3-0.3c-0.9-1.1-1.7-2-2.6-3
	c-0.1-0.1-0.3-0.2-0.5-0.4l-0.2-0.2l-1.2-1l1.2-0.7c1.1-0.6,2.1-1.2,3.2-1.8c7.6-4.9,15.8-13.9,15.8-24.4c0-2.8-0.2-3.8-1.9-4
	c-0.3,0-0.7-0.1-1.2-0.5l-0.8-0.6l0.8-0.8c1-1,1.1-2.1,0.2-3.3h0c-0.1-0.1-1.5-1.9-4.6-4l-2.3-1.6L116.1,26.2z M121.8,71.7
	c1,2.2,1.8,4.7,2.4,7.5l0.2,1.2l-1.1,0l-3.6,0c-2.8,0-5.8,0-7.7,0.1l-0.7,0l-0.2-0.7c-0.4-1.3-0.8-2.4-1.5-3.6l-0.6-1.2l1.3-0.2
	c2.7-0.4,5.2-1.2,7.6-2.2c1-0.4,1.8-0.8,2.7-1.2l0.8-0.4L121.8,71.7z M124.6,81.8c0.3,2.3,0.5,4.6,0.5,6.8l0.1,1.1l-1.2-0.2
	c-2-0.3-4.9-0.9-7.2-1.3l-2.6-0.5l-2.9-0.6l0.1-0.9c0.2-1.5,0.3-2.8,0.1-4.2l-0.1-1l13.1-0.1L124.6,81.8z M170.2,180.6
	c-0.1,5.2,2.1,9.6,5.8,11.5c3,1.6,6.6,1.6,10.6,0.1l3.9-1.5l-2.9,3c-0.8,0.8-1.4,1.6-2,2.5l-0.2,0.2l-0.2,0.1c-2,0.8-3.9,1.2-5.8,1
	c-5.8-0.5-11-5.3-12.7-12.1l-0.4-1.5l0.2-0.3c0.6-1.1,1.3-2.2,1.9-3.4l1.8-3.5L170.2,180.6z M194.4,191.5l0.1-0.2l0.3-0.1
	c1.6-0.7,3.1-1.3,4.7-1.8c1.2-0.4,2.1-0.8,2.9-1.1l0.3-0.1l0.3,0.1c0.8,0.2,1.6,0.2,2.4,0.2l3-0.2l-2.3,1.9c-0.6,0.5-1.3,1-1.9,1.4
	c-1,0.7-2,1.2-3,1.6c-1.5,0.6-3,1-4.5,1.1c-0.8,0-1.7,0.2-2.5,0.4l-3.1,0.9l2.1-2.4C193.6,192.5,194,192,194.4,191.5z M193.3,176.9
	l2.8,1.6c0.6,0.4,1.2,0.6,1.9,0.7c2.2,0.4,4.5-0.3,5.7-0.8l0.2-0.1l0.9-0.4l0.4,1.1c0.1,0.1,0.1,0.1,0.1,0.3l0.1,0.2l-0.1,0.4
	c0,0.1,0,0.1,0,0.1l0,0.1c-0.3,1.6,0.3,3.3,1.5,4.5l1.4,1.2l-1.9,0.4c-0.1,0-0.2,0-0.3,0c-0.6,0.1-1.4,0.2-2.2,0.1l-1.6-0.4
	c-1-0.3-1.9-0.8-2.8-1.4l-0.9-0.5l0.1-0.1c-1.1-0.9-2.1-1.9-3.2-3.2c-0.2-0.3-0.4-0.6-0.6-0.9L193.3,176.9z M197.1,176.3
	c1-0.3,3-0.8,6.3-0.9l0.8,0l0.2,0.9v0l0,0.1l0.2,0.8l-1.1,0.5c-1.9,0.8-3.8,1.1-5.3,0.8c-0.4-0.1-0.7-0.2-1.1-0.3l-0.1,0l-2.3-1
	L197.1,176.3z M207.9,177.4c0.9-0.4,2.4,0.1,3.9,1.1l0.7,0.6l-0.5,0.7c-0.1,0.2-0.1,0.4,0.1,0.8c0.1,0.3,0.3,0.7,0.4,1.1l0,0.2
	l-0.1,0.3c0,0.1-0.1,0.2-0.2,0.4l0,0.1c-0.3,0.6-0.7,1-1.2,1.4l-0.3,0.2l0,0c-0.2,0.2-0.5,0.3-0.8,0.5l-0.3,0.2l-0.4-0.1
	c-1.5-0.4-3.5-2.2-3.1-4.8c0-0.1,0.2-0.9,0.3-1.1C206.6,178.4,207.2,177.6,207.9,177.4z M205.5,172.1l0.3-0.3
	c0.3-0.2,0.6-0.4,0.9-0.5c0.7-0.3,1.5-0.4,2.6-0.4c1.3,0.1,2.4,1,3.3,2.7c0.5,0.9,0.9,2,1.1,3.2l0.2,0.8l-1.4,0.5l-0.4-0.3
	c-1.2-0.8-2.9-1.6-4.4-1l-0.1,0l-0.2,0.1l-0.7,0.4l-1.1-1.5V172.1z M219.6,183.2c0.2-0.2,0.5-0.3,0.7-0.5c0.3-0.2,0.6-0.4,0.9-0.6
	c0.8-0.5,1.6-0.9,2.4-1.3c0.5-0.2,1.1-0.4,1.6-0.6l0.6-0.2l0.6-0.2c1.1-0.4,2.5-0.9,4-1.2l0.4-0.1c0,0,0.3,0,0.7-0.1
	c2.7-0.4,5.1,0,7.2,1.1c3.7,2,6.7,6.3,9,12.9l0.3,0.9l-1.2,0.4c-3.4,1.2-12.9,0.2-15-1.6l-0.3-0.2l-0.5,0.6l0.3,0.2
	c2.6,2.3,12.6,2.9,15.7,1.7l1.2-0.4l0.3,0.9l0,0.2l0.1,0.1l0.2,0.7l-0.2,0.3c-0.8,1.7-2.9,5.8-6.3,8c-0.5,0.3-1,0.6-1.6,0.8
	l-0.3,0.1c-2.3,0.8-4.7,0.6-7.3-0.8l-0.5-0.2l0-0.6c-0.1-2-0.9-3.8-2.5-5.4l-2.9-3.1l4,1.6c1.1,0.4,2,0.7,2.7,0.9l0.4,0.1l0.2-0.7
	l-0.4-0.1c-3.9-0.8-11.4-4.8-15.8-8.5l-0.2-0.2l-0.2-0.4l-0.3-0.4c-0.4-0.7-0.8-1.3-1.2-2l-0.9-1.2l2.4-0.4c0.2,0,0.2,0,0.4-0.1
	l0.8-0.2l0-0.1L219.6,183.2z M209.5,166.2c-1.1-0.9-1.6-1.8-1.6-2.6c0.1-2.2,3.3-4.5,7.4-7.3l0.4-0.3l1.3-0.9l1.9-1.4
	c1.8-1.3,4.5-3.2,6.7-4.5l2-1.2l-0.6,2.2c-0.4,1.3-1.4,3.1-2.1,4.1l-0.2,0.3l0.6,0.4l0.2-0.3c1-1.4,2.6-4.2,2.4-6l-0.1-0.9l0.9-0.2
	c0.4-0.1,0.6-0.1,0.9,0l0.2,0l0.3,0.2c0.3,0.3,0.8,0.8,1.3,1.6l0.2,0.3l-0.1,0.9c-0.2,4.3-2.5,11.2-6.1,15.5l-0.2,0.3l0.6,0.5
	l0.2-0.3c3.4-3.9,5.3-9.5,6-13.4l0.4-2.4l1.3,2c2.3,3.7,7.5,12.6,6.8,17c-0.3,1.6-1.3,3-3,4.2c-0.6,0.4-1.3,0.8-2.1,1.1
	c-1.9,0.8-3.7,1.2-4.4,1.3l-0.3,0.1c-0.2,0-0.3,0-0.4,0.1l-0.8,0.1v0l-0.8,0.2c-1.1,0.3-2.1,0.6-2.8,0.9l-1.2,0.4
	c-0.7,0.2-1.3,0.4-1.8,0.6c-0.9,0.4-1.8,0.9-2.6,1.4l-0.4,0.3l-1.1,0.8l-0.3-1.3C217.6,177.5,215.3,170.9,209.5,166.2z M230.3,206.1
	l0,0.2c-0.3,1.1-1,2.1-2.1,2.8c-0.3,0.2-0.7,0.4-1.1,0.6c-2,0.9-4.8,1.1-8.2,1.3c-2.5,0.2-4.9,0.3-6.6,1c-0.7,0.3-1.2,0.7-1.6,1.2
	c-1.1,1.4-2.4,2.4-3.8,3.1l-3.3,1.5l2.1-2.9c3.2-4.5,4.5-10.8,5.2-14.7l0.1-0.4l-0.7-0.1l-0.1,0.4c-0.9,4.4-2.6,12.6-7.2,16.6
	l-0.4,0.3l-0.4-0.1c-4.1-0.6-8.3-4.2-10.7-9.2c-1.7-3.6-2-6.5-0.8-8.5c0.6-0.9,1.5-1.7,2.7-2.2c0.9-0.4,2-0.6,3.2-0.7
	c1.8-0.1,3.5-0.6,5.2-1.3c1.1-0.5,2.3-1.1,3.4-1.8c3.3-2.1,5.9-5,6.8-6.7l0.9-1.9l0.9,1.1c1,1.1,1.6,2.2,2.2,3.3l0.1,0.1
	c0.9,1.6,1.9,3.4,4.1,5.1c0.8,0.6,1.7,1.1,2.7,1.7l0.5,0.3C228.1,198.9,231.6,201.3,230.3,206.1z M188.9,207.3l-1.8-0.8
	c-0.7-0.3-1.2-0.7-1.6-1.2c-0.9-1.5-0.6-3.8,1.1-6.7l0,0l0.2-0.3l-0.1-0.1l0.4-0.2l0.4-0.3l0,0.1l2-1.1l-1,2.4
	c-0.8,1.7-0.8,3.8-0.1,6.3L188.9,207.3z M136.1,246.5c-0.3,4.6,2.2,10.3,7.4,16.8c5.2,6.6,11.4,11.8,12.6,12.8l2.9,2.4l-3.8-0.8
	c-2.4-0.5-6.4-3.3-8.3-4.6l-0.5-0.3c-4.6-3.2-17.9-17.2-13.4-24.8c0.4-0.7,0.9-1.4,1.4-2.1l1.9-2.5L136.1,246.5z M137.6,243.3
	l0.5-0.1c0.4-0.1,0.9-0.1,1.4-0.2c1.2-0.1,2.4-0.4,3.5-0.8l0.2-0.1l0.2,0c7.1,1.1,15,9,21.7,21.9l0.1,0.1l0,0.1c0.6,3.7,0.7,6,0.3,7
	c-0.3,0.7-0.8,1.2-1.4,1.7c-0.2,0.2-0.5,0.3-0.9,0.4l-1.6,0.6l0.1-1.5c0.4-9.9-6-17.5-10.8-22.4l-0.2-0.3l-0.5,0.5l0.3,0.3
	c4.9,5,11.4,12.8,10.5,23v0.5l-0.5,0.3c-0.7,0.4-1.4,0.8-1.9,1.4l-0.5,0.6l-0.7-0.5c-6.4-5-23.8-21.5-19.9-32.3L137.6,243.3z
	 M148.6,239.8c2-0.3,4.2,0,6.2,0.9c2.9,1.3,5.1,3.7,6,6.5c0.3,1,0.6,2,0.9,2.9l1.9,6.6l-3.2-4.2c-3.9-5.3-8-9-12.1-10.9l-2.8-1.3
	L148.6,239.8z M156.3,237.1c10.6,0.1,19.8,7.6,23.5,14.9c1.6,3.1,0.8,4.7-0.1,5.4c-0.1,0.1-0.2,0.2-0.3,0.2
	c-0.2,0.1-0.4,0.2-0.7,0.3c-3.4,1.4-10.3-0.2-13.2-2.5l-0.2-0.2l-0.1-0.3c-0.8-2.9-1.6-5.7-2.5-8.4c-1-3.2-3.6-6-6.9-7.6L152,237
	L156.3,237.1z M186,58.5c-8.7-2.1-17.2-1.8-23.3,0.7c-4.1,1.7-7.3,4.5-9.3,8.3c-2.1,4-3.8,7.4-5.3,10.4l-1.2,2.5
	c-4.1,8.3-5.7,11.6-8.2,12.7c-1.5,0.6-3.1,0.4-5.6-0.2l-2-0.2c-0.8-0.2-1.6-0.3-2.4-0.4l-1.4-0.2l0-0.8c0.3-7.8-1-15.4-3.6-20.8
	l-0.4-0.8l1.2-0.8c4.9-3.2,9.6-7.5,14-12.8c8.2-9.9,6.8-13.3,3.8-17.9c-1.2-1.9-1.3-2.5-1.2-3.3c0.1-0.9,0.2-1.8-0.4-3.4
	c-1.8-4.6-20.3-9.4-29.9-6.6l-0.3,0.1L110,25c-1.5-0.6-3-1.1-4.5-1.5l-0.5-0.1l-0.1-0.6c-0.6-1.8-2.3-3.9-4.9-6
	c-1.5-1.3-3.4-2.5-5.5-3.6l-0.8-0.4l0,0l-0.9-0.4c-3.7-1.7-9.3-3.6-15.4-3L77,9.5l-0.3-0.2C69.4,4.4,55.1-0.8,49,0
	c-1.7,0.2-2.8,0.9-3.3,2c-0.6,1.6-3.8,4.2-7.4,7.1l-0.4-0.3l0.3,0.4c-5.3,4.4-12.6,10.3-16.7,17.2l-0.3,0.5l-2.1,0
	c-5.7,0-11.5-0.1-15.2,1.5c-2,0.8-3.2,2-3.7,3.7c-0.8,2.7,1.9,8.2,5,12.4c2.6,3.6,12,15.3,25.9,17.3l1.5,0.2l-0.8,1.2
	c-1.9,3-4.9,8.8-3.3,13.9c0.8,2.4,2.3,4.2,4.5,5.4l0.9,0.4l-0.5,0.9c-4.4,7.8-5.8,17.4-4.2,29.5c0.8,6.5,2.1,8.3,4.1,9.2l0.4,0.3
	l0.1,0.4c0.4,2,1.5,2.8,2.4,3.1c1.2,0.4,3,0.2,5.1-0.7c2.8-1.2,6.3-3.5,9.9-6.6l0.6-0.5l0.6,0.5c6.8,4.8,14.2,7.3,21.9,7.3l0.4,0
	l0.4,0.4c0.9,0.8,5.8,4.6,14,4.1c10.3-0.7,15.5-1.2,19-2.7c3.5-1.5,5.4-3.9,8.7-8.5l0.4-0.6c0.7-1,1.5-2,2.3-3.2
	c2.5-3.4,4.5-7.6,5.8-12.5l0.2-0.8l0.8,0.1c21.6,2.2,35.9,15.3,39.3,35.8l0,0.6l-0.4,0.3c-4.6,3.6-13.2,7.9-27.1,14.5l-2.2,1.1
	c-1.5,0.7-2.9,1.5-4.2,2.4c-7.7,5-11.6,12-10.8,19.4c1,8.7,8.5,15.9,18.7,17.9l0.6,0.1l-0.5-2.7l-0.2-0.6c-0.2-0.5-0.4-0.9-0.6-1.5
	c-2.2-5.3-4.8-11.4,6.3-18.5c1.9-1.3,4.3-2.5,6.9-3.8c4.2-2,8-4.2,11.4-6.7l1.9-1.4l-0.4,2.3c-2.7,14-8.1,29-29.3,42.8
	c-3.5,2.3-7.4,4.5-11.7,6.6l-0.3,0.2l0.3,0.7l0.3-0.2c4.1-2.1,8-4.2,11.5-6.5c22.2-14.5,27.7-30.7,30.4-46.1l0.1-0.5l0.3-0.2
	c2-1.7,3.7-3.4,5.2-5.1l1.8-2.1l-0.1,2.7c-0.8,20.2-11.4,38.3-30.6,52.1c-4.6,3.3-9.2,6.5-14.1,9.6l-1.4,0.8c-4.2,2.7-8,4.9-11.6,7
	l-0.9,0.5l1,1.8l0.9-0.5c2.3-1.3,4.6-2.6,6.8-4l2.1-1.3l-0.7,2.3c-1.5,5-1.2,9.8,0.8,13.5c1.6,3,4.3,5.2,7.7,6.2l1.4,0.4l-1.1,1.1
	c-0.9,0.9-1.8,2.1-2.6,3.6c-5.5,9.4,9.7,24.5,14,27.5l0.5,0.4c4.2,2.9,8.9,6.1,12,4.7c0.7-0.3,1.3-0.8,1.7-1.5
	c0.6-0.9,1.3-1.5,2.4-1.9c0.3-0.1,0.7-0.3,1-0.4l0.1,0l1.1-0.4c0.5-0.2,0.9-0.4,1.2-0.6c1-0.6,1.7-1.5,2.2-2.6
	c0.6-1.2,0.6-3.6,0-7.1l-0.3-1.7c-0.3-1.6-0.7-3.2-1.1-4.8l-0.4-1.9l1.8,0.9c3.4,1.6,8.5,2.5,11.6,1.2c0.4-0.2,0.8-0.4,1.1-0.7
	c0.9-0.8,2.2-2.6,0.3-6.4c-4.6-9.1-18.3-18.9-32.2-13.9l-0.1,0c-1.5,0.3-2.9,0.8-4,1.6l-0.1,0.1c-0.2,0.1-0.4,0.2-0.6,0.3l-0.2,0.1
	l-1.5,0.6c-0.5,0.2-0.9,0.2-1.5,0.3l-1.1,0.1l0-0.4l-1-0.1c-5-0.2-8.6-2.3-10.6-6c-2.4-4.5-1.9-10.9,1.4-16.8l0.1-0.2l0.3-0.1
	c1-0.6,2-1.3,3-1.9c4-2.6,7.8-5.2,11.7-8c7.9-5.7,14.6-12.3,19.7-19.6l1-1.5l0.6,1.7c2.5,6.5,7.9,11.1,13.8,11.5
	c1.1,0.1,2.1,0,3.2-0.1l1.5-0.2l-0.4,1.4c-0.9,2.9-0.3,4.7,0.4,5.7c1.1,1.7,3.1,2.6,5.5,2.6h0.5l0.3,0.5c2.9,5.5,7.4,9.1,12.1,9.6
	c3.6,0.4,7.3-1.2,10-4.5c0.2-0.3,0.5-0.4,0.8-0.6c1.2-0.5,3.7-0.7,5.9-0.8l0.1,0c2.7-0.2,6.1-0.4,8.8-1.6c2.1-0.9,3.4-2.2,4.1-4
	l0.3-0.9l0.9,0.4c2.7,1.1,5.4,1.3,7.9,0.3l0.3-0.1l0.2-0.1c0.6-0.2,1.2-0.6,1.8-1c4.9-3.2,7.4-9.6,7.4-9.7l0.1-0.3l-0.1-0.4
	c-2.6-9.5-6.2-15.4-11.2-18c-0.2-0.1-0.4-0.2-0.6-0.2l-0.2-0.1c0,0-0.1,0-0.2-0.1l-1.6-0.7l1.4-1c2.2-1.5,3.5-3.3,3.8-5.5
	c1-6.9-8.9-21.9-11.1-23.8c-1.1-1-2.6-1-4.7-0.1c-1.1,0.5-2.4,1.2-4,2.2c-1.6,1-3.2,2.2-4.9,3.5l-1.9,1.3c-0.5,0.4-1,0.7-1.6,1.1
	l-0.1,0.1c-4,2.7-8.1,5.6-8.2,8.9c-0.1,1.5,0.7,3,2.3,4.3c0.2,0.1,0.3,0.3,0.5,0.4c0.1,0.1,0.1,0.1,0.2,0.2l0.1,0.1l1.8,1.5
	l-2.4,0.2c-1.7,0.1-2.9,0.6-3.6,1.6c-0.2,0.3-0.3,0.6-0.4,0.9l-0.3,0.7l-0.6,0c-3.8,0.1-6.7,0.7-8.5,1.7l-1.9,1.6
	c-0.1,0.1-0.2,0.3-0.3,0.5c-0.5,1-0.7,2.7,1.2,5c0.6,0.8,1.2,1.5,1.9,2.1l0.5,0.4l-0.5,0.9l-0.1,0.1c-3.1,2.6-5.9,4.5-8.7,5.6
	c-4.1,1.7-7.8,1.8-10.7,0.2c-4.2-2.3-6.2-7.7-5.2-13.9l-0.8-1.6l0.2-0.4c3.4-8.1,5.1-16.6,5-25.2l0-2.2l0.1-0.2l0.1-0.1
	c1.4-3.8,2.3-6.6,2.5-7.8c0.9-6.1-1.1-12-5.4-15.9l-0.6,0.1l2,2.7c2.8,3.7,3.9,8.3,3.3,13.1c-0.5,3.1-1.7,6.1-3.5,9l-0.6,1
	c-2,2.9-4.6,5.7-7.9,8.3l-0.2,0.2c-3.6,2.9-8.3,5.8-13.4,8.2c-2.5,1.2-4.7,2.4-6.6,3.7c-11.8,7.6-9.2,14.1-7.6,18l1.8,4.4l-3.3-3.4
	c-3.3-3.4-7.1-8.5-6.5-13.9c0.5-4.6,4.3-8.7,11.2-11.9c6.4-3.1,11.7-6,16.1-8.8c11.7-7.6,16.4-14.3,16.1-23.2l-0.1-1.9
	c0-0.8-0.1-1.4-0.1-2l-0.4-3.4l-1.1,0.1l-0.4,0.1l-0.3-0.7c-3.3-7.3-7.9-13.5-13.7-18.6l-2.1-1.9l2.9,0.2c2.7,0.2,5.2-0.1,7.4-1.1
	c4.2-1.8,7.9-5.7,11-11.6c5.9-11.3,11.8-19.2,16.6-22.4c1.4-0.9,2.7-1.4,3.9-1.5l0.3,0l2.8,0.6l0-0.8
	C199.5,63.4,192.5,60.1,186,58.5z"/>
</svg>
