<?xml version="1.0" encoding="utf-8"?>
<!-- Generator: Adobe Illustrator 18.1.1, SVG Export Plug-In . SVG Version: 6.00 Build 0)  -->
<!DOCTYPE svg PUBLIC "-//W3C//DTD SVG 1.1//EN" "http://www.w3.org/Graphics/SVG/1.1/DTD/svg11.dtd">
<svg version="1.1" id="Слой_1" xmlns="http://www.w3.org/2000/svg" xmlns:xlink="http://www.w3.org/1999/xlink" x="0px" y="0px"
	 viewBox="0 0 95.4 92.3" enable-background="new 0 0 95.4 92.3" xml:space="preserve">
<path fill-rule="evenodd" clip-rule="evenodd" d="M36.3,71.5l0.3,0.8c1.9,7.2,5.8,16.3,9.2,18.9c1.1,0.8,2.3,1.1,3.7,0.9
	c3.5-0.6,6.9-4.7,7.8-5.9l0.6-0.8l0.8,0.6c2.8,2,5.9,3.3,9.2,3.8c0.9,0.1,1.9,0.2,2.9,0.2c9.1,0,18.2-5.9,19.6-9.7
	c0.1-0.2,8.8-26.7,2.9-35.3c-1.8-2.6-4.7-4.1-8.6-4.4l-2.2-0.2l1.5-1.6c0.6-0.7,1-1.1,1.4-1.7c4.4-6.2,5.3-16,2.7-29.2l-0.1-0.4
	l-0.3-0.2c-0.1-0.1-6.2-5.8-13.6-7.1C72.6,0,71-0.1,69.5,0.1c-3.7,0.4-6.9,2.3-9.6,5.6l-0.7,0.9l-0.9-0.9c-2-2-4.8-3.4-8.3-4
	c-1.7-0.3-3.6-0.5-5.6-0.5c-5.9,0-12,1.3-16.1,2.1l-1.8,0.4C25.9,3.9,25.4,4,25,4.1C18.7,5.1,6.3,15,5.9,29.4v0.7l-0.6,0.3
	c-3,1.4-4.9,3.9-5.2,6.6c0,0.4,0,0.7,0,1.1c0.2,3.1,2.5,6.3,6.8,9.1c2.9,2,6,3.2,9.4,3.8c1.6,0.3,3.3,0.4,5.2,0.4
	c2.8,0,5.5-0.3,7.8-0.6l2.2-0.3l-1.1,1.9c-1.4,2.3-2.4,5.1-3.1,8.4c-0.3,1.5-0.5,2.9-0.4,4.1c0.1,2.1,0.8,3.7,1.9,4.8
	c1,1,2.2,1.6,3.7,1.9c0.9,0.2,2,0.2,3,0.1L36.3,71.5z M39.3,73.6c-0.6-2.2-1.1-4.3-1.5-6.2l-0.2-1.1l1.5-0.2
	c1.3-0.2,2.8-0.4,4.1-0.7l0.7-0.2l0.4,0.5c0.4,0.5,0.7,0.8,1.1,1.1l0.7,0.5l-0.3,0.8c-0.9,2.5-3.4,4.8-4.9,6l-1.3,1L39.3,73.6z
	 M44.5,59.3l1.5,0.2c0.3,0,0.6,0,0.9,0c1.9-0.2,3.7-1.6,5-3.8l1.4-2.2l0.6,2.5c0.2,1,0.4,2.5,0.3,4.2c-0.2,2.2-0.9,3.6-2.1,4.2
	c-0.7,0.4-2.2,1.2-3.5,1.2c-0.2,0-0.4,0-0.6-0.1c-0.3-0.1-0.5-0.1-0.8-0.3c-0.4-0.2-1-0.7-1.6-1.8l-0.1-0.3
	c-0.3-0.7-0.6-1.5-0.8-2.4L44.5,59.3z M42.1,81c-0.6-1.4-1.2-2.9-1.7-4.4l-0.2-0.7l0.5-0.5c1.4-1,4.8-3.7,6-7l0.3-0.8l1,0.1
	c0.1,0,0.2,0,0.4,0l1.3,0.1l-0.4,1.3c-1,3.6-2.8,7.6-5.3,11.9l-1.1,1.9L42.1,81z M47.8,90l-1.2-1.1c-1-1-2-2.5-3-4.5l-0.3-0.6
	l0.5-0.5c3.3-5.3,5.6-10.5,6.6-15l0.2-0.6l0.5-0.2c0.4-0.1,0.8-0.3,1.2-0.5l2.5-1.2l-1.2,3c-0.1,0.3-0.2,0.5-0.3,0.8
	c-0.9,1.9-1.3,3.8-1.2,5.8c0,0.1,0,0.2,0,0.2l0.1,0.6l-0.1,0.2c-0.5,2-2,8.5-3.8,12.3L47.8,90z M55.6,84.6c-1.3,1.7-2.9,3.3-4.3,4.3
	l-2.9,2l1.3-3.3c0.7-1.9,1.4-4.1,2.1-6.5l0.8-2.5l1.2,2.3c0.4,0.7,1,1.5,1.8,2.4l0.6,0.7L55.6,84.6z M83.1,43c1,0,2,0.1,2.8,0.2
	c2.5,0.5,4.3,1.5,5.5,3.2c3.6,5.2,0.4,20.8-2,29.2l-0.6,2.3l-1.3-2.1c-2.8-4.5-7.9-10.4-13.6-13.4l-0.3-0.2L73.1,63l0.4,0.2
	c6.4,3.4,11.9,10.3,14.6,15.5l0.2,0.4l-0.1,0.4c-0.4,1.2-1.6,2.3-2.8,3.1l-0.9,0.7L84,82.4c-1.7-2.3-4.7-4.3-4.8-4.3l-0.3-0.2
	l-0.5,0.7l0.3,0.2c1.2,0.8,3.2,2.4,4.4,3.9l0.8,1l-1.1,0.6c-2.3,1.3-6.9,3.4-12,3.4c-0.9,0-1.7-0.1-2.6-0.2c-0.1,0-0.3,0-0.4-0.1
	c-5.3-1-10-4.1-12.2-8.1c-1.5-2.9-1.6-5.9-0.3-8.9c4.5-9.9,3.1-19.6,2.3-23.3l-0.3-1.5L59,46c1,0.2,2.3,0.3,3.8,0.3
	c1.3,0,2.6-0.1,4.1-0.4c0.4-0.1,0.9-0.2,1.5-0.2l0.2,0c1.2-0.2,2.7-0.4,4.3-0.8l0.9-0.2l0,0.1l0.9-0.3c0.1,0,0.3-0.1,0.4-0.1
	l0.2-0.1c0,0,0.1,0,0.1,0C76.6,43.8,79.8,43,83.1,43z M60.8,9.3l-0.3-0.6l0.4-0.5c2.4-3.5,5.3-5.4,8.8-5.8c1.3-0.2,2.7-0.1,4.2,0.2
	c5.5,1,10.4,4.9,11.8,6l0.3,0.2L86,9.1c0.4,1.9,0.6,3.6,0.8,5.7l0.1,1L86,16c-5.7,1.1-15.7,6.4-17.5,9.9l-0.2,0.4l0.8,0.4l0.2-0.4
	c1.6-3.1,11.2-8.2,16.6-9.4l1.3-0.3v1.3c0.1,1.6,0.1,3.4,0,5.3l0,0.8l-0.8,0.2c-3.8,0.9-9.4,3.9-10.5,6.1l-0.2,0.4l0.8,0.4l0.2-0.4
	c0.9-1.8,5.7-4.4,8.8-5.3l1.6-0.5l-0.2,1.7c-0.5,3.8-1.7,6.9-3.4,9.3c-2,2.9-5,4.9-8.9,6.2c-0.2,0.1-0.4,0.1-0.5,0.1
	c-2.3,0.7-4.4,1-5.9,1.2l-0.2,0c-0.6,0.1-1.1,0.2-1.6,0.3c-1.3,0.2-2.5,0.3-3.7,0.3c-1.6,0-2.8-0.2-3.9-0.3
	c-0.4-0.1-0.8-0.1-1.3-0.2l-3.1,0.7l0.1,0.2l-0.4,0.5l-0.6,0.9l1.7,1v0.5c0.2,0.9,0.4,1.8,0.5,2.7l0.4,3l-2.2-2
	c-0.1-0.1-0.2-0.2-0.4-0.3l-0.3-0.2l-0.1-0.3c-0.2-0.5-0.7-1.4-1.1-2.1l-2.6,4.1c0.1,0.2,0.2,0.3,0.4,0.5l0.7,0.6L50.2,54
	c-0.5,0.9-1.8,2.9-3.5,3.1c-0.1,0-0.1,0-0.2,0c-0.1,0-0.3,0-0.4-0.1c-0.5-0.1-1-0.4-1.4-0.8l-1-1.1c-0.1-0.1-0.1-0.2-0.2-0.3
	c-1.8-2.5-0.6-5.8,0.9-7l0.1-0.1c0.3-0.2,1-0.8,2.1-0.6c0.7,0.1,1.3,0.5,1.9,1.2c0.8,0.8,0.9,1.5,1,2.1c0,0.2,0,0.3,0,0.4l0,0.1
	c0,0.2,0,0.5,0,0.8l1.7-5.8c0-0.1,0-0.2,0.1-0.3l0.2-0.8c0.2-0.6,0.3-1.1,0.4-1.7l0.1-0.5c0.1-0.8,0.3-1.5,0.3-2.2l0-0.1l0.1-0.2
	C56.1,32.6,65.2,22,69.8,19l0.3-0.2l-0.5-0.7l-0.3,0.2c-3.8,2.5-10,9.2-14.3,15.6l-3.8,5.7l1.8-6.5c0.3-1.2,0.6-2,1-2.7
	c0.5-1,1.2-2.1,2-3.3l0.5-0.8C59.7,21.6,63.8,15.5,60.8,9.3z M19.4,9.3L19.8,9l0.6,0.2c7.8,2.7,14,12.5,17.3,17.7l0.4,0.6l0.7-0.4
	l-0.2-0.4C35.7,22.2,30,12.9,22.7,9.2l-2-1l2.1-0.9c1-0.5,1.8-0.8,2.6-0.9c0.9-0.2,2.2-0.4,3.4-0.7l0.5-0.1l0.4,0.2
	c2.5,1.6,5.8,4.9,7.9,9.5l0.2,0.4l0.8-0.3L38.2,15c-1.3-3-3.5-6-6-8.2l-1.6-1.5l2.1-0.4c3-0.6,7.4-1.3,11.7-1.3
	c1.9,0,3.6,0.1,5.1,0.4c3.2,0.6,5.7,1.8,7.4,3.7c1.6,1.8,2.5,3.7,2.6,5.7c0.2,3.6-2.1,7.3-4.7,11.4L54.7,25c-1,1.5-1.9,3-2.6,4.3
	c-1.8,3.6-1.9,6.4-1.9,9c-0.1,2-0.2,3.9-0.9,6.3l-0.3,1.1L47.4,45l-1.1-0.8c-1.6-1.2-5.4-2.8-10.1-3.7c-1.9-0.4-3.9-0.5-5.7-0.5
	c-3.3,0-6.2,0.6-8.8,1.7c-1,0.4-3,1.2-5.2,1.2c-0.5,0-1.1,0-1.6-0.1c-0.9-0.2-1.7-0.5-2.5-1c-2.7-1.8-4.2-5.7-4.3-11.3
	C8.1,20.9,13.9,13.3,19.4,9.3z M29.4,48.4c-2.4,0.3-5.1,0.7-8,0.7c-1.7,0-3.3-0.1-4.8-0.4c-3.1-0.6-5.9-1.7-8.5-3.5
	c-3.9-2.6-5.9-5.5-5.7-8c0.1-1.3,0.8-2.5,2-3.5l1.4-1.3l0.3,1.9c0.6,4.4,2.3,7.5,5,9.3c1,0.7,2.1,1.1,3.4,1.3c2.5,0.5,5.3,0,8.1-1.2
	c3.6-1.6,8.2-1.9,13.1-1c0.9,0.2,1.7,0.3,2.7,0.6l3.7,1l-3.7,1.1c-1.5,0.5-3,1.2-4.3,2.3L34,47.9l-0.3,0
	C32.4,48,31.1,48.1,29.4,48.4z M29.8,59.9c1-4.1,2.7-7.3,4.8-9.4l1.5-1.3c1.1-0.8,2.1-1.3,3.1-1.5c0,0,0.1,0,0.2,0l2.2-0.6l-0.9,2
	c-0.4,1-0.6,2.2-0.6,3.4c0.1,1.5,0.6,2.8,1.4,4l0.4,0.5l0.1,1.8l-1.2-0.1c-3.2-0.3-6.3,0.4-8.5,1.8c-0.1,0.1-0.3,0.3-0.5,0.4
	L31.5,61l-2.6,2L29.8,59.9z M32.1,66c-0.2,0.3-0.3,0.6-0.4,0.8l-0.7,2.9l-1.4-2.6c-0.2-0.3-0.3-0.7-0.3-1.1l-0.1-0.3l0.1-0.3
	c0.7-1.9,1.8-3.3,3.4-4.4c2.3-1.4,4.9-1.7,6.7-1.7c0.9,0,1.6,0.1,2,0.1l0.8,0.1l0.1,0.8c0.1,0.5,0.2,1.1,0.4,1.5l0.2,1.1l-1.1,0.2
	c-0.9,0.2-1.9,0.3-3,0.5c-0.8,0.1-1.7,0.2-2.5,0.4l-2,0.5C33.3,64.9,32.5,65.3,32.1,66z"/>
</svg>
