<?xml version="1.0" encoding="utf-8"?>
<!-- Generator: Adobe Illustrator 18.1.1, SVG Export Plug-In . SVG Version: 6.00 Build 0)  -->
<!DOCTYPE svg PUBLIC "-//W3C//DTD SVG 1.1//EN" "http://www.w3.org/Graphics/SVG/1.1/DTD/svg11.dtd">
<svg version="1.1" id="Слой_1" xmlns="http://www.w3.org/2000/svg" xmlns:xlink="http://www.w3.org/1999/xlink" x="0px" y="0px"
	 viewBox="0 0 259 147" enable-background="new 0 0 259 147" xml:space="preserve">
<g>
	<path fill="#1D1D1B" d="M21.6,143.2C21.6,143.2,21.6,143.2,21.6,143.2L21.6,143.2z"/>
	<path fill="#1D1D1B" d="M256.9,61.3c-0.9-0.5-1.7,0.9-0.8,1.4c0,0,0.1,0,0.1,0c0,0,0,0,0,0c0,0,0,0,0,0c0,0,0,0,0,0c0,0,0,0,0,0
		c0,0,0,0,0,0c0,0,0,0,0,0c0,0,0,0,0,0.1c-0.1,0.3-0.4,0.9-0.7,1.2c-1.1,1.5-2.6,2.7-4.1,3.8c-0.6,0.5-1.2,0.9-1.7,1.3
		c0-3.7-0.2-7.4-0.8-11c-0.6-3.9-1.7-7.8-4-11c-1-1.4-2.3-2.7-3.9-3.5c-1.1-0.6-2.4-1.2-3.7-1.2c-2.1,0.1-4.3,0.4-6.4,0.7
		c-6.4,0.8-12.7,1.7-19.1,2.5c-0.5,0.1-1,0.1-1.5,0.2c1-2,2-4,3-5.9c2-4,3.8-8,5.4-12.2c0.7-1.7,1.3-3.4,1.8-5.2
		c0.2-0.8,0.4-1.6,0.6-2.4c0.2,0.4,0.3,0.8,0.4,1.3c0.2,1.2,0.2,3.3,1.6,3.9c1.7,0.7,3.7-0.3,3.8-2.2c0.1-2-1.2-4.2-2.2-5.8
		c-1-1.7-2.2-3.4-3.6-5c-0.7-0.8-1.6-1.3-2.4-1.7c-1.7-0.9-3.6-1.6-5.5-2.1c-3.8-1-7.9-1.2-11.8-0.8c-4.3,0.4-8.5,1.3-12.8,2
		c-4.5,0.7-9,1.3-13.5,1.4c-2.2,0-4.4-0.1-6.6-0.5c-1.9-0.3-3.7-0.7-5.3-1.7c-2.8-1.7-4.9-4.4-7.5-6.3c-2.9-2-6.5-2.3-10-2.5
		c-3.9-0.1-7.8,0.3-11.6,1c-8.1,1.5-16,4.2-23.7,7.1c-3.6,1.3-7.1,2.7-10.7,4.1c-3.4,1.3-6.8,2.5-10.2,3.8
		c-5.2,2.1-10.5,4.6-14.4,8.7c-3.7,3.8-5.4,8.8-6,14.1c-0.2,1.7-0.3,3.4-0.3,5.1c0,0.1,0,0.2,0,0.3c-6.3,1.7-12.8,4.6-16.4,10.3
		c-1.6,2.5-2.3,5.4-2.4,8.3c-0.3,0.2-0.7,0.3-1,0.6c-2.5,1.7-4.8,3.8-6.9,5.9c-2.7,2.5-5.2,5.2-7.6,8c-1,1.1-1.9,2.2-2.7,3.4
		c-0.5,0.7-1.1,1.6-1.2,2.5c0,0,0,0.1,0,0.1c-1.8,0.6-3.4,1.6-4.8,3c-2.4,2.5-3.6,5.9-4,9.2c-0.2,1.3-0.2,2.6-0.2,3.9
		c0,0.1,0,0.1,0.1,0.2c-2.3,0.6-4.5,1.9-6.1,3.8c-1.9,2.4-2.6,5.5-2.6,8.5c0,0.1,0,0.1,0,0.2c-1.3,0.2-2.4,0.6-3.5,1.5
		c-2.4,2-2.9,5.5-2.9,8.5c-0.2,0.1-0.3,0.2-0.4,0.3c-1.4,1.3-1.6,3.5-1.6,5.3c0,0.1,0,0.2,0.1,0.3c-0.9,0.2-1.7,0.7-2.3,1.2
		c-1.5,1.2-2.3,3-2.4,4.9c-0.2,3.9,2.5,7.8,5.4,10.2c1.5,1.2,3.2,2.2,5.1,2.6c1.7,0.3,3.5,0.1,5.2-0.3c2.2-0.5,4.4-1.5,5.8-3.3
		c0.1,0,0.2,0,0.3,0c0,0,0,0,0,0c0,0,0,0,0,0c0,0,0,0,0,0c0,0,0,0,0,0c0,0,0,0,0,0c0.1,0,0.2,0.1,0.3,0.1c0,0,0,0,0,0c0,0,0,0,0,0
		c0.1,0,0.2,0.1,0.2,0.1c0.6,0.3,1.1,0.7,1.6,1c1.3,0.9,2.7,1.7,4.2,2.2c1.7,0.5,3.3,0.2,4.7-0.9c0.8-0.7,1.4-1.6,1.9-2.5
		c3.4-0.7,6.8-2,9.5-4.3c2.7-0.5,5.4-1.4,8-2.4c1.7-0.7,3.4-1.4,5-2.3c0,2,2,2.7,3.7,2.7c2.7,0,5.3-0.8,7.8-1.6
		c3.3-1.1,6.5-2.4,9.7-3.9c1.5-0.7,2.9-1.4,4.4-2.2c0.1,0,0.1,0,0.2,0c0.4,0,0.8,0.1,1.2,0.1c0,0,0.2,0,0.3,0c0.1,0,0.3,0,0.4,0.1
		c0.3,0.1,0.7,0.1,1,0.2c0.7,0.1,1.5,0.2,2.2,0.4c3.4,0.6,6.8,1.3,10.1,1.9c1.4,0.2,2.8,0.5,4.1,0.7c0.7,0.1,1.6,0.3,2.3,0
		c1.3-0.6,2.3-1.3,3.3-2.3c0,0,0.1,0,0.1,0c9.1,1.5,18.2,3.2,27.3,4.6c1.5,0.2,3,0.5,4.5,0.6c1.5,0.1,3.1,0,4.6-0.1
		c2.3-0.1,4.7-0.4,7-0.7c9.3-1.2,18.4-3.8,27.4-6.7c15.9-5.2,31.3-12.2,44.7-22.4c6.7-5.1,12.9-10.9,18.8-16.9
		c3.4-3.4,6.8-7,9.9-10.8c2.5-3.1,5.1-6.4,6.4-10.1C259.4,65.3,259.3,62.6,256.9,61.3z M256.2,62.7
		C256.2,62.7,256.2,62.7,256.2,62.7C256.2,62.7,256.2,62.7,256.2,62.7C256.2,62.7,256.2,62.7,256.2,62.7z M256.2,62.7L256.2,62.7
		C256.2,62.7,256.2,62.7,256.2,62.7C256.2,62.7,256.2,62.7,256.2,62.7z M210.3,46.3c1-0.1,2-0.2,3-0.4c3.2-0.4,6.4-0.8,9.5-1.3
		c3.3-0.4,6.6-0.9,9.9-1.3c1.2-0.1,2.3-0.3,3.5-0.4c0.4,0,0.7-0.1,1.1-0.1c0.4,0,0.5,0,0.8,0.1c8.3,1.8,10.2,12,10.8,19
		c0.2,2.5,0.3,5,0.3,7.5c-3.3,2.4-6.8,4.6-10.4,6.5c-1.8,1-3.7,1.9-5.7,2.6c-2.1,0.8-4,0.6-6.3,0.8c-6.5,0.7-12.9,2.8-18.3,6.6
		c-2.6,1.9-4.9,4.2-6.9,6.7c-2.2,2.8-3.8,5.9-5.4,9c-2.6,5.2-5.8,10.3-10.4,14.1c-4,3.3-9,4.8-14.1,5.5c-4.3,0.6-8.5,0.5-12.8,0.7
		c-9.2,0.4-18.4,1.1-27.5,1.9c-3.6,0.3-7.2,0.6-10.8,1c-1.1,0.1-2.1,0.2-3.2,0.4c0,0,0,0,0,0c0.1-0.2,0.3-0.4,0.3-0.5
		c0.2-0.2,0.4-0.4,0.7-0.6c1.1-0.9,2.8-1.7,4.3-2.3c4.4-1.7,9-2.9,13.6-3.9c3.9-0.9,7.8-1.6,11.7-2.3c1-0.2,2-0.3,3-0.5
		c3.3-0.7,6.3-2.3,9.1-4c6.3-3.9,11.8-9.1,16.6-14.7c2.5-2.9,4.6-6,6.8-9.1c2.7-3.9,5.5-7.8,8.1-11.7c5.1-7.5,10.2-15,14.8-22.8
		c1.3-2.2,2.5-4.3,3.6-6.6C210.2,46.3,210.2,46.3,210.3,46.3z M90,124.7c0.6-0.5,1.3-1.1,1.7-1.7c0.2-0.3,0.3-0.6,0.4-0.9
		c0.3-0.7,0.6-1.5,0.8-2.2c0.5-1.4,0.8-2.9,1.1-4.4c0.5-3,0.7-6,0.5-9c-0.3-6.1-1.9-12.1-3.9-17.8c-0.9-2.7-1.9-5.4-3.1-7.9
		c-1-2.1-2.4-4-3.9-5.8c-6-7.2-15.3-11.7-24.5-12.6c-2.2-0.2-4.4-0.2-6.6,0c-0.2,0-0.5,0-0.7,0.1c0-0.4,0.1-0.8,0.1-1.2
		c1.5-2.4,3.6-4.3,6.3-5.3c3.2-1.2,6.7-1.2,10-0.8c3.8,0.5,7.4,1.7,10.9,3.2c3.4,1.5,6.7,3.3,9.7,5.5c2.4,1.7,4.7,3.7,6.4,6.2
		c1.1,1.6,1.6,3.4,2.1,5.2c0.9,3,1.4,6.2,1.8,9.3c0.7,6.2,0.8,12.5,1.8,18.7c0.4,2.6,0.7,5.2,0.3,7.9c-0.3,2.2-1,4.3-2.1,6.2
		c-2.7,4.9-7.7,8.6-13.1,10c0.3-0.2,0.6-0.4,0.9-0.5C88,126.1,89,125.4,90,124.7z M57,83.5c-0.8-0.4-1.6-0.8-2.5-1.2
		c0.2-0.8,0.9-1.5,1.4-2.1c1-1.2,2.1-2.4,3.2-3.5c2.5-2.6,5.2-5.1,8-7.4c0.7-0.6,1.5-1.2,2.2-1.7c0.3-0.2,0.7-0.5,1.1-0.6
		c0.7,0.3,1.4,0.6,2,1c-0.3,0.2-0.7,0.5-1,0.7c-1.2,0.9-2.4,1.9-3.5,2.8c-2.8,2.4-5.4,4.9-7.9,7.6c-0.8,0.8-1.5,1.7-2.2,2.6
		C57.6,82.2,57.1,82.8,57,83.5C57,83.4,57,83.5,57,83.5z M56.1,63.6c1.1,0,2.1,0.1,3.2,0.2c-0.3,0.2-0.5,0.4-0.7,0.5
		c-1.2,0.9-2.4,1.9-3.5,2.8c-2.8,2.4-5.4,4.9-7.9,7.6c-0.8,0.8-1.5,1.7-2.2,2.6c-0.3,0.4-0.6,0.8-0.8,1.2c-0.4-0.1-0.8-0.1-1.1-0.2
		c-0.7-0.1-1.4-0.2-2.1-0.2c0-0.1,0.1-0.2,0.1-0.2c0.3-0.5,0.6-0.9,1-1.3c1-1.2,2.1-2.4,3.2-3.5c2.5-2.6,5.2-5.1,8-7.4
		c0.7-0.6,1.4-1.1,2.2-1.6C55.6,63.9,55.8,63.8,56.1,63.6z M45.8,77c1-1.2,2.1-2.4,3.2-3.5c2.5-2.6,5.2-5.1,8-7.4
		c0.7-0.6,1.5-1.2,2.2-1.7c0.2-0.1,0.5-0.3,0.8-0.5c0,0,0,0,0,0c1,0.1,2,0.3,3,0.5c-0.3,0.2-0.6,0.4-0.9,0.6
		c-1.2,0.9-2.4,1.9-3.5,2.8c-2.8,2.4-5.4,4.9-7.9,7.6c-0.8,0.8-1.5,1.7-2.2,2.6c-0.3,0.4-0.7,0.9-0.9,1.4c-1-0.3-2.1-0.6-3.1-0.8
		C44.9,78.1,45.4,77.5,45.8,77z M49.6,77.7c1-1.2,2.1-2.4,3.2-3.5c2.5-2.6,5.2-5.1,8-7.4c0.7-0.6,1.5-1.2,2.2-1.7
		c0.2-0.2,0.5-0.4,0.8-0.5c1,0.2,1.9,0.5,2.9,0.8c-0.5,0.3-1,0.6-1.4,0.9c-1.2,0.9-2.4,1.9-3.5,2.8c-2.8,2.4-5.4,4.9-7.9,7.6
		c-0.8,0.8-1.5,1.7-2.2,2.6c-0.3,0.4-0.6,0.8-0.8,1.3c-0.9-0.4-1.8-0.7-2.7-1C48.5,79,49.1,78.3,49.6,77.7z M52.7,79
		c1-1.2,2.1-2.4,3.2-3.5c2.5-2.6,5.2-5.1,8-7.4c0.7-0.6,1.5-1.2,2.2-1.7c0.4-0.2,0.9-0.6,1.3-0.7c0.8,0.3,1.6,0.6,2.4,0.9
		c-0.5,0.2-0.9,0.6-1.3,0.9c-1.2,0.9-2.4,1.9-3.5,2.8c-2.8,2.4-5.4,4.9-7.9,7.6c-0.8,0.8-1.5,1.7-2.2,2.6c-0.3,0.4-0.7,0.9-0.9,1.5
		c-0.3-0.1-0.5-0.3-0.8-0.4c-0.6-0.3-1.2-0.5-1.8-0.8C51.7,80.2,52.3,79.6,52.7,79z M95.4,122.8c2,0.6,3.9,1.3,5.9,2
		c0.9,0.3,1.8,0.6,2.7,0.9c0.5,0.2,1.1,0.4,1.6,0.4c0.3,0,0.7-0.1,1-0.2c0.5-0.1,0.9-0.2,1.4-0.4c0.2-0.1,0.4-0.1,0.6-0.2
		c-0.6,0.6-1.2,1.2-1.9,1.8c-0.5,0.4-1,0.8-1.5,1.2c-0.2,0.2-0.2,0.2-0.5,0.2c-1.5,0-3.1-0.5-4.5-0.8c-2-0.5-3.9-1-5.8-1.7
		c-0.7-0.2-1.4-0.5-2-0.8C93.4,124.5,94.4,123.7,95.4,122.8z M128.2,71.1c-1.4-4.3-3.4-8.5-5.7-12.3c-2.5-4-5.4-7.8-9-11
		c-3.3-2.9-7.1-5.3-11.5-6.4c-3.4-0.8-6.9-0.4-10.3-0.3c-6.8,0.3-13.7,0.9-20.4,2.4c0-1.3,0.1-2.3,0.5-3.5c0.2-0.6,0.3-0.9,0.6-1.4
		c0.1-0.2,0.2-0.5,0.4-0.7c0.1-0.1,0.1-0.2,0.2-0.3c0,0,0.2-0.3,0.2-0.3c0.3-0.4,0.7-0.8,1-1.1c0.1-0.1,0.2-0.2,0.3-0.2
		c0,0,0.1,0,0.1-0.1c0,0,0.1-0.1,0.1-0.1c0.2-0.2,0.5-0.3,0.7-0.5c1-0.6,1.8-0.9,2.9-1.2c1.3-0.4,2.3-0.5,3.5-0.6
		c1.4-0.1,2.8-0.1,4.1,0c3.1,0.2,6.1,0.7,9.2,1.4c6.5,1.5,13,3.8,19.1,6.5c4.8,2.1,9.6,4.3,13.9,7.2c0.3,0.2,0.7,0.5,1,0.7
		c0.1,0.1,0.1,0.1,0.2,0.2c0,0,0,0,0,0c0,0,0,0,0,0c0.1,0.1,0.3,0.2,0.4,0.3c1,0.9,1.8,2.1,2.6,3.2c3.1,4.8,4.7,10.3,5.5,15.9
		c0.8,5.8,0.6,11.7,0.8,17.5c0.1,3.2,0.3,6.4,0,9.6c-0.1,1.6-0.4,3.2-0.8,4.7c-0.1,0.4-0.2,0.8-0.4,1.1c0,0.1-0.1,0.2-0.1,0.4
		c-0.1,0.1-0.1,0.2-0.2,0.3c0,0-0.1,0.1-0.1,0.2c-0.1,0.1-0.1,0.2-0.2,0.2c-0.2,0.2-0.4,0.4-0.5,0.5c-0.4,0.4-0.9,0.8-1.4,1.2
		c-1.1,0.9-2.4,1.8-3.7,2.6c-3,2-6.1,3.9-9.3,5.8c-1.9,1.1-3.9,2.2-5.9,3.3c-0.2,0.1-0.3,0.2-0.5,0.3c0.1-0.2,0.2-0.4,0.4-0.6
		c1.4-2.1,2.9-4.1,4.4-6.2c2.5-3.6,5.1-7.2,7-11.1c1.9-3.9,3-8.2,3.1-12.6C130.7,81.2,129.8,76,128.2,71.1z M137.4,102.3
		C137.4,102.3,137.4,102.3,137.4,102.3C137.5,102.1,137.4,102.2,137.4,102.3z M114.2,119.2c0.4-0.1,0.9-0.4,1.2-0.6
		c1.1-0.5,2.1-1.1,3.1-1.7c3-1.7,6-3.4,9-5.3c2.9-1.8,5.7-3.6,8.4-5.7c0.8-0.7,1.7-1.3,2.4-2.2c0.4-0.4,0.6-0.9,0.7-1.4
		c0.5-1.5,0.9-3.1,1.1-4.8c0.4-3.2,0.3-6.4,0.2-9.6c-0.1-3.1-0.1-6.1-0.1-9.2c-0.1-5.7-0.5-11.4-2.1-16.9c-0.8-2.7-1.8-5.4-3.2-7.8
		c-0.7-1.3-1.5-2.5-2.4-3.7c-0.4-0.5-0.7-1-1.1-1.4c-1.2-1.1-2.6-2-4-2.8c-4.9-2.9-10.1-5.3-15.4-7.5c-6.2-2.5-12.7-4.7-19.4-5.9
		c-1.5-0.3-3.2-0.5-4.8-0.7c0.1-2,0.5-3.9,1.5-5.6c1-1.7,2.6-2.9,4.3-3.7c2-1,4.2-1.6,6.4-2.1c2.6-0.6,5.2-1,7.8-1.5
		c6.1-1.1,12.1-2.6,17.9-5c3.4-1.4,6.7-3.2,10.5-3.3c2.7-0.1,5.4,0.4,8,0.8c2.5,0.4,4.9,1.1,7.3,2c5.1,1.8,10.1,4.2,15.3,5.6
		c7.2,2,14.8,0.4,22-1c3.7-0.7,7.6-1.7,11.3-1.4c3.5,0.3,6.7,1.7,9.6,3.4c0.3,0.2,0.6,0.4,1,0.6c-1.6,1.2-3,2.5-4.4,3.8
		c-6.2,5.9-11.7,12.6-16.6,19.6c-5.1,7.3-9.7,15.1-14.4,22.7c-1.9,3-3.8,5.9-5.4,9c-1.6,3-3,6-4.4,9c-2.9,6-6,12.3-10.8,17
		c-3.4,3.3-8,4.7-12.3,6.4c-5.6,2.1-11.3,4.2-16.9,6.4c-2.5,1-5.1,2-7.6,3.1c-1.3,0.5-2.5,1.1-3.8,1.7
		C114,119.5,114.1,119.3,114.2,119.2z M211.1,20.7c-2.7-1.7-5.6-3.2-8.8-3.9c-3.5-0.8-7-0.1-10.5,0.5c-7.7,1.4-15.6,3.5-23.4,1.9
		c-2.4-0.5-4.8-1.4-7.1-2.3c-2.7-1-5.4-2.1-8.1-3.1c-2.3-0.9-4.6-1.7-7-2.2c-2.8-0.6-5.7-1-8.6-1.2c-1.8-0.1-3.5,0-5.2,0.5
		c-1.7,0.5-3.3,1.3-5,2c-5.6,2.4-11.4,4.1-17.5,5.3c-5,1-10.2,1.5-15,3.3c-1.8,0.7-3.5,1.6-4.9,3c-1.4,1.4-2.2,3.2-2.6,5.1
		c-0.2,0.8-0.3,1.6-0.3,2.5c-1.7-0.2-3.4-0.2-5.1-0.1c0.1-2.3,0.5-4.6,1.6-6.7c1-1.9,2.6-3.5,4.4-4.6c2-1.2,4.3-2,6.6-2.6
		c2.7-0.7,5.5-1.2,8.2-1.8c6.7-1.3,13.2-2.9,19.5-5.5c2.4-1,4.7-2.1,7.1-3.2c1.7-0.8,3.4-1.4,5.3-1.7c2.5-0.3,5.1,0,7.7,0.4
		c3,0.5,5.9,1,8.8,2.1c5.8,2.1,11.4,4.9,17.2,7c3.2,1.2,6.4,1.8,9.8,1.9c4.2,0.1,8.4-0.6,12.5-1.4c4.2-0.9,8.5-1.9,12.7-2.5
		c3.9-0.6,7.7,0.1,11.2,1.8c1.3,0.6,2.6,1.4,3.9,2.2c-0.9,0.1-1.7,0.3-2.5,0.6C214.3,18.7,212.7,19.6,211.1,20.7z M87.2,18.8
		c3.2-1.5,6.5-2.7,9.8-3.9c3.5-1.3,6.9-2.6,10.4-3.9c7.7-2.9,15.4-5.8,23.4-7.7c3.9-0.9,7.8-1.6,11.8-1.7c1.9-0.1,3.7,0,5.6,0.1
		c1.7,0.2,3.5,0.4,5.1,1.1c3,1.4,5,4.2,7.6,6.2c1.3,1,2.8,1.9,4.4,2.4c2,0.6,4.1,0.9,6.2,1c8.9,0.7,17.8-1.4,26.6-2.8
		C202,9,206,8.7,210,9.3c2,0.3,3.9,0.8,5.8,1.5c0.9,0.3,1.7,0.8,2.5,1.2c0.4,0.2,0.8,0.5,1.2,0.7c0.1,0,0.1,0.1,0.1,0.1
		c0,0,0,0,0.1,0.1c1.3,1.2,2.3,2.8,3.2,4.3c1,1.6,2.4,3.7,2.4,5.6c0,0.6-0.1,0.8-0.7,1c-0.2,0-0.4,0-0.6,0c0,0-0.2,0-0.2,0
		c-0.1,0-0.1,0,0,0c-0.2-0.1-0.1,0-0.2-0.1c0.1,0.1-0.2-0.3-0.1-0.2c-0.6-1.5-0.4-3.1-1.2-4.5c-0.6-1.1-1.7-1.5-2.8-1.6
		c-2.7-1.8-5.6-3.4-8.9-4.2c-3.8-1-7.6-0.3-11.4,0.4c-8.5,1.6-17.1,4.3-25.8,2.7c-2.8-0.5-5.5-1.6-8.1-2.6c-3-1.2-5.9-2.5-8.9-3.8
		c-2.6-1.1-5.2-2.2-8-2.9c-1.6-0.4-3.2-0.7-4.8-1c-1.5-0.3-3-0.5-4.6-0.6c-2.1-0.2-4.2-0.2-6.2,0.3c-1.8,0.5-3.6,1.3-5.3,2.2
		c-6,2.8-12.1,5.1-18.6,6.6c-5.6,1.3-11.3,2-16.8,3.8c-4.2,1.4-7.9,3.7-9.6,7.9C82,28,81.7,30,81.6,32c-1.9,0.2-3.8,0.6-5.6,1.3
		c-1.9,0.8-3.5,2.1-4.6,3.8c-0.2,0.3-0.4,0.6-0.5,1c0.5-3.6,1.6-7.1,3.7-10.1C77.6,23.7,82.5,21,87.2,18.8z M54.7,54.2
		c1.9-2.5,4.7-4.4,7.5-5.8c3.2-1.6,6.8-2.6,10.3-3.4c3.7-0.8,7.4-1.3,11.1-1.7c3.4-0.3,6.8-0.5,10.2-0.6c1.6-0.1,3.1-0.2,4.7-0.1
		c2.1,0.1,4.1,0.6,6.1,1.3c4.1,1.6,7.7,4.6,10.7,7.8c3.2,3.5,5.9,7.5,8,11.6c2,3.9,3.6,8.1,4.6,12.4c1.1,4.9,1.6,10.1,0.6,15.1
		c-1.7,8.8-7.7,15.9-12.7,23c-0.9,1.3-1.8,2.7-2.6,4.1c-0.1,0.1-0.2,0.2-0.2,0.4c-0.3,0.5-0.5,1-0.8,1.5c-0.5,1-0.9,2-1.4,3
		c-0.4,0.5-0.8,0.9-1.2,1.4c0,0,0,0-0.1,0.1c-0.7,0.4-1.4,0.7-2.1,0.9c-0.4,0.1-0.9,0.2-1.3,0.3c-0.3,0.1-0.5,0.2-0.8,0.1
		c-0.6-0.1-1.1-0.3-1.7-0.5c-0.9-0.3-1.8-0.6-2.7-0.9c-1.7-0.6-3.4-1.2-5.2-1.7c2.4-2.3,4.2-5.1,5.2-8.3c0.7-2.2,1-4.6,0.9-6.9
		c0-1.3-0.3-2.7-0.5-4c-0.3-1.6-0.5-3.2-0.6-4.8c-0.6-6.2-0.8-12.5-1.9-18.7c-0.5-2.9-1.2-5.8-2.4-8.4c-0.5-1.1-1.2-2-1.9-2.9
		c-2-2.4-4.6-4.4-7.2-6.2c-3.1-2.1-6.5-3.8-10-5.2c-3.5-1.4-7.1-2.4-10.8-2.7c-3.2-0.3-6.4,0-9.4,1.3c-2.1,0.9-3.8,2.4-5.2,4.2
		C52.6,57.8,53.4,55.9,54.7,54.2z M43.6,70.2c1.2-1.2,2.5-2.3,3.8-3.4c1-0.8,1.8-1.5,2.9-2.2c0.2-0.1,0.3-0.2,0.5-0.3
		c0.1,0,0.1-0.1,0.2-0.1c0,0,0.1,0,0.1,0c0.8-0.3,1.7-0.3,2.5-0.4c0.2,0,0.3,0,0.5,0c-1.2,0.9-2.3,1.8-3.4,2.7
		c-2.8,2.4-5.4,4.9-7.9,7.6c-0.8,0.8-1.5,1.7-2.2,2.6c-0.3,0.4-0.7,0.9-0.9,1.4c-1.5,0-3,0.2-4.4,0.8c0.2-0.3,0.5-0.5,0.7-0.8
		C38.3,75.3,40.9,72.7,43.6,70.2z M32.6,82.7c0,0,0-0.1,0.1-0.1c0,0,0.1-0.1,0.1-0.1c1.4-2.3,3.9-3.1,6.4-3.2
		c3.3-0.1,6.7,0.8,9.8,1.9c3.5,1.2,6.9,2.9,10.1,4.8c2.7,1.6,5.3,3.3,7.6,5.4c0.7,0.7,1.4,1.4,1.9,2.2c0.5,0.9,0.9,2,1.2,3
		c0.5,1.4,0.8,2.9,1.1,4.4c0.5,3,0.8,6.1,1.1,9.2c0.2,1.5,0.3,3,0.6,4.5c0.2,1,0.4,2,0.3,3.1c-0.1,1.8-1,3.6-1.9,5.1
		c-1.1,1.7-2.5,3.3-4,4.7c-1.4,1.3-2.9,2.5-4.5,3.6c-0.6,0.4-1.3,0.8-1.9,1.2c0.7-0.5,1.4-1,2-1.5c1.4-1.2,2.7-2.6,3.7-4.1
		c1-1.6,1.4-3.3,1.7-5.1c0.6-4.6,0-9.3-1.1-13.8c-1.1-4.6-2.9-9.1-5.8-12.9c-2.2-2.9-5.2-5.2-8.3-7.1c-3-1.8-6.2-3.3-9.6-4.2
		c-3.1-0.9-6.3-1.3-9.5-0.9C33.3,82.6,32.9,82.6,32.6,82.7C32.6,82.7,32.6,82.7,32.6,82.7z M18.7,143.6c-1.1,0.7-2.1,1.1-3.4,1.3
		c-1.5,0.3-3.2,0.6-4.7,0.3c-3.7-0.7-6.8-4.1-8.3-7.4c-0.7-1.5-1.1-3.4-0.7-5c0.4-1.5,1.6-3,3.1-3.4c0.6-0.2,1.1-0.1,1.7,0.1
		c0.1,0.1,0.5,0.3,0.8,0.4c0.2,0.2,0.5,0.4,0.8,0.7c1,1.1,1.7,2.5,2.1,3.9c0.1,0.4,0.2,0.8,0.2,1.2c0,0.2,0,0.4,0,0.7
		c0,0.1,0,0.2,0,0.3c0,0,0,0.2,0,0.2c0,0.2-0.1,0.4-0.1,0.5c0,0.1,0,0.1-0.1,0.2c0-0.1-0.1,0.1-0.1,0.2c0,0.1-0.1,0.2-0.1,0.2
		c0,0,0,0,0,0c0,0,0,0-0.1,0.1c0,0,0,0,0,0c-1.1-0.5-1.7-1.4-1.9-2.6c-0.1-0.4-0.3-0.8-0.8-0.8c-0.4,0-0.8,0.4-0.8,0.8
		c0.2,1.2,0.6,2.3,1.5,3.2c0.4,0.4,0.9,0.7,1.5,0.9c0.6,0.3,1,0.2,1.5-0.3c1-0.9,1.2-2.5,1.1-3.8c-0.3-3-2-6.6-5-7.7
		c-0.3-0.1-0.5-0.2-0.8-0.2c0-0.1,0-0.2,0-0.2c0-0.3,0-0.6,0-0.9c0-0.1,0-0.3,0-0.4c0-0.1,0-0.1,0-0.2c0,0,0,0,0-0.1c0,0,0,0,0,0
		c0.1-0.5,0.2-1,0.3-1.4c0,0,0-0.1,0.1-0.1c0,0,0,0,0,0c0-0.1,0.1-0.2,0.1-0.3c0.1-0.1,0.2-0.3,0.3-0.4c0,0,0.1-0.1,0.1-0.1
		c0.1-0.1,0.1-0.1,0.2-0.2c0,0,0.1-0.1,0.1-0.1c0,0,0.1-0.1,0.1-0.1c0.1,0,0.1-0.1,0.2-0.1c0,0,0,0,0,0c0,0,0,0,0,0
		c0.2-0.1,0.3-0.1,0.5-0.1c0,0,0,0,0,0c0,0,0,0,0,0c0.1,0,0.2,0,0.2,0c0.2,0,0.3,0,0.5,0c0,0,0.1,0,0.1,0c0.1,0,0.2,0,0.3,0.1
		c0.2,0,0.4,0.1,0.6,0.2c0.1,0,0.2,0.1,0.3,0.1c0,0,0.1,0,0.1,0.1l0,0c0.2,0.1,0.4,0.2,0.6,0.3c0.4,0.2,0.8,0.5,1.2,0.7
		c0.2,0.1,0.4,0.3,0.6,0.4c0,0,0.1,0,0.1,0.1c0,0,0.1,0.1,0.1,0.1c0.1,0.1,0.2,0.2,0.3,0.3c0.9,0.7,1.7,1.5,2.4,2.3
		c0.8,0.9,1.4,1.7,2.1,2.7c0.7,1,1.3,2,1.8,3.1c0.3,0.6,0.4,0.8,0.6,1.5c0.2,0.5,0.3,1,0.5,1.6c0.1,0.2,0.1,0.5,0.2,0.8
		c0,0.1,0,0.2,0.1,0.4c0,0,0,0,0,0c0,0,0,0,0,0c0,0.1,0,0.2,0,0.2c0.1,0.5,0.1,1,0,1.5c0,0.1,0,0.2,0,0.3c0,0,0,0.1,0,0.1
		c0,0,0,0.1,0,0.1c0,0.2-0.1,0.5-0.2,0.7c-0.1,0.2-0.1,0.4-0.2,0.6c0,0,0,0,0,0.1c0,0,0,0.1,0,0.1c-0.1,0.1-0.1,0.2-0.2,0.4
		C20.1,142.5,19.5,143.2,18.7,143.6z M21.7,143.2C21.7,143.2,21.7,143.2,21.7,143.2C21.7,143.2,21.7,143.2,21.7,143.2
		C21.8,143.2,21.7,143.2,21.7,143.2z M32.3,144c-0.5,0.6-1.1,1-1.9,1.2c-0.6,0.2-1.3,0.1-1.9-0.1c-1.4-0.4-2.7-1.3-3.9-2.1
		c-0.7-0.4-1.5-1-2.3-1.3c1.5-3.7-0.3-8.2-2.2-11.3c-1.2-2-2.8-3.9-4.5-5.6c-1.5-1.4-3.2-2.6-5.1-3.3c-0.7-0.2-1.4-0.3-2.1-0.2
		c0.1-1.6,0.3-3.3,0.9-4.8c0.6-1.2,1.3-2.1,2.5-2.7c0.9-0.4,2.3-0.5,3.4-0.4c1.5,0.2,2.9,0.7,4.2,1.3c2.9,1.4,5.6,3.4,7.8,5.8
		c2.6,2.9,4.5,6.7,5.8,10.4c1.2,3.4,2.1,7.5,0.7,10.9c-0.2,0.1-0.3,0.3-0.3,0.6C33.1,143,32.8,143.5,32.3,144z M35.5,141.4
		c0.2-0.5,0.3-1.1,0.4-1.6c0.3-2.3-0.1-4.7-0.7-7c-0.6-2.4-1.6-4.7-2.7-7c-1.6-3.2-3.6-6-6.3-8.4c-2.5-2.2-5.4-4-8.6-5
		c-1-0.3-2-0.5-3-0.6c0,0,0-0.1,0-0.1c0-3.2,0.9-6.4,3.3-8.6c2.1-1.9,5-2.6,7.8-2.7c3.1-0.1,6.3,0.6,9.2,1.9
		c2.9,1.2,5.5,2.9,7.5,5.3c1.2,1.5,2.2,3.4,3.1,5.2c1.1,2.3,1.9,4.7,2.4,7.1c0.9,4,0.9,8.4-0.7,12.2c-1,2.4-2.7,4.5-4.8,6.1
		C40.4,139.8,38,140.8,35.5,141.4z M51.8,136c-2.2,0.9-4.5,1.7-6.9,2.2c0.3-0.3,0.5-0.5,0.8-0.8c2.7-3,4.1-7,4.3-11
		c0.3-4.8-1-9.5-3-13.9c-0.9-2-1.9-4-3.2-5.6c-1-1.2-2.1-2.2-3.3-3.1c-2.6-2-5.7-3.3-8.9-4.1c-3-0.8-6.3-1-9.4-0.3c0,0,0,0,0-0.1
		c0-3.9,0.6-7.9,2.8-11.2c1.4-2.1,7.4-6.5,16.5-4.6c3.4,0.7,6.7,2.1,9.8,3.8c3.1,1.7,6.2,3.9,8.5,6.6c3.1,3.6,5,8.2,6.2,12.7
		c1.2,4.5,1.8,9.4,1.4,14c-0.2,1.9-0.6,3.7-1.6,5.3c-1,1.6-2.3,3-3.8,4.2C59.1,132.8,55.5,134.6,51.8,136z M75,131.2
		c-3,1.3-6.1,2.5-9.2,3.3c-1.9,0.5-3.5,0.9-5.3,0.8c-0.1,0-0.1,0-0.2,0c0,0,0,0,0,0c0,0,0,0-0.1,0c-0.2,0-0.3-0.1-0.5-0.1
		c-0.1,0-0.1,0-0.2-0.1c0,0,0,0,0,0c0,0,0,0,0,0c-0.1,0-0.2-0.1-0.3-0.2c0,0,0,0,0,0c0,0-0.1-0.1-0.1-0.1c0,0,0,0,0,0c0,0,0,0,0,0
		c0,0-0.1-0.1-0.1-0.2l0,0c0,0,0,0,0,0c0-0.1,0-0.1,0-0.2c0,0,0,0,0,0c0-0.1,0-0.1,0-0.2c0,0,0-0.1,0-0.1c0.9-0.2,1.8-0.7,2.6-1.2
		c1.5-0.9,3-1.9,4.3-3.1c3.1-2.5,6-5.6,7.5-9.3c0.7-1.8,0.9-3.5,0.5-5.4c-0.6-3-0.8-6.1-1.1-9.1c-0.3-3-0.7-6-1.5-9
		c-0.5-1.7-1-3.5-2.1-4.9c-1.6-2.1-4-3.7-6.1-5.2c-1.7-1.2-3.5-2.2-5.4-3.2c0,0,0.1-0.1,0.1-0.1c0.1-0.8,0.9-1.7,1.4-2.3
		c1-1.2,2.1-2.4,3.2-3.5c2.5-2.6,5.2-5.1,8-7.4c0.7-0.6,1.5-1.2,2.2-1.7c0.2-0.1,0.4-0.3,0.7-0.4c4.1,2.3,7.8,5.4,10.6,9.2
		c1.4,1.9,2.5,4,3.4,6.2c1.1,2.8,2.2,5.6,3.1,8.5c1.8,5.8,3,11.8,2.8,17.9c-0.1,3-0.5,5.9-1.4,8.8c-0.3,1.1-0.6,2.3-1.2,3.2
		c0,0.1-0.1,0.1-0.1,0.2c0,0,0,0,0,0c0,0,0,0,0,0c-0.1,0.1-0.2,0.3-0.4,0.4c-0.3,0.3-0.7,0.6-1,0.9c0,0-0.1,0-0.1,0.1
		c0,0-0.1,0.1-0.1,0.1c-0.1,0.1-0.2,0.2-0.3,0.2c-0.2,0.2-0.5,0.4-0.7,0.5c-1.1,0.8-2.3,1.5-3.5,2.2c-0.6,0.3-1.2,0.7-1.8,1
		c-0.1,0-0.2,0.1-0.3,0.2C79.7,129,77.3,130.1,75,131.2z M104.9,130.5c-0.2,0.1-0.5,0.3-0.7,0.4c0,0-0.1,0-0.1,0c-0.1,0-0.1,0-0.2,0
		c-0.4,0-0.8-0.1-1.2-0.1c-0.4,0-0.3,0-0.6-0.1c-0.3,0-0.7-0.1-1-0.1c-0.7-0.1-1.4-0.2-2.2-0.4c-1.7-0.3-3.4-0.6-5-0.9
		c-2.7-0.5-5.3-1-8-1.4c2.1-0.5,4.2-1.3,6-2.5c0,0.1,0.1,0.1,0.1,0.1c1.5,0.7,3.2,1.2,4.8,1.7c1.9,0.6,3.8,1,5.7,1.4
		c0.6,0.1,1.3,0.2,1.9,0.3c0.6,0,0.9-0.2,1.4-0.6c1.5-1.1,2.8-2.4,4-3.8c-0.2,0.4-0.4,0.8-0.7,1.3
		C108.1,127.7,106.7,129.4,104.9,130.5z M256.5,68.5c-1.8,3.8-4.5,7.1-7.3,10.3c-5.5,6.4-11.6,12.2-17.8,17.8
		c-4.2,3.8-8.5,7.3-13.1,10.6c-6.9,4.7-14.2,8.7-21.8,12.1c-7.9,3.5-16.1,6.4-24.4,8.9c-9,2.7-18.3,4.9-27.8,5.4
		c-2.1,0.1-4.3,0.2-6.2-0.1c-2-0.3-4.1-0.6-6.1-0.9c-5.3-0.9-10.6-1.8-15.9-2.7c-2.3-0.4-4.7-0.8-7-1.2c1.5-2,2.6-4.5,3.7-6.7
		c0,0,0-0.1,0-0.1c0.1,0,0.3,0,0.4-0.1c1.7-1,3.5-1.8,5.4-2.6c2.6-1.1,5.3-2.2,8-3.2c5.7-2.2,11.5-4.3,17.2-6.5c2-0.8,4-1.5,6-2.4
		c2.4-1,4.5-2.6,6.3-4.4c4.7-4.8,7.8-11.2,10.7-17.2c1.5-3,2.9-6,4.4-9c1.7-3.2,3.6-6.1,5.5-9.2c4.7-7.6,9.3-15.3,14.5-22.7
		c4.9-7,10.5-13.7,16.8-19.5c2.9-2.7,6.2-5.3,10.1-6.1c0.5-0.1,1.1-0.2,1.6-0.1c-0.1,1.6-0.7,3.3-1.2,4.8c-0.9,2.6-1.9,5.1-3,7.7
		c-2.3,5.4-5,10.6-7.7,15.8c-3.1,5.8-6.7,11.3-10.3,16.8c-5.2,8-10.7,15.8-16.2,23.6c-2.1,3-4.2,6-6.7,8.8c-2.5,2.8-5.1,5.4-7.9,7.9
		c-2.8,2.4-5.8,4.7-9.1,6.5c-2.5,1.4-5.2,2.6-8.1,3.1c-7.5,1.3-15.1,2.7-22.4,4.9c-2.9,0.9-6,1.8-8.6,3.4c-1.5,0.9-3.3,2.4-2.7,4.4
		c0,0,0,0.1,0,0.1c0,0,0,0,0,0c0,0.1,0,0.1,0.1,0.2c0.2,0.5,0.8,0.5,1.2,0.2c0.1,0,0.2,0,0.3-0.1c0.4-0.1,0.9-0.2,1.3-0.2
		c0.5-0.1,1.2-0.2,1.9-0.2c0.9-0.1,1.7-0.2,2.6-0.3c4.6-0.5,9.3-0.8,13.9-1.2c5-0.4,9.9-0.7,14.9-1c3.1-0.2,6.3-0.4,9.4-0.5
		c5.6-0.1,11.1-0.2,16.5-1.9c4.9-1.5,9.2-4.3,12.5-8.2c2-2.2,3.6-4.7,5.1-7.3c1.8-3.1,3.2-6.3,5-9.3c3.5-5.5,8.3-10,14.3-12.7
		c3-1.4,6.2-2.3,9.4-2.8c1.7-0.3,3.5-0.5,5.3-0.5c0.9,0,1.8-0.1,2.7-0.3c1.9-0.5,3.6-1.3,5.3-2.1c2.2-1.1,4.4-2.3,6.5-3.6
		c3.7-2.3,7.4-4.8,10.7-7.8c0.6-0.5,1.9-1.8,2.6-3c0.1,0.2,0.1,0.5,0.1,0.7C257.6,66,257.1,67.3,256.5,68.5z"/>
</g>
</svg>
