<?xml version="1.0" encoding="utf-8"?>
<!-- Generator: Adobe Illustrator 18.1.1, SVG Export Plug-In . SVG Version: 6.00 Build 0)  -->
<!DOCTYPE svg PUBLIC "-//W3C//DTD SVG 1.1//EN" "http://www.w3.org/Graphics/SVG/1.1/DTD/svg11.dtd">
<svg version="1.1" id="Слой_1" xmlns="http://www.w3.org/2000/svg" xmlns:xlink="http://www.w3.org/1999/xlink" x="0px" y="0px"
	 viewBox="0 0 147.2 187.5" enable-background="new 0 0 147.2 187.5" xml:space="preserve">
<g>
	<path fill="#1D1D1B" d="M0,78.9c0.8-2.6,1.6-5.1,2.5-7.7c0.8-2.3,1.7-4.5,3-6.5C6,63.8,6.7,62.8,7.5,62c0.3-0.3,0.7-0.6,1.2-0.7
		c0.2-0.1,0.5-0.1,0.7-0.1c0.1,0,0.3,0,0.4,0c0.1,0.1,0.2,0.3,0.3,0.4c0.1,0.2,0.1,0.5,0,0.7c-0.2,0.1-0.5,0.2-0.7,0.3
		c-0.4,0.3-0.9,0.6-1.2,0.9C7.5,64.2,7,65,6.5,65.8c-0.6,1-1,2.1-1.5,3.1c-0.7,1.4-1.1,2.8-1.7,4.2C4.3,72,5,70.7,5.8,69.4
		c0.8-1.3,1.8-2.5,2.8-3.6c0.3-0.3,2.4-2.9,2.9-1.7c-0.3,0.6-0.7,1.2-1.1,1.7c-0.2,0.3-0.5,0.5-0.7,0.8c-0.1,0.1-0.2,0.2-0.4,0.3
		c-0.1,0,0,0.1,0,0.1c0.1-0.1,0.5-0.1,0.6,0.1c0.2,0.3,0.4,0.6,0.4,0.9c-0.7,0.3-1.4,0.8-1.9,1.3c-1.2,1-2,2.3-2.9,3.6
		c-1,1.5-2,2.9-2.9,4.5c-0.4,0.7-0.8,1.6-1.4,2.2c-0.2,0.2-0.4,0.3-0.7,0.3c-0.2,0-0.3-0.1-0.4-0.2C0,79.4,0,79.1,0,78.9
		C0.8,76.4,0,79.1,0,78.9z"/>
	<path fill="#1D1D1B" d="M47.8,104.6c1.3-2.2,3.2-3.9,4.9-5.8c0.9-1,1.8-1.9,2.7-2.9c0.8-0.9,1.7-1.9,2.2-3c0.2-0.5,0.4-1,0.6-1.5
		c0.2-0.5,0.3-1.1,0.6-1.6c0.1-0.1,0.1-0.2,0.2-0.3c0.1,0.1,0.2,0.1,0.3,0.2c0.1,0.2,0.2,0.4,0.3,0.6c0.1,0.5,0.2,1,0.1,1.6
		c-0.7,2.5-1.4,4.9-1.3,7.5c0,1.3,0.2,2.6,0.1,3.9c-0.1,1.3-0.2,2.5-0.5,3.7c-0.6,2.5-1.6,4.8-2.5,7.2c-1,2.4-1.8,4.9-1.8,7.5
		c0,2.6,0.5,5.3,0.9,7.8c0.2,1.3,0.5,2.5,1,3.8c0.3,0.8,0.6,1.7,1.2,2.4c1,1.2,2.7,1.1,4.1,0.8c0.4-0.1,0.9-0.1,1.3,0
		c0.1,0.1,0.6,0.3,0.4,0.5c-0.1,0.2-0.3,0.3-0.5,0.3c-0.3,0.1-0.7,0.2-1,0.5c-0.2,0.2-0.3,0.2-0.6,0.3c-0.3,0.1-0.5,0.1-0.8,0.2
		c-1.6,0.3-3-0.2-4.1-1.5c-1.4-1.8-2-4.2-2.4-6.3c-0.5-2.5-1.1-4.9-1.2-7.4c0-2.4,0.4-4.9,1.1-7.2c0.8-2.4,2-4.6,2.7-7
		c0.9-2.8,1.1-5.8,0.7-8.8c-1.8,1.7-3.3,3.6-4.7,5.6c-0.7,1-1.4,2-2,3.1c-0.5,0.2-0.5-0.2-0.3-0.5c0.3-0.6,0.6-1.1,0.9-1.6
		c0.6-1,1.3-2,2-3c0.7-0.9,1.6-1.8,2.4-2.6c1.4-1.6,2-3.6,2.1-5.7c0,0,0-0.1,0-0.1c-1.5,1.9-3.3,3.6-5,5.4c-0.8,0.9-1.7,1.8-2.4,2.7
		c-0.4,0.4-0.7,0.9-1.1,1.4c-0.1,0.2-0.3,0.5-0.5,0.5C47.9,105,47.8,104.7,47.8,104.6C48.6,103.3,47.8,105,47.8,104.6z"/>
	<path fill="#1D1D1B" d="M93.2,0.9c2.7,1.2,5,2.9,7.4,4.7c0.6,0.4,1.1,0.8,1.7,1.2c0.3,0.2,0.4,0.4,0.4,0.8c0,0.3-0.3,0.7-0.6,0.6
		c-0.6-0.1-1-0.5-1.4-0.8c-0.5-0.3-1-0.7-1.6-0.9c3.3,9.5,5.1,20.4,1.4,30.1c-0.9,2.3-2,4.5-3.5,6.4c-0.4,0.5-0.8,0.9-1.2,1.4
		c-0.4,0.5-0.8,1-1.3,1.4c-0.3,0.2-0.9,0.7-1.3,0.6c-0.7-0.1-0.4-0.8-0.1-1.1c3.2-2.9,5.4-6.6,6.7-10.7c1.4-4.5,1.6-9.4,1.2-14.1
		c-0.2-2.5-0.7-5.1-1.3-7.6c-0.3-1.2-0.7-2.5-1-3.7C98.3,8,98,6.8,97.4,5.7C97.3,5.4,97.2,5.2,97,5c1.8,4.7,2.4,9.9,1.3,14.8
		c-0.5,2.2-1.3,4.4-2.3,6.4c-0.6,1-1.2,2-1.9,3c-0.6,0.8-1.1,1.8-2.1,2.4c-0.5,0.1-0.7-0.3-0.5-0.8c0.2-0.5,0.6-0.8,0.9-1.2
		c0.7-0.9,1.3-1.9,1.9-2.9c1.1-2,2-4.1,2.5-6.2C98,15.7,97.6,10.6,96,6c-0.4-1.3-0.9-2.7-2.2-3.3c-0.5-0.2-1.2-0.5-1.3-1.1
		C92.5,1.1,92.6,0.8,93.2,0.9C96.6,2.5,92.4,0.7,93.2,0.9z"/>
	<path fill="#1D1D1B" d="M99.9,101.8c0.1,2.7,0.5,5.4,0.1,8.1c-0.4,2.5-1.2,4.8-2.3,7.1c-1.1,2.4-2.3,4.7-3.5,7
		c-0.2,0.3-0.2,0.5-0.6,0.4c-0.1,0-0.3-0.1-0.4-0.2c-0.2-0.3-0.1-0.6-0.2-0.9c0-0.5,0.3-1,0.5-1.5c0.3-0.6,0.6-1.2,0.9-1.8
		c1.2-2.3,2.4-4.6,3.1-7.1c0.7-2.4,0.9-5,0.9-7.5c0-2.4-0.5-4.6-1.5-6.7c-1-2-2.2-3.9-3.5-5.6c-0.6-0.8-1.4-1.6-1.7-2.6
		c-0.1-0.4,0-0.9,0.4-1.1c0.5-0.2,1,0.3,1.2,0.6c0.8,1,1.5,2,2.2,3c0.7,1,1.3,2,2,2.9c0.4,0.4,0.8,0.6,1.2,0.9
		c0.4,0.4,0.7,0.9,1,1.4c0.7,1.1,1.2,2.2,1.8,3.3c0.3,0.5,0.6,1.1,0.8,1.6c0.2,0.5-0.1,1-0.4,1.4c-0.1,0.1-0.1,0.2-0.2,0.2
		c-0.2,0.1-0.2,0.1-0.3,0c-0.1-0.3-0.3-0.6-0.4-0.9c-0.3-0.6-0.6-1.2-0.9-1.9c-0.1-0.2-0.2-0.5-0.4-0.6
		C99.8,101.3,99.9,101.7,99.9,101.8C100,104.3,99.8,101.7,99.9,101.8z"/>
	<path fill="#1D1D1B" d="M102.3,8.1c0.1-0.4,0.2-0.8,0.3-1.2c3.9,2.4,5.5,7.1,5.7,11.5c0.1,1.3,0,2.6-0.1,4c0,1.3,0.1,2.7,0.2,4
		c0.1,2.6,0,5.2-0.9,7.7c-0.4,1.2-0.7,2.5-0.9,3.8c-0.2,1.2-0.3,2.5-0.7,3.7c-0.7,2.2-2.1,4.1-3.4,6c-0.4,0-0.6-0.3-0.7-0.7
		c-0.1-0.5,0-1,0.3-1.4c0.6-1,1.3-1.9,1.8-2.9c0.5-1,0.9-2.2,1-3.3c0.2-1.3,0.3-2.5,0.7-3.7c0.3-1.2,0.7-2.4,0.9-3.7
		c0.3-1.3,0.4-2.6,0.5-3.9c0-1.3,0-2.7-0.1-4c-0.1-1.3-0.1-2.6,0-4c0.1-2.2-0.1-4.4-0.9-6.4c-0.4-1-0.9-2-1.5-2.9
		c-0.3-0.4-0.7-0.9-1-1.3c-0.3-0.3-0.7-0.6-0.9-1.1C102.3,8.3,102.3,8.2,102.3,8.1C102.4,7.7,102.3,8.7,102.3,8.1z"/>
	<path fill="#1D1D1B" d="M25.3,105.3c0.8,1.4,1.1,3,1.3,4.5c0.2,1.7,0.5,3.4,0.7,5c0.2,1.7,0.4,3.3,0.8,5c0.2,0.8,0.4,1.7,0.7,2.5
		c0.3,0.7,0.5,1.5,1.1,2.1c0-0.6,0.1-1.2,0-1.9c0-0.7-0.2-1.4-0.3-2c-0.2-1.3-0.3-2.6-0.5-4c-0.2-1.3-0.4-2.6-0.7-3.9
		c-0.3-1.3-0.2-2.5,0-3.9c0.2-1.3,0.3-2.6,0.5-4c0-0.2-0.1-0.7,0.2-0.8c0.5-0.2,0.6,0.3,0.6,0.7c0.2,1.3,0.7,2.5,1.1,3.8
		c0.4,1.3,0.7,2.6,1.1,3.9c0.3,1.3,0.8,2.6,1,3.9c0.2,1.3-0.1,2.6-0.1,4c-0.1,1.4,0,2.7,0,4.1c0,1.2,0,2.3,0.1,3.5
		c0.1,1.1,0.4,2.2,0.8,3.2c0.2,0.5,0.4,1,0.7,1.5c0.1,0.2,0.3,0.5,0.5,0.7c0.2,0.2,0.4,0.4,0.2,0.7c-0.2,0.3-0.4-0.1-0.5-0.3
		c-0.2-0.2-0.3-0.4-0.5-0.6c-0.3-0.5-0.6-1-0.9-1.5c-0.5-1-0.7-2-0.9-3.1c-0.2-1.8-0.2-3.7-0.2-5.6c0-1,0-2,0.1-3
		c0.1-1,0.2-1.9,0.2-2.9c-0.1-1.9-0.7-3.6-1.2-5.4c-0.5-1.8-1-3.6-1.5-5.4c-0.5,2.5-0.7,5.1-0.3,7.6c0.2,1.3,0.6,2.6,0.7,3.9
		c0.2,1.3,0.3,2.7,0.4,4c0.1,1.3,0.2,2.6,0.2,3.9c0,0.4-0.3,0.8-0.7,0.4c-0.4-0.4-0.6-0.9-0.9-1.4c-1.1-2.2-1.6-4.6-2-7
		c-0.4-2.2-0.6-4.4-0.9-6.6c-0.2-1.1-0.4-2.2-0.7-3.3c-0.1-0.5-0.3-1-0.5-1.5c-0.1-0.3-0.2-0.5-0.3-0.8
		C24.6,105.1,25.1,105.1,25.3,105.3C26.4,107.2,25.1,105.1,25.3,105.3z"/>
	<path fill="#1D1D1B" d="M116.7,155.9c0.6-1.3,1.1-2.6,1.7-3.8c0.5-1.2,0.9-2.3,0.3-3.5c-0.6-1.1-0.9-2.2-0.7-3.5
		c0.1-1.2,0.6-2.5,0.9-3.6c0.4-1.2,0.8-2.4,1.4-3.5c0.5-1.1,1.3-2.1,1.2-3.3c-0.1-1.2-0.9-2.2-1.6-3.2c-0.8-1.1-1.6-2.1-2.4-3.2
		c-0.8-1-1.7-2.1-2.5-3.1c-0.1-0.3-0.2-0.7,0.2-0.9c0.5-0.3,0.9,0,1.3,0.4c0.4,0.3,0.6,0.7,0.9,1.1c0.4,0.5,0.9,1,1.3,1.5
		c0.8,1,1.6,2.1,2.4,3.2c0.7,0.9,1.4,1.9,1.7,3.1c0.3,1.1,0.2,2.2-0.2,3.2c-0.4,1.2-1.2,2.2-1.6,3.3c-0.5,1.1-0.8,2.3-1.1,3.5
		c-0.2,0.7-0.4,1.4-0.4,2.1c0,0.7,0.2,1.4,0.5,2c0.7,1.3,0.7,2.8,0.2,4.2c-0.5,1.4-1.1,2.8-1.8,4.1c-0.3,0.5-0.6,1-1.2,1.2
		C116.5,156.9,116.5,156.4,116.7,155.9C117.4,154.3,116.5,156.4,116.7,155.9z"/>
	<path fill="#1D1D1B" d="M139.1,101.6c1.1,2.5,2.2,4.9,3.4,7.3c1.2,2.3,2.5,4.6,3.4,7c0.8,2.3,1.2,4.7,1.3,7.1c0,1.2,0,2.4-0.1,3.7
		c-0.1,1.2-0.2,2.4-0.6,3.5c-0.3,0.9-0.9,1.7-1.6,2.4c-0.8,0.7-1.8,1.2-2.5,2.1c-0.3,0.3-0.6,0.9-1.1,0.6c-0.3-0.2-0.3-0.6-0.3-0.9
		c0.3-1,1.2-1.7,2.1-2.3c0.8-0.5,1.5-1.3,1.9-2.2c0.4-1,0.5-2.1,0.7-3.2c0.3-2.4,0.2-4.8-0.2-7.2c-0.3-1.6-0.8-3.1-1.5-4.6
		c-0.7-1.6-1.7-3.2-2.4-4.8c-0.8-1.6-1.5-3.3-2.3-4.9C138.8,104.3,137.3,101.7,139.1,101.6C140.7,105.3,138.3,101.6,139.1,101.6z"/>
	<path fill="#1D1D1B" d="M65.4,82.6c0.4-0.4,0.8-0.7,1.3-1.1c-0.4-0.1-0.8,0-1.1,0.1c-0.2,0.1-0.4,0.1-0.6-0.1
		c-0.1-0.1-0.2-0.2-0.2-0.4c0-0.9,1.2-1,1.7-1.4c-1.2-0.7-2.4-1.1-3.4-2c-0.3-0.2-0.9-1.2-0.2-1.2c0.6,0.2,1.1,0.6,1.6,1
		c0.9,0.7,2.1,1.4,3.2,1.5c1.2,0.1,2.3-0.4,3.3-0.9c-0.5-0.3-1.1-0.4-1.7-0.6c-0.6-0.2-1.1-0.4-1.6-0.7c-1-0.5-2-1.1-2.9-1.8
		c-0.4-0.3-0.8-0.7-1.2-1.1c-0.3-0.3-0.9-0.7-1-1.2c-0.1-0.2,0-0.4,0.2-0.5c0.3-0.1,0.4,0,0.6,0.2c0.5,0.3,0.9,0.7,1.3,1.1
		c1.8,1.7,4,2.6,6.3,3.3c0.5,0.2,1.1,0.4,1.7,0.4c0.3,0,0.6-0.1,0.9-0.1c0.4,0,0.5,0.2,0.7,0.5c0.1,0.2,0.4,0.5,0.3,0.7
		c-0.1,0.2-0.2,0.3-0.4,0.5c-0.4,0.3-0.8,0.4-1.2,0.6c-0.5,0.2-0.9,0.4-1.3,0.7c0.9,0.6,1.2,1.3,1.1,2.3c0,0.5-0.2,1-0.4,1.4
		c-0.2,0.4-0.6,0.7-0.6,1.2c0,0.8,1,1,1.7,1c0.3,0,1.5-0.1,1.6,0.3c0.1,0.5-0.3,0.9,0.1,1.3c-1,0.7-2.7,0.3-3.7-0.2
		c-0.6-0.3-1.1-0.8-1.4-1.4c-0.3-0.7-0.1-1.4,0.2-2.1c0.2-0.5,1-1.4,0.5-1.9c-0.6-0.6-1.5,0.2-2,0.4c-0.7,0.3-1.4,0.9-2.1,1.2
		c-0.4,0.2-0.6,0.3-1,0C65.2,83.2,65.2,82.9,65.4,82.6C65.8,82.2,65.1,83.1,65.4,82.6z"/>
	<path fill="#1D1D1B" d="M60.9,137.8c0-0.3,0-0.7,0.3-0.9c0.2-0.1,0.6-0.1,0.8-0.1c0.9,0.1,1.6-0.6,2.1-1.3c0.7-1,1.2-2.1,1.6-3.2
		c0.5-1.2,1-2.3,1.6-3.4c0.4-0.7,1.2-2,2.2-1.4c1,0.6,0.9,2.2,0.7,3.1c-0.4,2.4-1.7,4.4-2.8,6.5c-0.1,0.2-0.3,0.5-0.2,0.7
		c0.1,0.3,0.4,0.5,0.7,0.6c1.1,0.7,2.2,1.4,3.3,2.2c0.5,0.4,1.1,0.7,1.6,1.1c0.2,0.2,0.1,0.4-0.1,0.6c-0.1,0.2-0.4,0.5-0.6,0.4
		c-1.1-0.4-2.1-1.1-3-1.7c-0.9-0.6-1.8-1.2-2.7-1.8c-0.4-0.3-1-0.6-1-1.2c0-0.7,0.5-1.4,0.8-1.9c0.6-1.1,1.2-2.2,1.7-3.3
		c0.4-1,1-2.2,0.8-3.3c-0.7,0.9-1.1,2-1.6,3c-0.5,1.1-1,2.2-1.6,3.2c-0.4,0.7-1,1.7-1.8,2c-0.3,0.1-0.7,0.1-1.1,0.1
		C62.2,137.9,61.6,137.8,60.9,137.8C60.8,136.3,61.4,137.8,60.9,137.8z"/>
	<path fill="#1D1D1B" d="M34.8,134.1c0-0.2,0.1-0.4,0.3-0.5c0.2,0.2,0.4,0.4,0.6,0.7c0.4,0.5,0.8,1,1.2,1.5c0.7,1,1.4,2,2,3
		c0.6,0.9,1.3,2,2.2,2.7c0.3,0.3,0.8,0.5,1.2,0.5c0.4-0.1,0.5-0.5,0.4-0.9c-0.3-1.2-0.9-2.4-1.3-3.6c-0.4-1.2-0.5-2.4-0.5-3.7
		c0-2.7-0.1-5.4,0.1-8.1c0.2-3.9,1-7.7,2.3-11.4c0.6-1.8,1.3-3.5,2-5.2c0.7-1.6,1.2-3.4,2.6-4.6c0.1,0.2,0.2,0.3,0.4,0.3
		c-1.5,1.8-2.3,4-3,6.2c-0.4,1.1-0.7,2.2-1.2,3.3c-0.5,1.2-0.9,2.4-1.3,3.6c-0.7,2.5-1,5-1.2,7.6c-0.2,2.6-0.2,5.3-0.2,7.9
		c0,1,0.1,2,0.2,2.9c0.1,0.9,0.5,1.7,0.8,2.6c0.3,0.7,0.6,1.4,0.8,2.2c0.1,0.8-0.3,1.5-1.2,1.5c-0.7,0-1.5-0.6-2-1.1
		c-0.3-0.3-0.6-0.7-0.8-1c-0.3-0.4-0.6-0.9-1-1.3C37.2,137.5,36,135.8,34.8,134.1C34.8,133.9,36.4,136.4,34.8,134.1z"/>
	<path fill="#1D1D1B" d="M49.5,108.3c0.1,0.2,0.2,0.3,0.4,0.3c-1.3,2.2-2.7,4.2-3.3,6.7c-0.7,2.5-0.8,5.1-1,7.7
		c-0.4,5.5-0.5,11-0.2,16.4c0.1,1.3,0.2,2.7,0.4,4c0.2,1.3,0.4,2.6,0.8,3.8c0.7,2.2,2.2,3.7,3.9,5.2c0.9,0.8,1.8,1.6,2.5,2.6
		c0.1,0.1,0.2,0.2,0.1,0.3c-0.1,0.1-0.2,0.1-0.3,0.1c-0.2,0-0.5-0.4-0.7-0.5c-0.5-0.5-1-0.9-1.5-1.4c-1.7-1.7-3.8-3.3-4.6-5.6
		c-0.4-1-0.5-2.1-0.7-3.2c-0.2-1.3-0.4-2.5-0.5-3.8c-0.3-2.7-0.4-5.4-0.4-8.1c0-2.7,0.1-5.4,0.3-8.1c0.2-2.7,0.4-5.4,0.8-8.1
		C46.2,113.4,47.7,110.8,49.5,108.3C49.6,108.5,47.8,110.7,49.5,108.3z"/>
	<path fill="#1D1D1B" d="M132.3,68.2c0.8,0.9,1.7,1.7,2.6,2.5c0.9,0.7,1.9,1.4,2.8,2.2c0.7,0.7,1.2,1.5,1.4,2.5
		c0.2,1.1-0.2,2.2-0.1,3.3c0.1,1.1,0.6,2.1,0.8,3.2c0.2,0.9,0.2,1.8,0,2.7c-0.4,1.7-1.4,3.2-2.9,4.1c-0.8,0.5-1.7,0.9-2.7,1.1
		c-0.4,0-0.6-0.3-0.6-0.7c0-0.5,0.4-0.8,0.8-0.9c0.9-0.4,1.7-0.7,2.4-1.5c0.6-0.7,1.1-1.6,1.4-2.5c0.2-0.5,0.3-1.1,0.2-1.7
		c-0.1-0.6-0.5-1.2-0.7-1.8c-0.4-1.2-0.6-2.4-0.4-3.6c0.1-0.5,0.3-1.1,0.1-1.6c-0.2-0.5-0.6-0.9-1-1.3c-0.9-0.9-1.8-1.6-2.7-2.5
		c-0.7-0.6-1.4-1.3-1.9-2C131.6,69.2,131.5,68.2,132.3,68.2C133.7,69.9,131.7,68.2,132.3,68.2z"/>
	<path fill="#1D1D1B" d="M141,134.2c0.3,0.3,0.1,0.9,0.7,1c-1.4,4.9-3.4,9.7-4.1,14.8c-0.2,1.1-0.3,2.1-0.9,3.1
		c-0.5,0.9-1.2,1.6-2,2.3c-0.9,0.8-1.8,1.5-2.8,2.2c-0.4,0-0.6-0.3-0.6-0.7c-0.1-0.5,0.2-0.8,0.6-1.1c1.4-1,2.6-2.2,3.4-3.7
		c0.9-1.8,0.9-3.9,1.4-5.8c0.5-2.3,1.4-4.5,2-6.8c0.3-1.1,0.7-2.3,1-3.4C140.1,135.4,140.2,134.4,141,134.2
		C141.3,134.5,140.2,134.4,141,134.2z"/>
	<path fill="#1D1D1B" d="M116.7,155.9c0,0.4,0.1,0.8,0.4,1.1c0.3,0.4,0.1,0.7-0.1,1.1c-0.3,0.4-0.5,0.8-0.8,1.3
		c-0.3,0.5-0.6,0.9-0.9,1.4c-0.9,1.7-0.7,3.5-0.2,5.3c0.4-1.1,0.7-2.3,1.2-3.4c0.4-0.9,0.9-1.8,1.7-2.4c0.3-0.3,0.7-0.4,1.2-0.5
		c0.2,0,0.5-0.1,0.7-0.1c0.3,0,0.4,0.5,0.4,0.7c0,0.3-0.1,0.5-0.4,0.6c-0.2,0.1-0.4,0.2-0.6,0.3c-0.4,0.2-0.7,0.6-1,0.9
		c-0.5,0.7-0.9,1.5-1.1,2.4c-0.1,0.4-0.2,0.8-0.4,1.2c-0.1,0.5-0.2,1-0.3,1.4c-0.3,0.9-1.2,1.2-2,0.6c-0.4-0.3-0.5-0.7-0.7-1.1
		c-0.2-0.6-0.4-1.2-0.5-1.8c-0.3-1.6-0.2-3.3,0.6-4.7c0.4-0.7,0.9-1.4,1.3-2.1C115.7,157.3,116.2,156.6,116.7,155.9
		C116.7,156.3,115.7,157,116.7,155.9z"/>
	<path fill="#1D1D1B" d="M132,54.1c0.9,1,1.8,2,2.6,3c0.8,0.9,1.3,1.8,1.3,3c0,0.5-0.1,1,0,1.6c0.1,0.5,0.3,1.1,0.7,1.5
		c0.8,0.9,0.9,2,0.5,3.1c-0.2,0.6-0.5,1.1-0.7,1.7c-0.2,0.5-0.4,1.3-0.8,1.6c-0.5,0.4-0.8-0.2-1.1-0.5c-0.4-0.5-0.8-1-1.2-1.4
		c-0.4-0.4-0.8-0.9-1.1-1.3c-0.3-0.4-0.8-0.9-0.7-1.5c0-0.2,0.2-0.4,0.3-0.5c0.2-0.1,0.5,0,0.6,0.1c0.4,0.3,0.7,0.8,1,1.1
		c0.3,0.3,0.5,0.6,0.8,0.9c0.2,0.2,0.5,0.7,0.8,0.6c0.3,0,0.4-0.5,0.5-0.7c0.1-0.4,0.3-0.7,0.3-1.1c0.1-0.9-0.5-1.3-0.8-2
		c-0.4-0.6-0.5-1.3-0.5-2c0-0.8,0.3-1.4-0.1-2.1c-0.3-0.6-0.8-1.2-1.2-1.7c-0.4-0.5-1-1-1.4-1.6c-0.2-0.3-0.4-0.6-0.3-1
		C131.5,54.4,131.7,54.2,132,54.1C133,55.2,131.5,54.2,132,54.1z"/>
	<path fill="#1D1D1B" d="M133.8,88.7c0.2,0.3,0.2,0.7,0.5,0.9c-1.1,0.4-2.2,0.8-3.2,1.3c1.5,1.7,3.1,3.3,4.6,5.1
		c0.7,0.9,1.4,1.8,2,2.7c0.3,0.5,0.6,0.9,0.8,1.4c0.1,0.2,0.2,0.5,0.4,0.7c0.1,0.1,0.1,0.3,0.2,0.4c0.1,0.3,0.1,0.2-0.1,0.4
		c-0.2,0.2-0.3,0.3-0.3,0.6c-0.1,0.2,0,0.5-0.3,0.5c-0.4,0-0.6-0.7-0.7-1c-0.5-1.1-1.1-2.1-1.8-3c-1.3-1.9-2.9-3.6-4.5-5.2
		c-0.7-0.8-1.5-1.5-2.3-2.2c-0.6-0.5-1.7-1.6-1-2.4c0.2-0.2,0.4-0.3,0.6-0.2c0.3,0,0.4,0.3,0.6,0.4c0.4,0.3,1,0.4,1.5,0.4
		c0.5-0.1,1-0.2,1.4-0.4C132.7,88.7,133.2,88.4,133.8,88.7C134,89,133.2,88.3,133.8,88.7z"/>
	<path fill="#1D1D1B" d="M25.2,115.3c0.1,1.4,0.3,2.7,0.4,4.1c0.1,0.6,0.1,1.2,0.3,1.7c0.2,0.5,0.6,1,0.9,1.5c1.2,2.2,2.1,4.6,2.8,7
		c0.3,1.1,0.6,2.3,1,3.4c0.4,1.1,1,1.9,1.8,2.7c0.3,0.3,0.4,1.1-0.2,1.1c-0.2,0-0.4-0.2-0.6-0.3c-0.3-0.2-0.6-0.3-0.9-0.5
		c-1.1-0.6-2.2-1.5-3.4-1.7c-2-0.4-4.2,0.8-5.9,1.7c-0.9,0.5-1.8,1-2.7,1.5c-0.4,0-0.4-0.4-0.1-0.6c0.5-0.3,0.9-0.6,1.4-0.9
		c0.9-0.5,1.8-1,2.8-1.4c1-0.4,2-0.9,3.1-1c0.9-0.1,1.9,0,2.8,0.4c0.9,0.4,1.7,0.9,2.6,1.4c-1-1.6-1.5-3.4-2-5.2
		c-0.2-0.8-0.5-1.7-0.7-2.5c-0.3-0.9-0.7-1.7-1.1-2.6c-0.4-0.9-0.8-1.8-1.3-2.6c-0.5-0.8-0.7-1.6-0.8-2.6c-0.1-0.9-0.3-1.9-0.4-2.8
		c0-0.3,0-0.5,0-0.8c0-0.3-0.1-0.4-0.1-0.7C24.6,115.3,24.9,114.8,25.2,115.3C25.3,117,25.1,115.1,25.2,115.3z"/>
	<path fill="#1D1D1B" d="M93.4,123.3c0,0.5,0.1,1,0.6,1.2c-1.1,2.4-2.3,4.8-3.3,7.3c-0.5,1.2-1,2.5-1.4,3.7c-0.3,1-1,1.8-2,2.3
		c-1.2,0.6-2.4,1.1-3.5,1.6c-0.2,0.1-0.4,0.2-0.6,0.4c-0.2,0.2-0.2,0.4-0.5,0.2c-0.4-0.2-0.3-0.7-0.3-1c0.4-0.9,1.7-1.4,2.6-1.7
		c1-0.4,2-0.8,2.6-1.7c0.6-0.9,0.8-2,1.2-3c0.4-1.2,0.9-2.4,1.4-3.5c0.5-1.2,1-2.3,1.6-3.5c0.2-0.5,0.5-1,0.7-1.5
		C92.7,123.6,93,123.3,93.4,123.3C93.4,123.7,92.7,123.3,93.4,123.3z"/>
	<path fill="#1D1D1B" d="M92.2,60.7c-0.8,0.9-1.8,1.6-2.7,2.2c-1.1,0.7-2.1,1.4-3.2,2.2c-0.3,0.2-0.5,0.4-0.8,0.6
		c-0.1,0.2,0,0.4,0.2,0.2c0.6-0.3,1.3-0.6,1.9-0.9c0.1-0.1,0.3-0.1,0.4-0.2c0.1,0.1,0.2,0.2,0.2,0.3c0.1,0.2,0.2,0.4,0.2,0.6
		c0,0.5-0.7,0.9-1.1,1.1c-0.9,0.6-1.9,0.9-2.7,1.4c-0.7,0.5-2,1.4-2.4,0.2c-0.3-0.9,0-1.9,0.7-2.5c0.9-0.8,1.9-1.6,3-2.3
		c1.2-0.8,2.4-1.7,3.6-2.5c0.5-0.4,1.1-0.9,1.7-1.2C91.9,59.4,92,60.1,92.2,60.7C91,62,92.1,60.3,92.2,60.7z"/>
	<path fill="#1D1D1B" d="M101.8,104.9c0.2-0.2,0.2-0.6,0.4-0.8c0.4-0.4,0.9,0.4,1.1,0.7c0.6,0.9,0.8,1.9,1.2,2.8
		c0.5,1.2,1.1,2.4,1.6,3.6c0.5,1.1,1,2.2,1.7,3.3c0.7,1,1.4,1.9,2.2,2.9c0.3,0.4,0.7,0.7,0.8,1.2c0.1,0.4-0.3,0.9-0.7,1.1
		c-0.2,0.1-1-0.9-1.2-1.1c-0.4-0.4-0.8-0.9-1.1-1.4c-0.7-0.9-1.3-1.9-1.9-2.9C104.2,111.2,103.1,108,101.8,104.9
		C102.1,104.6,103.9,110.1,101.8,104.9z"/>
	<path fill="#1D1D1B" d="M92.2,60.7c-0.5-0.3-0.6-1.2-0.3-1.6c0.2-0.3,0.5-0.5,0.8-0.8c0.3-0.3,0.6-0.6,0.9-1c1.1-1.4,2-2.9,3.1-4.4
		c1.1-1.4,2.2-2.8,3.2-4.2c0.3-0.4,0.5-0.7,0.8-1.1c0.2-0.3,0.4-0.7,0.7-0.9c0.7-0.5,0.6,0.7,1.1,0.8c-1.7,2.4-3.4,4.7-5.2,7.1
		c-0.8,1.2-1.7,2.3-2.5,3.5c-0.4,0.5-0.7,1-1.2,1.4C93.1,60,92.6,60.3,92.2,60.7C91.8,60.5,92.8,60,92.2,60.7z"/>
	<path fill="#1D1D1B" d="M25.2,115.3c-0.8-0.1-0.2,0.4-0.4,0.7c-0.3-1.3-0.5-2.6-0.8-3.8c-0.3-1.3-0.7-2.5-1.2-3.7
		c-1-2.4-2.1-4.6-3.3-6.9c-0.6-1.1-1.1-2.3-1.6-3.4c-0.1-0.2-0.1-0.5,0.1-0.6c0.2-0.1,0.5,0.1,0.6,0.3c0.5,0.4,0.9,0.8,1.4,1.2
		c1.7,1.6,3.4,3.2,4.7,5.2c0.2,0.3,0.4,0.6,0.6,1c-0.1,0-0.3,0-0.4,0c-0.2,0-0.3-0.2-0.4-0.3c-0.2-0.3-0.4-0.5-0.6-0.8
		c-0.4-0.5-0.9-1.1-1.4-1.6c-0.9-1-1.9-2-3.1-2.7c0.6,1.3,1.2,2.6,1.8,3.9c0.6,1.3,1.3,2.5,1.8,3.8C24.1,110,24.9,112.6,25.2,115.3
		C24.4,115.2,24.8,111.5,25.2,115.3z"/>
	<path fill="#1D1D1B" d="M27.8,70.1c-0.4-0.2-0.8-0.7-1.2-1c-0.4-0.3-0.9-0.6-1.4-0.9c-0.9-0.5-1.9-0.8-2.9-1
		c-0.5-0.1-1-0.1-1.5-0.2c-0.3,0-0.5,0-0.8,0c-0.2,0-0.7,0.1-0.9-0.1c-0.3-0.4-0.4-1-0.2-1.4c0.3-0.5,0.9-0.8,1.3-1.1
		c2-1.5,4-2.9,6.2-4.1c0.5-0.3,1.1-0.5,1.6-0.8c0.5-0.2,1.1-0.6,1.7-0.6c0.3,0,0.6,0,0.6,0.4c0,0.2-0.1,0.4-0.3,0.5
		c-0.5,0.3-1.1,0.4-1.6,0.7c-2.9,1.3-5.4,3.1-7.9,5c0.9,0.3,1.9,0.1,2.9,0.2c0.8,0.1,1.7,0.6,2.4,1c0.7,0.4,1.4,1,2,1.6
		c0.2,0.2,0.8,0.8,0.7,1C28.4,69.7,28.1,69.9,27.8,70.1C27.7,70,28.2,69.9,27.8,70.1z"/>
	<path fill="#1D1D1B" d="M18.4,137c0,0.2,0.1,0.4,0.2,0.5c-1,0.6-1.8,1.4-2.6,2.3c-0.8,0.9-1.4,1.9-2.2,2.8
		c-0.6,0.7-1.5,1.2-2.4,1.1c-1.2-0.1-2.2-0.7-3.4-0.6c1.3,1.6,3.2,2.4,5.2,2.4c1,0,2.1,0,2.9-0.8c0.1-0.1,0.3-0.5,0.5-0.5
		c0.2,0,0.3,0.1,0.4,0.3c-0.3,0.4-0.6,0.8-1.1,1.1c-0.8,0.5-1.7,0.6-2.5,0.5c-0.9,0-2,0-2.9-0.3c-1.1-0.4-2-1.4-2.9-2.1
		c-0.5-0.4-1-0.8-1.5-1.1c-0.1-0.1-0.4-0.2-0.4-0.4c0-0.3,0.2-0.4,0.5-0.3c1.3,0.3,2.6,0.6,3.9,1c1.1,0.3,2.2,0.6,3.1-0.4
		C14.9,140.5,16.1,138.2,18.4,137C18.5,137.2,17.2,137.6,18.4,137z"/>
	<path fill="#1D1D1B" d="M65.8,169.3c3.5,3.7,7.1,7.4,11,10.8c1.9,1.7,3.9,3.4,6,4.9c0.5,0.4,1,0.8,1.6,1.1c0.3,0.2,0.5,0.4,0.8,0.6
		c0.2,0.1,0.5,0.2,0.5,0.4c0.1,0.2-0.1,0.4-0.3,0.4c-0.2,0-0.4-0.2-0.6-0.3c-0.6-0.4-1.1-0.8-1.7-1.2c-3.5-2.5-6.8-5.3-9.8-8.3
		c-1.5-1.5-3-3-4.5-4.5c-0.7-0.7-1.5-1.5-2.1-2.2c-0.3-0.4-0.7-0.8-1-1.2c-0.1-0.1-0.3-0.3-0.2-0.5
		C65.5,169.1,65.7,169.2,65.8,169.3C71,174.8,65.5,169.1,65.8,169.3z"/>
	<path fill="#1D1D1B" d="M93.2,0.9c-0.4,0-0.5,0.3-0.5,0.7c0,0.6-0.8,0.3-1.2,0.2c-1-0.4-2.4-0.8-3.5-0.6c-1.1,0.2-1.1,1.2-1.3,2
		c-0.3,0.9-0.8,2-1.8,2.2c-0.9,0.1-1.9-0.6-2.4-1.2c-0.3-0.3-0.4-0.8-0.2-1.2c0.1-0.2,0.3-0.4,0.5-0.2C83,3,83.2,3.1,83.4,3.3
		c0.3,0.2,0.9,0.7,1.3,0.4c0.5-0.4,0.6-1.3,0.8-1.8c0.2-0.5,0.3-1.1,0.7-1.6c0.5-0.6,1.3-0.6,2-0.6C90-0.3,91.6,0.1,93.2,0.9
		C92.6,1,91.9,0.2,93.2,0.9z"/>
	<path fill="#1D1D1B" d="M57.9,83.1c-1.2,0.4-2.6,0.3-3.9,0.2c-1.3-0.1-2.5-0.2-3.7-0.4c-1.2-0.2-2.4-0.6-3.6-1
		c-0.6-0.2-1.1-0.4-1.7-0.7c-0.3-0.1-0.4-0.3-0.5-0.6c0-0.3,0.1-0.5,0.3-0.7c0.6-0.2,1.1,0.1,1.7,0.3c0.6,0.2,1.3,0.4,1.9,0.6
		c1.2,0.4,2.5,0.6,3.7,0.8c1.3,0.2,2.6,0.2,3.8,0.2c0.6,0,1.3-0.2,1.8-0.1c0.2,0,0.5,0.2,0.4,0.4c-0.1,0.2-0.4,0.3-0.5,0.6
		C57.9,82.8,57.9,83,57.9,83.1C56.6,83.5,57.8,82.8,57.9,83.1z"/>
	<path fill="#1D1D1B" d="M101.8,54.4c1.8-1.4,3.8-2.7,6-3.6c1.1-0.5,2.1-0.9,3.3-1.2c0.5-0.1,1.1-0.3,1.6-0.4
		c0.3-0.1,0.6-0.1,0.8-0.1c0.1,0,0.3,0,0.4-0.1c0.1,0.1,0.2,0.3,0.2,0.5c0.2,1.3-1.6,1.3-2.4,1.5c-1.2,0.3-2.3,0.7-3.4,1.2
		c-1.1,0.5-2.1,1.1-3.2,1.7c-0.5,0.3-1,0.6-1.5,0.9c-0.4,0.3-0.8,0.6-1.3,0.6C101.8,55.5,101.7,54.9,101.8,54.4
		C105.4,51.6,101.7,54.9,101.8,54.4z"/>
	<path fill="#1D1D1B" d="M101.8,54.4c0.2,0.3,0.2,0.7,0.5,0.9c0.1,0.5-0.7,0.9-1,1.2c-0.9,0.8-1.9,1.6-2.8,2.4
		c-0.9,0.8-1.9,1.6-2.9,2.3c-0.9,0.7-2,1.3-2.9,2.1c-0.4,0.3-0.8,0.4-1.1-0.1c-0.3-0.6,0.3-1,0.7-1.3c1-0.8,2.1-1.6,3.1-2.5
		C97.6,57.7,99.7,56.1,101.8,54.4C102,54.7,98.5,57,101.8,54.4z"/>
	<path fill="#1D1D1B" d="M18.9,65.8c0.1,0.2,0.2,0.5,0.2,0.8c0,0.1,0,0.3,0,0.4c-0.2,0-0.3,0-0.5,0c-0.7,0-1.4,0-2.1,0
		c-1.3,0.1-2.7,0.2-4,0.4c-0.6,0.1-1.2,0.2-1.8,0.4c-0.3,0.1-0.5,0.2-0.7-0.1c-0.1-0.2-0.3-0.6-0.2-0.8c0.2-0.4,0.6-0.5,1-0.6
		c0.5-0.1,1-0.2,1.5-0.4c2.1-0.7,4-2.1,5.8-3.5c0.4-0.3,0.7-0.6,1.2-0.6c0.2,0,0.4,0.1,0.5,0.4c0.1,0.3-0.2,0.5-0.4,0.8
		c-0.7,0.8-1.5,1.4-2.4,1.9c-0.5,0.3-1,0.6-1.5,0.9C16.6,65.4,17.9,65.4,18.9,65.8C19.1,66.2,18,65.4,18.9,65.8z"/>
	<path fill="#1D1D1B" d="M82.7,138.9c0,0.3,0,0.5,0.1,0.7c0.1,0.1,0.1,0.2,0.2,0.3c0.1,0.1,0.1,0.2,0,0.3c-0.2,0.5-0.5,1-0.9,1.4
		c-0.6,0.9-1.5,1.7-2.4,2.2c-1,0.6-2.2,0.6-3.3,0.3c-1.3-0.3-2.5-0.8-3.7-1.3c-0.1-0.1-0.3-0.1-0.3-0.2c0-0.1,0-0.2,0.1-0.3
		c0.1-0.2,0.2-0.3,0.3-0.4c0.5-0.3,1-0.2,1.5,0c0.9,0.3,1.9,0.6,2.8,0.8c1.5,0.2,2.6-0.5,3.5-1.7c0.3-0.4,0.7-0.9,0.9-1.4
		C81.8,139.3,82.1,138.9,82.7,138.9C82.6,139.3,81.8,138.9,82.7,138.9z"/>
	<path fill="#1D1D1B" d="M120.2,160.8c-0.1-0.3-0.1-0.6-0.2-0.9c-0.1-0.3,0.2-0.5,0.5-0.6c0.4-0.2,0.9-0.2,1.4-0.3
		c1.3-0.3,2.7-0.3,4.1-0.5c1.2-0.2,2.4-0.4,3.5-0.9c0.3-0.1,0.5-0.3,0.7-0.4c0.3-0.2,0.5-0.4,0.8-0.5c0.7-0.2,0.5,0.7,0.9,1
		c-1.4,1.4-3.3,2-5.1,2.3C124.7,160.2,122.4,160.5,120.2,160.8C120.2,160.5,122,160.5,120.2,160.8z"/>
	<path fill="#1D1D1B" d="M45.1,80c-0.4,0.2-0.2,0.6-0.3,1c-2.1-0.8-4.1-1.8-6-3c-0.9-0.6-1.8-1.2-2.7-1.8c-0.4-0.3-0.9-0.6-1.3-1
		c-0.2-0.2-0.5-0.3-0.6-0.6c-0.1-0.2,0-0.4,0.1-0.5c0.7-0.8,2,0.4,2.6,0.8c1,0.7,2,1.3,3,1.9c1,0.6,2,1.1,3,1.6
		c0.5,0.2,1,0.5,1.5,0.7C44.7,79.4,45.1,79.6,45.1,80C44.7,80.3,45.1,79.5,45.1,80z"/>
	<path fill="#1D1D1B" d="M124.9,57.7c-0.6-0.4-1.1-1-1.8-1.3c-0.7-0.3-1.3-0.1-1.9,0.4c0.9,0.1,1.8,0.5,2.6,1.1
		c0.3,0.3,0.6,0.6,0.9,1c0.1,0.2,0.3,0.4,0.4,0.6c0.2,0.2,0.2,0.3,0.1,0.6c-0.1,0.3-0.5,0.9-0.8,0.6c-0.4-0.4-0.8-0.7-1.2-1.1
		c-0.9-0.7-1.7-1.2-2.8-1.6c-0.8-0.3-0.9-1.3-0.5-1.9c0.4-0.7,1.3-1.2,2.1-1.3c0.8-0.1,1.7,0.1,2.3,0.6c0.4,0.3,0.7,0.6,0.9,0.9
		c0.2,0.3,0.2,0.4,0.1,0.7C125.3,57.3,125.1,57.5,124.9,57.7C124.3,57.3,125.3,57.4,124.9,57.7z"/>
	<path fill="#1D1D1B" d="M36,142.1c4,2.8,7.4,6.3,10.6,10c0.8,0.9,1.6,1.8,2.4,2.8c0.4,0.4,0.8,0.9,1.1,1.3c0.2,0.2,0.4,0.4,0.5,0.7
		c0.1,0.1,0.1,0.2,0.2,0.4c0.1,0.2,0,0.2,0,0.4c-0.1,0.4-0.3,0-0.5-0.1c-0.2-0.2-0.4-0.5-0.6-0.7c-0.5-0.5-0.9-1.1-1.4-1.6
		c-0.9-1-1.7-2-2.6-3c-1.7-1.9-3.4-3.8-5.3-5.6c-0.9-0.9-1.9-1.7-2.9-2.5c-0.5-0.4-1-0.8-1.4-1.2c-0.2-0.2-0.4-0.3-0.4-0.5
		C35.6,142.1,35.9,142.1,36,142.1C41.6,146,35.6,142.1,36,142.1z"/>
	<path fill="#1D1D1B" d="M132,54.1c-0.1,0.3-0.3,0.6-0.4,0.9c-0.1,0.2-0.4,0.2-0.6,0.1c-0.4-0.3-0.8-0.8-1.2-1.1
		c-0.8-0.8-1.6-1.7-2.6-2.3c-0.9-0.6-2-0.9-3-1.2c-0.7-0.2-2.2-0.3-1.9-1.4c0.1-0.3,0.4-0.4,0.7-0.3c0.5,0.1,1,0.2,1.4,0.3
		c1,0.2,2,0.5,2.9,1c1.8,0.9,3.4,2.3,4.6,3.9C131.9,53.9,131.9,54,132,54.1C131.8,54.4,129.8,51.1,132,54.1z"/>
	<path fill="#1D1D1B" d="M124.7,60.7c0.2-0.3,0.3-0.7,0.5-0.9c0.2-0.1,0.4,0.3,0.5,0.4c0.2,0.2,0.3,0.4,0.5,0.6
		c0.7,0.8,1.3,1.6,2,2.5c1.3,1.6,2.7,3.3,4.1,4.8c-0.4,0.2-0.4,0.6-0.4,1c-0.8-0.2-1.3-0.8-1.8-1.4c-0.6-0.8-1.4-1.5-2-2.3
		c-0.7-0.8-1.4-1.7-2.1-2.6c-0.3-0.4-0.6-0.8-0.9-1.2C124.9,61.4,124.6,61.1,124.7,60.7C124.9,60.4,124.5,61.2,124.7,60.7z"/>
	<path fill="#1D1D1B" d="M124.9,57.7c0-0.4,0.1-0.8,0.5-1c0.5,0,0.9,0.3,1.2,0.7c0.8,0.8,1.6,1.7,2.4,2.6c0.8,0.9,1.5,1.8,2.3,2.7
		c0.3,0.3,0.8,0.7,0.8,1.2c0,0.3-0.2,0.4-0.3,0.7c-0.1,0.2-0.2,0.5-0.2,0.7C129.3,62.7,127.1,60.2,124.9,57.7
		C124.9,57.3,127.1,60.2,124.9,57.7z"/>
	<path fill="#1D1D1B" d="M65.8,169.3c-0.2,0-0.3,0.1-0.4,0.2c-1.9-1.9-3.6-3.9-5.4-5.8c-1.8-2-3.6-4-5.3-6c-0.4-0.5-0.8-1-1.3-1.5
		c-0.2-0.2-0.4-0.5-0.6-0.7c0-0.1,0.1-0.2,0.2-0.2c0.2-0.1,0.3,0,0.4,0.2c0.9,1,1.8,2,2.8,3.1c1.8,2,3.7,4.1,5.5,6.1
		C63.1,166.2,64.4,167.7,65.8,169.3C65.6,169.3,64.9,168.2,65.8,169.3z"/>
	<path fill="#1D1D1B" d="M50.7,157.8c0-0.2,0.1-0.6,0.3-0.3c0.2,0.3,0.4,0.5,0.6,0.8c0.5,0.6,0.9,1.1,1.4,1.7
		c0.9,1.1,1.8,2.1,2.6,3.2c1.8,2.1,3.5,4.2,5.3,6.4c0.4,0.5,0.8,1,1.3,1.5c0.3,0.4,1,0.9,0.8,1.5c-0.1,0.3-0.4-0.2-0.6-0.3
		c-0.2-0.2-0.4-0.5-0.6-0.7c-0.5-0.5-0.9-1-1.3-1.5c-1.7-2-3.3-4.1-4.9-6.1C53.8,161.8,52.2,159.8,50.7,157.8
		C50.7,157.6,52.1,159.7,50.7,157.8z"/>
	<path fill="#1D1D1B" d="M65.4,82.6c0,0.2,0.1,0.4,0.2,0.6c0.1,0.2,0.3,0.3,0.3,0.5c0.1,0.4-0.5,0.7-0.8,0.9
		c-0.7,0.6-1.5,1.2-2.1,1.9c-0.7,0.7-1.3,1.4-1.8,2.1c-0.3,0.4-0.5,0.7-0.7,1.1c-0.2,0.4-0.4,0.9-0.8,1.1c-0.3-0.3-0.3-0.8-0.4-1.2
		c-0.1-0.3,0-0.4,0.1-0.6c0.1-0.2,0.2-0.5,0.3-0.7c0.4-0.8,1-1.5,1.6-2.1c0.6-0.6,1.3-1.2,1.9-1.8C63.8,83.8,64.6,83.2,65.4,82.6
		C65.4,83,64.8,83,65.4,82.6z"/>
	<path fill="#1D1D1B" d="M62.8,172.6c0.1-0.2,0.1-0.3,0.2-0.5c3.6,3.9,7.4,7.5,11.4,11c0.2,0.2,0.4,0.4,0.6,0.5
		c0.1,0.1,0.3,0.2,0.4,0.4c0.1,0.2-0.1,0.4-0.3,0.4c-0.2,0.1-0.5-0.2-0.6-0.4c-0.9-0.9-2-1.7-2.9-2.6c-1.9-1.8-3.8-3.6-5.6-5.5
		c-0.6-0.6-1.1-1.1-1.7-1.7c-0.3-0.3-0.5-0.5-0.8-0.8C63.2,173.3,63,172.9,62.8,172.6C62.9,172.4,63,172.9,62.8,172.6z"/>
	<path fill="#1D1D1B" d="M123.3,48.8c-0.6-0.1-1,0.1-1,0.8c0.1,0.7-1.7,0.5-2.1,0.5c-1,0-1.9,0-2.9,0c-0.5,0-1,0.1-1.4,0.1
		c-0.5,0.1-1,0.2-1.5,0.2c-0.2,0-0.3-0.1-0.4-0.2c-0.2-0.1-0.1-0.5-0.1-0.7c0-0.2-0.1-0.5,0.2-0.5c0.3-0.1,0.5-0.1,0.8-0.1
		c0.9-0.2,1.9-0.3,2.8-0.4c1-0.1,1.9-0.1,2.9-0.1c0.5,0,1,0.1,1.4,0.1C122.4,48.6,123,48.5,123.3,48.8
		C122.6,48.7,123,48.5,123.3,48.8z"/>
	<path fill="#1D1D1B" d="M36,142.1c-0.2,0.1-0.3,0.3-0.3,0.5c-0.9-0.7-1.8-1.2-2.9-1.5c-0.5-0.1-1-0.2-1.6-0.2c-0.5,0-1,0.2-1.4-0.1
		c-0.3-0.2-0.5-0.5-0.9-0.6c-0.6-0.1-1.3-0.2-1.9-0.3c-1.2-0.1-2.5-0.1-3.6,0.4c-0.6,0.2-1,0.5-1.7,0.4c-0.4,0.2-0.6,0-0.5-0.4
		c1.3-0.1,2.3-0.7,3.5-1c1.2-0.3,2.4-0.2,3.6,0.1c1.2,0.3,2.4,0.7,3.6,0.8c0.8,0.1,1.5,0.2,2.2,0.6C34.9,141.2,35.5,141.6,36,142.1
		C35.8,142.2,35,141.3,36,142.1z"/>
	<path fill="#1D1D1B" d="M34.7,74c-0.2,0.3-0.4,0.6-0.4,1c-1.4-0.9-2.8-1.9-4.1-2.9c-0.7-0.5-1.3-1-2-1.6c-0.2-0.1-0.3-0.3-0.5-0.4
		c0.1-0.1,0.1-0.2,0.2-0.3c0.1-0.2,0.3-0.4,0.6-0.4c0.6,0.1,1.1,0.5,1.6,0.9c0.5,0.5,1.2,0.8,1.7,1.2c0.6,0.5,1.3,1,1.9,1.4
		C34.1,73.1,35,73.5,34.7,74C34.5,74.3,34.9,73.6,34.7,74z"/>
	<path fill="#1D1D1B" d="M57.9,83.1c-0.2-0.1-0.6-0.4-0.5-0.6c0-0.2,0.3-0.2,0.5-0.3c0.2,0,0.4-0.1,0.5-0.2c0.3-0.5,0.9-0.5,1.4-0.6
		c1.2-0.2,2.3-0.4,3.5-0.7c0.3-0.1,0.5-0.1,0.8-0.2c0.3-0.1,0.5-0.2,0.8-0.1c0.1,0,0.2,0.1,0.3,0.2C65.1,80.7,65,80.8,65,81
		c-0.1,0.3,0,0.5,0.2,0.8C62.8,82.5,60.4,83,57.9,83.1C56.6,82.2,60.4,83,57.9,83.1z"/>
	<path fill="#1D1D1B" d="M110,119.5c0.2-0.3,0.3-0.6,0.5-0.9c0.3-0.2,0.8,0.3,1,0.5c0.6,0.6,1.2,1.3,1.7,1.9c0.7,0.8,1.3,1.5,2,2.3
		c0.1,0.1,0.3,0.3,0.4,0.5c0.1,0.3-0.1,0.3-0.3,0.4c-0.3,0.2-0.4,0.5-0.4,0.8C113.2,123.3,111.6,121.4,110,119.5
		C110.2,119.2,111.6,121.4,110,119.5z"/>
	<path fill="#1D1D1B" d="M91.8,62.3c0.1,0.4,0.3,1,0.2,1.4c-0.1,0.4-0.5,0.5-0.7,0.7c-0.7,0.4-1.3,1-2.1,1.2
		c-0.2,0.1-0.4,0.1-0.6,0.1c-0.1,0-0.2,0-0.2,0c-0.2,0-0.2-0.2-0.2-0.3c-0.1-0.3-0.1-0.5-0.2-0.8c0.3-0.2,0.6-0.3,0.8-0.5
		C89.8,63.5,90.8,62.9,91.8,62.3C91.8,62.7,90.5,63.1,91.8,62.3z"/>
	<path fill="#1D1D1B" d="M21.3,140.4c0,0.3,0.2,0.4,0.5,0.4c-0.2,0.2-0.5,0.2-0.8,0.2c-0.3,0-0.6,0.1-0.9,0.2
		c-0.5,0.1-1,0.4-1.4,0.7c-0.4,0.4-0.6,0.9-0.8,1.4c-0.1,0.3-0.3,0.6-0.5,0.9c-0.1,0.1-0.2,0.2-0.4,0.3c-0.2-0.1-0.4-0.2-0.5-0.3
		c0.2-0.3,0.4-0.5,0.5-0.7c0.2-0.3,0.2-0.6,0.3-0.9c0.2-0.5,0.5-0.9,0.9-1.3C19.1,140.7,20.2,140.4,21.3,140.4
		C21.3,140.7,19.3,140.5,21.3,140.4z"/>
	<path fill="#1D1D1B" d="M59,27.3c2.8,1.3,5.4,3,7.6,5.2c0-2.6,0.1-5.1,0.2-7.7c0-2.7,0.2-5.5,0-8.2c-0.1-1.3-0.3-2.6-0.1-3.9
		c0.2-0.9,0.4-1.8,0.9-2.6c0.4-0.8,1-1.5,1.7-2c0.4-0.3,0.7-0.5,1.1-0.7c0.2-0.1,0.4-0.2,0.7-0.3c0.1-0.1,0.2-0.1,0.3,0
		c0.1,0.1,0.2,0.2,0.3,0.3c0.7,1.1-1.2,1.6-1.8,2.1c-0.7,0.6-1.2,1.4-1.5,2.3c-0.3,1-0.2,2-0.2,3c0.1,1.4,0.1,2.8,0.1,4.1
		c0,2.7,0,5.5,0,8.2c0,1.4,0,2.7-0.1,4.1c0,0.6-0.2,1.2-0.2,1.8c0.1,0.6,0.4,1.1,0.7,1.5c0.5,0.6,0.9,1.2,0.4,2
		c-0.2,0.3-0.5,0.6-0.8,0.5c-0.3-0.1-0.5-0.6-0.7-0.8c-1-1.4-2.2-2.6-3.4-3.7c-1.3-1.1-2.7-2-4.1-2.9c-0.5-0.3-1.5-0.6-1.7-1.3
		c-0.1-0.2,0-0.5,0-0.7C58.5,27.2,58.8,27.2,59,27.3C61.7,28.6,58.2,27.1,59,27.3z"/>
	<path fill="#1D1D1B" d="M18.4,50.4c-1.8-0.2-3.4-1.2-4.3-2.8c-0.9-1.9-0.5-3.9,0.1-5.8c0.7-2.2,1.9-4.1,3.3-5.9
		c0.2-0.2,0.3-0.4,0.5-0.7c0.1-0.1,0.2-0.2,0.3-0.3c0.1-0.2,0.2-0.1,0.3,0.1c0.3,0.4,0.5,1,0.3,1.5c-0.2,0.5-0.5,0.9-0.8,1.3
		c-0.3,0.5-0.7,1.1-1,1.6c-1.3,2.1-2.6,4.9-1.7,7.4c0.3,0.8,0.8,1.3,1.6,1.7c0.5,0.2,1,0.4,1.5,0.6c0.2,0.1,0.5,0.3,0.4,0.5
		C18.9,49.9,18.7,50.2,18.4,50.4C15.2,50.1,18.7,50.1,18.4,50.4z"/>
	<path fill="#1D1D1B" d="M59,27.3c-0.4,0.1-0.4,0.5-0.4,0.8c0,0.6-1.3-0.1-1.6-0.1c-1.2-0.4-2.5-0.8-3.8-1.2
		c-1.3-0.4-2.5-0.8-3.7-1.3c-1.1-0.4-1.9-1.2-2.6-2c-0.8-1-1.7-1.9-2.5-2.9c-0.2-0.2-0.2-0.4-0.1-0.6c0-0.2,0.1-0.4,0.3-0.5
		c0.3-0.2,0.4-0.1,0.6,0c0.3,0.2,0.5,0.4,0.7,0.6c0.8,0.7,1.4,1.6,2.1,2.4c0.7,0.8,1.6,1.4,2.6,1.8c1.3,0.5,2.8,0.9,4.1,1.3
		C56.2,26.1,57.8,26.5,59,27.3C58.4,27.4,58.9,27.2,59,27.3z"/>
	<path fill="#1D1D1B" d="M18.9,35.9c-0.2-0.2-0.3-0.5-0.3-0.8c0-0.1-0.1-0.3-0.1-0.4c0.1-0.1,0.2-0.2,0.3-0.4
		c0.4-0.5,0.7-1.1,1.1-1.6c0.7-1,1.5-2,2.3-2.9c1.6-1.9,3.4-3.6,5.2-5.3c0.4-0.3,0.7-0.7,1.1-1c0.2-0.2,0.4-0.3,0.6-0.4
		c0.3,0.1,0.5,0.3,0.6,0.5c0.2,0.2,0.2,0.4,0,0.6c-0.1,0.2-0.3,0.4-0.4,0.5c-0.4,0.4-0.9,0.7-1.3,1.1c-1.9,1.7-3.6,3.5-5.2,5.4
		c-0.7,0.8-1.4,1.7-2.1,2.6C20.2,34.7,19.7,35.6,18.9,35.9C18.6,35.6,19.6,35.6,18.9,35.9z"/>
	<path fill="#1D1D1B" d="M18.4,50.4c0-0.3-0.1-0.7,0.2-0.9c0.2-0.1,0.4-0.1,0.6-0.3c0.2-0.1,0.4-0.3,0.6-0.5
		c0.6-0.7,0.8-1.7,1.3-2.5c1-1.6,2.5-2.8,4.3-3.4c0.5-0.1,0.9-0.3,1.4-0.3c0.4-0.1,1.2-0.3,1.4,0.3c0.4,1.2-1.4,1.5-2.2,1.7
		c-0.9,0.3-1.8,0.8-2.5,1.6C22.7,47,22.3,48,21.8,49c-0.5,0.9-1,1.8-1.6,2.7c-0.3,0.5-1,1.9-1.8,1.5c-0.6-0.3-0.2-1.4,0.1-1.7
		c0.1-0.2,0.6-0.5,0.4-0.8C18.9,50.5,18.6,50.5,18.4,50.4z"/>
	<path fill="#1D1D1B" d="M71.7,7.9c-0.2-0.1-0.3-0.3-0.4-0.5c0-0.1-0.1-0.2-0.1-0.3c0-0.2,0.1-0.2,0.2-0.2c0.5-0.3,0.9-0.7,1.3-1.1
		c0.7-0.8,1-1.7,1.6-2.5c1.1-1.5,2.7-2,4.5-1.5c1.1,0.3,2.3,0.3,3.4,0.8c0.1,0.1,0.3,0.1,0.4,0.2c-0.1,0.1-0.1,0.2-0.2,0.4
		c-0.1,0.2,0,0.6-0.2,0.7c-0.3,0.1-0.6,0.1-0.8,0c-0.4-0.1-0.7-0.1-1.1-0.2c-0.6-0.1-1.3-0.2-1.9-0.3c-0.5-0.1-1.1-0.2-1.7-0.1
		c-1,0.3-1.6,1.5-2.2,2.3C74,6.6,73.1,8,71.7,7.9C71.4,7.7,72.8,8,71.7,7.9z"/>
	<path fill="#1D1D1B" d="M18.2,52.2c0.2,0.2,0.1,0.7,0.4,0.9c0.1,0.1,0.2,0.1,0.3,0.1c0.1,0.1,0.1,0.2,0.1,0.4
		c0,0.3-0.2,0.5-0.4,0.7c-0.7,1-1.4,2-2.1,3c-0.8,1-1.5,1.9-2.4,2.8c-0.4,0.4-0.8,0.8-1.3,1.2c-0.4,0.3-0.7,0.7-1.1,0.9
		c-0.4,0.2-0.9,0.3-1.3,0.2c-0.3-0.1-0.4-0.3-0.5-0.6c0-0.1,0-0.3,0-0.4c0-0.3,0-0.3,0.3-0.3c1-0.2,1.8-0.8,2.4-1.6
		c1.6-1.7,3-3.6,4.4-5.6C17.3,53.4,17.8,52.8,18.2,52.2C18.5,52.5,16.7,54.2,18.2,52.2z"/>
	<path fill="#1D1D1B" d="M44.9,19.3c-0.1,0.3-0.3,1-0.6,1c-0.4,0.1-0.8-0.3-1.2-0.5c-0.7-0.4-1.5-0.6-2.4-0.6
		c-0.8,0-1.6,0.1-2.4,0.3c-0.6,0.1-1.8,0.7-1.9-0.4c-0.1-0.8,1.4-1.1,2-1.2c0.8-0.2,1.6-0.3,2.4-0.3C42.3,17.6,43.7,18.2,44.9,19.3
		C44.7,19.6,42.8,17.3,44.9,19.3z"/>
	<path fill="#1D1D1B" d="M36.7,18.4c-0.2,0.3,0,0.6,0,1c0.1,0.4-0.1,0.6-0.4,0.8c-0.8,0.4-1.6,0.9-2.3,1.4c-0.8,0.5-1.5,1-2.3,1.5
		c-0.5,0.3-1.6,1.4-2.2,0.8c-0.1-0.1-0.1-0.2-0.2-0.3c-0.1-0.2-0.2-0.2,0-0.4c0.3-0.3,0.7-0.6,1-0.8c0.6-0.5,1.3-1,2-1.5
		C33.6,19.9,35.1,19.1,36.7,18.4C36.4,18.9,33.9,19.6,36.7,18.4z"/>
	<path fill="#1D1D1B" d="M18.4,50.4c0.5,0,1,0,0.5,0.7C19,50.7,18.6,50.6,18.4,50.4z"/>
	<path fill="#1D1D1B" d="M16.6,60c-0.9,0.8-1.8,1.6-2.8,2.4c-0.5,0.4-1,0.8-1.5,1.2c-0.3,0.2-0.5,0.4-0.8,0.6
		c-0.2,0.2-0.1,0-0.3-0.1C11.2,64,11.1,64,11,63.9c0.9-0.9,1.8-1.7,2.8-2.4c0.5-0.4,1-0.8,1.5-1.1C15.6,60.1,16.3,59.4,16.6,60
		C15,61.5,16.5,59.8,16.6,60z"/>
	<path fill="#1D1D1B" d="M92,31.5c-0.5,0.7-1.1,1.4-1.7,2c-0.3,0.3-0.6,0.6-1,0.9c-0.2,0.2-0.6,0.7-0.9,0.5
		c-0.4-0.3,0.2-0.6,0.4-0.8c0.3-0.3,0.6-0.5,0.9-0.8c0.6-0.6,1.2-1.3,1.8-1.9C91.6,31.4,91.8,31.5,92,31.5
		C91.2,32.7,91.8,31.5,92,31.5z"/>
	<path fill="#1D1D1B" d="M82.9,83.8c3.9,0.6,7.4,2.4,9.8,5.6c-0.4,0-0.5,0.5-0.7,0.8c-1.3-1.5-2.9-2.8-4.7-3.8
		c-0.9-0.5-1.8-0.8-2.7-1.1c-0.3-0.1-0.5-0.1-0.8-0.2C83.5,85,83.2,85,83,84.9C82.6,84.6,82.6,84.2,82.9,83.8
		C86.9,84.4,82.6,84.3,82.9,83.8z"/>
	<path fill="#1D1D1B" d="M82.9,68.9c-1.2,1-2.6,1.9-3.5,3.1c-0.4,0.6-0.7,1.3-0.7,2c0,0.7,0.1,1.3-0.4,1.8c-0.5,0.6-1.4,0.9-2.1,1.2
		c-0.4,0.2-0.8,0.4-1.1,0.6c-0.3,0.2-0.7,0.4-1,0.1c-0.2-0.2-0.2-0.4-0.2-0.6c0-0.2,0.7-0.5,0.9-0.6c0.7-0.4,1.4-0.7,2-1.3
		c-1.5-0.2-3.1-0.5-4.5-1c-0.7-0.2-1.4-0.5-2.1-0.8c-0.2-0.1-1.7-0.7-1.1-1.1c0.3-0.2,0.7,0.2,0.9,0.3c0.3,0.2,0.7,0.3,1,0.5
		c0.7,0.3,1.4,0.5,2.1,0.7c1.5,0.4,3,0.7,4.5,0.8c-1.1-1.1-2.6-1.7-3.9-2.5c-0.4-0.2-1.4-0.6-0.9-1.2c0.2-0.4,0.6-0.2,0.9,0
		c0.4,0.2,0.9,0.4,1.3,0.6c0.4,0.2,0.8,0.4,1.1,0.5c0.3,0.1,0.6,0.4,0.9,0.1c0.3-0.2,0.5-0.5,0.7-0.7c0.3-0.3,0.6-0.7,0.9-1
		c1.3-1.3,2.5-2.6,4-3.8C82.6,67.5,82.1,68.4,82.9,68.9C81.9,69.7,82,68.3,82.9,68.9z"/>
	<path fill="#1D1D1B" d="M74.9,86.2c0.5-0.1,1-0.3,1.3-0.7c0.3-0.4,0.7-0.8,1.2-1.1c0.4-0.3,0.9-0.4,1.3-0.6c0.5-0.1,1-0.1,1.3-0.5
		c0.3-0.3,0.4-0.8,0.5-1.2c0.1-0.7,0.2-1.4,0.4-2.1c0.2-1.3,0.5-2.7,0.8-4c0.2-0.8,0.5-1.6,1.3-1.9c0.2-0.1,0.5-0.2,0.7,0
		c0.1,0.2,0.2,0.4,0.1,0.7c-0.1,0.3-0.3,0.4-0.4,0.6c-0.2,0.2-0.3,0.5-0.4,0.7c-0.2,0.4-0.2,0.9-0.3,1.4c-0.1,0.6-0.2,1.1-0.3,1.7
		c-0.1,0.6-0.2,1.3-0.3,1.9c-0.1,0.6-0.3,1.3-0.3,2c0,0.5,0.4,0.5,0.8,0.4c0.1,0,0.3,0,0.4,0.1c0.1,0.1,0,0.4,0,0.6
		c0,0.2,0.1,0.4,0.2,0.6c-2-0.2-4.5-0.5-5.9,1.3c-0.6,0.8-1.5,1.1-2.4,1c-0.3,0-0.6-0.3-0.5-0.6C74.4,86.4,74.8,86.4,74.9,86.2
		C75.4,86,74.7,86.4,74.9,86.2z"/>
	<path fill="#1D1D1B" d="M62.6,72.4c-1.6-1.8-2.9-3.9-3.9-6.1c-1.1-2.2-2-4.6-3.2-6.7c-1-1.8-2.4-3.3-4.5-3.9
		c-0.5-0.1-0.9-0.2-1.4-0.3c-0.3,0-0.6-0.1-0.8-0.2c-0.2-0.1-0.9-0.1-0.9-0.3c0-0.4,0.1-0.5,0.5-0.4c0.4,0.1,0.9,0.1,1.3,0.2
		c1.5,0.2,3,0.8,4.2,1.8c1.2,1,2.2,2.4,2.8,3.8c0.9,2,1.8,4.1,2.8,6c1,2,2.3,3.8,3.6,5.7C62.8,72.1,62.7,72.2,62.6,72.4
		C60.2,69.7,62.7,72.2,62.6,72.4z"/>
	<path fill="#1D1D1B" d="M45.5,60.5c0.3,0,0.6,0.1,0.9,0.1c0.3,0,0.5,0,0.8,0c0.1,0,0.2,0.1,0.4,0.1c0.1,0,0.3,0,0.4,0
		c0.3,0,0.6,0,0.8,0.1c0.9,0.1,1.9,0.4,2.7,0.9c2,1.1,3.1,3.1,4.3,4.9c1.4,2.2,2.7,4.5,4.2,6.6c0.7,1,1.6,1.9,2.4,2.9
		c0.1,0.2,0.5,0.5,0.4,0.7c-0.1,0.1-0.1,0.2-0.3,0.1c-0.1-0.1-0.2-0.2-0.3-0.2c-0.5-0.4-0.9-0.8-1.3-1.2c-1.4-1.6-2.5-3.5-3.6-5.3
		c-1.2-1.9-2.4-3.9-3.8-5.8c-1-1.4-2.3-2.6-4.1-2.9c-0.5-0.2-1,0-1.5-0.1c-0.4-0.2-1,0-1.4-0.2C45.9,60.9,45.3,61.2,45.5,60.5
		C45.7,60.5,45.3,61.5,45.5,60.5z"/>
	<path fill="#1D1D1B" d="M118.7,81c1.7,1.1,3.5,2.3,5.1,3.5c1.7,1.3,3.2,2.8,4.7,4.2c-0.3,0.2-0.5,0.6-0.5,1
		c-1.8-1.7-3.7-3.3-5.7-4.8c-1-0.7-2-1.5-3-2.2c-0.4-0.3-1.1-0.6-1.2-1.1C118,81.2,118.3,81,118.7,81C121.1,82.6,118,81,118.7,81z"
		/>
	<path fill="#1D1D1B" d="M30.1,59.1c3.3-1.2,7-0.1,10.3,0.7c-0.1,0.1-0.2,0.2-0.3,0.3c-0.1,0-0.1,0.1-0.2,0.2c-0.1,0-0.2,0-0.3-0.1
		c-0.5-0.1-0.9-0.2-1.4-0.3c-0.9-0.2-1.8-0.3-2.7-0.5c-1.8-0.3-3.6-0.2-5.4,0.1C30.1,59.4,30.1,59.2,30.1,59.1
		C32.6,58.2,30.1,59.2,30.1,59.1z"/>
	<path fill="#1D1D1B" d="M20,65.6c0.5,0.4,1.2,0.3,1.8,0.2c0.3,0,0.6,0,0.9,0c0.3,0,0.7,0,1,0.2c-0.9,0-1.7,0-2.6,0
		c-0.4,0-0.7,0-1.1,0C19.6,66,19.8,65.8,20,65.6C20.7,66.1,19.5,66,20,65.6z"/>
	<path fill="#1D1D1B" d="M33.7,53.2c-2.8,0.4-5.3,1.7-7.5,3.4C25,57.5,24,58.4,23,59.4c-1.1,1-2.1,2.2-3.3,3c0-0.2-0.1-0.4-0.3-0.5
		c2.2-2,4.2-4.1,6.6-5.8c1.2-0.9,2.5-1.7,3.9-2.3c0.7-0.3,1.4-0.5,2.1-0.7c0.3-0.1,0.9-0.3,1.1-0.1C33.2,53,33.5,53,33.7,53.2
		C28.8,54,33.5,52.9,33.7,53.2z"/>
	<path fill="#1D1D1B" d="M61.4,35.2c1.1,0.2,2.2,0.1,3.2,0.5c0.9,0.4,1.5,1.1,1.9,2c0.3,0.8,0.3,1.7,1.1,2.1
		c0.4,0.2,0.8,0.2,1.3,0.3c0.5,0.1,0.9,0.5,1.4,0.7c-0.2-1.2-0.7-2.2-1.3-3.2c-0.1-0.2-0.2-0.5-0.4-0.7c0.2-0.1,0.2-0.3,0.3-0.4
		c0.1-0.2,0.1-0.3,0.3-0.4c0.3-0.2,0.5,0.3,0.6,0.5c1.3,2,2,4.3,2.4,6.6c0.4,2.6,0.3,5.2,0.2,7.7c0,0.4-0.1,0.8-0.6,0.8
		c-0.4,0-0.6-0.3-0.6-0.7c0-1.2,0.1-2.3,0-3.5c-0.1-1.1-0.3-2.1-0.5-3.1c-0.2-0.9-0.5-1.9-1-2.7c-0.2-0.3-0.4-0.5-0.7-0.7
		c-0.4-0.2-0.8-0.2-1.2-0.3c-0.7-0.2-1.2-0.7-1.5-1.4c-0.3-0.7-0.4-1.5-1-2.1c-0.5-0.6-1.1-0.9-1.9-1.2c-0.4-0.1-0.7-0.2-1.2-0.2
		c-0.2,0-0.4-0.1-0.6-0.1c-0.3,0-0.6,0-0.9,0c-0.1,0-0.2,0-0.3,0c0-0.1,0-0.2,0-0.3c0-0.1,0.1-0.2,0.2-0.2
		C61,35.1,61.2,35.2,61.4,35.2C62.6,35.4,61,35.2,61.4,35.2z"/>
	<path fill="#1D1D1B" d="M28,42.7c2.5-0.6,5-0.5,7.5,0c-0.2,0.2-0.4,0.3-0.6,0.4c-0.2,0.2-0.5,0.5-0.7,0.5c-0.8,0-1.5,0-2.3,0
		c-1.5,0-2.9,0-4.3,0.2C28,43.6,28.1,43.1,28,42.7C30.5,42.1,28.1,43.2,28,42.7z"/>
	<path fill="#1D1D1B" d="M73,70.7c-0.4,0.2-0.4,0.6-0.4,1c-1.2-0.5-2.3-1.1-3.3-1.8c-0.8-0.5-1.7-1.1-2.1-2
		c-0.4-0.7-0.4-1.6-0.1-2.4c0.3-1.1,0.8-2,1-3.1c0.4-2,0.3-4.1-0.7-6c-1.1-2.1-3.1-3.6-5.1-4.9c-0.5-0.3-1-0.6-1.5-0.9
		c-0.2-0.1-0.5-0.3-0.7-0.4c-0.3-0.2-0.4-0.3-0.5-0.6c0-0.4,0.1-0.7,0.5-0.7c0.5,0.3,1.1,0.6,1.6,0.9c2,1.2,3.9,2.5,5.4,4.3
		c1.5,1.8,2.5,3.9,2.5,6.2c0,1.1-0.2,2.3-0.6,3.4c-0.3,0.9-0.7,1.7-0.9,2.7c-0.1,0.9,0.4,1.5,1.1,2c0.6,0.4,1.2,0.8,1.8,1.1
		C71.7,69.9,72.4,70.2,73,70.7C72.6,71,72.1,70,73,70.7z"/>
	<path fill="#1D1D1B" d="M34.3,43.6c0.1-1.2,1.3-1,2.1-0.9c0.6,0.1,1.2,0.2,1.8,0.3c0.3,0.1,0.6,0.1,0.9,0.2c0.2,0,0.4,0.1,0.5,0.1
		c0.4-0.1,0.2-1,0.3-1.2c0.1-0.6,0.2-1.1,0.4-1.7c0.4-1,0.9-2,1.6-2.9c1.3-1.9,2.8-3.8,4.5-5.4c0.8-0.8,1.8-1.6,2.9-2
		c0.3-0.1,0.9-0.3,0.9,0.2c0,0.2-0.4,0.3-0.6,0.4c-0.3,0.1-0.5,0.3-0.8,0.5c-3.4,2.1-5.7,5.5-7.6,8.9c-0.4,0.7-0.8,1.7-0.7,2.5
		c0.1,0.6,0.5,1,1.1,1.2c1,0.4,2.1,0.5,3.2,0.7c1.3,0.2,2.5,0.5,3.7,0.9c-0.2,0.2-0.3,0.3-0.5,0.5c-0.1,0.1-0.2,0.2-0.3,0.3
		c-0.2,0.1-0.2,0.1-0.4,0c-0.6-0.1-1.3-0.2-1.9-0.4c-1.3-0.2-2.5-0.5-3.7-0.7c-1.2-0.3-2.4-0.7-3.7-1C36.8,44,35.5,43.9,34.3,43.6
		C34.4,42.9,35.9,44,34.3,43.6z"/>
	<path fill="#1D1D1B" d="M69.1,72.3c-0.2,0.1-0.3,0.3-0.3,0.5c-3.9-2.1-7.6-5.7-8.1-10.2c-0.2-1.2,0-2.5,0-3.7c0-1-0.2-2-0.6-2.9
		c-0.7-1.5-1.9-2.6-3.5-3.3c-0.9-0.4-1.8-0.6-2.8-0.7c-0.6-0.1-1.2-0.2-1.9-0.3c-0.3-0.1-0.6-0.1-0.9-0.2c-0.2,0-0.3-0.1-0.5-0.1
		c-0.2,0-0.2-0.1-0.2-0.3c0-0.4,0.7-0.1,0.9-0.1c0.7,0.1,1.3,0.2,2,0.3c1.2,0.1,2.4,0.3,3.6,0.8c1.6,0.6,3,1.6,3.7,3.1
		c0.4,0.8,0.6,1.6,0.7,2.4c0.2,1.1,0,2.1,0,3.2c0,2.3,0.7,4.6,2.1,6.5C64.9,69.5,67,70.9,69.1,72.3C68.9,72.5,68.8,72.1,69.1,72.3z"
		/>
	<path fill="#1D1D1B" d="M47.6,46.4c0.1-0.4,0.2-0.8,0.6-0.9c0.5-0.1,1.2,0.2,1.7,0.3c1.2,0.2,2.3,0.4,3.5,0.6
		c2.3,0.5,4.7,1.1,6.6,2.6c-0.2,0.1-0.3,0.3-0.3,0.5c-0.1,0.2-0.1,0.5-0.3,0.4c-0.5-0.3-1-0.6-1.5-0.8c-1.1-0.5-2.2-0.9-3.3-1.1
		C52.3,47.3,49.9,47,47.6,46.4C47.7,45.9,51.6,47.4,47.6,46.4z"/>
	<path fill="#1D1D1B" d="M16.6,60c-0.2,0-0.4-0.1-0.5-0.3c0.2-0.2,0.4-0.4,0.7-0.6c0.5-0.4,1-0.8,1.4-1.2c0.9-0.8,1.8-1.6,2.6-2.5
		c0.9-0.9,1.6-2,2.4-3c0.7-1,1.4-2.1,2.2-3c0.7-0.7,1.5-1.3,2.4-1.7c0.5-0.2,0.9-0.3,1.4-0.4c0.3-0.1,0.5-0.1,0.6,0.2
		c0.1,0.1,0.1,0.2-0.1,0.3c-0.2,0-0.3,0.1-0.5,0.1c-1.9,0.6-3.4,1.9-4.6,3.5c-0.5,0.7-1,1.5-1.5,2.3c-0.6,0.8-1.2,1.6-1.9,2.4
		C19.9,57.4,18.2,58.6,16.6,60C16.4,60,17.1,59.6,16.6,60z"/>
	<path fill="#1D1D1B" d="M29.9,47.6c-0.2-0.1-0.3-0.3-0.3-0.5c0.4-0.1,0.7-0.1,1.1-0.1c0.7-0.1,1.4-0.1,2.1-0.1
		c1.3,0,2.6,0.3,3.9,0.6c2.6,0.6,5.1,1.6,7.7,2.4c-0.1,0.2-0.2,0.5-0.5,0.4c-0.3-0.1-0.6-0.2-0.9-0.3c-0.6-0.2-1.2-0.4-1.8-0.5
		c-1.2-0.4-2.4-0.7-3.6-1.1c-1.2-0.3-2.5-0.5-3.7-0.7c-0.6-0.1-1.3-0.2-1.9-0.3C31.3,47.4,30.6,47.6,29.9,47.6
		C29.7,47.5,30.3,47.6,29.9,47.6z"/>
	<path fill="#1D1D1B" d="M44.1,50.4c-0.4-0.6,0.7-0.4,0.9-0.3c0.7,0.1,1.4,0.3,2,0.4c0.7,0.1,1.4,0.2,2.1,0.3c0.3,0,0.7,0.1,1,0.1
		c0.3,0,0.5,0,0.8,0.2c-0.2,0-0.4,0.1-0.4,0.2c-0.1,0.2,0,0.2-0.2,0.2c-0.2,0-0.3,0-0.5,0c-0.6-0.1-1.3-0.1-1.9-0.2
		C46.6,51.1,45.4,50.8,44.1,50.4C43.9,50,46.2,51,44.1,50.4z"/>
	<path fill="#1D1D1B" d="M33.7,53.2c-0.2-0.2-0.6,0.2-0.7,0c-0.1-0.1,0-0.2,0-0.3c0-0.2,0.3-0.1,0.5-0.1c0.4,0,0.8-0.2,1.1-0.1
		c0.4,0,0.7-0.1,1.1-0.1c0.4,0,0.7,0.1,1.1,0.1c0.4,0,0.7-0.1,1.1,0c0.4,0.1,0.8,0.1,1.2,0.1c1.6,0.1,3.2,0.5,4.8,0.9
		c0.8,0.2,1.6,0.4,2.4,0.5c0.8,0.1,1.6,0.2,2.3,0.5c-0.2,0-0.3,0-0.5,0.1c-0.2,0.1-0.1,0.4-0.4,0.3c-0.7-0.1-1.4-0.2-2-0.4
		c-1.3-0.3-2.7-0.6-4-0.9c-1.3-0.3-2.6-0.4-3.9-0.6c-0.7-0.1-1.4-0.2-2.1-0.1C35,53.1,34.3,53.2,33.7,53.2
		C33.4,53,34.1,53.2,33.7,53.2z"/>
	<path fill="#1D1D1B" d="M38.1,52.7c-0.6-0.1-1.3,0.2-1.9-0.2C36.8,52.6,37.5,52.4,38.1,52.7z"/>
	<path fill="#1D1D1B" d="M35.5,52.6c-0.5,0.4-1.1,0.1-1.7,0.2C34.3,52.4,34.9,52.6,35.5,52.6z"/>
	<path fill="#1D1D1B" d="M31.1,47.6c0.5-0.3,1.1-0.3,1.6,0C32.1,47.6,31.6,47.6,31.1,47.6z"/>
	<path fill="#1D1D1B" d="M50.2,30.5c-0.2-0.1-0.3-0.3-0.5-0.4c1.3-0.5,2.6-1,3.9-0.9c1.3,0,2.7,0.7,3.4,1.8c0.3,0.5,0.5,1,0.4,1.5
		c0,0.6-0.2,1,0.2,1.5c0.9,1.1,2.5,0.8,3.7,1.3c-0.2,0-0.4,0-0.6,0c-0.1,0-0.2,0.1-0.3,0.1c-0.1,0.2,0,0.3-0.3,0.3
		c-0.8,0-1.6-0.3-2.3-0.6c-0.4-0.2-0.9-0.5-1.1-0.9c-0.3-0.6,0-1.1,0-1.7c0-1.2-1.1-2.2-2.2-2.5C53.3,29.5,51.6,30.2,50.2,30.5
		C50,30.4,51.5,30.2,50.2,30.5z"/>
	<path fill="#1D1D1B" d="M61.9,35.7c0.4,0,0.8-0.2,1.2,0.2C62.6,35.9,62.2,36,61.9,35.7z"/>
	<path fill="#1D1D1B" d="M92.7,74.7c2.1-0.1,4.1-0.7,6.2-0.4c1,0.1,2.1,0.2,3.1,0.3c0.5,0.1,1,0.2,1.5,0.3c0.2,0,0.2,0,0.1,0.2
		c0,0.1-0.1,0.2-0.1,0.4c-0.1,0.2-0.2,0.5-0.5,0.5c-2.2-0.3-4.5-0.6-6.7-0.5c-1.1,0-2.1,0.3-3.1,0.3c-0.3,0-0.8,0.1-0.9-0.4
		C92.3,75,92.3,74.7,92.7,74.7C94.8,74.6,92.2,74.7,92.7,74.7z"/>
	<path fill="#1D1D1B" d="M92.7,74.7c-0.2,0.2-0.4,0.6-0.1,0.8c0.5,0.3,1.2,0.1,1.7,0.1c-1.7,0.6-3.6,0-5.3-0.2
		c-1.8-0.2-3.6-0.4-5.5-0.3c0-0.2,0-0.4,0-0.6c0-0.1,0-0.2,0-0.3c-0.1-0.2,0-0.2,0.2-0.2c0.4,0,0.9-0.1,1.3-0.1c0.9,0,1.7,0,2.6,0.1
		C89.3,74.2,91,74.5,92.7,74.7C92.3,75.3,89.7,74.3,92.7,74.7z"/>
	<path fill="#1D1D1B" d="M118.7,81c-0.3,0.2-0.5,0.6-0.5,0.9c-1.4-0.9-2.8-1.7-4.3-2.5c-0.7-0.4-1.5-0.8-2.3-1.1
		c-0.4-0.2-0.7-0.3-1.1-0.5c-0.2-0.1-0.3-0.1-0.4-0.4c-0.1-0.2,0-0.4,0.1-0.6c0.1-0.2,0.2-0.3,0.4-0.3c0.2,0.1,0.4,0.1,0.6,0.2
		c0.4,0.1,0.7,0.3,1.1,0.4c0.8,0.3,1.5,0.7,2.2,1.1C116,79.1,117.3,80,118.7,81C118.3,81.2,116.2,79.1,118.7,81z"/>
	<path fill="#1D1D1B" d="M110.4,76.6c-0.1,0.4-0.2,0.7-0.2,1.1c-1.3-0.4-2.7-0.8-4-1.1c-0.7-0.2-1.4-0.3-2-0.5
		c-0.2,0-0.9-0.1-0.9-0.3c0-0.2,0-0.4,0-0.5c0.1-0.6,0.8-0.3,1.2-0.2c0.7,0.1,1.4,0.2,2.1,0.4C107.9,75.7,109.2,76,110.4,76.6
		C110.4,76.9,108.3,75.6,110.4,76.6z"/>
	<path fill="#1D1D1B" d="M39.9,60.2c-0.2-0.5,0.3-0.5,0.7-0.4c0.9,0.1,1.7,0.2,2.6,0.4c0.4,0.1,0.9,0.1,1.3,0.2
		c0.2,0,0.4,0.1,0.6,0.1c0.2,0,0.5,0,0.5,0.2c0.1,0.5,0.7,0.2,0.9,0.6C44.3,61,42.1,60.7,39.9,60.2C39.7,59.6,42.1,60.7,39.9,60.2z"
		/>
	<path fill="#1D1D1B" d="M47.6,61.2c0.5,0.1,1.1-0.2,1.6,0.2C48.7,61.3,48.1,61.5,47.6,61.2z"/>
	<path fill="#1D1D1B" d="M35,53.2c0.7-0.3,1.4-0.3,2.1,0C36.4,53.2,35.7,53.2,35,53.2z"/>
	<path fill="#1D1D1B" d="M47.4,60.7c-0.5-0.1-1,0.2-1.4-0.2C46.5,60.5,47,60.4,47.4,60.7z"/>
</g>
</svg>
