<?xml version="1.0" encoding="utf-8"?>
<!-- Generator: Adobe Illustrator 18.1.1, SVG Export Plug-In . SVG Version: 6.00 Build 0)  -->
<!DOCTYPE svg PUBLIC "-//W3C//DTD SVG 1.1//EN" "http://www.w3.org/Graphics/SVG/1.1/DTD/svg11.dtd">
<svg version="1.1" id="Слой_1" xmlns="http://www.w3.org/2000/svg" xmlns:xlink="http://www.w3.org/1999/xlink" x="0px" y="0px"
	 viewBox="0 0 145.8 102.5" enable-background="new 0 0 145.8 102.5" xml:space="preserve">
<path fill="#1D1D1B" d="M144.7,33.4c0.5,0.2,0.9-0.3,0.8-0.8c-0.8-2.8-2.9-4.6-4.7-6.7c-0.4-0.4-0.8-0.9-1.1-1.4
	c-0.2-0.3-0.4-0.8-0.4-1c0,0,0,0,0,0c0.1,0,0.2,0,0.3,0.1c0.8,0.2,1.4,0.8,2.1,1.3c0.6,0.4,1.1-0.3,0.9-0.9
	c-0.4-0.8-0.6-1.7-1.1-2.5c-0.5-0.8-1.3-1.3-2-1.8c-1.3-0.8-2.7-1.3-3.9-2.2c-0.8-0.6-1.7-1.3-2.4-2.1c0.2,0,0.5,0.1,0.7,0.2
	c0.6,0.2,1-0.6,0.6-1c-0.6-0.6-1.2-1.3-1.8-1.9c-0.5-0.5-1.4-0.6-2.1-0.8c-1.1-0.2-2.2-0.4-3.4-0.5c-1.5-0.2-3.1-0.3-4.5-0.8
	c-0.2-0.1-0.5-0.2-0.7-0.3c0,0-0.1,0-0.1-0.1c0,0,0,0,0,0c0.5-0.2,0.9-0.3,1.4-0.4c0.5-0.1,0.6-0.9,0.1-1.1
	c-1.4-0.6-2.8-0.8-4.2-0.3c-1.4,0.4-2.7,1.3-4.1,1.8c-0.3,0.1-0.6,0.2-0.9,0.3c-0.1,0-0.2,0-0.2,0c0,0-0.1,0-0.1,0c0,0,0,0,0,0
	c0,0,0,0,0,0h0c0-0.1,0-0.2,0-0.2c0,0.1,0-0.1,0-0.1c0-0.1,0-0.2,0.1-0.3c0.1-0.2,0.1-0.4,0.2-0.7c0.2-0.5,0.3-0.9,0.5-1.4
	c0.2-0.5-0.5-1-0.9-0.7c-1.4,0.8-2.6,1.9-3.8,3c-0.6,0.5-1.2,1.1-1.8,1.6c-0.2,0.2-0.5,0.4-0.8,0.6c-0.1,0.1-0.2,0.2-0.3,0.2
	c0,0,0-0.1,0-0.1c0-0.1,0-0.2,0-0.2c0-0.2,0-0.3,0.1-0.5c0.1-0.4,0.2-0.8,0.3-1.2c0.1-0.4,0.2-0.6,0.3-0.8c0.3-0.5-0.3-1.2-0.9-0.9
	c-0.9,0.6-1.9,1-2.7,1.7c-0.8,0.7-1.4,1.7-1.9,2.6c-1,2-1.5,4.3-2.2,6.4c-1.2,3.9-2.6,7.7-4.5,11.4c-7.1-3.8-13.7-8.6-20-13.7
	c-3.1-2.5-6-5.1-8.9-7.8c-2.8-2.6-5.6-5.3-9-7.2c-1.6-0.9-3.3-1.7-5.1-1.9c-1.9-0.2-3.9,0-5.8,0c-0.6,0-0.8,0.8-0.3,1.2
	c1.3,0.8,2.4,1.9,3.4,3c0.5,0.5,0.9,1.1,1.2,1.7C51,6.4,51,6.6,50.5,6.7C49.4,7,48,6.6,46.9,6.4c-1.6-0.3-3.1-0.6-4.6-0.9
	c-3.1-0.7-6.2-1.3-9.3-1.2c-0.5,0-0.9,0.7-0.4,1.1c0.8,0.7,1.6,1.3,2.5,2c0.7,0.6,1.4,1.2,1.8,1.9c0.3,0.5,0.1,0.8-0.4,1.1
	c-1.2,0.7-2.8,0.8-4.2,0.9c-2.6,0.3-5.2,0.3-7.8,0.9c-2.7,0.7-4.7,2.3-6.3,4.5c-0.3,0.5,0.2,1.1,0.7,0.9c0.9-0.3,1.8-0.6,2.8-0.8
	c0.4-0.1,0.8-0.1,1.2-0.1c0,0,0,0,0,0c0,0.7-0.8,1.7-1.2,2.3c-1.5,2.1-3.3,3.6-5.4,5.1c-3.1,2.3-6.3,4.5-8.9,7.3
	c-0.3,0.4-0.9,0.8-1,1.3c-0.1,0.3-0.2,0.7-0.2,1c-0.3,1.1-0.5,2.1-0.8,3.2c-0.1,0.4-0.2,0.9-0.3,1.3c-0.1,0.6,0.6,1.1,1,0.6
	c0.6-0.6,1.4-1.6,2.2-1.8c0,0.1,0,0.1,0,0.1c0,0.2,0,0.3,0,0.5c-0.1,1.8-0.9,3.8-1.5,5.4c-0.9,2.3-2.1,4.2-3.4,6.3
	c-1,1.6-2,3.3-2.7,5.1C0,56.3-0.1,58,0.1,59.9c0.1,1,0.4,2,0.4,3c0,0.6,0.9,0.9,1.2,0.3c0.3-0.6,2.7-6.1,3.7-5.1
	C6,58.7,6,59.8,6.1,60.5c0.1,1.2-0.2,2.5-0.4,3.7C5.2,67,4.4,69.7,4,72.5c-0.5,2.8-0.5,5.6,0.3,8.4c0.1,0.4,0.7,0.7,1,0.3
	c0.8-1,1.5-2.1,2.3-3.2c0.4-0.5,1.3-1.9,2.1-1.7c0.5,0.1,0.8,0.8,1,1.2c0.4,0.9,0.7,1.9,0.9,2.9c0.4,1.9,0.5,3.9,0.6,5.8
	c0.1,1.9,0.3,3.8,0.7,5.6c0.3,1.4,0.9,2.6,1.5,3.9c0.8,1.7,1.6,3.5,2.4,5.2c0.2,0.4,0.3,0.7,0.5,1.1c0.2,0.5,1,0.4,1.1-0.1
	C20,95.2,25.7,90.5,29.5,85c0.8-1.1,1.5-2.2,2.4-3.2c0.8-1,1.8-2,3.1-2.5c0.5-0.2,1-0.3,1.5-0.1c0.1,0,0.3,0.1,0.4,0.1c0,0,0,0,0,0
	c0,0.1,0,0.2,0,0.3c-0.2,1.1-0.7,2.2-1.1,3.2c-0.3,0.8-0.7,1.5-1.1,2.3c-0.2,0.4,0.1,1.2,0.7,0.9c3.7-1.5,7.2-3.2,10.5-5.3
	c1.7-1,3.3-2.1,4.9-3.2c1.1-0.8,2.2-1.7,3.4-2.4c1.6-1,3.2-1.8,4.9-2.5c0.8-0.3,1.8-0.7,2.7-0.8c0.3,0,0.6,0,0.8,0c0,0,0.1,0.1,0,0
	c0,0.1,0,0.1,0,0.3c0,1.1-1.1,2.4-1.7,3.2c-0.9,1.1-1.8,2.2-2.7,3.3c-0.3,0.5,0.2,1,0.7,0.9c3.9-0.9,7.6-2.3,11.3-4
	c3-1.4,5.9-3.1,8.9-4.5c1.8-0.8,3.9-1.8,6-1.8c0.8,0,1.2,0.3,1.2,1.1c0,0.6-0.5,1.2-0.8,1.7c-0.5,0.7-1.1,1.3-1.7,1.9
	c-0.5,0.5-0.9,0.9-1.4,1.4c-0.4,0.4,0,1.2,0.6,1c3-1,6.1-1.9,9-3.1c2.8-1.2,5.2-2.9,7.6-4.6c1.1-0.8,2.2-1.5,3.4-2.1
	c0.9-0.4,2.6-1,3.5-0.3c0.7,0.5,0.1,2.1,0,2.7c-0.3,0.9-0.6,1.8-1,2.6c-0.2,0.5,0.5,1,0.9,0.7c2.4-1.4,4.8-3,7-4.8
	c1.8-1.4,3.5-3,5.3-4.6c0.6-0.6,1.3-1.1,2-1.6c0.6-0.4,1.4-0.9,2.2-0.9c1.4,0.1-0.2,4.1-0.4,4.8c-0.2,0.7,0.6,1,1,0.6
	c1.5-1.2,2.9-2.4,4.1-3.9c1.2-1.5,2.2-3.1,3.1-4.7c0.5-0.9,0.9-1.8,1.6-2.5c0.3-0.4,0.8-0.9,1.3-1.1c1.1-0.3,1.6,2.9,1.7,3.4
	c0.1,0.5,0.7,0.6,1,0.3c2.9-3.1,7.8-8.8,6-13.3c0.7,0.4,1.3,0.9,1.8,1.5c0.4,0.4,1.1,0.1,1.1-0.4c-0.1-1-0.2-2-0.3-3
	c-0.1-0.6-0.1-1.2-0.2-1.8c-0.2-1.1-0.7-2.1-1.2-3.1c-0.5-0.9-1-1.9-1.3-2.9c-0.2-0.4-0.3-0.9-0.3-1.4c0-0.1,0-0.2,0-0.3
	c0,0,0-0.2,0-0.2c0,0,0-0.1,0-0.1c0,0,0,0,0,0c0.1,0,0.2,0,0.2,0c0.3,0.1,0.6,0.2,0.8,0.3C143.5,32.9,144.1,33.2,144.7,33.4z
	 M143.5,31.3c-2.1-1.3-4.7-1.8-7.1-2.1c-1.5-0.2-3-0.2-4.4-0.2c-0.9,0-1.8,0-2.6,0.2c-0.9,0.2-1.8,0.6-2.7,0.9
	c-0.5,0.2-1,0.3-1.6,0.3c-0.6,0.1-1.2,0.2-1.8,0.3c-0.3,0-1,0.2-1.2,0.1c0,0-0.1,0-0.1,0c-0.4-0.1-0.7-0.2-1.1-0.2
	c-2.1-0.4-4.3-0.8-6.5-1c0.2-0.2,0.4-0.4,0.6-0.6c0.5-0.6,1-1.2,1.4-1.8c0.4-0.5,0.7-1,1.1-1.5c0.4-0.5,0.8-1,1.4-1.4
	c1-0.8,2-1.6,3.1-2.2c2.3-1.4,4.9-1.1,7.4-0.7c0.8,0.1,1.6-0.1,2.4-0.2c1.2-0.2,2.5-0.1,3.7,0.1c1.1,0.3,2.1,0.7,3.2,1.2
	c-0.1,0.1-0.2,0.1-0.3,0.3c-0.7,0.9,0,2.2,0.6,3C140.3,27.6,142.3,29.2,143.5,31.3z M139.4,41.4c-1-0.4-2.1-0.7-3.1-1.2
	c-0.7-0.3-1.3-0.6-2-0.9c-0.8-0.3-1.6-0.5-2.5-0.5c-0.3,0-0.5,0-0.8,0.1c-1.6-1-3-2.3-3.5-4.2c-0.1-0.5-0.2-1-0.2-1.5
	c0,0,0-0.1,0-0.1c0.2,0.1,0.3,0.2,0.5,0.2c1.3,0.7,2.5,1.5,3.8,2.3c2.3,1.4,4.5,2.9,6.8,4.3c1.1,0.6,2.1,1.3,3.1,2
	c0.4,0.3,0.8,0.6,1.2,1C141.6,42.3,140.5,41.8,139.4,41.4z M117.5,42.7c-0.5,0.4-0.7,0.9-0.4,1.5c0.4,0.7,1.4,1.1,2.1,1.4
	c0,0,0,0,0.1,0c-1.7,0.4-3.5,0.6-5.2,0.7c-1.6,0.1-3.2,0.1-4.8,0.4c-1.1,0.2-2.7,0.6-2.9,1.9c-0.1,0.7,0.6,1.4,1.2,1.6
	c0.1,0,0.1,0.1,0.2,0.1c-1.1,0.2-2.1,0.4-3.2,0.5c-1.6,0.1-3.1-0.3-4.6-0.2c-0.7,0-1.4,0.1-2.1,0.5c-0.5,0.3-1.1,0.8-1,1.5
	c0.1,0.5,0.3,1,0.7,1.4c-1.1-0.1-2.3-0.2-3.4-0.4c-1.1-0.2-2.1-0.5-3.2-0.6c-0.9-0.1-2.1-0.1-2.5,0.9c-0.2,0.5-0.1,0.9,0.2,1.3
	c-0.4-0.1-0.8-0.3-1.3-0.5c-1.1-0.5-2-1.2-3.1-1.7c-0.7-0.3-1.5-0.3-2,0.3c-0.3,0.4-0.3,1-0.2,1.5c-0.9-0.2-1.8-0.4-2.7-0.8
	c-0.5-0.2-1.1-0.6-1.4-1c-0.3-0.5-0.2-1,0-1.6c0.5-1,1.2-1.7,2-2.5c0.6-0.6,1.1-1,1.8-1.4c0.7-0.5,1.4-0.9,2-1.4
	c0.5-0.4,1.1-0.9,1.3-1.5c0.2-0.6-0.4-1.1-1-0.9c-0.4,0.2-0.9,0.4-1.3,0.7c-0.4,0.3-0.9,0.5-1.3,0.8c0.1-0.7,0.4-1.4,0.9-2
	c0.8-1,2-1.8,3.1-2.5c2.5-1.5,5.4-2.6,7.6-4.5c0.5-0.4,0.9-0.9,1.2-1.3c0.5,0,1.1,0,1.6-0.1c0.8-0.1,1.7-0.3,2.5-0.5
	c0.5-0.2,0.9-0.4,1.4-0.6c0.5-0.2,1.1-0.5,1.6-0.7c0.9-0.3,1.9-0.7,2.8-1c0.1,0,0.1,0,0.2,0c0,0,0.1,0,0.1-0.1
	c1-0.3,2.1-0.6,3.2-0.9c0.1,0.1,0.1,0.1,0.2,0c0.1,0,0.1-0.1,0.2-0.1c0.5-0.1,1-0.3,1.5-0.4c0.1,0,0.1,0,0.2,0c0,0,0,0,0,0
	c0.1,0,0.2-0.1,0.4-0.1c0.5-0.1,1-0.2,1.5-0.3c0.5-0.1,1.1,0,1.6,0c2.7,0.2,5.4,0.7,8,1.3c0.1,0,0.2,0,0.3,0.1
	c0.2,0.1,0.4,0.4,0.5,0.7c0.1,0.3,0.2,0.7,0.3,1.1c0.2,0.7,0.3,1.4,0.5,2.1c0.3,1.1,0.4,2.4,1,3.4c0.4,0.6,1.1,0.7,1.6,1
	c1.3,0.5,2.6,1.2,3.9,1.8c0.6,0.3,1.2,0.6,1.8,0.8c0,0,0,0,0.1,0.1c-2,0.2-4.1,0.2-6.1,0.1c-1.4-0.1-2.8-0.3-4.3-0.2
	c-0.7,0-1.3,0.1-2,0.2C118.5,42.3,118,42.4,117.5,42.7z M107.7,48.6C107.7,48.6,107.7,48.6,107.7,48.6
	C107.7,48.6,107.7,48.6,107.7,48.6C107.7,48.6,107.7,48.6,107.7,48.6z M89.6,54.1L89.6,54.1C89.6,54.1,89.6,54.1,89.6,54.1
	C89.6,54.1,89.6,54.1,89.6,54.1z M89.6,54C89.6,54,89.6,54,89.6,54C89.6,54,89.6,54,89.6,54z M83.3,53.9
	C83.3,53.9,83.3,53.9,83.3,53.9L83.3,53.9C83.3,53.9,83.3,53.9,83.3,53.9z M83.3,53.9L83.3,53.9C83.3,53.9,83.3,53.9,83.3,53.9
	C83.3,53.9,83.3,53.9,83.3,53.9C83.3,53.9,83.3,53.9,83.3,53.9z M109.8,29.7c0,0.1-0.1,0.2-0.1,0.3c0,0,0,0,0,0
	c-0.4,0.1-0.8,0.2-1.2,0.3c0.1-0.2,0.2-0.4,0.2-0.5c0.4-0.9,0.8-1.7,1.3-2.5c1.5-2.6,3.5-5,5.9-6.8c1.7-1.2,3.5-2.2,5.4-2.9
	c1.2-0.5,2.7-0.4,3.9-0.4c1.7,0,3.5,0.2,5.2,0.3c1.1,0.1,2.3,0.3,3.4,0.5c0.1,0.1,0.2,0.2,0.3,0.2c-0.6-0.1-1.1-0.1-1.7-0.2
	c-1.7-0.2-3.5-0.3-5.2-0.4c-1.4,0-2.9-0.1-4.3,0.2c-0.8,0.2-1.6,0.5-2.3,0.9c-1,0.4-1.9,0.9-2.8,1.5c-2.6,1.6-4.8,3.7-6.4,6.3
	c-0.5,0.8-0.9,1.6-1.3,2.5C110.1,29.1,110,29.4,109.8,29.7z M131.2,17.1c-1.7-0.2-3.5-0.4-5.2-0.4c-1.4,0-2.9-0.1-4.2,0.2
	c-0.8,0.2-1.6,0.6-2.4,0.9c-0.9,0.4-1.8,0.9-2.6,1.5c-2.7,1.7-4.9,4-6.6,6.7c-0.6,0.9-1.1,1.9-1.5,2.8c-0.2,0.5-0.4,1.1-0.7,1.5
	c-0.4,0.1-0.7,0.2-1.1,0.3c0.1-0.2,0.2-0.5,0.3-0.7c0.4-0.9,0.7-1.7,1.1-2.6c1.3-2.6,3-5,5.2-7c1.4-1.3,3-2.3,4.8-3.1
	c0.7-0.3,1.4-0.7,2.2-0.8c0.6-0.1,1.3-0.2,1.9-0.2c3.2-0.2,6.6,0.1,9.8,0.5c0.2,0,0.4,0.1,0.6,0.1c0.2,0.1,0.3,0.3,0.5,0.4
	C132.5,17.3,131.9,17.2,131.2,17.1z M130.1,16.2c-1.7-0.2-3.4-0.3-5.1-0.3c-1.5,0-3,0-4.4,0.2c-0.7,0.1-1.2,0.3-1.9,0.6
	c-0.9,0.4-1.8,0.9-2.7,1.4c-2.8,1.7-5.1,4.1-6.8,6.8c-1.1,1.7-1.8,3.6-2.6,5.4c-0.1,0.1-0.1,0.2-0.2,0.4c-0.1,0.1-0.1,0.2-0.1,0.1
	c0,0,0,0,0,0c-0.4,0.1-0.8,0.2-1.2,0.4c0.1-0.2,0.2-0.4,0.2-0.6c0.4-0.9,0.7-1.7,1.1-2.6c1.2-2.6,2.8-5.1,4.8-7.2
	c1.2-1.3,2.6-2.4,4.1-3.4c1.3-0.8,2.8-1.7,4.4-2c1.5-0.3,3-0.2,4.5-0.2c1.7,0,3.4,0.1,5.1,0.3c0.9,0.1,1.8,0.2,2.7,0.3
	c0.1,0.2,0.2,0.3,0.4,0.5C131.5,16.4,130.8,16.3,130.1,16.2z M131.5,15.4c0,0,0,0.1,0.1,0.1c-0.8-0.1-1.7-0.2-2.5-0.3
	c-1.7-0.2-3.4-0.3-5.1-0.3c-1.5,0-3,0-4.4,0.2c-1.5,0.2-3,1-4.3,1.8c-2.9,1.7-5.2,4.2-7,6.9c-1.3,2-2.3,4.1-3.3,6.3
	c-0.1,0.3-0.3,0.6-0.4,0.9c0,0.1-0.1,0.2-0.2,0.3c0,0,0,0,0,0c-0.4,0.1-0.8,0.2-1.1,0.4c0.1-0.2,0.2-0.5,0.3-0.7
	c0.4-0.9,0.7-1.7,1.1-2.6c1.2-2.6,2.6-5.1,4.4-7.3c2.2-2.7,5-5,8.3-6.2c1-0.4,2.2-0.4,3.2-0.5c1.6-0.1,3.2-0.1,4.8-0.1
	c1.6,0,3.3,0.1,4.9,0.2c0.4,0,0.9,0.1,1.4,0.1C131.4,15,131.4,15.2,131.5,15.4z M129.6,40.7c-1.3-0.6-2.6-1.2-3.9-1.7
	c-0.2-0.1-0.4-0.1-0.5-0.2c-0.6-0.2-0.9-0.5-1.2-1.1c-0.4-1.1-0.6-2.3-0.8-3.5c-0.2-0.7-0.3-1.3-0.5-2c-0.1-0.2-0.2-0.5-0.3-0.8
	c0.3,0.1,0.5,0.1,0.8,0.2c0,0,0,0,0,0.1c0,0.1,0.1,0.2,0.1,0.3c0.1,0.3,0.1,0.6,0.2,0.9c0.2,0.9,0.5,1.8,0.9,2.7
	c1.1,2.4,3.1,4.1,5.5,5c0,0.2,0.2,0.4,0.3,0.6C130,40.9,129.8,40.8,129.6,40.7z M131.1,40.4C131,40.5,131,40.5,131.1,40.4
	L131.1,40.4z M126.9,32.9c0,0,0,0.1,0,0.1c0,0.2,0,0.4,0,0.5c0,0.6,0.1,1.2,0.3,1.7c0.5,1.7,1.8,2.9,3.3,3.9c0,0,0,0-0.1,0
	c-1.9-1.1-3.6-2.6-4.2-4.8c-0.2-0.6-0.2-1.1-0.3-1.7c0-0.1,0-0.1,0-0.2C126.4,32.6,126.7,32.8,126.9,32.9z M125.6,32.3
	C125.6,32.3,125.6,32.3,125.6,32.3C125.6,32.3,125.6,32.4,125.6,32.3c0.1,0,0.1,0.1,0.1,0.2c0,0.2,0,0.4,0.1,0.6
	c0.1,0.6,0.2,1.3,0.4,1.9c0.7,2,2.3,3.4,4.1,4.5c0,0-0.1,0.1-0.1,0.1c-2.2-1-4-2.6-4.7-5c-0.2-0.7-0.3-1.4-0.4-2.1
	c0-0.1,0-0.3-0.1-0.4C125.1,32.2,125.3,32.2,125.6,32.3z M124.4,31.9C124.4,31.9,124.4,31.9,124.4,31.9c0,0.1,0.1,0.2,0.1,0.2
	c0.1,0.3,0.1,0.5,0.1,0.8c0.1,0.8,0.3,1.5,0.6,2.3c0.9,2.2,2.7,3.7,4.7,4.7c0,0,0,0.1,0,0.1c-2.4-0.9-4.4-2.7-5.3-5.1
	c-0.3-0.8-0.5-1.6-0.7-2.5c0-0.2-0.1-0.4-0.1-0.6C123.9,31.8,124.1,31.9,124.4,31.9z M140,21.9c0.3,0.3,0.4,0.6,0.6,0.9
	c-0.2-0.1-0.5-0.2-0.8-0.3c-0.2-0.1-0.4-0.1-0.6-0.1c-2-1.1-4.2-1.9-6.6-1.7c-0.8,0-1.7,0.2-2.5,0.3c-0.6,0-1.3-0.1-1.9-0.2
	c-1.3-0.1-2.6-0.2-3.8,0c-1.4,0.2-2.5,0.8-3.6,1.6c-1.1,0.8-2.3,1.6-3.2,2.6c-0.5,0.5-0.8,1.1-1.2,1.7c-0.3,0.5-0.7,0.9-1,1.4
	c-0.3,0.4-0.6,0.7-0.9,1.1c-0.2,0.2-0.6,0.7-1,0.7c0,0,0,0,0,0c-0.2,0-0.4,0-0.6-0.1c-0.9-0.1-1.8,0.1-2.6,0.3
	c0.1-0.2,0.2-0.4,0.3-0.6c0.4-0.8,0.8-1.6,1.3-2.4c1.6-2.7,3.9-4.9,6.6-6.5c0.8-0.5,1.7-1,2.6-1.4c0.7-0.3,1.5-0.7,2.2-0.8
	c1.4-0.3,2.9-0.2,4.3-0.2c1.7,0.1,3.3,0.2,5,0.4c0.8,0.1,1.6,0.2,2.4,0.3c0.1,0.1,0.2,0.1,0.3,0.2c0.7,0.5,1.6,0.8,2.3,1.2
	C138.4,20.6,139.3,21.1,140,21.9z M124.8,12.4c1.2,0.2,2.5,0.3,3.7,0.4c0.6,0.1,1.2,0.2,1.8,0.3c0.3,0.1,0.6,0.2,0.9,0.2
	c0.1,0,0.4,0.2,0.2,0c0,0,0,0,0,0c0.2,0.2,0.5,0.5,0.7,0.7c0,0-0.1,0-0.1,0c-0.2,0-0.3,0.1-0.4,0.2c-0.4,0-0.8-0.1-1.2-0.1
	c-1.6-0.1-3.1-0.2-4.7-0.2c-1.6,0-3.2,0-4.9,0c-1.2,0.1-2.4,0.1-3.5,0.4c-0.7,0.2-1.4,0.5-2,0.8c-0.8,0.4-1.6,0.9-2.3,1.4
	c-1.4,1-2.6,2.1-3.8,3.4c-2,2.2-3.5,4.8-4.7,7.4c-0.5,1-0.9,2-1.3,3.1c-0.1,0.3-0.3,0.6-0.4,1c0,0.1-0.1,0.2-0.2,0.3
	c0,0-0.1,0.1-0.1,0.1c0,0,0,0,0,0c0,0-0.1,0.1-0.1,0.1c-0.3,0.1-0.7,0.2-1,0.4c-0.5,0.2-1.1,0.4-1.6,0.6c-0.4,0.2-0.9,0.5-1.3,0.6
	c-0.8,0.3-1.6,0.4-2.4,0.6c-0.5,0.1-1,0.2-1.5,0.2c0.1,0,0.1-0.1,0.2-0.1c0.6-0.4,1.1-0.9,1.6-1.3c0.5-0.4,1-0.9,1.4-1.4
	c0.5-0.5,0.6-1.1,0.9-1.8c0.2-0.6,0.5-1.2,0.7-1.8c0.2-0.6,0.5-1.3,0.7-2c0.4-1.3,0.9-2.6,1.5-3.8c0.6-1.1,1.2-2.3,1.9-3.3
	c0.7-1.1,1.5-2.1,2.5-2.9c1.7-1.4,3.8-2.1,5.8-2.9c2.6-1.1,5.2-2.1,7.9-3c0.1,0,0.2-0.1,0.3-0.1c-0.1,0.5,0.4,1,0.8,1.2
	C122.1,12,123.5,12.3,124.8,12.4z M120.6,9.3c0,0-0.1,0.1-0.1,0.1c-1.1,0.3-2.1,0.7-3.1,1.1c-0.4,0.2-0.8,0.3-1.2,0.5
	c0.7-0.3,1.5-0.7,2.2-1.1C119,9.6,119.8,9.4,120.6,9.3z M113.6,10.4C113.6,10.4,113.6,10.4,113.6,10.4
	C113.6,10.4,113.6,10.4,113.6,10.4L113.6,10.4z M113.6,10.5L113.6,10.5C113.6,10.5,113.6,10.5,113.6,10.5
	C113.6,10.5,113.6,10.5,113.6,10.5C113.6,10.5,113.6,10.5,113.6,10.5z M113.6,10.5C113.6,10.5,113.6,10.5,113.6,10.5
	C113.6,10.5,113.6,10.5,113.6,10.5C113.6,10.5,113.6,10.5,113.6,10.5C113.6,10.5,113.6,10.5,113.6,10.5z M106.7,12.5L106.7,12.5
	C106.7,12.5,106.7,12.5,106.7,12.5C106.7,12.5,106.7,12.5,106.7,12.5z M100.6,20.9c0.7-2.2,1.2-4.4,2.1-6.5c0.4-1,0.9-2,1.6-2.8
	c0.4-0.4,0.9-0.8,1.4-1.1c-0.1,0.3-0.1,0.5-0.2,0.8c-0.2,0.8-0.2,2,0.7,2.3c0.4,0.2,1-0.1,1.3-0.3c0.8-0.5,1.4-1.1,2.1-1.7
	c0.9-0.8,1.8-1.7,2.8-2.5c-0.1,0.3-0.2,0.7-0.2,1c-0.1,1,0.7,1.6,1.6,1.5c0.3,0,0.7-0.1,1-0.2c-1.8,0.7-3.6,1.4-5.4,2.2
	c-0.8,0.3-1.5,0.6-2.3,1c-0.7,0.4-1.3,0.9-1.8,1.4c-0.9,0.8-1.6,1.8-2.2,2.9c-0.7,1.1-1.3,2.2-1.9,3.4c-0.6,1.2-1,2.4-1.4,3.6
	c-0.4,1.3-0.9,2.5-1.4,3.7c-0.2,0.4-0.2,0.9-0.5,1.2c-0.1,0.2-0.3,0.4-0.4,0.5c-0.6,0.7-1.2,1.3-1.9,1.8c-0.2,0.1-0.3,0.3-0.5,0.4
	C97.5,29.7,99.2,25.3,100.6,20.9z M26,13.1c2.9-0.5,5.9-0.4,8.8-1c1.7-0.3,4.2-1.3,3.1-3.4c-0.4-0.8-1.2-1.5-1.8-2.1
	c-0.4-0.4-0.8-0.7-1.3-1.1c3,0.2,5.9,0.9,8.8,1.5C45.3,7.4,47,7.8,48.8,8c0.9,0.1,2.1,0.2,2.9-0.4c1.4-1.1-0.1-3-0.9-3.9
	c-0.7-0.8-1.5-1.6-2.3-2.3c1.3,0,2.6-0.1,3.9,0.1c1.9,0.2,3.7,1.2,5.3,2.2c3.3,2.1,6.1,4.8,8.9,7.5c6,5.5,12.3,10.7,19.1,15.2
	c2.7,1.8,5.4,3.5,8.3,5.1c-0.5,0-1,0-1.5-0.1c-1.5-0.2-2.9-0.5-4.4-0.8c-1.2-0.3-2.3-0.6-3.5-1c-0.5-0.2-0.9-0.6-1.4-1
	c-1-0.8-2-1.6-3.1-2.3c-2.2-1.6-4.1-3.4-6.2-5.2c-2-1.7-4-3.2-6.3-4.6c-2.2-1.3-4.5-2.6-6.8-3.7c-1.2-0.5-2.4-1-3.6-1.3
	c-1.2-0.3-2.5-0.5-3.8-0.6c-0.8-0.1-1.6-0.2-2.5-0.1c-0.8,0.1-1.6,0.1-2.4,0.2c-2.5,0.3-4.9,0.6-7.3,1c-5.6,0.8-11.2,1.7-16.7,2.8
	c-1.2,0.3-2.5,0.5-3.7,0.9c0,0-0.1,0-0.1,0C22.3,14.3,24,13.5,26,13.1z M7.5,33.6c0-0.2,0.1-0.4,0.1-0.6c-0.1,0.3,0.3-0.3,0.3-0.3
	c0.2-0.2,0.3-0.3,0.5-0.5c0.4-0.4,0.8-0.8,1.2-1.2c1.4-1.4,3-2.6,4.6-3.7c1.5-1.1,3.1-2.3,4.6-3.5c0.9-0.7,1.8-1.4,2.6-2.3
	c0.7-0.8,1.3-1.6,1.9-2.5c0.5-0.7,1-1.7,0.9-2.5c-0.1-0.3-0.3-0.6-0.5-0.7c2.3-0.5,4.6-0.9,6.9-1.3c5.5-1,11.1-1.8,16.6-2.5
	c1.6-0.2,3.2-0.4,4.8-0.5c0.5,0,1.1,0.1,1.6,0.1c1.3,0.1,2.6,0.3,3.9,0.7c2.5,0.7,4.9,2,7.1,3.2c2.2,1.3,4.5,2.6,6.6,4.1
	c2.2,1.6,4.1,3.5,6.2,5.2c1,0.8,2,1.7,3,2.4c1.1,0.8,2.1,1.6,3.1,2.4c0.4,0.3,0.7,0.5,1.2,0.7c0.5,0.2,1,0.3,1.5,0.5
	c1.8,0.5,3.7,1,5.6,1.2c0.5,0.1,1,0.1,1.5,0.2c-0.7,0.4-1.4,0.7-2.1,1c-1.6,0.6-3.2,1.2-4.9,1.5c-0.9,0.2-1.9,0.1-2.8,0.2
	c-1.2,0.1-2.5,0.3-3.7,0.6c-0.9,0.2-1.8,0.3-2.6,0.5c-0.1-0.1-0.3-0.2-0.4-0.3c-0.6-0.4-1.2-0.9-1.8-1.3c-1.9-1.4-3.7-2.8-5.7-4.2
	c-5.6-3.8-11.7-7-18.3-8.7c-3.8-1-7.7-1.4-11.7-1.3c-1.7,0.1-3.5,0.2-5.1,0.6c-0.9,0.2-1.9,0.6-2.8,1c-2.6,1.2-5.2,2.6-7.7,4
	c-2.9,1.7-5.7,3.4-8.5,5.2c-1.9,1.2-3.8,2.5-5.6,3.8c-0.4,0.3-0.7,0.5-1.1,0.8c-0.1,0-0.2,0-0.4,0c-0.5,0.1-0.9,0.3-1.3,0.7
	C7,35.5,7.3,34.5,7.5,33.6z M62.6,39.6c0,0-0.1-0.1-0.1-0.1c-0.5-0.3-1-0.7-1.5-1c-1.6-1.1-3.3-2.2-5.1-3.1
	c-5.8-3-12.4-4.3-18.9-4.2c-2.2,0-4.5,0.2-6.7,0.5c-1.4,0.2-2.6,0.5-3.9,1c-2.8,1.2-5.5,2.9-8,4.5c-2.7,1.7-5.3,3.6-7.8,5.5
	c-1.2,0.9-2.4,1.8-3.5,2.8c0.2-0.3,0.3-0.6,0.4-1c0-0.1,0.1-0.3,0.2-0.6c1.7-1.5,3.5-2.9,5.3-4.2c2.8-2.1,5.6-4.1,8.6-6
	c1.4-0.8,2.7-1.7,4.1-2.4c1.1-0.6,2.2-1.1,3.4-1.5c0.7-0.2,1.5-0.3,2.2-0.4c1.2-0.2,2.3-0.3,3.5-0.4c2.1-0.1,4.2-0.1,6.3,0
	c6.6,0.5,12.9,2.5,18.6,5.8c1.7,1,3.3,2,4.9,3.1c0.3,0.2,0.7,0.5,1,0.7C64.7,39,63.7,39.3,62.6,39.6z M8.4,37C8.4,37,8.4,37,8.4,37
	C8.4,37,8.4,37,8.4,37z M66.2,38.6C66.2,38.6,66.2,38.6,66.2,38.6c-0.6-0.4-1.1-0.8-1.7-1.1c-1.8-1.2-3.6-2.4-5.4-3.4
	C53.2,30.9,46.7,29,40,28.7c-2.2-0.1-4.3,0-6.5,0.2c-1.7,0.2-3.4,0.3-5,0.8c-2.7,0.9-5.3,2.5-7.7,4.1c-2.9,1.8-5.7,3.8-8.4,5.9
	c-1.5,1.1-3,2.3-4.4,3.5c0.2-0.6,0.5-1.3,0.7-2c1.6-1.5,3.5-2.8,5.2-4.1c2.8-2,5.7-4,8.6-5.8c2.5-1.5,5.1-3.1,7.9-4.1
	c1.4-0.5,2.9-0.7,4.4-0.9c2.1-0.2,4.2-0.3,6.4-0.2c6.9,0.3,13.6,2.5,19.5,5.9c2,1.2,4,2.5,5.9,3.9c0.6,0.5,1.3,1,1.9,1.4
	c0.2,0.1,0.4,0.3,0.5,0.4C68.1,38.1,67.2,38.3,66.2,38.6z M69.6,37.7c-0.1-0.1-0.2-0.1-0.3-0.2c-0.6-0.4-1.1-0.8-1.6-1.2
	c-1.7-1.3-3.5-2.6-5.3-3.7c-5.5-3.5-11.7-5.8-18.2-6.6c-4-0.5-8.3-0.4-12.3,0.4c-1.1,0.2-2.1,0.7-3.1,1.1c-1.3,0.6-2.7,1.3-3.9,2
	c-3,1.7-5.9,3.6-8.8,5.6c-2.4,1.7-4.8,3.4-7,5.3c0,0-0.1,0.1-0.1,0.1c0.2-0.7,0.4-1.3,0.5-2c1.7-1.5,3.5-2.9,5.4-4.2
	c2.8-2,5.7-4,8.6-5.8c2.5-1.5,5.1-3.1,7.9-4.1c1.4-0.5,2.8-0.7,4.2-0.9c2.1-0.2,4.2-0.3,6.3-0.2c7.3,0.4,14.3,2.9,20.6,6.4
	c2.4,1.3,4.6,2.8,6.8,4.4c1.2,0.9,2.4,1.8,3.7,2.7C71.8,37.1,70.7,37.4,69.6,37.7z M73.5,36.8c-0.1,0-0.1-0.1-0.2-0.1
	c-0.6-0.4-1.2-0.8-1.8-1.3c-1.9-1.4-3.7-2.7-5.7-4c-5.7-3.7-11.9-6.5-18.6-7.8c-4-0.8-8.1-0.9-12.1-0.5c-1.4,0.2-2.7,0.4-4,0.9
	c-1.2,0.5-2.4,1.1-3.6,1.7c-3,1.6-5.9,3.4-8.7,5.3c-2.6,1.8-5.2,3.6-7.7,5.5c-0.6,0.4-1.1,0.9-1.6,1.3c0.1-0.9,0-1.7-0.5-2
	c0.8-0.6,1.6-1.1,2.4-1.7c2.6-1.8,5.3-3.5,8-5.2c2.8-1.7,5.6-3.4,8.4-4.9c2-1.1,4.2-2.2,6.4-2.8c1.7-0.4,3.5-0.5,5.2-0.6
	c2-0.1,4,0,6,0.3c3.8,0.5,7.5,1.5,11,2.9c5.8,2.3,11.1,5.6,16,9.3c1.1,0.8,2.2,1.7,3.3,2.5c0.2,0.2,0.4,0.3,0.7,0.5
	C75.5,36.3,74.5,36.5,73.5,36.8z M1.3,57.2c0.3-1.9,1.2-3.7,2.1-5.4c1-1.8,2.2-3.4,3.1-5.2c1.6-1.4,3.3-2.7,5-4
	c2.8-2.1,5.6-4.1,8.6-6c2.4-1.5,4.9-3.1,7.7-4c0.6-0.2,1.2-0.3,1.8-0.4c1.2-0.2,2.4-0.3,3.6-0.5c2.1-0.2,4.3-0.3,6.4-0.2
	c6.2,0.3,12.3,1.9,17.7,5c1.4,0.8,2.7,1.7,4,2.6c0.3,0.2,0.6,0.4,0.9,0.6c0,0-0.1,0-0.1,0c-1,0.3-1.9,0.6-2.9,1
	c-0.3,0.1-0.7,0.3-1,0.4c-0.6,0.3-1.2,0.8-1.7,1.2c-0.3,0.2-0.6,0.4-0.9,0.7c-0.3,0-0.7-0.1-1-0.1c-0.8-0.2-1.6-0.4-2.3-0.7
	c-1.7-0.7-3.4-1.4-5.1-2.2c-1.2-0.6-2.3-1.1-3.5-1.4c-1.2-0.3-2.5-0.5-3.7-0.6c-2.6-0.3-5.4-0.7-8.1-0.4c-4.8,0.5-8.7,3.8-12.4,6.5
	c-1.3,1-2.8,1.4-4.3,2.1c-2,0.8-3.8,1.9-5.4,3.3c-2.7,2.3-4.7,5.3-6.5,8.3c-0.6,0.9-1.1,1.9-1.6,2.9C1.3,59.5,1.1,58.3,1.3,57.2z
	 M7.3,61.7c0.1-1.5,0-4.4-1.8-4.9c-0.3-0.1-0.7-0.1-1,0.1c2.4-3.8,5.4-7.3,9.4-9.4c1.5-0.8,3.1-1.3,4.6-2c1.2-0.6,2.2-1.5,3.3-2.3
	c2-1.5,4.2-3,6.5-3.9c1.1-0.4,2.3-0.7,3.4-0.9c1.3-0.1,2.7-0.1,4,0c1.4,0.1,2.7,0.3,4.1,0.4c1.3,0.2,2.5,0.3,3.8,0.7
	c1.3,0.4,2.4,1,3.6,1.6c1,0.5,1.9,0.9,2.9,1.3c1.4,0.6,2.8,1.2,4.3,1.5c-3.6,2.7-7,5.5-10.3,8.5c-0.8,0.7-1.6,1.5-2.4,2.2
	c-0.5,0.2-1,0.4-1.5,0.7c-1.2,0.5-2.5,1-3.7,1.5c-0.3,0.1-0.6,0.3-0.9,0.4c-1.2,0.4-2.5,0.6-3.7,0.8c-1.2,0.2-2.3,0.6-3.5,0.9
	c-0.3,0.1-0.5,0.2-0.7,0.3c-2,0.8-4,1.9-5.9,3.1c-2.8,1.7-5.5,3.5-8,5.6c-2.1,1.8-4.2,3.7-5.9,5.9c-1.2,1.5-2.2,3.2-2.9,4.9
	C4.4,72.9,6.7,67.4,7.3,61.7z M43.1,57.4c0.4,1.4,0.9,2.7,1.3,4.1c0.4,1.3,0.8,2.5,1.2,3.8c0.4,1.2,0.8,2.5,0.7,3.8
	c-0.1,0.9-0.7,1.6-1.2,2.2c-0.3,0.4-0.6,0.7-0.8,1.1c-1.7,2.3-3.2,4.6-4.8,6.9c-0.7,0.9-1.3,1.9-2,2.8c0.3-0.7,0.5-1.4,0.7-2.1
	c0.1-0.4,0.1-0.7,0-1c2.7-3.1,4.6-6.9,5-11c0.3-3-0.3-6-1.2-8.9c-0.2-0.7-0.4-1.3-0.6-2c0-0.1-0.1-0.2-0.1-0.4c0.5-0.5,1-1,1.6-1.5
	C42.7,56,42.9,56.7,43.1,57.4z M37.1,78c-0.2-0.1-0.4-0.1-0.5-0.1c1.8-3.2,3.3-6.7,3.2-10.5c-0.1-2.2-0.7-4.1-1.7-6
	c-0.1-0.3-0.3-0.5-0.4-0.8c0.4-0.5,0.9-1.1,1.4-1.6c0,0,0,0.1,0,0.1c0.3,0.9,0.7,1.7,1,2.5c1,2.8,1.3,5.8,0.7,8.7
	C40.2,73.2,38.8,75.7,37.1,78C37.1,78,37.1,78,37.1,78z M35.5,77.9c1.7-3,2.8-6.5,2.3-10c-0.2-1.1-0.5-2.2-1-3.3
	c-0.3-0.6-0.6-1.1-0.8-1.7c0.4-0.7,0.9-1.3,1.4-1.9c0.3,0.7,0.6,1.3,0.9,2c1,2.5,1.2,5.1,0.7,7.8c-0.5,2.5-1.6,4.9-2.9,7.2
	C35.9,77.8,35.7,77.8,35.5,77.9z M40.8,57.2c0,0.1,0.1,0.2,0.1,0.3c0.3,1,0.6,2,0.9,3c0.9,3.2,1.2,6.5,0.5,9.7
	c-0.7,3.2-2.3,6-4.4,8.4c-0.1-0.1-0.2-0.3-0.4-0.4c2.3-3.2,3.9-6.8,4-10.8c0-2.6-0.7-5-1.6-7.4c-0.2-0.5-0.4-0.9-0.5-1.4
	c0,0,0,0,0-0.1C39.9,58.1,40.3,57.6,40.8,57.2z M16.2,97c-0.3-0.6-0.6-1.2-0.8-1.8c-0.3-0.7-0.7-1.4-1-2.2c-0.3-0.9-0.5-1.9-0.7-2.9
	c-0.6-3.8-0.4-7.7-1.5-11.4c-0.4-1.2-0.9-3-2.2-3.5c-1-0.4-1.9,0.3-2.6,1C6.6,77,6,78,5.3,79c0.9-2.5,2.5-4.8,4.2-6.8
	c2.3-2.6,5-4.8,7.8-6.8c2.4-1.7,4.9-3.3,7.5-4.6c0.9-0.5,1.7-0.9,2.6-1.3c1.1-0.5,2.4-0.8,3.5-1.1c1.6-0.4,3.3-0.5,4.9-1.1
	c0.8-0.3,1.5-0.6,2.3-0.9c0.9-0.4,1.8-0.7,2.6-1.1c-2.4,2.3-4.6,4.7-6.4,7.5c-1.4,2.3-2.7,4.7-3.9,7.1c-1.6,3-3.1,6.1-4.7,9.1
	c-1.1,2.2-2.2,4.4-3.4,6.6c-1.2,2.2-2.4,4.4-3.4,6.8c-0.7,1.6-1.3,3.2-1.7,4.8c-0.1,0.5-0.2,1-0.3,1.5C16.8,98.2,16.5,97.6,16.2,97z
	 M28.3,84.4c-1.9,2.8-4.1,5.2-6.2,7.9c-1.4,1.8-2.7,3.7-3.7,5.8c0-0.1,0.1-0.3,0.1-0.4c0.4-1.6,1-3.2,1.6-4.7c1-2.3,2.1-4.5,3.4-6.7
	c1.2-2.2,2.3-4.4,3.4-6.6c1.5-3,3.1-6.1,4.7-9.1c1.3-2.4,2.5-4.8,3.9-7.1c0-0.1,0.1-0.1,0.1-0.2c0.4,0.8,0.7,1.5,1,2.3
	c1.1,3,0.8,6.2-0.3,9.1c-0.4,1.2-1,2.3-1.6,3.3c-0.4,0.1-0.8,0.3-1.2,0.5C31.4,79.8,29.8,82.3,28.3,84.4z M37,79.3
	C37,79.3,37,79.3,37,79.3L37,79.3z M140.3,50.1c-1,2-2.5,3.9-4,5.5c-0.3-1.3-0.8-2.7-2-3.1c-1.4-0.5-2.7,1.1-3.4,2.1
	c-1.3,1.8-2.2,4-3.5,5.8c-0.9,1.2-1.9,2.2-2.9,3.2c0.4-1.4,0.7-3-0.4-3.9c-1.5-1.2-3.7,0.4-4.9,1.4c-1.8,1.4-3.4,3-5.1,4.4
	c-2.1,1.8-4.3,3.4-6.6,4.8c0.6-1.5,1-3.1,0.4-4.5c-0.5-1-2-1.2-3-1.1c-1.5,0.1-2.8,0.8-4.1,1.6c-1.2,0.7-2.2,1.6-3.3,2.4
	c-1.5,1.1-3,2-4.6,2.8c-2.5,1.2-5.1,2.1-7.7,2.9c0.5-0.5,0.9-0.9,1.3-1.5c0.8-1,1.4-2.1,1.1-3.4c-0.5-2.1-3.4-1.5-4.9-1.2
	c-2,0.5-3.8,1.4-5.6,2.3c-3.6,1.9-7.2,3.8-10.9,5.3c-1.9,0.7-3.7,1.4-5.7,1.9c0.7-0.8,1.4-1.6,2-2.5c0.7-1,1.6-2.2,1.5-3.5
	c-0.1-1.9-2.5-1.5-3.7-1.1c-2,0.6-3.8,1.6-5.6,2.6c-2.3,1.3-4.4,3-6.5,4.4c-3.7,2.4-7.5,4.6-11.6,6.3c0-0.1,0.1-0.2,0.1-0.3
	c0.3-0.4,0.5-0.7,0.8-1.1c0.9-1.2,1.8-2.4,2.6-3.7c1.7-2.4,3.3-4.8,5-7.1c0.2-0.3,0.5-0.6,0.8-0.9c0.6-0.8,1-1.6,1-2.6
	c0-1.1-0.4-2.3-0.7-3.4c-0.4-1.2-0.8-2.4-1.2-3.6c-0.4-1.3-0.8-2.5-1.2-3.8c-0.2-0.7-0.4-1.4-0.5-2.2c0-0.2-0.1-0.5,0-0.7
	c0.7-0.7,1.5-1.4,2.2-2c3.9-3.5,8-6.8,12.3-9.9c0.4-0.3,0.8-0.6,1.2-0.8c0.1,0,0.1-0.1,0.2-0.1c0,0,0,0,0.1,0c0,0,0,0,0.1,0
	c0.2-0.1,0.4-0.2,0.6-0.2c1-0.4,2-0.7,3.1-1c5.8-1.8,11.8-3.2,17.8-4.3c1.1-0.2,2.2-0.4,3.2-0.5c1-0.1,2-0.1,3.1-0.3
	c1.7-0.4,3.3-1,4.9-1.6c0.7-0.3,1.5-0.6,2.2-1c-0.1,0.2-0.2,0.4-0.4,0.6c-0.7,1.1-1.7,1.9-2.8,2.6c-1.3,0.8-2.6,1.5-3.9,2.2
	c-2.4,1.3-5.2,2.7-6.3,5.3c-0.3,0.8-0.4,1.7-0.3,2.6c0,0.2,0.1,0.3,0.2,0.4c-0.5,0.4-1,0.8-1.5,1.3c-0.8,0.7-1.6,1.6-2,2.5
	c-0.4,0.7-0.6,1.5-0.3,2.3c0.2,0.7,0.7,1.2,1.3,1.5c1.2,0.8,2.7,1.1,4,1.4c0.3,0.1,0.6,0.1,0.9,0.2c0.4,0.1,0.9-0.3,0.8-0.8
	c-0.1-0.4-0.3-0.8-0.3-1.2c0-0.1,0-0.1,0-0.2c0,0,0,0,0-0.1c0,0,0,0,0,0c0,0,0,0,0,0c0,0,0,0,0,0c0.1,0,0.1,0,0.2,0
	c0.4,0.1,0.7,0.3,1.1,0.5c0.9,0.5,1.8,1.1,2.8,1.5c1,0.4,2,0.6,3,0.8c0.6,0.1,1.1-0.6,0.6-1c-0.3-0.3-0.7-0.6-1-0.9
	c-0.2-0.2-0.3-0.3-0.4-0.5c0,0,0,0,0,0c0,0,0,0,0,0c0,0,0.2,0,0.2,0c0.1,0,0.3,0,0.5,0c0.4,0,0.8,0.1,1.1,0.1
	c1.1,0.2,2.1,0.5,3.2,0.6c1.5,0.2,3.1,0.4,4.6,0.4c0.7,0,0.8-0.8,0.3-1.2c-0.3-0.2-0.6-0.5-0.9-0.7c-0.2-0.2-0.4-0.3-0.5-0.5
	c0,0-0.1-0.2-0.1-0.2c0,0,0-0.1,0-0.1c0,0,0,0,0,0c0,0,0,0,0,0c0,0,0.1-0.1,0.1-0.1c0.1-0.1,0.2-0.2,0.3-0.2
	c0.2-0.1,0.5-0.2,0.8-0.2c0.6-0.1,1.2-0.1,1.8,0c1.5,0.1,2.9,0.3,4.3,0.1c1.7-0.2,3.4-0.6,5-1c0.6-0.1,0.6-1,0-1.2
	c-0.7-0.2-1.5-0.3-2.2-0.6c-0.2-0.1-0.5-0.2-0.6-0.4c0,0,0-0.1,0-0.1c0,0,0,0,0,0c0,0,0,0,0,0c0,0,0.1-0.1,0.1-0.1c0,0,0,0,0,0
	c0,0,0,0,0,0c0.1,0,0.1-0.1,0.2-0.1c0.2-0.1,0.4-0.2,0.6-0.3c0.3-0.1,0.6-0.1,0.8-0.2c0.3-0.1,0.6-0.1,0.8-0.1
	c1.6-0.2,3.1-0.2,4.7-0.3c2.2-0.2,4.4-0.5,6.6-1.2c0.5-0.1,0.7-0.9,0.1-1.1c-0.9-0.4-1.7-0.6-2.6-1c-0.2-0.1-0.4-0.2-0.6-0.3
	c-0.1,0-0.1-0.1-0.2-0.1c0.1-0.1,0,0,0.2-0.1c0.3-0.1,0.6-0.2,0.8-0.2c0.6-0.1,1.2-0.2,1.8-0.2c1.5-0.1,3,0.1,4.4,0.2
	c2.6,0.1,5.1,0,7.6-0.3c0.6-0.1,0.5-0.9,0.1-1.1c-0.4-0.3-0.8-0.5-1.1-0.8c-0.2-0.2-0.5-0.4-0.7-0.5c-0.1-0.1-0.2-0.2-0.3-0.3
	c0.1,0,0.1-0.1,0.2-0.1c0.2-0.1,0.6-0.1,0.8-0.1c0.7,0.1,1.5,0.4,2.1,0.6c0.6,0.3,1.2,0.6,1.9,0.8c0.9,0.4,1.9,0.7,2.9,1.1
	c0.3,0.1,0.6,0.2,0.9,0.3C142.1,44.9,141.5,47.7,140.3,50.1z M141.5,31.2c-1.8,0.5-0.5,3.6-0.1,4.6c0.4,1,1,2,1.4,3
	c0.4,0.9,0.6,1.8,0.7,2.8c0.1,0.6,0.1,1.2,0.2,1.7c0,0,0,0,0,0c-0.6-0.6-1.2-1.1-1.8-1.6c-1.1-0.8-2.2-1.5-3.3-2.2
	c-2.5-1.4-4.9-3.1-7.4-4.6c-1.2-0.7-2.3-1.5-3.5-2.1c-0.2-0.1-0.3-0.2-0.5-0.3c0,0-0.1,0-0.1-0.1c0,0,0,0,0,0
	c-1.3-0.6-2.6-1-3.9-1.3c0,0,0.1,0,0.1,0c0.7-0.1,1.3-0.2,2-0.3c0.7-0.1,1.4-0.3,2.1-0.6c0.8-0.3,1.5-0.6,2.4-0.7c1-0.2,2-0.2,3-0.2
	c1.6,0,3.1,0.1,4.7,0.3c1.7,0.2,3.5,0.6,5,1.4C142.1,31.1,141.8,31.1,141.5,31.2z"/>
</svg>
