<?xml version="1.0" encoding="utf-8"?>
<!-- Generator: Adobe Illustrator 18.1.1, SVG Export Plug-In . SVG Version: 6.00 Build 0)  -->
<!DOCTYPE svg PUBLIC "-//W3C//DTD SVG 1.1//EN" "http://www.w3.org/Graphics/SVG/1.1/DTD/svg11.dtd">
<svg version="1.1" id="Слой_1" xmlns="http://www.w3.org/2000/svg" xmlns:xlink="http://www.w3.org/1999/xlink" x="0px" y="0px"
	 viewBox="0 0 59.1 56.1" enable-background="new 0 0 59.1 56.1" xml:space="preserve">
<path fill="#1D1D1B" d="M6.4,42.1c0.7,0.8,1.5,1.5,2.3,2.2c2,1.7,4.1,3.3,6.3,4.8c1.9,1.3,3.9,2.6,6,3.8c0.7,0.4,1.3,0.8,2,1.1
	c0.3,0.2,0.8,0.3,1.1,0.2c2.2,0.9,4.5,1.3,6.9,1.4c0.7,0,1.3,0,2-0.1c0.6,0,1.2-0.3,1.4-0.9c0.1-0.3,0-0.6,0-0.9
	c-0.1-0.4-0.1-0.8-0.2-1.2c0-0.2-0.1-0.4-0.1-0.6c2.4,1.9,5.2,3.2,8.1,3.9c1.8,0.4,3.6,0.5,5.4,0.3c0.5,0,0.8-0.1,1.1-0.5
	c0.4-0.4,0.2-1,0-1.4c-0.2-0.7-0.4-1.3-0.6-2c1.8,0.6,3.6,1,5.5,1.2c1.1,0.1,2.2,0.2,3.3,0.2c0.8,0,2.6,0.1,2.5-1.1
	c0-0.9-0.2-1.9-0.3-2.8c-0.2-1.4-0.5-2.8-0.8-4.2c-0.5-2.1-1-4.2-1.7-6.3c-0.3-1-0.6-2.2-1.1-3.2c0.1,0,0.3,0.1,0.4,0.1
	c0.5,0.1,1.1,0.5,1.6,0.3c0.4-0.1,0.7-0.5,0.7-1c0-0.4-0.2-0.7-0.3-1c-0.5-1.3-1.2-2.6-1.8-3.9c-1.2-2.4-2.4-4.8-3.8-7.1
	c-0.1-0.2-0.2-0.4-0.4-0.6c-0.8-1.2-1.8-2.3-2.7-3.3c0.3,0,0.6,0,0.9,0c0.3,0,0.6,0.1,1,0.1c0.3-0.1,0.6-0.3,0.7-0.7
	c0.2-0.7-0.5-1.3-1-1.8c-0.6-0.6-1.2-1.2-1.8-1.8c-2.3-2.3-4.9-4.4-7.6-6.1c0,0,0,0,0,0c-0.1-0.1-0.3-0.3-0.5-0.4
	c-0.7-0.4-1.3-0.8-2-1.1c-1.3-0.7-2.6-1.4-4-2.1c0.2-0.1,0.4-0.2,0.5-0.3c0.5-0.2,1.1-0.4,1.3-1c0.2-0.8-0.5-1.3-1-1.8
	c-0.7-0.7-1.7-1.1-2.6-1.5C31,0,28.7-0.1,26.4,0.1C21.2,0.4,16,2,11.1,3.9c-2,0.8-4,1.6-5.9,2.5C4.1,6.9,3,7.4,2,8.1
	C1.9,8.1,1.8,8.2,1.7,8.3C1.4,8.8,1.2,9.4,1,10c-0.4,1.3-0.7,2.7-0.8,4.1c-0.3,3.1-0.1,6.3,0.2,9.4c0.2,2.1,0.5,4.2,0.9,6.3
	c0.1,0.6,0.2,1.2,0.4,1.8c0.1,0.2,0.1,0.3,0.3,0.5c0.3,0.4,0.8,0.4,1.2,0.4c0.1,0,0.2,0,0.3-0.1c0.2,1.5,0.5,3,0.8,4.4
	c0.2,0.8,0.4,1.6,0.6,2.4C4.9,39.4,5,40,5.2,40.3C5.4,40.9,5.9,41.5,6.4,42.1z M28.8,54.2c-0.6-3.6-1-7.1-1.2-10.7
	c-0.2-3.9-0.1-7.8,0.7-11.6c0.3-1.4,0.8-2.8,1.4-4.1c0.2-0.5,0.5-1,0.8-1.5c0.1-0.2,0.3-0.4,0.4-0.7c0.5,0.4,1,0.9,1.5,1.3
	c-0.8,1.4-1.2,3.1-1.5,4.7c-0.3,1.9-0.4,3.9-0.5,5.8c-0.1,4.2,0.2,8.3,0.6,12.5c0.2,1.5,0.3,3.1,0.5,4.6c-0.4,0-0.7,0-1.1,0
	C29.9,54.3,29.4,54.2,28.8,54.2z M48,50.8c-0.2-1.5-0.4-3-0.6-4.6c-0.2-1.9-0.4-3.9-0.9-5.7c0.5,0.5,1,1,1.5,1.5
	c0.5,0.5,0.9,1,1.4,1.5c0.2,0.6,0.2,1.3,0.3,1.9c0.1,0.8,0.2,1.7,0.4,2.5c0.1,0.9,0.2,1.7,0.6,2.6c0.2,0.4,0.4,0.8,0.5,1.2
	C50.1,51.4,49.1,51.1,48,50.8z M35.4,51.4c-0.1-3.8-0.9-7.5-1.1-11.2c-0.1-2.3,0-4.6,0.2-6.8c0.1-1,0.2-2,0.5-2.9
	c0.1-0.3,0.2-0.6,0.3-1c0.6,0.6,1.2,1.1,1.8,1.7c0.3,0.3,0.6,0.6,0.9,0.8c-0.6,4-0.9,8.1-0.7,12.1c0.1,2,0.3,4.1,0.8,6.1
	c0.2,0.8,0.4,1.6,0.6,2.4c0.1,0.3,0.1,0.5,0.2,0.8C37.6,52.8,36.5,52.1,35.4,51.4z M33.3,54.1c0,0.2,0,0.2-0.1,0.2
	c-0.3,0-0.6,0-0.8,0.1c-0.6-4.3-1-8.5-1.1-12.8c-0.1-1.8,0-3.6,0-5.5c0.1-2,0.3-3.9,0.7-5.8c0.2-1,0.5-2,1-2.9
	c0.7,0.6,1.4,1.2,2,1.8c0,0.1,0,0.2-0.1,0.3c-0.1,0.3-0.2,0.6-0.2,0.9c-0.2,0.9-0.3,1.8-0.5,2.7c-0.3,2.2-0.4,4.4-0.3,6.6
	c0.1,3.8,1,7.6,1.1,11.4c-0.6-0.4-1.1-0.8-1.6-1.3c-0.4-0.3-1,0.1-0.9,0.6C32.8,51.6,33.1,52.8,33.3,54.1z M39.3,53.6
	c-0.1-0.3-0.2-0.6-0.2-0.8c-0.2-0.7-0.4-1.4-0.5-2.1c-0.5-2-0.7-4.1-0.9-6.2c-0.3-4.1,0-8.1,0.6-12.2c0.7,0.7,1.4,1.3,2.1,2
	c-0.4,3.5-0.3,7,0,10.5c0.3,3.3,0.9,6.6,2,9.7c-0.3-0.1-0.5-0.1-0.8-0.2C40.8,54.2,40.1,53.9,39.3,53.6z M42.9,54.6
	c-1.1-3.2-1.7-6.5-2.1-9.9c-0.3-3.4-0.4-6.8-0.1-10.1c0.8,0.8,1.7,1.6,2.5,2.5c-0.2,3.1-0.1,6.2,0.4,9.2c0.5,2.9,1.6,5.7,2.3,8.6
	C44.9,54.9,43.9,54.8,42.9,54.6z M47.5,54.1c0.1,0.2,0.1,0.5,0.2,0.7c0,0,0,0-0.1,0c-0.4,0.1-0.9,0.1-1.3,0.1c0,0,0,0,0,0
	c-0.7-2.9-1.8-5.6-2.3-8.5c-0.5-2.9-0.6-5.9-0.4-8.9c0.8,0.8,1.6,1.6,2.4,2.4c0.6,2.1,0.8,4.2,1.1,6.4c0.2,1.5,0.3,2.9,0.5,4.4
	c-0.1,0-0.2-0.1-0.3-0.1c-0.5-0.2-0.9,0.3-0.7,0.8C47,52.2,47.3,53.2,47.5,54.1z M51.7,51.8c-0.1-0.4-0.4-0.8-0.5-1.2
	c-0.4-0.9-0.5-1.8-0.6-2.7c-0.1-0.9-0.3-1.7-0.4-2.6c-0.1-0.4-0.1-0.8-0.2-1.2c1.2,1.3,2.4,2.5,3.5,3.8c0.5,1.4,0.9,2.9,1,4.4
	C53.6,52.1,52.6,51.9,51.7,51.8z M55.3,52.2c-0.1,0-0.3,0-0.4,0c-0.1-0.8-0.2-1.7-0.5-2.5c-0.1-0.4-0.2-0.8-0.4-1.2
	c0.5,0.6,1,1.1,1.5,1.7c0.6,0.7,1.2,1.4,1.9,2.1c-0.1,0-0.1,0-0.2,0C56.6,52.3,56,52.3,55.3,52.2z M51.4,23.5c0.1,0,0.2,0,0.3,0
	C51.5,23.6,51.4,23.6,51.4,23.5z M50.4,18.1c-0.2,0-0.3,0-0.5,0c-0.6,0-1.3,0.1-1.9,0.3c-0.4,0.1-0.7,0.6-0.4,0.9
	c1.3,1.2,2.4,2.6,3.5,4c0,0,0,0,0.1,0.1c0,0,0,0,0.1,0.1c0,0,0,0.1,0.1,0.1c0,0,0.1,0.1,0.1,0.2c0.2,0.4,0.5,0.8,0.7,1.2
	c0.7,1.3,1.4,2.5,2,3.8c0.7,1.4,1.4,2.8,2.1,4.2c0.3,0.6,0.5,1.2,0.8,1.8c0,0.1,0.1,0.2,0.1,0.2c-0.5-0.2-1.1-0.3-1.6-0.4
	c-0.3-0.1-0.6-0.1-0.9-0.1c-0.5-0.1-0.8,0.5-0.5,1c0,0,0,0.1,0,0.1c0,0,0,0,0,0.1c0,0.1,0.1,0.2,0.1,0.3c0.1,0.2,0.2,0.4,0.3,0.7
	c0.2,0.5,0.4,1.1,0.6,1.6c0.5,1.4,0.9,2.7,1.2,4.1c0.7,2.8,1.4,5.6,1.8,8.4c0.1,0.4,0.1,0.9,0.2,1.3c-0.9-1-1.7-1.9-2.6-2.9
	c-2.6-2.9-5.3-5.7-8-8.6c-3.6-3.8-7.4-7.4-11.2-11c-4-3.7-8.2-7.4-12.5-10.8c3.7-1.5,7.4-3.1,11.2-4.3c2-0.6,4-1.1,6.1-1.5
	c0.9-0.2,1.8-0.3,2.7-0.4c0.2,0,0.4,0,0.6-0.1c1,0.8,2,1.6,2.9,2.5C48.4,16,49.4,17,50.4,18.1C50.3,18.1,50.3,18.1,50.4,18.1z
	 M51.3,23.5C51.3,23.5,51.3,23.5,51.3,23.5C51.3,23.5,51.3,23.5,51.3,23.5z M41.2,10.2c0.9,0.6,1.9,1.3,2.8,2c-0.1,0-0.2,0-0.3,0
	c-1,0.1-2,0.3-3,0.4c-2,0.4-4,0.9-5.9,1.5c-3.8,1.2-7.5,2.8-11.2,4.3c-0.9-0.7-1.8-1.4-2.8-2.1c3.8-1.3,7.4-3.1,11.2-4.5
	c1.8-0.7,3.6-1.3,5.6-1.4C38.8,10.3,40,10.3,41.2,10.2z M40.5,9.3C40.5,9.3,40.5,9.3,40.5,9.3C40.5,9.4,40.5,9.4,40.5,9.3
	C40.5,9.4,40.5,9.4,40.5,9.3z M40.5,9.7c0.1,0,0.1,0.1,0.2,0.1c0,0,0,0,0.1,0.1c0,0,0,0-0.1,0c-0.7,0-1.4,0.1-2.1,0.1
	c-0.7,0-1.4,0.1-2.1,0.2c-0.9,0.1-1.8,0.4-2.7,0.7c-4.2,1.3-8.1,3.4-12.2,4.8c-0.4,0.1-0.7,0.2-1.1,0.4c-0.9-0.6-1.8-1.2-2.7-1.8
	c6.4-2.6,13.1-4.1,19.6-6.4c0.2,0.1,0.3,0.2,0.5,0.3c0.7,0.4,1.3,0.7,2,1.1C40,9.4,40.2,9.5,40.5,9.7z M33.4,6
	c1.2,0.5,2.3,1.1,3.4,1.7c-6.5,2.2-13.2,3.7-19.5,6.4c-1.1-0.7-2.2-1.4-3.3-2c3-1.4,5.9-2.9,9-4.2c1.7-0.7,3.6-1.1,5.4-1.5
	C30,6,31.5,5.8,33.1,5.6C33.2,5.8,33.3,5.9,33.4,6z M15.6,3.5c2.5-0.8,5.1-1.5,7.7-1.9c2.4-0.4,4.8-0.6,7.2-0.2
	c1.1,0.2,2.4,0.5,3.3,1c0.5,0.3,0.9,0.6,1.4,1c0,0,0.1,0.1,0.1,0.1c0.1,0.1,0.1,0.1,0.2,0.2c0,0.1,0.1,0.1,0.1,0.2
	c-0.7,0.3-1.4,0.7-2,1c-1.7,0.1-3.4,0.4-5.1,0.7c-1.9,0.3-3.8,0.8-5.6,1.5c-3.3,1.3-6.4,3.1-9.7,4.5c-0.5-0.3-1-0.5-1.4-0.7
	C9.3,9.6,6.7,8.5,4,8.3C7.7,6.4,11.6,4.8,15.6,3.5z M6,38.8c-0.2-0.8-0.4-1.6-0.6-2.4c-0.4-1.7-0.8-3.5-0.9-5.3
	c0-0.5-0.6-0.6-0.9-0.4c-0.2,0.1-0.3,0.3-0.5,0.4c-0.1,0-0.2,0-0.2,0c0,0,0,0,0-0.1c0,0,0,0,0-0.1c0,0,0-0.1,0-0.1
	c0-0.1-0.1-0.3-0.1-0.5c-0.2-0.9-0.4-1.9-0.5-2.8c-0.5-2.9-0.8-5.8-0.9-8.7c-0.1-2.8-0.1-5.9,0.8-8.6C2.2,10,2.4,9.4,2.6,9
	c0,0,0,0,0,0c3.3-0.1,6.8,1.4,9.7,3c4.4,2.3,8.4,5.2,12.2,8.3c1.9,1.5,3.8,3.1,5.7,4.7c-0.1,0.1-0.1,0.2-0.2,0.3
	c-0.1,0.2-0.2,0.4-0.4,0.6c-0.4,0.8-0.8,1.6-1.1,2.4c-0.7,1.7-1.1,3.5-1.4,5.3c-0.6,3.9-0.6,7.8-0.2,11.7c0.2,2.9,0.6,5.8,1.1,8.7
	c-1.4-0.3-2.7-0.7-4-1.2c-0.2-0.1-0.4,0-0.5,0.1c-0.2-0.1-0.5-0.2-0.7-0.3c0,0-0.1-0.1-0.2-0.1c-0.1,0-0.1-0.1-0.2-0.1
	c-0.2-0.1-0.4-0.2-0.6-0.3c-2-1.2-4-2.4-5.9-3.8c-2.2-1.5-4.3-3-6.3-4.7c-0.8-0.7-1.5-1.3-2.3-2.1c-0.3-0.3-0.5-0.6-0.8-1
	c0-0.1-0.1-0.1-0.1-0.2c0,0,0,0,0,0c0,0,0-0.1-0.1-0.1c0-0.1-0.1-0.2-0.1-0.3c0-0.1,0-0.1-0.1-0.2c0,0,0-0.1,0-0.1
	C6.1,39.3,6,39,6,38.8z"/>
</svg>
