<?xml version="1.0" encoding="utf-8"?>
<!-- Generator: Adobe Illustrator 18.1.1, SVG Export Plug-In . SVG Version: 6.00 Build 0)  -->
<!DOCTYPE svg PUBLIC "-//W3C//DTD SVG 1.1//EN" "http://www.w3.org/Graphics/SVG/1.1/DTD/svg11.dtd">
<svg version="1.1" id="Слой_1" xmlns="http://www.w3.org/2000/svg" xmlns:xlink="http://www.w3.org/1999/xlink" x="0px" y="0px"
	 viewBox="0 0 180.2 67.4" enable-background="new 0 0 180.2 67.4" xml:space="preserve">
<g>
	<path fill-rule="evenodd" clip-rule="evenodd" fill="#010202" d="M179.9,51.9l-5-6.7c-4.3-5.8-8.6-11.6-13-17.4
		c-0.2-0.3-0.2-0.5,0-0.8c2.6-3.9,5.2-7.9,7.8-11.8c0.2-0.4,0.4-0.7,0.7-1.2c-2.7,0-5.3,0-7.9,0c-0.2,0-0.5,0.2-0.6,0.4
		c-0.6,0.9-1.3,1.8-1.9,2.7l-2.9,4.1c-0.1-0.1-0.2-0.2-0.3-0.3c-1.8-2.3-3.7-4.7-5.5-7.1c-0.2-0.3-0.5-0.4-0.9-0.4
		c-3.1,0.1-6.2,0.1-9.3,0.1c-6.7,0-13.3,0-20,0c-0.2,0-0.4,0-0.6,0v11c-0.1,0-0.1,0-0.1,0c0-0.1-0.1-0.3-0.2-0.4
		c-0.6-2.3-1.8-4.3-3.4-6c-2.9-3.1-6.6-4.7-10.8-4.7c-2.5,0-5,0-7.5,0.1c-1.6,0-3.1,0-4.7,0c-0.2,0-0.5,0-0.7,0v29.8h0.8
		c3.7,0,7.3,0,11,0c1.1,0,2.3,0,3.4-0.1c4-0.5,7.1-2.4,9.6-5.5c1.2-1.5,2-3.3,2.7-5.1v10.8h21.8v-6.7h-1c-4.2,0-8.5,0-12.7,0
		c-0.5,0-0.7-0.1-0.7-0.7c0-1.4,0-2.9,0-4.4v-1.4h1.3c4.1,0,8.3,0,12.4,0c0.5,0,0.7-0.1,0.7-0.7c0-1.8,0-3.6,0-5.3
		c0-0.2,0-0.3,0-0.5h-14.3v-3.3h14.4v-6.3l10.4,13.7l-5.1,7.8l-5.1,7.8c0.1,0,0.2,0.1,0.3,0.1c2.5,0,5.1,0,7.6,0
		c0.3,0,0.6-0.2,0.8-0.5c1.9-2.8,3.8-5.7,5.6-8.5c0.1-0.2,0.3-0.4,0.5-0.6c0.1,0.1,0.2,0.2,0.3,0.3c4.5,5.9,9,11.7,13.4,17.6
		c0.3,0.4,0.5,0.5,1,0.5c2.4,0,4.8,0,7.2,0h0.8C180.1,52.1,180,52,179.9,51.9z M110.6,35.6c-1.3,0.9-2.7,1.3-4.3,1.3
		c-1.8,0-3.5,0-5.2,0c-0.6,0-0.7-0.2-0.7-0.7c0-2.6,0-5.2,0-7.8c0-2.6,0-5.1,0-7.7c0-0.6,0.2-0.7,0.8-0.7c2,0,4,0,6,0.1
		c2.8,0.2,4.8,1.8,6.2,4.2C115.4,28.1,114.2,33.2,110.6,35.6z"/>
	<path fill-rule="evenodd" clip-rule="evenodd" fill="#010202" d="M41.3,43.4h21.9v-6.9H48.7v-6.2h14.4v-6.7H48.7v-3.4h14.4v-6.7
		H41.2v10.2H16.8v6.7h17.4c-2.7,4.3-6.3,6.8-11.3,7.3c-4,0.4-7.6-0.7-10.7-3.3c-5.5-4.6-6.9-12.6-3.9-18.9c2.8-5.9,8.9-9.2,15.3-8.3
		c4,0.6,7.1,2.6,9.5,5.8c0.2,0.3,0.5,0.5,0.9,0.4c0.2,0,0.5,0,0.7,0h6.3c-0.1-0.2-0.2-0.4-0.2-0.6c-0.9-1.9-2-3.7-3.4-5.3
		C33.5,3,28.6,0.4,22.6,0c-3.3-0.2-6.5,0.4-9.5,1.7C3.5,6.1-1.3,16.5,0.3,26.2c0.8,5,3,9.3,6.7,12.7c5,4.7,10.8,6.7,17.6,5.6
		c6.7-1,11.6-4.6,15.1-10.3c0.6-0.9,1-1.9,1.6-3V43.4z"/>
	<polygon fill-rule="evenodd" clip-rule="evenodd" fill="#010202" points="84.9,33.4 64.9,12.6 64.9,43.4 71.6,43.4 71.6,29.8 
		91.6,51 91.6,13.5 84.9,13.5 	"/>
	<path fill-rule="evenodd" clip-rule="evenodd" fill="#010202" d="M20.7,58.8c-0.4,0.2-0.7,0.5-1,0.8c-0.2-0.6-0.7-1-1.4-1
		c-0.7,0-1.1,0.3-1.6,0.9l0-0.7h-1.3v5.8h1.3c0-1-0.1-1.9,0-2.8c0-0.5,0.3-1.1,0.5-1.6c0.1-0.2,0.6-0.4,0.8-0.3
		c0.2,0,0.4,0.4,0.4,0.6c0.1,0.7,0.1,1.4,0.1,2.1c0,0.7,0,1.3,0,2h1.3c0-0.6,0-1.1,0-1.6c0-0.7,0.1-1.4,0.2-2.1
		c0.1-0.7,0.7-1.1,1.1-1c0.6,0.2,0.5,0.7,0.5,1.2c0,1.2,0,2.3,0,3.5H23c0-1.5,0-3,0-4.4C22.9,59,21.8,58.3,20.7,58.8z"/>
	<path fill-rule="evenodd" clip-rule="evenodd" fill="#010202" d="M153.4,60.6c0.2-0.2,0.4-0.3,0.6-0.4c0.9-0.7,0.8-2.5-0.2-3.1
		c-1.2-0.6-2.4-0.6-3.6,0c-0.1,0.1-0.3,0.2-0.4,0.4c-0.8,1-0.5,2.2,0.8,3c-0.2,0.1-0.3,0.2-0.4,0.2c-0.8,0.5-0.9,1.3-0.8,2.1
		c0,0.7,0.4,1.3,1.1,1.5c1,0.4,2.1,0.4,3.2,0c0.7-0.3,1-0.8,1.1-1.5C154.7,61.9,154.6,61,153.4,60.6z M152.1,57.6c0.7,0,1,0.5,1,1.3
		c0,0.8-0.4,1.2-1.1,1.2c-0.7,0-1.1-0.6-1.1-1.3C150.8,58,151.3,57.6,152.1,57.6z M152,63.9c-0.8,0-1.3-0.6-1.3-1.5
		c0-0.9,0.5-1.4,1.3-1.4c0.8,0,1.2,0.5,1.2,1.4C153.2,63.3,152.7,63.9,152,63.9z"/>
	<path fill-rule="evenodd" clip-rule="evenodd" fill="#010202" d="M49.5,59.4c-1.2-1.3-3-0.8-3.3,0.9c-0.2,0.8-0.1,1.7,0,2.5
		c0.1,0.8,0.4,1.4,1.2,1.7c0.8,0.3,1.5,0,2.2-0.8c0,0.9,0.2,1.7-0.4,2.3c-0.9,0.8-1.9,0.3-2.9,0c0,0.2,0,0.3,0,0.4
		c-0.1,0.6,0.1,0.9,0.8,0.9c0.5,0,1,0.1,1.5,0.1c1.5,0,2.3-0.8,2.3-2.4c0-1.5,0-3,0-4.5v-1.6h-1.2L49.5,59.4z M49.1,63.3
		c-0.4,0.5-1.1,0.5-1.4-0.1c-0.2-0.5-0.3-1-0.4-1.5c0.1-0.5,0.1-1,0.3-1.4c0.1-0.3,0.5-0.5,0.7-0.6c0.3,0,0.7,0.2,0.9,0.4
		C49.7,60.8,49.6,62.6,49.1,63.3z"/>
	<path fill-rule="evenodd" clip-rule="evenodd" fill="#010202" d="M33.9,58.8l-0.1,0.6c-1.2-1.3-2.8-0.8-3.2,0.5
		c-0.4,1.2-0.4,2.4,0.1,3.6c0.3,0.7,0.9,1.1,1.6,1.1c0.5,0,1-0.4,1.6-0.6c0.3,2.2-0.5,2.7-3.3,2c-0.1,1.2-0.1,1.2,0.9,1.3
		c0.5,0.1,1.1,0.1,1.6,0c1.4-0.2,2-0.9,2-2.3c0-1.9,0-3.8,0-5.7c0-0.2,0-0.3,0-0.5H33.9z M33.4,63.1c-0.1,0.2-0.6,0.5-0.8,0.5
		c-0.3-0.1-0.7-0.4-0.8-0.7c-0.2-0.4-0.2-0.8-0.2-1.3c0.1-0.4,0.1-0.8,0.3-1.2c0.1-0.3,0.5-0.6,0.8-0.6c0.3,0,0.7,0.2,0.9,0.5
		C34,61.2,33.9,62.2,33.4,63.1z"/>
	<path fill-rule="evenodd" clip-rule="evenodd" fill="#010202" d="M159.7,56.9c-2.2-0.7-3.8,0.5-3.6,2.8c0.1,1.1,0.8,1.9,2,1.8
		c0.6,0,1.2-0.2,1.9-0.4c-0.1,0.7-0.2,1.4-0.4,2c-0.2,0.7-1.2,1-1.6,0.4c-0.5-0.8-1.1-0.5-1.9-0.5c0.3,0.5,0.4,0.9,0.8,1.2
		c1.4,1.3,4,0.5,4.3-1.3c0.2-1.4,0.1-2.9,0-4.3C161.1,57.8,160.6,57.2,159.7,56.9z M158.6,60.6c-0.7,0-1.1-0.6-1.1-1.7
		c0-0.5,0.1-1.1,0.8-1.3c0.3-0.1,1,0,1.1,0.3c0.2,0.5,0.4,1.2,0.3,1.8C159.7,60.4,159.3,60.7,158.6,60.6z"/>
	<path fill-rule="evenodd" clip-rule="evenodd" fill="#010202" d="M58.1,63.6c-0.2,0-0.6-0.2-0.6-0.3c0-0.8,0-1.7,0-2.6h3.3v-1
		c-1,0-1.9,0-2.8,0c-0.2,0-0.5-0.2-0.5-0.3c0-0.7,0-1.4,0-2.2H61v-1h-4.8v8.4h4.9v-1C60.1,63.6,59.1,63.6,58.1,63.6z"/>
	<path fill-rule="evenodd" clip-rule="evenodd" fill="#010202" d="M115.7,59.7c-0.5-0.3-1-0.5-1.4-0.9c-0.3-0.2-0.5-0.7-0.4-1
		c0.1-0.3,0.5-0.6,0.9-0.8c0.3-0.1,0.7,0,1,0c0.5,0.1,1,0.3,1.5,0.4v-1.4c-1,0-1.9,0-2.8,0c-1,0-1.9,0.7-2.1,1.4
		c-0.3,1,0,1.8,0.9,2.4c0.3,0.2,0.6,0.4,0.9,0.6c0.5,0.3,1.1,0.7,1.6,1.1c0.5,0.4,0.6,0.9,0.4,1.5c-0.2,0.5-0.7,0.8-1.2,0.7
		c-0.7-0.1-1.3-0.3-1.9-0.4c-0.2,0-0.4-0.2-0.6-0.3c0,0.4,0,0.7,0,1c0,0.1,0.2,0.4,0.3,0.4c1.2,0.3,2.3,0.4,3.5,0
		c1.9-0.6,2-2.8,0.8-3.8C116.7,60.4,116.2,60.1,115.7,59.7z"/>
	<path fill-rule="evenodd" clip-rule="evenodd" fill="#010202" d="M166.9,60.5C166.9,60.5,166.9,60.4,166.9,60.5
		c0.9-0.4,1.1-1,1.1-1.8c0-0.8-0.4-1.4-1.2-1.7c-0.9-0.3-1.8-0.3-2.7,0c-0.7,0.3-1.1,0.7-1.2,1.5c0.1,0,0.1,0.1,0.2,0
		c0.6,0,1.3,0.3,1.5-0.6c0-0.1,0.2-0.2,0.3-0.2c0.6-0.2,1.2,0,1.4,0.5c0.3,0.8,0,1.5-0.7,1.7c-0.2,0.1-0.5,0.1-0.7,0.2V61
		c1.3,0.2,1.6,0.5,1.6,1.7c0,0.6-0.2,1-0.8,1.2c-0.6,0.2-1.1,0.1-1.4-0.6c0-0.1-0.2-0.2-0.3-0.2c-0.4,0-0.8,0-1.3,0
		c0,0.7,0.4,1.2,0.9,1.5c0.8,0.4,1.6,0.5,2.5,0.3c1.2-0.3,1.9-0.8,1.9-1.8c0-0.5,0-1-0.2-1.5C167.7,61.1,167.3,60.8,166.9,60.5z"/>
	<path fill-rule="evenodd" clip-rule="evenodd" fill="#010202" d="M43.5,58.7c-0.7-0.2-1.4,0-1.9,0.6l-0.4,0.4l-0.1-0.9H40v5.8h1.3
		c0-0.9,0-1.7,0-2.6c0-0.8,0.2-1.5,0.9-2c0.6-0.4,1-0.2,1.1,0.5c0.1,0.4,0.1,0.8,0.1,1.2c0,1,0,1.9,0,2.8h1.3c0-1.5,0-2.9,0-4.4
		C44.6,59.6,44.2,59,43.5,58.7z"/>
	<path fill-rule="evenodd" clip-rule="evenodd" fill="#010202" d="M125.4,58.7c-0.8,0-1.2,0.5-1.7,1.2l0-1h-1.3v5.8h1.3
		c0-0.9,0-1.8,0-2.7c0-0.5,0.2-1,0.4-1.5c0.2-0.4,0.7-0.8,1.1-0.5c0.2,0.1,0.4,0.6,0.4,1c0,1.2,0,2.5,0,3.7h1.3c0-1.6,0.1-3.1,0-4.6
		C126.9,59.1,126.3,58.7,125.4,58.7z"/>
	<path fill-rule="evenodd" clip-rule="evenodd" fill="#010202" d="M94.6,58.7c-0.8,0-1.2,0.5-1.7,1.1l-0.1-0.9h-1.2v5.8h1.3
		c0-0.9-0.1-1.8,0-2.7c0.1-0.6,0.3-1.2,0.6-1.7c0.1-0.2,0.7-0.3,1-0.3c0.1,0,0.3,0.5,0.4,0.8c0.1,0.6,0,1.2,0,1.8v2.1h1.3
		c0-1.6,0-3.1,0-4.6C96.2,59.1,95.5,58.7,94.6,58.7z"/>
	<path fill-rule="evenodd" clip-rule="evenodd" fill="#010202" d="M27.5,58.7c-0.5-0.1-1,0-1.4,0c-1,0.2-1.4,0.7-1.4,1.7h1.2
		c0.4-0.8,0.8-1.1,1.4-0.8c0.5,0.2,0.7,0.9,0.4,1.6c-0.4,0.1-0.8,0.1-1.2,0.2c-0.4,0.1-0.8,0.2-1.1,0.3c-0.7,0.3-1,0.9-0.9,1.7
		c0,0.7,0.5,1,1.1,1.2c0.7,0.2,1.3,0.1,1.9-0.5c0.1-0.1,0.1-0.1,0.2-0.2l0.1,0.6h1.2v-4.2C28.9,59.4,28.5,58.9,27.5,58.7z
		 M26.7,63.8c-0.3,0.1-0.8-0.1-0.9-0.3c-0.1-0.3,0-0.8,0.2-1c0.4-0.5,1-0.5,1.8-0.5C27.6,62.8,27.5,63.6,26.7,63.8z"/>
	<path fill-rule="evenodd" clip-rule="evenodd" fill="#010202" d="M67.2,58.8c-0.5,0-1.1-0.2-1.4,0c-0.5,0.4-0.8,1-1.3,1.5
		c-0.4-0.5-0.6-1.1-1-1.4c-0.4-0.2-1-0.2-1.7-0.3c0.6,0.9,1,1.6,1.5,2.2c0.4,0.5,0.4,0.8,0,1.3c-0.6,0.7-1.1,1.6-1.7,2.3
		c1,0.2,1.7,0.1,2.1-0.8c0.2-0.4,0.5-0.7,0.8-1.1c0.3,0.4,0.6,0.8,0.8,1.1c0.4,0.9,1.2,1,2.1,0.8l-2.1-3L67.2,58.8z"/>
	<path fill-rule="evenodd" clip-rule="evenodd" fill="#010202" d="M137.2,58.8c-1.4-0.4-3.1,0-3.3,1.9c-0.3,2.3,0.7,4.5,3.8,3.9
		c0.7-0.1,0.8-0.4,0.6-1c-2,0.4-3.6-0.7-3.1-2.4h3.3C138.5,59.9,138.1,59.1,137.2,58.8z M135.1,60.5c0.1-0.7,0.5-1,1.1-1
		c0.6,0,1,0.3,1.1,1H135.1z"/>
	<path fill-rule="evenodd" clip-rule="evenodd" fill="#010202" d="M76.3,58.7c-1.8-0.1-2.8,0.7-2.8,2.3c0,0.2,0,0.4,0,0.6
		c0,2.3,1.5,3.5,3.8,3.1c0.9-0.1,0.9-0.3,0.8-1c-2,0.4-3.3-0.5-3.3-2.4h3.4C78.3,59.7,77.6,58.8,76.3,58.7z M74.9,60.5
		c0-0.6,0.5-1,1-1c0.6,0,1,0.4,1,1H74.9z"/>
	<path fill-rule="evenodd" clip-rule="evenodd" fill="#010202" d="M106.5,58.8c-1.2-0.4-2.5,0-3,1c-0.6,1.2-0.5,2.4,0.1,3.6
		c0.6,1.2,1.8,1.6,3.2,1.4c0.6-0.1,1.1-0.2,0.8-1c-2,0.4-3.4-0.6-3.2-2.4h3.3C107.9,60.1,107.4,59.1,106.5,58.8z M105.4,60.5h-1
		c0.2-0.7,0.6-1.2,1.2-1.1c0.5,0.1,1,0.3,1,1.1H105.4z"/>
	<path fill-rule="evenodd" clip-rule="evenodd" fill="#010202" d="M90.2,61.3c0.1-1.3-0.3-2.2-1.3-2.5c-1.4-0.4-3.2,0.1-3.3,2.1
		c-0.2,2.7,1.2,4.2,3.8,3.8c0.7-0.1,0.8-0.4,0.7-1c-2.1,0.3-3.5-0.8-3.2-2.5H90.2z M88,59.5c0.6,0.1,1,0.3,1,1c-0.1,0-0.2,0-0.4,0
		l-1.8,0C87,59.8,87.4,59.4,88,59.5z"/>
	<path fill-rule="evenodd" clip-rule="evenodd" fill="#010202" d="M131.2,59.7c0.3,0.2,0.5,0.6,0.8,1.1h1.2
		c-0.1-0.7-0.2-1.3-0.8-1.7c-0.9-0.6-2.6-0.5-3.3,0.3c-1,1-0.9,2.2-0.6,3.4c0.3,1.1,1,1.8,2.2,1.9c0.6,0.1,1.2,0,1.9,0
		c0.6,0,0.7-0.3,0.5-0.8c-0.1,0-0.2,0-0.3,0c-2.4,0.5-3.4-1.9-2.9-3.4C130.1,59.7,130.8,59.3,131.2,59.7z"/>
	<path fill-rule="evenodd" clip-rule="evenodd" fill="#010202" d="M100.2,59.6c0.5,0,0.7,0.4,0.8,0.8c0,0.1,0,0.2,0.1,0.3h1.6
		c-0.3-0.6-0.5-1.2-0.9-1.6c-1.1-1-3.4-0.5-3.9,0.9c-0.7,1.7-0.3,4.4,2.4,4.7c0.5,0.1,1-0.1,1.5-0.1c0.6,0,0.7-0.3,0.5-0.9
		c-0.1,0-0.2,0-0.3,0c-1,0.2-1.9,0-2.5-0.8c-0.6-0.8-0.8-1.7-0.4-2.7C99.4,59.8,99.7,59.6,100.2,59.6z"/>
	<path fill-rule="evenodd" clip-rule="evenodd" fill="#010202" d="M70.7,59.6c0.5,0,0.7,0.3,0.8,0.7c0.1,0.4,0.2,0.5,0.6,0.4
		c0.2,0,0.5,0,0.8,0c0.1-0.9-0.2-1.5-1-1.8c-1-0.4-2-0.4-2.9,0.3c-1,0.8-1.1,1.9-0.9,3c0.2,1.2,0.8,2.2,2.1,2.4c0.6,0.1,1.3,0,2,0
		c0.6,0,0.8-0.3,0.6-0.9c-0.1,0-0.3,0-0.4,0c-0.9,0.2-1.8,0-2.4-0.8c-0.6-0.8-0.8-1.8-0.4-2.8C69.8,59.8,70.1,59.6,70.7,59.6z"/>
	<rect x="12.1" y="56.1" fill-rule="evenodd" clip-rule="evenodd" fill="#010202" width="1.5" height="8.5"/>
	<rect x="82.8" y="56.1" fill-rule="evenodd" clip-rule="evenodd" fill="#010202" width="1.3" height="8.5"/>
	<rect x="79.6" y="56.1" fill-rule="evenodd" clip-rule="evenodd" fill="#010202" width="1.3" height="8.5"/>
	<path fill-rule="evenodd" clip-rule="evenodd" fill="#010202" d="M144.2,57.7c-0.2,0.1-0.1,0.7-0.2,1.1l1.7-0.9v6.7h1.2v-7.8
		C145.8,56.5,145,57.2,144.2,57.7z"/>
	<rect x="119.2" y="58.9" fill-rule="evenodd" clip-rule="evenodd" fill="#010202" width="1.2" height="5.8"/>
	<rect x="36.8" y="58.8" fill-rule="evenodd" clip-rule="evenodd" fill="#010202" width="1.2" height="5.8"/>
	<path fill-rule="evenodd" clip-rule="evenodd" fill="#010202" d="M165.4,27.4c0,1.3,0.8,2.1,2,2.1c1.1,0,2.1-1,2-2.1
		c0-1.2-0.9-2.1-2.1-2.1C166.2,25.3,165.4,26.1,165.4,27.4z M169.1,27.4c0,1-0.8,1.8-1.7,1.8c-0.9,0-1.7-0.9-1.7-1.8
		c0-1,0.9-1.9,1.8-1.8C168.3,25.6,169.1,26.5,169.1,27.4z"/>
	<path fill-rule="evenodd" clip-rule="evenodd" fill="#010202" d="M166.7,28.6l0.2,0l0.1-1l0.2-0.1l0.9,1.2l0.2-0.1l-0.5-0.9l0.2,0
		c0.1-0.4,0.4-1,0.3-1.1c-0.5-0.2-1-0.3-1.6-0.5C166.6,27,166.5,27.8,166.7,28.6z M167,26.4c0.3,0.1,0.6,0.2,0.9,0.3
		c0,0,0,0.4,0,0.4c-0.3,0.1-0.5,0.2-0.9,0.3V26.4z"/>
</g>
</svg>
