<?xml version="1.0" encoding="utf-8"?>
<!-- Generator: Adobe Illustrator 18.1.1, SVG Export Plug-In . SVG Version: 6.00 Build 0)  -->
<!DOCTYPE svg PUBLIC "-//W3C//DTD SVG 1.1//EN" "http://www.w3.org/Graphics/SVG/1.1/DTD/svg11.dtd">
<svg version="1.1" id="Слой_1" xmlns="http://www.w3.org/2000/svg" xmlns:xlink="http://www.w3.org/1999/xlink" x="0px" y="0px"
	 viewBox="0 0 43.2 64.2" enable-background="new 0 0 43.2 64.2" xml:space="preserve">
<path fill-rule="evenodd" clip-rule="evenodd" fill="#FFFFFF" d="M43.2,22.2C43.2,10,33.5,0,21.6,0C9.7,0,0,10,0,22.2
	c0,12.5,6.6,26.1,19.7,40.4l0.5,0.5l0.4,0.4c0.3,0.4,0.7,0.6,1.1,0.6c0.4,0,0.8-0.2,1-0.5c0.1-0.2,0.4-0.4,0.9-1
	C36.6,48.4,43.2,34.8,43.2,22.2z"/>
<path fill-rule="evenodd" clip-rule="evenodd" fill="#CD586D" d="M22.5,61.6l-0.9,1l-0.9-0.9C11.9,52,1.4,37.3,1.4,22.2
	c0-11.4,9-20.7,20.1-20.7c11.1,0,20.2,9.3,20.2,20.7C41.7,37.3,31.2,52,22.5,61.6z M43.2,22.2C43.2,10,33.5,0,21.6,0
	C9.7,0,0,10,0,22.2c0,12.5,6.6,26.1,19.7,40.4l0.5,0.5l0.4,0.4c0.3,0.4,0.7,0.6,1.1,0.6c0.4,0,0.8-0.2,1-0.5c0.1-0.2,0.4-0.4,0.9-1
	C36.6,48.4,43.2,34.8,43.2,22.2z"/>
<path fill-rule="evenodd" clip-rule="evenodd" fill="#CD586D" d="M21.6,30.7c-4.7,0-8.5-3.9-8.5-8.7s3.8-8.7,8.5-8.7
	c4.7,0,8.5,3.9,8.5,8.7S26.3,30.7,21.6,30.7z M21.6,11.7c-5.5,0-10,4.6-10,10.2c0,5.7,4.5,10.3,10,10.3c5.5,0,9.9-4.6,9.9-10.3
	C31.5,16.3,27.1,11.7,21.6,11.7z"/>
</svg>
