<?xml version="1.0" encoding="utf-8"?>
<!-- Generator: Adobe Illustrator 18.1.1, SVG Export Plug-In . SVG Version: 6.00 Build 0)  -->
<!DOCTYPE svg PUBLIC "-//W3C//DTD SVG 1.1//EN" "http://www.w3.org/Graphics/SVG/1.1/DTD/svg11.dtd">
<svg version="1.1" id="Слой_1" xmlns="http://www.w3.org/2000/svg" xmlns:xlink="http://www.w3.org/1999/xlink" x="0px" y="0px"
	 viewBox="0 0 78.6 95.3" enable-background="new 0 0 78.6 95.3" xml:space="preserve">
<path fill-rule="evenodd" clip-rule="evenodd" fill="#010202" d="M59.4,57.8c-6,0-9.8,2.6-9.8,2.6c0.2-0.2,28.8-60.2,29-60.4h-5.9
	L54.9,36.7L64.2,0h-10l-6.5,26.1L44.4,0h-2.4L23.6,38.4L32.4,0L22.4,0L0,95.3l1.5,0L18,62.4l4.3,32.9h1.5l6.6-13.6l-4.5-35.9
	l5.4-11.5l7.4-2.1l2.5,19.5l0.1,0.4L31,95.3h1.7l7.9-16.1c0.9,7.7,8.1,16.1,19,16.1c9.7,0,18.9-7.9,18.9-18.8
	C78.5,66.5,70.3,57.8,59.4,57.8z M32.5,31.7l4.9-10l0.9,8.3L32.5,31.7z M50.3,76.5c0-5,4.1-9,9.2-9s9.2,4,9.2,9c0,5-4.1,9-9.2,9
	S50.3,81.5,50.3,76.5z"/>
</svg>
