<?xml version="1.0" encoding="utf-8"?>
<!-- Generator: Adobe Illustrator 18.1.1, SVG Export Plug-In . SVG Version: 6.00 Build 0)  -->
<!DOCTYPE svg PUBLIC "-//W3C//DTD SVG 1.1//EN" "http://www.w3.org/Graphics/SVG/1.1/DTD/svg11.dtd">
<svg version="1.1" id="Слой_1" xmlns="http://www.w3.org/2000/svg" xmlns:xlink="http://www.w3.org/1999/xlink" x="0px" y="0px"
	 viewBox="0 0 155 94" enable-background="new 0 0 155 94" xml:space="preserve">
<g>
	<path fill-rule="evenodd" clip-rule="evenodd" fill="#010202" d="M155,59.5c-0.2-1-0.5-1.9-0.8-2.9c-0.3,0-0.5,0.1-0.7,0.1
		c-3.2,0.7-6.5,1.5-9.8,2c-5.4,0.9-10.7,1.8-16.1,2.3c-6.9,0.6-13.9,0.8-20.9,1c-9.1,0.3-18.1,0.2-27.2-0.2
		c-6.7-0.3-13.3-0.9-20-1.9C49.9,58.3,40.4,56,31,53.1c-0.2,0-0.3-0.1-0.5-0.2c0.1-0.2,0.2-0.3,0.2-0.4c1.7-2.5,3-5.2,4-8
		c1.4-4.3,2.8-8.6,4.1-12.9c0.1-0.4,0.3-0.6,0.8-0.7c2.4-0.4,4.7-1.1,6.9-2.2c5.1-2.6,9.2-6.3,11.7-11.5c1.4-2.8,2.3-5.7,2.1-8.8
		c-0.2-3.2-1.9-5.6-4.7-7.1c-2-1.1-4.3-1.4-6.6-1.1c-4.5,0.5-8.2,2.6-11.4,5.5c-3.2,2.9-5,6.6-6.3,10.5c-1.2,3.6-2.2,7.3-3.2,10.9
		c-0.2,0.6-0.4,0.8-1,0.7c-1-0.1-1.9-0.2-2.9-0.3c-1.6-0.3-3.2-0.7-4.9-1c-0.3,0.8-0.6,1.6-0.9,2.5c0,0.1,0.2,0.5,0.4,0.6
		c2.1,0.6,4.2,1.2,6.4,1.7c0.6,0.2,1.1,0.2,1.8,0.2c-0.1,0.3-0.1,0.6-0.2,0.8c-1.2,5-2.8,9.7-4.7,14.5c-0.3,0.9-0.7,1.8-1.1,2.7
		c-0.4,0.9-0.7,0.9-1.6,0.8c-2.7-0.5-5.4-1.1-8.1-1.4c-2.9-0.3-5.7,0-8.3,1.4c-2,1.1-3.2,3.3-2.9,5.4c0.3,2.3,1.6,3.9,3.5,5.1
		c2.3,1.4,5,2,7.7,2.1c5.5,0.2,10.4-1.6,14.8-4.6c0.5-0.3,0.8-0.3,1.4-0.2c9.1,3.4,18.4,5.9,27.9,8c5.4,1.2,10.9,2.1,16.4,2.7
		c5.2,0.6,10.4,0.7,15.6,0.6c5.7-0.1,11.4-0.4,17.1-0.7c7.1-0.4,14.2-1.3,21.2-2.4c7.6-1.2,15.2-2.7,22.7-4.4c2-0.5,4-1,6-1.5
		C154.6,60.1,155.1,60.1,155,59.5z M41.5,21.1c1-4.1,2.3-8,4.2-11.8c0.7-1.4,1.7-2.7,3-3.7c1.3-1,2.7-1.2,4.2-0.8
		c1,0.2,1.6,0.9,2,1.7c1,1.7,0.9,3.6,0.5,5.4c-1.5,6.1-5.3,10.5-10.9,13.4c-1.4,0.7-2.9,1.2-4.3,1.8l-0.2-0.2
		C40.6,24.9,41,23,41.5,21.1z M6.9,57.9c-0.4-0.2-0.8-0.4-1.2-0.6c-1.5-1.1-1.3-2.9,0.4-3.8c1.5-0.7,3.1-0.8,4.7-0.5
		c2,0.4,4,1.1,6,1.6c0.2,0,0.3,0.2,0.5,0.3C15.1,57.2,10.7,59.2,6.9,57.9z"/>
	<path fill-rule="evenodd" clip-rule="evenodd" fill="#010202" d="M81.1,24.5c1.3,1,2.8,1.3,4.5,1.3c1.4,0,2.7-0.2,3.9-0.9
		c1.3-0.8,2.2-1.8,2.2-3.4c0-1.7-0.9-2.8-2.3-3.5c-0.9-0.4-1.8-0.8-2.8-0.9c-2.2-0.4-4.3,0.1-5.9,1.8C79.1,20.4,79.2,23,81.1,24.5z"
		/>
	<path fill-rule="evenodd" clip-rule="evenodd" fill="#010202" d="M25.7,84.5c-0.5,0-0.7,0.1-0.9,0.6c-0.4,1.8-0.9,3.6-1.3,5.4h-0.1
		l-1.4-6h-3.1v9.2h1.6v-7.2l0.2,0c0.1,0.3,0.2,0.6,0.3,0.9c0.5,2,1,3.9,1.4,5.9c0.2,0.7,0.6,0.6,1,0.6c0.5,0,0.8,0,1-0.6
		c0.5-2.1,1-4.1,1.5-6.1c0-0.2,0.1-0.4,0.2-0.6l0.3,0.1v7.2h1.6v-9.2C27.3,84.5,26.5,84.6,25.7,84.5z"/>
	<path fill-rule="evenodd" clip-rule="evenodd" fill="#010202" d="M133.3,84.5c-0.7-0.1-0.9,0.2-1,0.8c-0.4,1.8-0.8,3.5-1.3,5.4
		c-0.1-0.4-0.2-0.5-0.2-0.7c-0.4-1.6-0.8-3.3-1.2-4.9c0-0.2-0.2-0.5-0.4-0.5c-1,0-1.9,0-2.9,0v9.2h1.7v-7.2l0.2,0l1.8,7.3h1.6
		c0.7-2.4,1.2-4.9,1.9-7.3l0.3,0v7.2h1.6v-9.3C134.7,84.5,134,84.6,133.3,84.5z"/>
	<path fill-rule="evenodd" clip-rule="evenodd" fill="#010202" d="M55.7,89.3c1.4-0.8,1.8-2.1,1.2-3.5c-0.3-0.6-0.7-1.1-1.4-1.1
		c-1.4-0.1-2.8,0-4.2,0v9.2h1.9v-3.7c1.5-0.2,1.8,0.2,1.9,1.5c0,0.6,0,1.2,0.1,1.8c0,0.2,0.3,0.4,0.4,0.4c0.5,0.1,1,0,1.5,0
		c0-0.8-0.1-1.6-0.1-2.3C57.1,90.5,56.9,89.6,55.7,89.3z M54.9,88c-0.2,0.7-1,0.5-1.6,0.5v-2.7c0.6,0.2,1.3,0.2,1.5,0.5
		C55.1,86.8,55.1,87.5,54.9,88z"/>
	<path fill-rule="evenodd" clip-rule="evenodd" fill="#010202" d="M65.7,84.4c-0.3,0-0.7,0-1,0c-1.4,0.1-2.4,0.8-2.5,2.2
		c-0.1,1.7-0.1,3.4,0,5.1c0.1,1.2,0.8,2,2.1,2.2c0.7,0.1,1.4,0.1,2,0c1-0.2,1.7-0.8,1.9-1.8c0.2-1,0.2-1.9,0.4-2.7
		c-0.1-1-0.1-1.9-0.2-2.7C68.1,85.2,67.2,84.5,65.7,84.4z M66.4,91.3c-0.1,0.9-0.5,1.3-1.1,1.3c-0.6,0-1.1-0.3-1.1-1.2
		c-0.1-1.5-0.1-2.9,0-4.4c0-0.6,0.3-1.1,1.1-1.2c0.6,0,1,0.4,1.1,1.2c0.1,0.7,0.1,1.5,0.1,2.2C66.5,89.9,66.5,90.6,66.4,91.3z"/>
	<path fill-rule="evenodd" clip-rule="evenodd" fill="#010202" d="M145.3,89c-0.5-0.4-1.2-0.6-1.7-1c-0.3-0.2-0.7-0.5-0.9-0.9
		c-0.1-0.3-0.1-0.8,0.1-1c0.2-0.2,0.7-0.4,1-0.3c0.2,0.1,0.4,0.5,0.6,0.8c0.1,0.1,0.1,0.3,0.1,0.5h1.8c0.2-1.8-0.6-2.7-2.3-2.8
		c-0.3,0-0.7,0-1,0c-1.2,0.1-2,0.6-2.4,1.6c-0.4,1.2-0.1,2.3,0.9,3c0.5,0.4,1,0.6,1.5,1c0.4,0.3,0.9,0.5,1.2,0.9
		c0.2,0.3,0.3,0.9,0.1,1.2c-0.1,0.3-0.7,0.4-1.1,0.4c-0.5,0-0.7-0.4-0.8-0.8c0-0.2-0.1-0.5-0.1-0.7h-1.9c0,0.4,0,0.8,0.1,1.2
		c0.2,1.2,1,1.8,2.4,1.8c2,0.1,3.1-0.4,3.5-1.7C146.8,91,146.4,89.8,145.3,89z"/>
	<path fill-rule="evenodd" clip-rule="evenodd" fill="#010202" d="M78.4,89.2c-0.5-0.4-1-0.6-1.6-1c-0.4-0.3-0.8-0.5-1-0.9
		c-0.2-0.3-0.2-0.8,0-1.1c0.1-0.2,0.7-0.4,1-0.4c0.3,0.1,0.5,0.5,0.7,0.8c0.1,0.1,0.1,0.3,0.1,0.5h1.8c0.2-1.6-0.6-2.6-2.2-2.8
		c-0.4,0-0.7,0-1,0c-1.1,0.1-2,0.4-2.4,1.5c-0.4,1.2-0.1,2.3,0.9,3.1c0.5,0.4,1.1,0.7,1.7,1.1c0.3,0.2,0.8,0.4,0.9,0.8
		c0.2,0.3,0.2,0.9,0.1,1.2c-0.1,0.2-0.7,0.4-1.1,0.4c-0.5,0-0.7-0.4-0.8-0.9L75.4,91h-1.9c-0.3,1.8,0.6,2.9,2.4,3c0.3,0,0.7,0,1,0
		c1.3-0.1,2.1-0.7,2.4-1.7C79.7,91,79.4,89.9,78.4,89.2z"/>
	<path fill-rule="evenodd" clip-rule="evenodd" fill="#010202" d="M99.8,89c-0.5-0.3-1.1-0.6-1.6-0.9c-0.3-0.2-0.7-0.5-0.9-0.8
		c-0.1-0.3-0.1-0.8,0.1-1.1c0.1-0.2,0.7-0.4,0.9-0.3c0.3,0.1,0.5,0.5,0.7,0.8c0.1,0.1,0,0.3,0.1,0.5h1.9c0.2-1.7-0.6-2.7-2.3-2.7
		c-0.4,0-0.8,0-1.3,0c-1.1,0.1-2,0.8-2.2,1.7c-0.2,1.2,0,2.3,1.1,3c0.5,0.3,1,0.6,1.5,0.9c0.3,0.2,0.8,0.4,0.9,0.7
		c0.2,0.4,0.3,0.9,0.1,1.3c-0.1,0.2-0.7,0.4-1.1,0.4c-0.5,0-0.7-0.4-0.7-0.9L97,91h-1.9c-0.3,1.9,0.6,2.9,2.5,3c0.4,0,0.8,0,1.2,0
		c1.2-0.1,1.9-0.7,2.2-1.7C101.4,90.9,101,89.8,99.8,89z"/>
	<path fill-rule="evenodd" clip-rule="evenodd" fill="#010202" d="M44.6,90.7c-0.1,0.5-0.1,0.8-0.2,1.2c-0.2,0.7-0.9,0.9-1.4,0.4
		c-0.2-0.2-0.3-0.4-0.3-0.6c-0.3-1.7-0.3-3.4,0-5.1c0-0.1,0-0.3,0.1-0.3c0.3-0.2,0.7-0.5,1-0.5c0.2,0,0.5,0.4,0.6,0.7
		c0.1,0.2,0.1,0.6,0.1,0.9h1.9c0-1,0-1.9-0.8-2.5c-1-0.8-2.2-0.7-3.4-0.3c-1,0.3-1.5,1.2-1.6,2.1c-0.1,1.6-0.1,3.3,0,4.9
		c0.2,1.8,1.6,2.6,3.7,2.3c1.5-0.2,2.3-1.5,2.1-3.2H44.6z"/>
	<polygon fill-rule="evenodd" clip-rule="evenodd" fill="#010202" points="118.2,89.7 121,89.7 121,88.2 118.2,88.2 118.2,86 
		121.3,86 121.3,84.6 116.2,84.6 116.2,93.8 121.4,93.8 121.4,92.4 118.2,92.4 	"/>
	<path fill-rule="evenodd" clip-rule="evenodd" fill="#010202" d="M88.3,85.7l-1,2.7c-0.5-1.2-0.8-2.3-1.2-3.4
		c-0.1-0.2-0.3-0.5-0.5-0.5c-0.6-0.1-1.2,0-1.8,0c0.1,0.3,0.2,0.5,0.3,0.7c0.6,1.6,1.3,3.2,1.9,4.8c0.1,0.4,0.2,0.8,0.2,1.1
		c0,0.9,0,1.7,0,2.6h2c0-0.5,0-1,0-1.4c-0.1-1.2,0.1-2.2,0.7-3.2c0.7-1.4,1.3-2.9,2-4.5c-0.3,0-0.5,0-0.7,0
		C88.8,84.5,88.8,84.5,88.3,85.7z"/>
	<polygon fill-rule="evenodd" clip-rule="evenodd" fill="#010202" points="105.4,86.1 107.6,86.1 107.6,93.8 109.5,93.8 109.5,86.1 
		111.6,86.1 111.6,84.6 105.4,84.6 	"/>
	<rect x="33.4" y="84.6" fill-rule="evenodd" clip-rule="evenodd" fill="#010202" width="1.9" height="9.2"/>
	<path fill-rule="evenodd" clip-rule="evenodd" fill="#010202" d="M52.1,30.7c-4.3,1.4-7.3,4.1-9.2,8.1c-2.6,5.6-0.5,11,5.2,13.5
		c3.8,1.7,7.8,1.8,11.8,1c4.5-0.8,8.7-2.6,12.7-4.6c0.2-0.1,0.5-0.2,0.8-0.4c0.1,0.2,0.1,0.4,0.2,0.5c0.7,2.7,2.9,4.7,5.6,4.9
		c1.5,0.1,3,0.1,4.4-0.2c3.7-0.5,6.8-2.3,9.8-4.5c0.2-0.2,0.4-0.3,0.6-0.5l0.3,0.5c2.2,3.2,5.4,4.6,9.1,4.8c3.8,0.2,7.3-0.9,10.4-3
		c1.2-0.8,2.4-1.7,3.7-2.6c0.1,0.2,0.2,0.4,0.4,0.7c1.4,2.2,3.3,3.9,5.9,4.6c4.2,1.1,7.9-0.1,11.2-2.7c0.2-0.2,0.4-0.4,0.7-0.6
		c1.8,3.4,4.7,4.2,8.2,3.7c3.2-0.4,5.9-2,8.6-3.8c0.1-0.1,0.2-0.3,0.2-0.5c-0.2-1-0.5-1.9-0.7-2.9c-0.6,0.3-1,0.6-1.5,0.7
		c-0.7,0.2-1.5,0.6-2.2,0.6c-2,0.2-3-1.3-2.5-2.9c1.1-3.7,2.1-7.4,3.2-11.1c0.4-1.3,0.7-2.5,1-3.7c-0.1-0.1-0.1-0.1-0.2-0.1
		c-3,0-6-0.1-9-0.1c-0.2,0-0.5,0.3-0.6,0.5c-0.2,0.6-0.4,1.2-0.6,2c-0.2-0.3-0.2-0.4-0.3-0.5c-1.1-1.5-2.7-2.4-4.6-2.7
		c-3.7-0.5-7.2,0.3-10.3,2.2c-4.5,2.8-7.5,6.7-7.8,12.2c0,0.2-0.1,0.5-0.3,0.6c-1.5,1.1-3,2.2-4.6,3.1c-1.1,0.7-2.5,0.9-3.9,0.8
		c-2.4-0.2-3.7-1.5-3.7-3.9c0-2.6,0.5-5.1,1.7-7.5c0.4-0.8,1-1.6,1.6-2.2c1.9-1.8,3.9-2,6.1-0.6c0.5,0.3,1,0.7,1.6,1.1
		c0.4-1.4,0.7-2.7,1.1-4c0-0.2-0.2-0.5-0.3-0.6c-0.9-0.4-1.8-0.9-2.8-1.1c-5.3-1.1-10.2,0-14.4,3.3c-3.6,2.8-5.9,6.4-5.9,11.2
		c0,0.2-0.1,0.4-0.2,0.5c-1.5,1.3-3.3,2.4-5.3,2.7c-2,0.4-3.2-1-2.7-2.9c1-3.6,2-7.3,3-10.9l1.1-3.9c-0.3,0-0.5,0-0.6,0
		c-3.1,0-6.2,0-9.3,0c-0.7,0-1,0.2-1.2,0.9c-1.1,4-2.3,8-3.5,12.1c-0.1,0.4-0.4,0.8-0.8,1.1c-3.9,2.5-8.1,4-12.6,4.5
		c-1.9,0.2-3.8,0.2-5.6-0.7c-1.5-0.7-2.2-2-2-3.5c0-0.4,0.2-0.5,0.6-0.5c1.9,0,3.8,0.1,5.6-0.1c2.7-0.2,5.3-1,7.6-2.6
		c1.7-1.2,2.8-2.7,3.2-4.7c0.4-2.1-0.2-4-2.1-5.1c-1.1-0.7-2.2-1.2-3.5-1.5C60.3,28.8,56.1,29.4,52.1,30.7z M128.5,41.6
		c0.4-1.3,0.8-2.5,1.3-3.7c0.8-1.8,2-3.2,3.9-4c1.6-0.7,3.7,0.4,4,2.1c0.4,1.7,0,3.3-0.5,4.9c-0.5,1.3-0.9,2.7-1.4,4
		c-0.6,1.7-1.8,3-3.4,3.9c-0.9,0.4-1.8,0.5-2.7,0.2c-0.8-0.3-1.3-0.8-1.5-1.6c-0.1-0.7-0.2-1.4-0.4-2.2
		C128,44,128.2,42.8,128.5,41.6z M61.4,32.7c0.8,0.2,1.1,0.9,1.2,1.7c0.1,2.3-0.8,4.2-2.7,5.4c-1.8,1.2-4,1.5-6.3,1.1
		c0.9-2.8,1.7-5.6,4-7.5C58.7,32.4,60,32.2,61.4,32.7z"/>
</g>
</svg>
