<?xml version="1.0" encoding="utf-8"?>
<!-- Generator: Adobe Illustrator 18.1.1, SVG Export Plug-In . SVG Version: 6.00 Build 0)  -->
<!DOCTYPE svg PUBLIC "-//W3C//DTD SVG 1.1//EN" "http://www.w3.org/Graphics/SVG/1.1/DTD/svg11.dtd">
<svg version="1.1" id="Слой_1" xmlns="http://www.w3.org/2000/svg" xmlns:xlink="http://www.w3.org/1999/xlink" x="0px" y="0px"
	 viewBox="0 0 75.4 105.2" enable-background="new 0 0 75.4 105.2" xml:space="preserve">
<g>
	<path fill-rule="evenodd" clip-rule="evenodd" fill="#73386D" d="M15.7,62.6c1.1-1.5,2.9-2.4,5.3-2.8v-1.1H0v1.1
		c2.2,0.4,3.9,1.2,5,2.5c0.6,0.7,1,1.5,1.2,2.4c0.2,0.9,0.3,2.4,0.3,4.5v25.7c0,3.2-0.4,5.4-1.3,6.5c-1.1,1.5-2.9,2.4-5.3,2.8v1.1
		h21.1v-1.1c-2.2-0.4-3.9-1.2-5-2.4c-0.6-0.7-1-1.5-1.3-2.5c-0.2-1-0.4-2.4-0.4-4.4V69.1c0-1.8,0.1-3.1,0.3-4.1
		C14.9,64,15.3,63.2,15.7,62.6z M11.5,98.9c0,0.1,0,0.4,0,0.7c0,0.7,0.1,1.2,0.3,1.5c0.2,0.3,0.7,0.8,1.5,1.4l1.3,1H4.7l1.3-1
		c0.8-0.6,1.3-1,1.5-1.3c0.2-0.3,0.3-0.9,0.3-1.6c0-0.4,0-0.8,0-1.1v-0.6V66v-0.6c0-0.4,0-0.7,0-1.1c0-0.7-0.1-1.2-0.3-1.6
		S6.8,62,6.1,61.4L4.1,60h11.1l-1.9,1.4c-0.8,0.6-1.2,1-1.5,1.4c-0.2,0.3-0.3,0.8-0.3,1.5c0,0.3,0,0.6,0,0.7c0,0.1,0,0.3,0,0.4V66
		v31.9v0.6C11.5,98.6,11.5,98.8,11.5,98.9z"/>
	<path fill-rule="evenodd" clip-rule="evenodd" fill="#73386D" d="M57.1,103.4c-0.7,0.4-1.9,0.7-3.7,0.8v1.1h22v-1.1
		c-1.4-0.1-2.7-0.4-3.8-1c-1.1-0.6-2.2-1.5-3.3-2.9l-2.6-3.7c-0.1-0.2-0.2-0.3-0.3-0.5c-0.1-0.1-0.2-0.3-0.4-0.5L51.1,74.6l2.3-2.3
		l0.8-0.7l3.3-3.2c4.9-4.7,9.3-7.6,13.2-8.7v-1H51.9v1.1c1.5,0.1,2.8,0.6,3.7,1.4c0.9,0.8,1.4,1.9,1.4,3.2c0,1-0.3,2-1,3
		c-0.7,1-1.8,2.3-3.4,3.9L39.3,84.3V69.1c0-1.8,0.1-3.1,0.3-4.1c0.2-1,0.5-1.8,1-2.4c1.1-1.5,2.9-2.4,5.4-2.8v-1.1H24.8v1.1
		c2.2,0.4,3.9,1.2,5,2.5c0.6,0.7,1,1.5,1.2,2.4c0.2,0.9,0.3,2.4,0.3,4.5v25.7c0,3.2-0.4,5.4-1.3,6.5c-1.1,1.5-2.9,2.4-5.3,2.8v1.1
		h21.5v-1.1c-2.4-0.4-4.2-1.2-5.4-2.4c-0.7-0.8-1.1-1.6-1.4-2.6c-0.2-1-0.3-2.4-0.3-4.4v-8.7l6.1-5.9l10.8,16.4
		c0.8,1.2,1.3,2.1,1.6,2.7c0.3,0.7,0.4,1.3,0.4,1.9C58.1,102.2,57.8,103,57.1,103.4z M55.8,60h8.4C62,61.5,60,63.3,58,65.2
		c0.1-0.6,0.1-1,0.1-1.1C58.1,62.5,57.3,61.1,55.8,60z M39.4,103.5h-9.9l1.3-1c0.8-0.6,1.3-1,1.5-1.3c0.2-0.3,0.3-0.9,0.3-1.6
		c0-0.4,0-0.8,0-1.1v-0.6V66v-0.6c0-0.4,0-0.7,0-1.1c0-0.7-0.1-1.2-0.3-1.6c-0.2-0.3-0.7-0.8-1.5-1.3L28.9,60H40l-1.9,1.4
		c-0.7,0.5-1.2,0.9-1.5,1.3c-0.2,0.4-0.4,0.9-0.4,1.6c0,0.3,0,0.6,0,0.7l0,0.4V66v31.9l0,0.6v0.4c0,0.1,0,0.4,0,0.7
		c0,0.7,0.1,1.2,0.3,1.5c0.2,0.3,0.7,0.8,1.5,1.4L39.4,103.5z M57,95.5L46.3,79.3l2.6-2.6l13.3,20.2l1,1.4l2,2.6
		c0.7,0.9,1.7,1.8,2.9,2.7h-9.8c0.9-0.8,1.3-1.7,1.3-2.6c0-0.5-0.2-1.2-0.5-1.8C58.8,98.4,58.1,97.2,57,95.5z"/>
	<path fill-rule="evenodd" clip-rule="evenodd" fill="#73386D" d="M38.3,23c-0.4,0.2-0.7,0.4-1,0.4c-0.3,0-0.6-0.2-1-0.4
		c-0.5-0.3-1-0.7-1.8-0.7c-2.5,0-4.6,2.1-4.6,4.6c0,0.2,1.3,19.5,4.6,19.5c0.8,0,1.7-0.7,2.7-5.4c1,4.7,1.9,5.4,2.8,5.4
		c3.3,0,4.6-19.3,4.6-19.5c0-2.5-2.1-4.6-4.6-4.6C39.3,22.3,38.8,22.7,38.3,23z M43.4,26.9c0,7.2-2.5,17.2-3.3,18.2
		c-0.3-0.3-1.1-1.7-2.1-7.7c0-0.3-0.3-0.5-0.7-0.5c-0.3,0-0.6,0.2-0.6,0.5c-1,6.1-1.8,7.4-2.1,7.7c-0.8-1-3.3-11-3.3-18.2
		c0-1.8,1.5-3.3,3.3-3.3c0.4,0,0.7,0.2,1.1,0.5c0.5,0.3,1,0.6,1.7,0.6c0.7,0,1.2-0.4,1.7-0.6c0.4-0.2,0.7-0.5,1.1-0.5
		C41.9,23.6,43.4,25.1,43.4,26.9z"/>
	<path fill-rule="evenodd" clip-rule="evenodd" fill="#73386D" d="M60.8,17.5l1.8-3.5c0,0-13.6-4.1-25.5-4.1
		C24.5,9.9,11.4,14,11.4,14l2.3,3.5c0,0,11.4-3.8,23.3-3.8C47.8,13.7,60.8,17.5,60.8,17.5z"/>
	<path fill-rule="evenodd" clip-rule="evenodd" fill="#73386D" d="M10,12c0,0,13-4.3,26.5-4.3c12.3,0,26.9,4.3,26.9,4.3l2.2-4.3
		c0,0-4.4,1.8-9.6,0.7c-4.8-0.9-10-1.8-16.1-2c-1.2-0.1-3.5-3-3.5-3s-2.6,2.9-3.9,3c-7.1,0.4-12.3,1.2-17.2,2.3c-4,0.9-8.3-1-8.3-1
		L10,12z"/>
	<path fill-rule="evenodd" clip-rule="evenodd" fill="#73386D" d="M6.2,6.6c0.6,0,1.1-0.5,1.1-1S6.8,4.4,6.2,4.4S5.1,4.9,5.1,5.5
		S5.6,6.6,6.2,6.6z"/>
	<path fill-rule="evenodd" clip-rule="evenodd" fill="#73386D" d="M36.4,2.1c0.6,0,1.1-0.5,1.1-1.1S37,0,36.4,0
		c-0.6,0-1.1,0.5-1.1,1S35.8,2.1,36.4,2.1z"/>
	<path fill-rule="evenodd" clip-rule="evenodd" fill="#73386D" d="M67.1,6.3c0.6,0,1.1-0.5,1.1-1c0-0.6-0.5-1.1-1.1-1.1
		c-0.6,0-1.1,0.5-1.1,1.1C66.1,5.9,66.5,6.3,67.1,6.3z"/>
	<path fill-rule="evenodd" clip-rule="evenodd" fill="#73386D" d="M5.9,37.2v0.5h4.9l0.1-2.2h-0.2c-0.2,0.9-0.4,1.2-1.6,1.2H6.8
		c3.6-3.6,3.9-4.2,3.9-5.4c0-1.1-0.7-2-2.3-2c-1.3,0-2.4,0.6-2.4,1.8c0,0.5,0.2,0.9,0.7,0.9c0.4,0,0.7-0.2,0.7-0.6
		c0-0.2,0-0.4-0.1-0.6H6.8c-0.1-0.1-0.1-0.2-0.1-0.3c0-0.5,0.6-0.8,1.3-0.8c1,0,1.3,0.4,1.3,1.6c0,1.1-0.2,2-1.7,3.8L5.9,37.2z"/>
	<path fill-rule="evenodd" clip-rule="evenodd" fill="#73386D" d="M19.9,33.6c0-3.1-1.4-4.2-2.9-4.2c-1.6,0-2.9,1.2-2.9,4.2
		c0,2.4,1,4.2,2.9,4.2C18.5,37.8,19.9,36.7,19.9,33.6z M15.3,33.7c0-2.7,0.5-3.9,1.6-3.9c1.1,0,1.7,1.2,1.7,3.9
		c0,2.8-0.4,3.8-1.7,3.8C15.8,37.5,15.3,36.4,15.3,33.7z"/>
	<polygon fill-rule="evenodd" clip-rule="evenodd" fill="#73386D" points="59.2,37.4 59.2,37.7 62.9,37.7 62.9,37.4 61.8,37.4 
		61.8,29.4 61.3,29.4 59,29.7 59,30 60.5,29.9 60.5,37.4 	"/>
	<path fill-rule="evenodd" clip-rule="evenodd" fill="#73386D" d="M67.1,36.7c0.1-0.2,0.1-0.4,0.1-0.6c0-0.4-0.3-0.6-0.7-0.6
		c-0.5,0-0.7,0.3-0.7,0.9c0,1.1,1,1.5,2.2,1.5c1.8,0,3.1-0.9,3.1-2.4c0-1.1-0.7-1.9-2.3-2.2c1.2-0.4,1.8-1.1,1.8-2
		c0-1.1-0.9-1.8-2.2-1.8c-1.1,0-2.2,0.5-2.2,1.5c0,0.4,0.2,0.8,0.7,0.8c0.5,0,0.7-0.2,0.7-0.6c0-0.2-0.1-0.4-0.1-0.5H67
		c0,0,0-0.1,0-0.1c0-0.4,0.4-0.6,1.1-0.6c0.8,0,1.3,0.3,1.3,1.5c0,1.5-0.9,1.9-2.2,2l0,0.3c0.5,0,0.8-0.1,1.1-0.2
		c0.7,0.3,1.4,0.8,1.4,2c0,1.4-0.6,2-1.8,2c-0.7,0-1.3-0.3-1.3-0.6c0-0.1,0-0.1,0.1-0.2H67.1z"/>
</g>
</svg>
