<?xml version="1.0" encoding="utf-8"?>
<!-- Generator: Adobe Illustrator 18.1.1, SVG Export Plug-In . SVG Version: 6.00 Build 0)  -->
<!DOCTYPE svg PUBLIC "-//W3C//DTD SVG 1.1//EN" "http://www.w3.org/Graphics/SVG/1.1/DTD/svg11.dtd">
<svg version="1.1" id="Слой_1" xmlns="http://www.w3.org/2000/svg" xmlns:xlink="http://www.w3.org/1999/xlink" x="0px" y="0px"
	 viewBox="0 0 173 160" enable-background="new 0 0 173 160" xml:space="preserve">
<g>
	<rect y="117.8" fill-rule="evenodd" clip-rule="evenodd" fill="#74366E" width="173" height="1.7"/>
	<rect x="29.5" y="155.9" fill-rule="evenodd" clip-rule="evenodd" fill="#74366E" width="2.6" height="0.6"/>
	<path fill-rule="evenodd" clip-rule="evenodd" fill="#74366E" d="M37.9,152.6h-3v0.3h0.7v6.7h-0.7v0.3h2.8c2.5,0,4.3-0.8,4.3-3.8
		C41.9,153.5,40.4,152.6,37.9,152.6z M37.8,159.6h-0.4v-6.7h0.3c1.6,0,2.4,0.5,2.4,3.2C40,158.7,39.3,159.6,37.8,159.6z"/>
	<path fill-rule="evenodd" clip-rule="evenodd" fill="#74366E" d="M47.6,159.6H47v-3.2h0.3c0.8,0,1.1,0.4,1.3,1.4h0.2v-3.1h-0.2
		c-0.2,0.9-0.5,1.3-1.2,1.3H47v-3.1h0.5c1.3,0,1.9,0.4,2.3,1.7h0.2l-0.1-2h-5.4v0.3h0.7v6.7h-0.7v0.3h5.6l0.1-2.2H50
		C49.7,158.9,48.9,159.6,47.6,159.6z"/>
	<polygon fill-rule="evenodd" clip-rule="evenodd" fill="#74366E" points="58.1,152.9 58.7,152.9 58.7,157.8 55.8,152.6 53.1,152.6 
		53.1,152.9 53.7,152.9 53.7,159.6 53.1,159.6 53.1,159.9 54.7,159.9 54.7,159.6 54.1,159.6 54.1,153.1 57.8,159.9 59,159.9 
		59,152.9 59.7,152.9 59.7,152.6 58.1,152.6 	"/>
	<path fill-rule="evenodd" clip-rule="evenodd" fill="#74366E" d="M62.4,152.6l-0.1,2.5h0.3c0.4-1.6,0.8-2.2,1.8-2.2h0.1v6.7h-0.9
		v0.3h3.6v-0.3h-0.9v-6.7h0.1c1,0,1.4,0.5,1.8,2.2h0.3l-0.1-2.5H62.4z"/>
	<path fill-rule="evenodd" clip-rule="evenodd" fill="#74366E" d="M74,152.6h-0.8l-2.6,7h-0.5v0.3h1.7v-0.3H71l0.8-2.1h2.1l0.7,2.1
		h-0.8v0.3h3.2v-0.3h-0.6L74,152.6z M71.9,157.2l1-2.7l0.9,2.7H71.9z"/>
	<path fill-rule="evenodd" clip-rule="evenodd" fill="#74366E" d="M82.4,159.6H82v-6.7h1.1v-0.3h-3.6v0.3h0.7v6.7h-0.7v0.3h5.4
		l0.2-2.4h-0.3C84.3,158.8,83.8,159.6,82.4,159.6z"/>
	<path fill-rule="evenodd" clip-rule="evenodd" fill="#74366E" d="M95.5,152.5c-2.2,0-3.5,1.5-3.5,3.9c0,2.3,1.1,3.7,3.4,3.7
		c2.3,0,3.4-1.4,3.4-3.8C98.9,153.9,97.7,152.5,95.5,152.5z M95.5,159.7c-1.3,0-1.5-1.2-1.5-3.3c0-2.4,0.1-3.5,1.5-3.5
		c1.4,0,1.5,1.1,1.5,3.4S96.8,159.7,95.5,159.7z"/>
	<path fill-rule="evenodd" clip-rule="evenodd" fill="#74366E" d="M101.6,152.6v0.3h0.7v6.7h-0.7v0.3h3.8v-0.3h-1.3v-3.1h0.5
		c0.7,0,1,0.4,1.2,1.4h0.2v-3.1h-0.2c-0.1,0.9-0.5,1.3-1.2,1.3h-0.5v-3.2h0.5c1.2,0,1.8,0.4,2.3,1.8h0.2l-0.1-2.1H101.6z"/>
	<path fill-rule="evenodd" clip-rule="evenodd" fill="#74366E" d="M109.8,152.6v0.3h0.7v6.7h-0.7v0.3h3.8v-0.3h-1.3v-3.1h0.5
		c0.7,0,1,0.4,1.2,1.4h0.2v-3.1H114c-0.1,0.9-0.5,1.3-1.2,1.3h-0.5v-3.2h0.5c1.3,0,1.8,0.4,2.3,1.8h0.2l-0.1-2.1H109.8z"/>
	<polygon fill-rule="evenodd" clip-rule="evenodd" fill="#74366E" points="118.1,152.9 118.7,152.9 118.7,159.6 118.1,159.6 
		118.1,159.9 121.1,159.9 121.1,159.6 120.5,159.6 120.5,152.9 121.1,152.9 121.1,152.6 118.1,152.6 	"/>
	<path fill-rule="evenodd" clip-rule="evenodd" fill="#74366E" d="M127.6,159.7c-1.2,0-1.8-1.1-1.8-3.5c0-2.6,0.6-3.4,1.8-3.4
		c1,0,1.6,0.8,2.1,2.1h0.2l-0.1-2.2h-0.2c-0.1,0.1-0.1,0.2-0.2,0.2c-0.3,0-0.9-0.3-1.9-0.3c-2.1,0-3.5,1.3-3.5,3.8
		c0,2.5,1.3,3.7,3.5,3.7c1.1,0,1.7-0.3,2-0.3c0.1,0,0.2,0.1,0.2,0.2h0.2l0.1-2.3h-0.2C129.2,158.9,128.5,159.7,127.6,159.7z"/>
	<path fill-rule="evenodd" clip-rule="evenodd" fill="#74366E" d="M135.9,159.6h-0.6v-3.2h0.3c0.8,0,1.1,0.4,1.3,1.4h0.2v-3.1H137
		c-0.2,0.9-0.5,1.3-1.2,1.3h-0.4v-3.1h0.6c1.3,0,1.8,0.4,2.3,1.7h0.2l-0.1-2h-5.4v0.3h0.7v6.7h-0.7v0.3h5.6l0.1-2.2h-0.2
		C138.1,158.9,137.3,159.6,135.9,159.6z"/>
	<rect x="141.6" y="155.9" fill-rule="evenodd" clip-rule="evenodd" fill="#74366E" width="2.5" height="0.6"/>
	<path fill-rule="evenodd" clip-rule="evenodd" fill="#74366E" d="M24,139.2c-0.5,2.1-1.9,3.3-4.1,3.3h-0.9V137h0.4
		c1.2,0,1.8,0.6,2.2,2.4l0,0.1h0.6V134h-0.6l0,0.1c-0.3,1.5-0.9,2.2-2,2.2h-0.6v-5.2h0.9c2.2,0,3.1,0.7,3.8,2.9l0,0.1h0.6l-0.2-3.7
		h-9.5v0.7h1.2v11.3h-1.2v0.7h9.8l0.2-4L24,139.2L24,139.2z"/>
	<polygon fill-rule="evenodd" clip-rule="evenodd" fill="#74366E" points="36.4,142.4 35.1,142.4 35.1,143.1 41.2,143.1 41.2,142.4 
		40,142.4 36.2,135.9 39.1,131.1 40.4,131.1 40.4,130.4 36.5,130.4 36.5,131.1 38.2,131.1 35.7,135.1 33.4,131.1 34.7,131.1 
		34.7,130.4 28.7,130.4 28.7,131.1 29.8,131.1 33.3,137.1 30.1,142.4 28.8,142.4 28.8,143.1 32.7,143.1 32.7,142.4 31,142.4 
		33.8,137.9 	"/>
	<path fill-rule="evenodd" clip-rule="evenodd" fill="#74366E" d="M54.1,142.8c0.2,0,0.3,0.1,0.4,0.3l0,0.1h0.4L55,139h-0.5l0,0.1
		c-0.8,2.4-2,3.6-3.5,3.6c-2,0-3-1.9-3-5.9c0-4.2,0.9-5.9,2.9-5.9c1.5,0,2.6,1.1,3.5,3.5l0,0.1h0.6l-0.1-3.9l0-0.1h-0.4l0,0.1
		c-0.1,0.2-0.1,0.3-0.3,0.3c-0.2,0-0.5-0.1-0.8-0.2c-0.6-0.2-1.4-0.4-2.5-0.4c-3.8,0-6.2,2.6-6.2,6.7c0,4.2,2.1,6.4,6.1,6.4
		c1.2,0,2-0.2,2.7-0.4C53.6,142.8,53.9,142.8,54.1,142.8z"/>
	<path fill-rule="evenodd" clip-rule="evenodd" fill="#74366E" d="M69.4,139.2c-0.5,2.1-1.9,3.3-4.1,3.3h-0.9V137h0.4
		c1.2,0,1.8,0.6,2.2,2.4l0,0.1h0.6V134H67l0,0.1c-0.3,1.5-1,2.2-2,2.2h-0.6v-5.2h0.9c2.2,0,3.1,0.7,3.8,2.9l0,0.1h0.6l-0.2-3.7H60
		v0.7h1.1v11.3H60v0.7h9.9l0.1-4L69.4,139.2L69.4,139.2z"/>
	<path fill-rule="evenodd" clip-rule="evenodd" fill="#74366E" d="M74.6,142.4v0.7h9.5l0.3-4.3h-0.6l0,0.1c-0.8,2.2-1.8,3.6-4,3.6
		H79v-11.3h1.9v-0.7h-6.3v0.7h1.2v11.3H74.6z"/>
	<path fill-rule="evenodd" clip-rule="evenodd" fill="#74366E" d="M88.8,142.4v0.7h9.5l0.3-4.3H98l0,0.1c-0.8,2.2-1.8,3.6-4.1,3.6
		h-0.7v-11.3h1.9v-0.7h-6.3v0.7h1.1v11.3H88.8z"/>
	<path fill-rule="evenodd" clip-rule="evenodd" fill="#74366E" d="M103,142.4v0.7h9.8l0.2-4h-0.6l0,0.1c-0.5,2.1-1.9,3.3-4.1,3.3
		h-0.9V137h0.4c1.3,0,1.8,0.6,2.2,2.4l0,0.1h0.6V134H110l0,0.1c-0.3,1.5-0.9,2.2-2,2.2h-0.6v-5.2h0.9c2.2,0,3.1,0.7,3.8,2.9l0,0.1
		h0.6l-0.2-3.7H103v0.7h1.1v11.3H103z"/>
	<polygon fill-rule="evenodd" clip-rule="evenodd" fill="#74366E" points="117.7,142.4 117.7,143.1 120.7,143.1 120.7,142.4 
		119.6,142.4 119.6,131.8 125.9,143.1 125.9,143.1 128.1,143.1 128.1,131.1 129.2,131.1 129.2,130.4 126.3,130.4 126.3,131.1 
		127.3,131.1 127.3,139.2 122.6,130.4 122.6,130.4 117.7,130.4 117.7,131.1 118.8,131.1 118.8,142.4 	"/>
	<path fill-rule="evenodd" clip-rule="evenodd" fill="#74366E" d="M143.6,139.1c-0.8,2.4-2,3.6-3.5,3.6c-2.1,0-3.1-1.9-3.1-5.9
		c0-4.2,0.9-5.9,2.9-5.9c1.5,0,2.6,1.1,3.5,3.5l0,0.1h0.5l-0.1-3.9v-0.1h-0.4l0,0.1c-0.1,0.2-0.1,0.3-0.3,0.3
		c-0.2,0-0.5-0.1-0.8-0.2c-0.6-0.2-1.4-0.4-2.5-0.4c-3.8,0-6.2,2.6-6.2,6.7c0,4.2,2.1,6.4,6.1,6.4c1.2,0,2.1-0.2,2.7-0.4
		c0.3-0.1,0.6-0.2,0.8-0.2c0.2,0,0.3,0.1,0.4,0.3l0,0.1h0.4l0.1-4.1L143.6,139.1L143.6,139.1z"/>
	<path fill-rule="evenodd" clip-rule="evenodd" fill="#74366E" d="M158.6,139.2c-0.5,2.1-1.9,3.3-4.1,3.3h-0.9V137h0.4
		c1.2,0,1.8,0.6,2.1,2.4l0,0.1h0.6V134h-0.6l0,0.1c-0.3,1.5-0.9,2.2-2,2.2h-0.6v-5.2h0.9c2.2,0,3.1,0.7,3.8,2.9l0,0.1h0.6l-0.2-3.7
		h-9.5v0.7h1.1v11.3h-1.1v0.7h9.8l0.2-4L158.6,139.2L158.6,139.2z"/>
	<path fill-rule="evenodd" clip-rule="evenodd" fill="#74366E" d="M67.6,62.7c1-1.3,2.6-2.2,4.8-2.6v-0.9H53.4v0.9
		c2,0.3,3.5,1.1,4.5,2.2c0.6,0.6,0.9,1.3,1.1,2.1c0.2,0.8,0.3,2.2,0.3,4.1v23.2c0,2.9-0.4,4.9-1.2,5.9c-1,1.3-2.6,2.2-4.8,2.6v0.9
		h19.1v-0.9c-2-0.3-3.5-1.1-4.5-2.2c-0.6-0.6-0.9-1.4-1.1-2.3c-0.2-0.9-0.3-2.2-0.3-3.9V68.6c0-1.6,0.1-2.8,0.3-3.7
		C66.9,64,67.2,63.2,67.6,62.7z M63.8,95.4c0,0.1,0,0.3,0,0.7c0,0.6,0.1,1.1,0.3,1.4c0.2,0.3,0.6,0.7,1.3,1.2l1.2,0.9h-8.9l1.2-0.9
		c0.7-0.5,1.2-0.9,1.3-1.2c0.2-0.3,0.3-0.8,0.3-1.4c0-0.3,0-0.7,0-1v-0.5V65.8v-0.5c0-0.3,0-0.7,0-1c0-0.7-0.1-1.1-0.3-1.4
		c-0.2-0.3-0.6-0.7-1.3-1.2l-1.7-1.3h10l-1.7,1.3c-0.7,0.5-1.1,0.9-1.3,1.2c-0.2,0.3-0.3,0.8-0.3,1.4c0,0.3,0,0.5,0,0.6
		c0,0.1,0,0.2,0,0.4v0.5v28.7v0.5C63.8,95.2,63.8,95.3,63.8,95.4z"/>
	<path fill-rule="evenodd" clip-rule="evenodd" fill="#74366E" d="M105,99.5c-0.6,0.4-1.7,0.6-3.3,0.7v0.9h19.9v-0.9
		c-1.3-0.1-2.4-0.4-3.4-0.9c-1-0.5-2-1.4-3-2.6l-2.3-3.3c-0.1-0.2-0.2-0.3-0.3-0.4c-0.1-0.1-0.2-0.3-0.3-0.4l-12.6-19l2.1-2.1
		l0.7-0.7l3-2.8c4.5-4.3,8.4-6.9,11.9-7.9v-0.9h-16.9v0.9c1.4,0.1,2.5,0.6,3.3,1.3c0.9,0.7,1.3,1.7,1.3,2.9c0,0.9-0.3,1.8-0.9,2.7
		c-0.6,0.9-1.6,2.1-3.1,3.5l-12,11.8V68.6c0-1.6,0.1-2.8,0.3-3.7c0.2-0.9,0.5-1.6,0.9-2.1c1-1.3,2.6-2.2,4.8-2.6v-0.9H75.8v0.9
		c2,0.3,3.5,1.1,4.5,2.2c0.5,0.6,0.9,1.3,1.1,2.1c0.2,0.8,0.3,2.2,0.3,4.1v23.2c0,2.9-0.4,4.9-1.2,5.9c-1,1.3-2.6,2.2-4.8,2.6v0.9
		h19.4v-0.9c-2.1-0.3-3.8-1.1-4.8-2.2c-0.6-0.7-1-1.4-1.2-2.3c-0.2-0.9-0.3-2.2-0.3-3.9V84l5.5-5.3l9.8,14.8
		c0.7,1.1,1.2,1.9,1.4,2.4c0.2,0.6,0.4,1.2,0.4,1.7C105.9,98.5,105.6,99.1,105,99.5z M103.8,60.3h7.6c-1.9,1.4-3.8,3-5.6,4.8
		c0.1-0.6,0.1-0.9,0.1-1C105.9,62.7,105.2,61.4,103.8,60.3z M89,99.6h-8.9l1.2-0.9c0.7-0.5,1.2-0.9,1.3-1.2c0.2-0.3,0.3-0.8,0.3-1.4
		c0-0.3,0-0.7,0-1v-0.5V65.8v-0.5c0-0.3,0-0.7,0-1c0-0.7-0.1-1.1-0.3-1.4c-0.2-0.3-0.6-0.7-1.3-1.2l-1.7-1.3h10l-1.7,1.3
		c-0.7,0.5-1.1,0.8-1.3,1.2c-0.2,0.3-0.3,0.8-0.3,1.4c0,0.3,0,0.5,0,0.6l0,0.4v0.5v28.7l0,0.5v0.4c0,0.1,0,0.3,0,0.7
		c0,0.6,0.1,1.1,0.3,1.4c0.2,0.3,0.6,0.7,1.3,1.2L89,99.6z M104.9,92.4l-9.7-14.6l2.4-2.4l12,18.2l0.9,1.2l1.8,2.3
		c0.6,0.8,1.5,1.6,2.6,2.4h-8.8c0.8-0.7,1.2-1.5,1.2-2.3c0-0.5-0.2-1.1-0.5-1.7C106.5,95,105.8,93.9,104.9,92.4z"/>
	<path fill-rule="evenodd" clip-rule="evenodd" fill="#74366E" d="M88,27c-0.3,0.2-0.6,0.4-0.9,0.4c-0.3,0-0.5-0.2-0.9-0.4
		c-0.4-0.3-0.9-0.6-1.6-0.6c-2.3,0-4.2,1.9-4.2,4.1c0,0.2,1.2,17.6,4.2,17.6c0.8,0,1.6-0.7,2.5-4.9c0.9,4.2,1.7,4.9,2.5,4.9
		c3,0,4.2-17.4,4.2-17.6c0-2.3-1.9-4.1-4.2-4.1C88.9,26.4,88.4,26.7,88,27z M92.6,30.5c0,6.5-2.3,15.5-3,16.4c-0.2-0.3-1-1.5-1.9-7
		c0-0.3-0.3-0.5-0.6-0.5c-0.3,0-0.5,0.2-0.6,0.5c-0.9,5.5-1.7,6.7-1.9,7c-0.7-0.9-3-9.9-3-16.4c0-1.6,1.3-3,3-3c0.3,0,0.6,0.2,1,0.4
		c0.4,0.3,0.9,0.6,1.5,0.6c0.6,0,1.1-0.3,1.5-0.6c0.3-0.2,0.7-0.4,1-0.4C91.2,27.6,92.6,28.9,92.6,30.5z"/>
	<path fill-rule="evenodd" clip-rule="evenodd" fill="#74366E" d="M118,22.4l2.3-4.5c0,0-17.5-5.2-32.7-5.2c-16,0-32.9,5.2-32.9,5.2
		l3,4.5c0,0,14.7-4.9,29.9-4.9C101.5,17.5,118,22.4,118,22.4z"/>
	<path fill-rule="evenodd" clip-rule="evenodd" fill="#74366E" d="M53,15.4c0,0,16.6-5.5,33.9-5.5c15.7,0,34.5,5.5,34.5,5.5l2.8-5.5
		c0,0-5.7,2.2-12.3,0.9c-6.1-1.2-12.9-2.2-20.6-2.6c-1.5-0.1-4.4-3.8-4.4-3.8s-3.3,3.8-5,3.8c-9.1,0.4-15.8,1.6-22,2.9
		c-5.1,1.1-10.6-1.2-10.6-1.2L53,15.4z"/>
	<path fill-rule="evenodd" clip-rule="evenodd" fill="#74366E" d="M48.1,8.4c0.7,0,1.3-0.6,1.3-1.3c0-0.7-0.6-1.3-1.3-1.3
		c-0.8,0-1.4,0.6-1.4,1.3C46.8,7.8,47.4,8.4,48.1,8.4z"/>
	<path fill-rule="evenodd" clip-rule="evenodd" fill="#74366E" d="M86.8,2.7c0.7,0,1.3-0.6,1.3-1.4S87.5,0,86.8,0
		c-0.8,0-1.4,0.6-1.4,1.4S86,2.7,86.8,2.7z"/>
	<path fill-rule="evenodd" clip-rule="evenodd" fill="#74366E" d="M126.2,8.1c0.8,0,1.4-0.6,1.4-1.4s-0.6-1.3-1.4-1.3
		s-1.3,0.6-1.3,1.3S125.4,8.1,126.2,8.1z"/>
	<path fill-rule="evenodd" clip-rule="evenodd" fill="#74366E" d="M58.7,39.9v0.5h4.4l0.1-2H63c-0.2,0.8-0.4,1.1-1.4,1.1h-2.1
		c3.3-3.2,3.5-3.8,3.5-4.8c0-1-0.6-1.8-2.1-1.8c-1.1,0-2.2,0.5-2.2,1.6c0,0.5,0.2,0.8,0.7,0.8c0.3,0,0.6-0.2,0.6-0.6
		c0-0.2,0-0.4-0.1-0.5h-0.3c-0.1-0.1-0.1-0.2-0.1-0.3c0-0.4,0.5-0.8,1.2-0.8c0.9,0,1.2,0.4,1.2,1.4c0,1-0.2,1.8-1.6,3.4L58.7,39.9z"
		/>
	<path fill-rule="evenodd" clip-rule="evenodd" fill="#74366E" d="M71.4,36.6c0-2.8-1.2-3.8-2.7-3.8c-1.4,0-2.7,1-2.7,3.8
		c0,2.2,0.9,3.8,2.7,3.8C70.1,40.4,71.4,39.4,71.4,36.6z M67.2,36.6c0-2.5,0.5-3.5,1.5-3.5c1,0,1.5,1,1.5,3.5c0,2.5-0.4,3.5-1.5,3.5
		C67.6,40.1,67.2,39.1,67.2,36.6z"/>
	<polygon fill-rule="evenodd" clip-rule="evenodd" fill="#74366E" points="106.9,40 106.9,40.3 110.2,40.3 110.2,40 109.2,40 
		109.2,32.8 108.8,32.8 106.7,33.1 106.8,33.4 108.1,33.3 108.1,40 	"/>
	<path fill-rule="evenodd" clip-rule="evenodd" fill="#74366E" d="M114,39.4c0.1-0.2,0.1-0.3,0.1-0.5c0-0.4-0.3-0.6-0.6-0.6
		c-0.4,0-0.7,0.3-0.7,0.8c0,1,0.9,1.3,2,1.3c1.6,0,2.8-0.8,2.8-2.2c0-1-0.6-1.7-2.1-2c1-0.4,1.7-1,1.7-1.8c0-1-0.8-1.6-2-1.6
		c-1,0-2,0.4-2,1.4c0,0.4,0.2,0.7,0.6,0.7c0.4,0,0.6-0.2,0.6-0.6c0-0.2-0.1-0.3-0.1-0.5h-0.4c0,0,0-0.1,0-0.1c0-0.3,0.4-0.6,1-0.6
		c0.8,0,1.2,0.3,1.2,1.4c0,1.4-0.8,1.7-2,1.8l0,0.3c0.4,0,0.7-0.1,1-0.2c0.6,0.3,1.2,0.7,1.2,1.8c0,1.2-0.5,1.8-1.6,1.8
		c-0.7,0-1.2-0.2-1.2-0.5c0-0.1,0-0.1,0.1-0.2H114z"/>
</g>
</svg>
