<?xml version="1.0" encoding="utf-8"?>
<!-- Generator: Adobe Illustrator 18.1.1, SVG Export Plug-In . SVG Version: 6.00 Build 0)  -->
<!DOCTYPE svg PUBLIC "-//W3C//DTD SVG 1.1//EN" "http://www.w3.org/Graphics/SVG/1.1/DTD/svg11.dtd">
<svg version="1.1" id="Слой_1" xmlns="http://www.w3.org/2000/svg" xmlns:xlink="http://www.w3.org/1999/xlink" x="0px" y="0px"
	 viewBox="0 0 180.2 40.2" enable-background="new 0 0 180.2 40.2" xml:space="preserve">
<g>
	<path fill="#010202" d="M-0.1,0.8c0.2,0,0.4,0,0.6,0c5.3,0,10.6,0,15.8,0c0.4,0,0.6,0.1,0.7,0.5c0.6,2.6,1.2,5.2,1.8,7.8
		c0.7,2.9,1.3,5.8,2,8.7c0.5,2.1,0.9,4.2,1.5,6.3l5.6-23.3h0.4c5.2,0,10.5,0,15.7,0c0.4,0,0.5,0.1,0.5,0.5c0,12.4,0,24.9,0,37.3
		c0,0.4-0.1,0.5-0.5,0.5H33.7c-0.1,0-0.1,0-0.2,0V14.4l-0.1,0l-0.7,2.3L31,23.1l-1.9,6.9l-1.7,6.2c-0.2,0.8-0.4,1.6-0.6,2.3
		c-0.1,0.3-0.2,0.5-0.5,0.5c-2.8,0-5.5,0-8.3,0c-0.1,0-0.1,0-0.1,0l-6.7-24.6l-0.1,0v24.6h-0.5h-10c-0.2,0-0.4,0-0.5,0V0.8z"/>
	<path fill="#010202" d="M153.1,40.2c-0.1,0-0.2-0.1-0.3-0.1c-2.2,0-4.4-0.4-6.4-1.2c-1.6-0.7-3.1-1.6-4.4-2.7
		c-1.7-1.4-2.9-3.2-4-5.1c-0.6-1-1-2.2-1.3-3.3c-0.4-1.2-0.6-2.5-0.9-3.8c-0.1-0.5-0.2-1.1-0.2-1.6c-0.1-1-0.1-2-0.1-3
		c0.1-2.7,0.6-5.4,1.7-8c0.7-1.7,1.7-3.1,2.8-4.5c1.7-2,3.6-3.5,5.9-4.7c1.7-0.9,3.5-1.5,5.3-1.8c0.9-0.2,1.8-0.2,2.7-0.3
		c0.1,0,0.2-0.1,0.3-0.1c0.3,0,2.7,0.2,3,0.2c0.1,0-1.9-0.1-1.7-0.1c0.6,0,1.2,0,1.7,0.1c1.7,0.3,3.4,0.7,5.1,1.3
		c2,0.8,3.7,1.9,5.2,3.4c0.8,0.8,1.5,1.7,2.1,2.6c1,1.4,1.6,3,2.1,4.7c0.2,0.7,0.3,1.3,0.4,2.1h-11c0,0,0,0,0,0l-0.2-0.6
		c-0.6-1.6-1.6-2.7-3.1-3.4c-1.4-0.6-3-0.7-4.5-0.3c-2.1,0.5-3.7,1.8-4.7,3.7c-0.7,1.4-1,3-1.1,4.6c-0.1,1.2,0,2.4,0,3.6
		c0,1.4,0.3,2.8,0.8,4.2c0.6,1.6,1.6,2.8,3.1,3.7c0.9,0.6,1.9,0.9,2.9,1c1,0.1,2,0.2,3,0.1c1.4-0.2,2.7-0.9,3.6-2
		c0.6-0.7,1-1.5,1.2-2.5H157v-8.1h15.7v20.9h-7.4l-0.4-3.7l-0.2-0.1c-0.2,0.2-0.3,0.4-0.5,0.5c-0.8,0.9-1.8,1.6-2.9,2.2
		c-2.1,1.2-4.4,1.8-6.9,1.9c-0.1,0-0.3,0.1-0.4,0.1H153.1z"/>
	<path fill-rule="evenodd" clip-rule="evenodd" fill="#010202" d="M179.4,5.1c0-2.1-1.5-3.3-3.2-3.3c-2.2-0.1-3.5,1.4-3.5,3.4
		c0,1.9,1.3,3.3,3.3,3.3C177.8,8.6,179.5,7,179.4,5.1z M180.1,5.8c-0.1,0.3-0.2,0.6-0.3,0.9c-0.6,1.6-2.3,2.6-3.9,2.5
		c-2.2-0.1-3.8-1.8-3.9-3.9c0-1.1,0.3-2.1,1.1-2.9c0.7-0.8,1.6-1.2,2.7-1.3c1.2-0.1,2.2,0.3,3,1c0.7,0.6,1.1,1.3,1.3,2.2
		c0,0.1,0.1,0.1,0.1,0.2V5.8z"/>
	<path fill-rule="evenodd" clip-rule="evenodd" fill="#010202" d="M122,25.5l-3.6-11.6l-0.1,0l-3.7,11.6H122z M138.1,39.1h-11.9
		l-1.1-3.5c-0.2-0.5-0.3-1-0.4-1.5c-0.1-0.2-0.2-0.3-0.4-0.3c-4,0-8,0-12,0c-0.4,0-0.4,0.2-0.5,0.4c-0.5,1.5-0.9,2.9-1.4,4.4
		c-0.1,0.3-0.2,0.4-0.6,0.4c-9.2,0-18.4,0-27.7,0h-0.5V0.8h11.7v28.4c0.2,0,0.3,0,0.5,0c2.6,0,5.2,0,7.8,0c0.3,0,0.5-0.1,0.6-0.4
		c1.2-3.3,2.4-6.7,3.7-10c0.3-0.8,0.5-1.7,0.8-2.5c1.3-3.5,2.6-6.9,3.8-10.4l1.7-4.7c0.1-0.3,0.2-0.5,0.6-0.4c3.6,0,7.2,0,10.7,0
		c0.3,0,0.5,0,0.6,0.4c0.7,1.8,1.3,3.7,2,5.5l3.4,9.2l3.3,9l3.6,9.7L138.1,39.1z"/>
	<path fill="#010202" d="M59.1,23.8v5.6h0.6H79c0.6,0,0.6,0,0.6,0.6v8.5c0,0.6,0,0.6-0.6,0.6H49.2h-1.8V0.8h0.5
		c10.2,0,20.4,0,30.7,0c0.5,0,0.6,0.1,0.6,0.6c0,2.9,0,5.7,0,8.7H59.1v4.9h18.1v8.9H59.1z"/>
	<path fill-rule="evenodd" clip-rule="evenodd" fill="#010202" d="M175,3.7V5c0.5,0,0.9-0.1,1.3-0.1c0.4,0,0.5-0.3,0.5-0.6
		c0-0.4-0.3-0.5-0.6-0.6C175.8,3.7,175.4,3.7,175,3.7z M175,5.6v1.1c0,0.7,0,0.7-0.7,0.6V3c0.8,0,1.5,0,2.2,0c0.6,0,1,0.4,1.1,1.1
		c0.1,0.4-0.2,0.9-0.7,1.2c-0.1,0.1-0.2,0.1-0.3,0.1l1.3,1.9c-0.9,0.1-0.9,0.2-1.2-0.5c-0.2-0.3-0.4-0.6-0.6-0.9
		C175.8,5.5,175.4,5.5,175,5.6z"/>
</g>
</svg>
