<?xml version="1.0" encoding="utf-8"?>
<!-- Generator: Adobe Illustrator 18.1.1, SVG Export Plug-In . SVG Version: 6.00 Build 0)  -->
<!DOCTYPE svg PUBLIC "-//W3C//DTD SVG 1.1//EN" "http://www.w3.org/Graphics/SVG/1.1/DTD/svg11.dtd">
<svg version="1.1" id="Слой_1" xmlns="http://www.w3.org/2000/svg" xmlns:xlink="http://www.w3.org/1999/xlink" x="0px" y="0px"
	 viewBox="-175.9 393.6 43.2 55.9" enable-background="new -175.9 393.6 43.2 55.9" xml:space="preserve">
<g>
	<path fill="#cb596e" stroke="#cb596e" stroke-width="0.25" stroke-miterlimit="10" d="M-135.5,396.3c-1.6-1.8-3.8-2.7-6.7-2.7
		c-1.7,0-3.5,0.3-5.7,0.9c-2.6,0.7-4.4,1-6.3,1c-2,0-3.7-0.3-6.3-1c-2.2-0.6-4.1-0.9-5.7-0.9c-2.9,0-5.2,0.9-6.7,2.7
		c-2.5,2.8-3.3,7.8-2.5,15.3c2.8,25.2,7.3,38,13.5,38c0.6,0,2.5-0.1,3.7-1.6c1-1.2,1.3-2.9,0.9-5c-1-5-2.1-15.5,0.8-19
		c0.6-0.8,1.4-1.1,2.4-1.1c1,0,1.7,0.4,2.4,1.1c3.6,4.4,1,18.4,0.8,19c-0.4,2.1-0.1,3.8,0.9,5c1.2,1.5,3.2,1.6,3.7,1.6
		c6.3,0,10.7-12.4,13.5-38C-132.1,404.1-133,399.1-135.5,396.3z M-134.8,411.3c-3.5,31.6-8.8,36.4-11.7,36.4c-0.7,0-1.7-0.3-2.3-1
		c-0.6-0.7-0.8-1.9-0.5-3.4c0.3-1.6,2.9-15.6-1.2-20.5c-1-1.2-2.3-1.8-3.8-1.8c-1.5,0-2.8,0.6-3.8,1.8c-4.1,5-1.5,19-1.2,20.5
		c0.3,1.5,0.1,2.7-0.5,3.4c-0.6,0.7-1.6,1-2.3,1c-2.9,0-8.2-4.7-11.7-36.4c-0.7-6.8-0.1-11.5,2.1-13.8c1.2-1.4,2.9-2,5.3-2l0.3,0
		l0,0.3c-0.1,0.6-0.1,1.1-0.1,1.5c0,0.3,0.2,0.5,0.5,0.5c0.3,0,0.5-0.2,0.5-0.5c0-0.5,0.1-1,0.1-1.5l0-0.2l0.2,0
		c1.1,0.1,2.4,0.4,3.7,0.7c2.7,0.7,4.7,1,6.8,1s4.1-0.3,6.8-1c1.4-0.4,2.6-0.6,3.8-0.7l0.2,0l0.1,0.2c0,0.2,0.1,0.4,0.1,0.7
		c0,0.3,0.1,0.6,0.1,0.9c0,0.3,0.2,0.5,0.5,0.5c0.1,0,0.3-0.1,0.4-0.2c0.1-0.1,0.1-0.2,0.1-0.4c0-0.3,0-0.7-0.1-1
		c0-0.1,0-0.2-0.1-0.4l-0.1-0.4h0.3c2.3,0,4,0.7,5.3,2C-134.7,399.8-134,404.5-134.8,411.3z"/>
	<path fill="#cb596e" stroke="#cb596e" stroke-width="0.25" stroke-miterlimit="10" d="M-153.4,408.6c-0.6,0-1.1,0-1.6,0
		c-0.2,0-0.4,0.2-0.4,0.4c0,0.2,0.2,0.4,0.4,0.4c0.6,0,1.1,0,1.7,0c0.1,0,0.2-0.1,0.3-0.1c0.1-0.1,0.1-0.2,0.1-0.3
		C-153,408.7-153.2,408.6-153.4,408.6z"/>
	<path fill="#cb596e" stroke="#cb596e" stroke-width="0.25" stroke-miterlimit="10" d="M-165,400.3c0-0.2-0.2-0.3-0.4-0.3
		c0,0-0.1,0-0.1,0c-0.1,0-0.2,0.1-0.2,0.2c-0.1,0.1-0.1,0.2,0,0.3c0.1,0.6,0.3,1.1,0.6,1.6c0.1,0.2,0.3,0.3,0.5,0.2
		c0.1,0,0.2-0.1,0.2-0.2c0-0.1,0-0.2,0-0.3C-164.7,401.3-164.8,400.8-165,400.3z"/>
	<path fill="#cb596e" stroke="#cb596e" stroke-width="0.25" stroke-miterlimit="10" d="M-162.9,404.4c-0.1-0.1-0.2-0.2-0.3-0.2
		c-0.1,0-0.2,0-0.2,0.1c-0.2,0.1-0.2,0.4-0.1,0.6c0.4,0.5,0.7,0.9,1.2,1.3c0.2,0.1,0.4,0.1,0.6,0c0.2-0.2,0.1-0.4,0-0.6
		C-162.2,405.2-162.6,404.8-162.9,404.4z"/>
	<path fill="#cb596e" stroke="#cb596e" stroke-width="0.25" stroke-miterlimit="10" d="M-157.9,408c-0.5-0.2-1-0.4-1.5-0.7
		c-0.1,0-0.1,0-0.2,0c-0.1,0-0.3,0.1-0.4,0.2c-0.1,0.2,0,0.4,0.2,0.5c0.5,0.3,1,0.5,1.6,0.7c0.2,0.1,0.4,0,0.5-0.2
		C-157.6,408.3-157.7,408-157.9,408z"/>
	<path fill="#cb596e" stroke="#cb596e" stroke-width="0.25" stroke-miterlimit="10" d="M-143,400c0,0-0.1,0-0.1,0
		c-0.2,0-0.3,0.1-0.4,0.3c-0.1,0.5-0.3,1-0.5,1.5c-0.1,0.2,0,0.4,0.2,0.5c0.2,0.1,0.4,0,0.5-0.2c0.2-0.5,0.4-1.1,0.6-1.6
		C-142.6,400.2-142.8,400-143,400z"/>
	<path fill="#cb596e" stroke="#cb596e" stroke-width="0.25" stroke-miterlimit="10" d="M-148.8,407.3c-0.1,0-0.1,0-0.2,0
		c-0.5,0.2-1,0.5-1.5,0.7c-0.1,0-0.2,0.1-0.2,0.2c0,0.1-0.1,0.2,0,0.3c0.1,0.2,0.3,0.3,0.5,0.2c0.5-0.2,1.1-0.4,1.6-0.7
		c0.1-0.1,0.2-0.1,0.2-0.2c0-0.1,0-0.2,0-0.3C-148.5,407.3-148.7,407.3-148.8,407.3z"/>
	<path fill="#cb596e" stroke="#cb596e" stroke-width="0.25" stroke-miterlimit="10" d="M-145.2,404.2c-0.1,0-0.2,0.1-0.3,0.2
		c-0.3,0.4-0.7,0.8-1.1,1.2c-0.2,0.2-0.2,0.4,0,0.6c0.1,0.2,0.4,0.2,0.6,0c0.4-0.4,0.8-0.8,1.2-1.3c0.1-0.2,0.1-0.4-0.1-0.6
		C-145,404.2-145.1,404.2-145.2,404.2z"/>
</g>
</svg>
