<?xml version="1.0" encoding="utf-8"?>
<!-- Generator: Adobe Illustrator 18.1.1, SVG Export Plug-In . SVG Version: 6.00 Build 0)  -->
<!DOCTYPE svg PUBLIC "-//W3C//DTD SVG 1.1//EN" "http://www.w3.org/Graphics/SVG/1.1/DTD/svg11.dtd">
<svg version="1.1" id="Слой_1" xmlns="http://www.w3.org/2000/svg" xmlns:xlink="http://www.w3.org/1999/xlink" x="0px" y="0px"
	 viewBox="-190.9 396.5 71.8 49.4" enable-background="new -190.9 396.5 71.8 49.4" xml:space="preserve">
<g>
	<path fill="#cb596e" stroke="#cb596e" stroke-width="0.25" stroke-miterlimit="10" d="M-144.3,396.5c-1.5,0-3.1,0.2-5.1,0.8
		c-2.3,0.6-3.8,0.8-5.5,0.8c-1.7,0-3.2-0.2-5.5-0.8c-1.9-0.5-3.6-0.8-5.1-0.8c-2.6,0-4.6,0.8-6.1,2.4c-2.2,2.5-3,6.9-2.3,13.5
		c3.7,33.5,10,33.5,12.1,33.5c1.4,0,2.6-0.6,3.4-1.5c0.9-1.1,1.2-2.6,0.8-4.5c-1.2-6.1-1.5-13.8,0.7-16.5c0.5-0.6,1.1-0.9,1.9-0.9
		c0.8,0,1.4,0.3,1.9,0.9c2.2,2.6,1.9,10.4,0.7,16.5c-0.4,1.9-0.1,3.4,0.8,4.5c0.8,0.9,2.1,1.5,3.4,1.5c2.1,0,8.4,0,12.1-33.5
		c0.7-6.6,0-11-2.3-13.5C-139.7,397.4-141.7,396.5-144.3,396.5z M-138.1,412.3c-3.1,28.6-8.1,31.7-10,31.7c-0.3,0-1.2-0.1-1.8-0.8
		c-0.5-0.6-0.6-1.5-0.4-2.8c0.4-2.3,2.5-13.8-1.1-18.2c-0.9-1.1-2.1-1.7-3.5-1.7s-2.6,0.6-3.5,1.7c-3.6,4.4-1.6,15.9-1.1,18.2
		c0.2,1.3,0.1,2.2-0.4,2.8c-0.6,0.7-1.6,0.8-1.8,0.8c-2,0-6.9-3.1-10-31.7c-0.6-5.9-0.1-9.9,1.7-11.9c1.7-1.9,4.5-2.2,9.1-1
		c2.4,0.6,4.2,0.9,6,0.9c1.9,0,3.6-0.3,6-0.9c4.5-1.2,7.4-0.9,9.1,1C-138,402.3-137.4,406.4-138.1,412.3z"/>
	<path fill="#cb596e" stroke="#cb596e" stroke-width="0.25" stroke-miterlimit="10" d="M-180.2,416.2c0-0.3-0.2-0.5-0.5-0.5h-9.7
		c-0.3,0-0.5,0.2-0.5,0.5c0,0.3,0.2,0.5,0.5,0.5h9.7C-180.4,416.7-180.2,416.4-180.2,416.2z"/>
	<path fill="#cb596e" stroke="#cb596e" stroke-width="0.25" stroke-miterlimit="10" d="M-179.6,408.5l-7.4-2.7c-0.1,0-0.1,0-0.2,0
		c-0.2,0-0.4,0.1-0.5,0.3c-0.1,0.3,0,0.6,0.3,0.7l7.4,2.7c0.3,0.1,0.6,0,0.7-0.3C-179.2,408.9-179.4,408.6-179.6,408.5z"/>
	<path fill="#cb596e" stroke="#cb596e" stroke-width="0.25" stroke-miterlimit="10" d="M-179.8,423c-0.1,0-0.1,0-0.2,0l-6.9,2.5
		c-0.3,0.1-0.4,0.4-0.3,0.7c0.1,0.3,0.4,0.4,0.7,0.3l6.9-2.5c0.3-0.1,0.4-0.4,0.3-0.7C-179.4,423.1-179.6,423-179.8,423z"/>
	<path fill="#cb596e" stroke="#cb596e" stroke-width="0.25" stroke-miterlimit="10" d="M-119.6,415.7h-9.7c-0.3,0-0.5,0.2-0.5,0.5
		s0.2,0.5,0.5,0.5h9.7c0.3,0,0.5-0.2,0.5-0.5S-119.3,415.7-119.6,415.7z"/>
	<path fill="#cb596e" stroke="#cb596e" stroke-width="0.25" stroke-miterlimit="10" d="M-130,409.4l7.4-2.7c0.3-0.1,0.4-0.4,0.3-0.7
		c-0.1-0.2-0.3-0.3-0.5-0.3c-0.1,0-0.1,0-0.2,0l-7.4,2.7c-0.3,0.1-0.4,0.4-0.3,0.7C-130.5,409.4-130.2,409.5-130,409.4z"/>
	<path fill="#cb596e" stroke="#cb596e" stroke-width="0.25" stroke-miterlimit="10" d="M-123.1,425.5l-6.9-2.5c-0.1,0-0.1,0-0.2,0
		c-0.2,0-0.4,0.1-0.5,0.3c-0.1,0.3,0,0.6,0.3,0.7l6.9,2.5c0.3,0.1,0.6,0,0.7-0.3C-122.7,425.9-122.8,425.6-123.1,425.5z"/>
</g>
</svg>
