<?xml version="1.0" encoding="utf-8"?>
<!-- Generator: Adobe Illustrator 18.1.1, SVG Export Plug-In . SVG Version: 6.00 Build 0)  -->
<!DOCTYPE svg PUBLIC "-//W3C//DTD SVG 1.1//EN" "http://www.w3.org/Graphics/SVG/1.1/DTD/svg11.dtd">
<svg version="1.1" id="Слой_1" xmlns="http://www.w3.org/2000/svg" xmlns:xlink="http://www.w3.org/1999/xlink" x="0px" y="0px"
	 viewBox="-188.6 385.4 68.7 72" enable-background="new -188.6 385.4 68.7 72" xml:space="preserve">
<path fill="#cb596e" d="M-120.7,396.1l-5.6-5.6c-1-1-2.7-1-3.7,0l-2,2l-4.2-4.2l0.1-0.3c0.1-0.2,0.1-0.4,0.1-0.6
	c0-1.1-0.9-1.9-1.9-1.9c-1.1,0-1.9,0.9-1.9,1.9c0,1.1,0.9,1.9,1.9,1.9c0.2,0,0.4,0,0.6-0.1l0.3-0.1l4.2,4.2l-1.9,1.9
	c-0.5,0.5-0.8,1.1-0.8,1.8c0,0.2,0,0.5,0.1,0.7l0.1,0.3l-12,12l-0.3-0.1c-0.2-0.1-0.5-0.1-0.7-0.1c-0.7,0-1.3,0.3-1.8,0.8
	l-18.5,18.5c-0.5,0.5-0.8,1.1-0.8,1.8c0,0.2,0,0.5,0.1,0.7l0.1,0.3l-18.7,18.7c-0.5,0.5-0.8,1.2-0.8,1.8c0,0.7,0.3,1.3,0.8,1.8
	l2.4,2.4c1,1,2.7,1,3.7,0l18.7-18.7l0.3,0.1c0.9,0.3,1.9,0,2.6-0.7l18.5-18.5c0.7-0.7,0.9-1.7,0.7-2.6l-0.1-0.3l11.9-11.9l0.4,0.3
	c1,0.9,2.6,0.8,3.6-0.1l4.6-4.6C-119.7,398.7-119.7,397.1-120.7,396.1z M-183.4,456l-3.6-3.7l19.3-19.3l3.6,3.7L-183.4,456z
	 M-161.5,436.9l-6.5-6.6l9.3-9.3l3.4,3.4c0.2,0.2,0.5,0.2,0.7,0c0.2-0.2,0.2-0.5,0-0.7l-3.4-3.4l2.6-2.6l3.4,3.4
	c0.2,0.2,0.5,0.2,0.7,0c0.1-0.1,0.2-0.2,0.2-0.4c0-0.1-0.1-0.3-0.2-0.4l-3.4-3.4l2.6-2.6l3.4,3.4c0.2,0.2,0.5,0.2,0.7,0
	c0.2-0.2,0.2-0.5,0-0.7l-3.4-3.4l2.5-2.5l6.6,6.7L-161.5,436.9z M-142.5,415.1l-3.8-3.8l12.4-12.4l3.8,3.8L-142.5,415.1z
	 M-126.9,403.6l-6.9-6.9l5.6-5.7l6.9,6.9L-126.9,403.6z"/>
</svg>
