<?xml version="1.0" encoding="utf-8"?>
<!-- Generator: Adobe Illustrator 18.1.1, SVG Export Plug-In . SVG Version: 6.00 Build 0)  -->
<!DOCTYPE svg PUBLIC "-//W3C//DTD SVG 1.1//EN" "http://www.w3.org/Graphics/SVG/1.1/DTD/svg11.dtd">
<svg version="1.1" id="Слой_1" xmlns="http://www.w3.org/2000/svg" xmlns:xlink="http://www.w3.org/1999/xlink" x="0px" y="0px"
	 viewBox="-189.8 393.8 71.1 55.7" enable-background="new -189.8 393.8 71.1 55.7" xml:space="preserve">
<g>
	<path fill="#231F20" d="M-121.4,393.8h-65.9c-1.4,0-2.6,1.2-2.6,2.6v50.6c0,1.4,1.2,2.6,2.6,2.6h65.9c1.4,0,2.6-1.2,2.6-2.6v-50.6
		C-118.8,394.9-119.9,393.8-121.4,393.8z M-121.5,447.8h-65.6c-0.6,0-1.1-0.5-1.1-1.1v-50.1c0-0.6,0.5-1.1,1.1-1.1h65.6
		c0.6,0,1.1,0.5,1.1,1.1v50.1C-120.4,447.3-120.9,447.8-121.5,447.8z"/>
	<path fill="#231F20" d="M-149.8,439.6c1.3,0,5.4,0,7.8-21.9c0.1-0.6,0.1-1.1,0.1-1.6l0-0.2l7.4-6.1l0.3,0.3c0.8,0.6,1.8,1,2.8,1
		c2.5,0,4.5-2,4.5-4.5c0-2.5-2-4.5-4.5-4.5c-2.5,0-4.5,2-4.5,4.5c0,0.7,0.2,1.4,0.5,2l0.2,0.4l-6.7,5.5l-0.1-1
		c-0.1-2.1-0.7-3.6-1.6-4.6c-1.4-1.6-3.8-1.9-7.2-1c-1.5,0.4-2.5,0.6-3.7,0.6c-1.1,0-2.2-0.2-3.7-0.6c-3.4-0.9-5.7-0.6-7.2,1
		c-1.4,1.6-1.9,4.5-1.4,8.8c0.1,1.1,0.2,2.2,0.4,3.2l0,0.4l-7.3,3.7l-0.3-0.3c-0.9-1.1-2.1-1.7-3.4-1.7c-2.5,0-4.5,2-4.5,4.5
		c0,2.5,2,4.5,4.5,4.5c2.5,0,4.5-2,4.5-4.5c0-0.3-0.1-0.7-0.2-1.1l-0.1-0.4l7-3.6l0.1,0.7c2.4,16.6,6,16.6,7.1,16.6
		c0.9,0,1.6-0.4,2.1-0.9c0.6-0.7,0.7-1.6,0.5-2.9c-0.8-4.1-1-9.2,0.5-11c0.4-0.4,0.8-0.7,1.4-0.7c0.6,0,1,0.2,1.4,0.7
		c1.5,1.8,1.3,6.9,0.5,11c-0.2,1.2-0.1,2.2,0.5,2.9C-151.5,439.3-150.7,439.6-149.8,439.6z M-131.4,403.2c1.9,0,3.4,1.5,3.4,3.4
		c0,1.9-1.5,3.4-3.4,3.4c-0.6,0-1.2-0.2-1.7-0.5l-0.7-0.4l2.7-2.2c0.1-0.1,0.2-0.2,0.2-0.3c0-0.1,0-0.3-0.1-0.4
		c-0.2-0.2-0.4-0.3-0.7-0.1l-2.7,2.2l-0.2-0.7c-0.1-0.4-0.2-0.7-0.2-1.1C-134.8,404.7-133.3,403.2-131.4,403.2z M-177.2,430.9
		c-1.9,0-3.4-1.5-3.4-3.4c0-1.9,1.5-3.4,3.4-3.4c0.8,0,1.7,0.3,2.3,0.9l0.6,0.5l-3.1,1.6c-0.3,0.1-0.4,0.4-0.2,0.7
		c0.1,0.2,0.4,0.4,0.7,0.2l3.1-1.6l0.1,0.8c0,0.2,0,0.3,0,0.4C-173.8,429.3-175.3,430.9-177.2,430.9z M-152.1,424.2
		c-0.6-0.7-1.3-1-2.2-1c-0.9,0-1.6,0.4-2.2,1c-1.8,2.2-1.5,7.7-0.7,11.8c0.2,0.9,0.1,1.6-0.3,2c-0.4,0.5-1.1,0.6-1.3,0.6
		c-1.2,0-4.1-1.6-6.2-16.4l-0.1-0.4l9.4-4.8l0.3,0.2c0.3,0.2,0.7,0.4,1.1,0.4c1,0,1.8-0.8,1.8-1.8s-0.8-1.8-1.8-1.8
		c-1,0-1.8,0.8-1.8,1.8v0.3l-0.3,0.2l-8.8,4.5l-0.1-0.7c-0.1-0.8-0.2-1.6-0.3-2.4c-0.4-4,0-6.6,1.2-8c1.2-1.3,3.1-1.5,6.1-0.7
		c3.2,0.8,4.7,0.8,7.9,0c3-0.8,5-0.6,6.1,0.7c1,1.1,1.4,2.9,1.4,5.6l0,0.2l-4.3,3.6l-0.3-0.1c-0.2-0.1-0.5-0.2-0.7-0.2
		c-1,0-1.8,0.8-1.8,1.8c0,1,0.8,1.8,1.8,1.8c1,0,1.8-0.8,1.8-1.8c0-0.1,0-0.3-0.1-0.4l-0.1-0.3l3.6-3l-0.1,1.3
		c-2.1,18.6-5.4,20.6-6.7,20.6c-0.2,0-0.9,0-1.3-0.6c-0.4-0.4-0.4-1.1-0.3-2C-150.6,431.9-150.3,426.4-152.1,424.2z"/>
	<path fill="#231F20" d="M-181.2,402.8c-0.3,0-0.5,0.2-0.5,0.5s0.2,0.5,0.5,0.5h11.1c0.3,0,0.5-0.2,0.5-0.5s-0.2-0.5-0.5-0.5H-181.2
		z"/>
	<path fill="#231F20" d="M-181.2,407.8c-0.3,0-0.5,0.2-0.5,0.5c0,0.3,0.2,0.5,0.5,0.5h7.5c0.3,0,0.5-0.2,0.5-0.5
		c0-0.3-0.2-0.5-0.5-0.5H-181.2z"/>
	<path fill="#231F20" d="M-126.9,441.5c0.3,0,0.5-0.2,0.5-0.5s-0.2-0.5-0.5-0.5h-7.5c-0.3,0-0.5,0.2-0.5,0.5s0.2,0.5,0.5,0.5H-126.9
		z"/>
	<path fill="#231F20" d="M-126.9,436.6c0.3,0,0.5-0.2,0.5-0.5s-0.2-0.5-0.5-0.5h-4.5c-0.3,0-0.5,0.2-0.5,0.5s0.2,0.5,0.5,0.5H-126.9
		z"/>
	<path fill="#231F20" d="M-136,436.6c0.3,0,0.5-0.2,0.5-0.5s-0.2-0.5-0.5-0.5h-1.4c-0.3,0-0.5,0.2-0.5,0.5s0.2,0.5,0.5,0.5H-136z"/>
</g>
</svg>
