<?xml version="1.0" encoding="utf-8"?>
<!-- Generator: Adobe Illustrator 18.1.1, SVG Export Plug-In . SVG Version: 6.00 Build 0)  -->
<!DOCTYPE svg PUBLIC "-//W3C//DTD SVG 1.1//EN" "http://www.w3.org/Graphics/SVG/1.1/DTD/svg11.dtd">
<svg version="1.1" id="Слой_1" xmlns="http://www.w3.org/2000/svg" xmlns:xlink="http://www.w3.org/1999/xlink" x="0px" y="0px"
	 viewBox="-183.8 388.1 57.6 68.6" enable-background="new -183.8 388.1 57.6 68.6" xml:space="preserve">
<path fill="#231F20" d="M-132.8,391.2c-3.8-2.9-9-3.8-14.6-2.5c-3.1,0.8-5.3,1.1-7.6,1.1s-4.5-0.3-7.6-1.1
	c-5.5-1.4-10.8-0.5-14.6,2.5c-4.3,3.4-6.6,9.1-6.6,16.3c0,15.7,10.4,34.1,19.6,34.6l2,0.1l-1.9,0.8c-0.2,0.1-0.3,0.3-0.3,0.5
	c0,0.2,0.2,0.4,0.5,0.4l1-0.1l0.4,5.9l-1.3,0.2c-0.1,0-0.2,0.1-0.3,0.2c-0.1,0.1-0.1,0.2-0.1,0.4c0,0.2,0.2,0.4,0.5,0.4l1.2-0.2
	l0.2,3.7c0.1,1.3,1.2,2.3,2.5,2.3h9.3c1.3,0,2.4-1,2.5-2.3l0.3-5.7l1-0.1c0.3,0,0.5-0.3,0.4-0.6c0-0.2-0.2-0.4-0.5-0.4l-0.9,0.1
	l0.3-5.6c0,0,1,0.1,1.2,0.1c9.3,0,19.9-18.4,19.9-34.6C-126.2,400.3-128.5,394.5-132.8,391.2z M-148.3,427l-2.8,0.4
	c-0.3,0-0.5,0.3-0.4,0.6c0,0.2,0.2,0.4,0.5,0.4l2.7-0.4l-0.4,5.9l-2.2,0.3c-0.3,0-0.5,0.3-0.4,0.6c0,0.2,0.2,0.4,0.5,0.4l2.1-0.3
	l-0.4,5.9l-1.7,0.2c-0.3,0-0.5,0.3-0.4,0.6c0,0.2,0.2,0.4,0.5,0.4l1.5-0.2l-0.4,5.9l-1.3,0.2c-0.3,0-0.5,0.3-0.4,0.6
	c0,0.2,0.2,0.4,0.5,0.4l1.2-0.2l-0.4,5.8h-10.2l-0.3-4.3l5.6-0.8c0.3,0,0.5-0.3,0.4-0.6c0-0.2-0.2-0.4-0.5-0.4l-0.1,0l-5.5,0.8
	l-0.4-5.9l6-0.8c0.1,0,0.2-0.1,0.3-0.2s0.1-0.2,0.1-0.4c0-0.2-0.2-0.4-0.5-0.4l-6,0.8l-0.4-5.8l6.4-0.9c0.1,0,0.2-0.1,0.3-0.2
	c0.1-0.1,0.1-0.2,0.1-0.4c0-0.2-0.2-0.4-0.5-0.4l-6.4,0.9l-0.4-5.8l6.8-0.9c0.1,0,0.2-0.1,0.3-0.2c0.1-0.1,0.1-0.2,0.1-0.4
	c0-0.2-0.2-0.4-0.5-0.4l-6.8,0.9l-0.5-7.7h14.3L-148.3,427z M-162.1,420.2l2.1-3.4h9.8l2.1,3.4H-162.1z M-146.1,440.1
	c-0.1,0-1.1,0-1.1,0l0.3-5.4l1.1-0.1c0.3,0,0.5-0.3,0.4-0.6c0-0.3-0.3-0.5-0.6-0.4l-0.9,0.1l0.4-5.9l1-0.1c0.3,0,0.5-0.3,0.4-0.6
	c0-0.2-0.2-0.4-0.5-0.4l-0.9,0.1l0.4-6c0-0.5-0.1-1-0.4-1.4l-2.1-3.4c-0.4-0.7-1.3-1.2-2.1-1.2h-9.3c-0.9,0-1.7,0.5-2.1,1.2
	l-2.1,3.4c-0.3,0.4-0.4,0.9-0.4,1.4l0.5,8.4l-0.7,0.1c-0.1,0-0.2,0.1-0.3,0.2c-0.1,0.1-0.1,0.2-0.1,0.4c0,0.2,0.2,0.4,0.5,0.4
	l0.7-0.1l0.4,5.8l-0.8,0.1c-0.3,0-0.5,0.3-0.4,0.6c0,0.2,0.2,0.4,0.5,0.4l0.8-0.1l0.2,3.3c0,0-0.7,0-0.8,0c-7.4,0-18-17-18-32.8
	c0-6.6,2.1-11.8,5.9-14.8c3.3-2.6,7.8-3.4,12.9-2.1c3.3,0.8,5.6,1.1,8.1,1.1s4.8-0.3,8.1-1.1c5-1.2,9.5-0.5,12.9,2.1
	c3.8,3,5.9,8.2,5.9,14.8C-128.1,423.2-138.7,440.1-146.1,440.1z"/>
</svg>
